G04 #@! TF.GenerationSoftware,KiCad,Pcbnew,5.1.0*
G04 #@! TF.CreationDate,2019-04-26T16:24:25+02:00*
G04 #@! TF.ProjectId,Dew-Sensor-Lid,4465772d-5365-46e7-936f-722d4c69642e,rev?*
G04 #@! TF.SameCoordinates,Original*
G04 #@! TF.FileFunction,Legend,Top*
G04 #@! TF.FilePolarity,Positive*
%FSLAX46Y46*%
G04 Gerber Fmt 4.6, Leading zero omitted, Abs format (unit mm)*
G04 Created by KiCad (PCBNEW 5.1.0) date 2019-04-26 16:24:25*
%MOMM*%
%LPD*%
G04 APERTURE LIST*
%ADD10C,0.300000*%
G04 APERTURE END LIST*
D10*
X111261904Y-107904761D02*
X111261904Y-105904761D01*
X111738095Y-105904761D01*
X112023809Y-106000000D01*
X112214285Y-106190476D01*
X112309523Y-106380952D01*
X112404761Y-106761904D01*
X112404761Y-107047619D01*
X112309523Y-107428571D01*
X112214285Y-107619047D01*
X112023809Y-107809523D01*
X111738095Y-107904761D01*
X111261904Y-107904761D01*
X113261904Y-106857142D02*
X113928571Y-106857142D01*
X114214285Y-107904761D02*
X113261904Y-107904761D01*
X113261904Y-105904761D01*
X114214285Y-105904761D01*
X114880952Y-105904761D02*
X115357142Y-107904761D01*
X115738095Y-106476190D01*
X116119047Y-107904761D01*
X116595238Y-105904761D01*
X118785714Y-107809523D02*
X119071428Y-107904761D01*
X119547619Y-107904761D01*
X119738095Y-107809523D01*
X119833333Y-107714285D01*
X119928571Y-107523809D01*
X119928571Y-107333333D01*
X119833333Y-107142857D01*
X119738095Y-107047619D01*
X119547619Y-106952380D01*
X119166666Y-106857142D01*
X118976190Y-106761904D01*
X118880952Y-106666666D01*
X118785714Y-106476190D01*
X118785714Y-106285714D01*
X118880952Y-106095238D01*
X118976190Y-106000000D01*
X119166666Y-105904761D01*
X119642857Y-105904761D01*
X119928571Y-106000000D01*
X120785714Y-106857142D02*
X121452380Y-106857142D01*
X121738095Y-107904761D02*
X120785714Y-107904761D01*
X120785714Y-105904761D01*
X121738095Y-105904761D01*
X122595238Y-107904761D02*
X122595238Y-105904761D01*
X123738095Y-107904761D01*
X123738095Y-105904761D01*
X124595238Y-107809523D02*
X124880952Y-107904761D01*
X125357142Y-107904761D01*
X125547619Y-107809523D01*
X125642857Y-107714285D01*
X125738095Y-107523809D01*
X125738095Y-107333333D01*
X125642857Y-107142857D01*
X125547619Y-107047619D01*
X125357142Y-106952380D01*
X124976190Y-106857142D01*
X124785714Y-106761904D01*
X124690476Y-106666666D01*
X124595238Y-106476190D01*
X124595238Y-106285714D01*
X124690476Y-106095238D01*
X124785714Y-106000000D01*
X124976190Y-105904761D01*
X125452380Y-105904761D01*
X125738095Y-106000000D01*
X126976190Y-105904761D02*
X127357142Y-105904761D01*
X127547619Y-106000000D01*
X127738095Y-106190476D01*
X127833333Y-106571428D01*
X127833333Y-107238095D01*
X127738095Y-107619047D01*
X127547619Y-107809523D01*
X127357142Y-107904761D01*
X126976190Y-107904761D01*
X126785714Y-107809523D01*
X126595238Y-107619047D01*
X126500000Y-107238095D01*
X126500000Y-106571428D01*
X126595238Y-106190476D01*
X126785714Y-106000000D01*
X126976190Y-105904761D01*
X129833333Y-107904761D02*
X129166666Y-106952380D01*
X128690476Y-107904761D02*
X128690476Y-105904761D01*
X129452380Y-105904761D01*
X129642857Y-106000000D01*
X129738095Y-106095238D01*
X129833333Y-106285714D01*
X129833333Y-106571428D01*
X129738095Y-106761904D01*
X129642857Y-106857142D01*
X129452380Y-106952380D01*
X128690476Y-106952380D01*
M02*
