G04 #@! TF.GenerationSoftware,KiCad,Pcbnew,5.1.0*
G04 #@! TF.CreationDate,2019-04-26T16:24:25+02:00*
G04 #@! TF.ProjectId,Dew-Sensor-Lid,4465772d-5365-46e7-936f-722d4c69642e,rev?*
G04 #@! TF.SameCoordinates,Original*
G04 #@! TF.FileFunction,Soldermask,Top*
G04 #@! TF.FilePolarity,Negative*
%FSLAX46Y46*%
G04 Gerber Fmt 4.6, Leading zero omitted, Abs format (unit mm)*
G04 Created by KiCad (PCBNEW 5.1.0) date 2019-04-26 16:24:25*
%MOMM*%
%LPD*%
G04 APERTURE LIST*
%ADD10C,0.100000*%
G04 APERTURE END LIST*
D10*
G36*
X136275331Y-104068211D02*
G01*
X136603092Y-104203974D01*
X136898070Y-104401072D01*
X137148928Y-104651930D01*
X137346026Y-104946908D01*
X137481789Y-105274669D01*
X137551000Y-105622616D01*
X137551000Y-105977384D01*
X137481789Y-106325331D01*
X137346026Y-106653092D01*
X137148928Y-106948070D01*
X136898070Y-107198928D01*
X136603092Y-107396026D01*
X136275331Y-107531789D01*
X135927384Y-107601000D01*
X135572616Y-107601000D01*
X135224669Y-107531789D01*
X134896908Y-107396026D01*
X134601930Y-107198928D01*
X134351072Y-106948070D01*
X134153974Y-106653092D01*
X134018211Y-106325331D01*
X133949000Y-105977384D01*
X133949000Y-105622616D01*
X134018211Y-105274669D01*
X134153974Y-104946908D01*
X134351072Y-104651930D01*
X134601930Y-104401072D01*
X134896908Y-104203974D01*
X135224669Y-104068211D01*
X135572616Y-103999000D01*
X135927384Y-103999000D01*
X136275331Y-104068211D01*
X136275331Y-104068211D01*
G37*
G36*
X136162227Y-97205386D02*
G01*
X136197369Y-97216046D01*
X136313217Y-97251188D01*
X136408170Y-97301942D01*
X136452369Y-97325567D01*
X136452371Y-97325568D01*
X136452370Y-97325568D01*
X136574337Y-97425663D01*
X136674432Y-97547630D01*
X136748812Y-97686783D01*
X136794614Y-97837774D01*
X136810079Y-97994796D01*
X136794614Y-98151818D01*
X136748812Y-98302809D01*
X136698058Y-98397762D01*
X136674433Y-98441961D01*
X136599417Y-98533368D01*
X130533367Y-104599417D01*
X130441961Y-104674433D01*
X130351279Y-104722903D01*
X130302809Y-104748811D01*
X130227313Y-104771712D01*
X130151818Y-104794613D01*
X129994796Y-104810079D01*
X129837774Y-104794613D01*
X129762279Y-104771712D01*
X129686783Y-104748811D01*
X129638313Y-104722903D01*
X129547631Y-104674433D01*
X129504391Y-104638946D01*
X129425663Y-104574337D01*
X129361054Y-104495609D01*
X129325567Y-104452369D01*
X129277097Y-104361687D01*
X129251189Y-104313217D01*
X129205387Y-104162225D01*
X129189921Y-104005204D01*
X129205387Y-103848182D01*
X129251189Y-103697192D01*
X129251189Y-103697191D01*
X129277097Y-103648721D01*
X129325567Y-103558039D01*
X129400583Y-103466633D01*
X135466632Y-97400583D01*
X135558039Y-97325567D01*
X135602238Y-97301942D01*
X135697191Y-97251188D01*
X135813039Y-97216046D01*
X135848181Y-97205386D01*
X136005204Y-97189921D01*
X136162227Y-97205386D01*
X136162227Y-97205386D01*
G37*
G36*
X127162227Y-97205386D02*
G01*
X127197369Y-97216046D01*
X127313217Y-97251188D01*
X127408170Y-97301942D01*
X127452369Y-97325567D01*
X127452371Y-97325568D01*
X127452370Y-97325568D01*
X127574337Y-97425663D01*
X127674432Y-97547630D01*
X127748812Y-97686783D01*
X127794614Y-97837774D01*
X127810079Y-97994796D01*
X127794614Y-98151818D01*
X127748812Y-98302809D01*
X127698058Y-98397762D01*
X127674433Y-98441961D01*
X127599417Y-98533368D01*
X121533367Y-104599417D01*
X121441961Y-104674433D01*
X121351279Y-104722903D01*
X121302809Y-104748811D01*
X121227313Y-104771712D01*
X121151818Y-104794613D01*
X120994796Y-104810079D01*
X120837774Y-104794613D01*
X120762279Y-104771712D01*
X120686783Y-104748811D01*
X120638313Y-104722903D01*
X120547631Y-104674433D01*
X120504391Y-104638946D01*
X120425663Y-104574337D01*
X120361054Y-104495609D01*
X120325567Y-104452369D01*
X120277097Y-104361687D01*
X120251189Y-104313217D01*
X120205387Y-104162225D01*
X120189921Y-104005204D01*
X120205387Y-103848182D01*
X120251189Y-103697192D01*
X120251189Y-103697191D01*
X120277097Y-103648721D01*
X120325567Y-103558039D01*
X120400583Y-103466633D01*
X126466632Y-97400583D01*
X126558039Y-97325567D01*
X126602238Y-97301942D01*
X126697191Y-97251188D01*
X126813039Y-97216046D01*
X126848181Y-97205386D01*
X127005204Y-97189921D01*
X127162227Y-97205386D01*
X127162227Y-97205386D01*
G37*
G36*
X118162227Y-97205386D02*
G01*
X118197369Y-97216046D01*
X118313217Y-97251188D01*
X118408170Y-97301942D01*
X118452369Y-97325567D01*
X118452371Y-97325568D01*
X118452370Y-97325568D01*
X118574337Y-97425663D01*
X118674432Y-97547630D01*
X118748812Y-97686783D01*
X118794614Y-97837774D01*
X118810079Y-97994796D01*
X118794614Y-98151818D01*
X118748812Y-98302809D01*
X118698058Y-98397762D01*
X118674433Y-98441961D01*
X118599417Y-98533368D01*
X112533367Y-104599417D01*
X112441961Y-104674433D01*
X112351279Y-104722903D01*
X112302809Y-104748811D01*
X112227313Y-104771712D01*
X112151818Y-104794613D01*
X111994796Y-104810079D01*
X111837774Y-104794613D01*
X111762279Y-104771712D01*
X111686783Y-104748811D01*
X111638313Y-104722903D01*
X111547631Y-104674433D01*
X111504391Y-104638946D01*
X111425663Y-104574337D01*
X111361054Y-104495609D01*
X111325567Y-104452369D01*
X111277097Y-104361687D01*
X111251189Y-104313217D01*
X111205387Y-104162225D01*
X111189921Y-104005204D01*
X111205387Y-103848182D01*
X111251189Y-103697192D01*
X111251189Y-103697191D01*
X111277097Y-103648721D01*
X111325567Y-103558039D01*
X111400583Y-103466633D01*
X117466632Y-97400583D01*
X117558039Y-97325567D01*
X117602238Y-97301942D01*
X117697191Y-97251188D01*
X117813039Y-97216046D01*
X117848181Y-97205386D01*
X118005204Y-97189921D01*
X118162227Y-97205386D01*
X118162227Y-97205386D01*
G37*
G36*
X136162227Y-93205386D02*
G01*
X136197369Y-93216046D01*
X136313217Y-93251188D01*
X136408170Y-93301942D01*
X136452369Y-93325567D01*
X136452371Y-93325568D01*
X136452370Y-93325568D01*
X136574337Y-93425663D01*
X136674432Y-93547630D01*
X136748812Y-93686783D01*
X136794614Y-93837774D01*
X136810079Y-93994796D01*
X136794614Y-94151818D01*
X136748812Y-94302809D01*
X136698058Y-94397762D01*
X136674433Y-94441961D01*
X136599417Y-94533368D01*
X130533367Y-100599417D01*
X130441961Y-100674433D01*
X130351279Y-100722903D01*
X130302809Y-100748811D01*
X130227313Y-100771712D01*
X130151818Y-100794613D01*
X129994796Y-100810079D01*
X129837774Y-100794613D01*
X129762279Y-100771712D01*
X129686783Y-100748811D01*
X129638313Y-100722903D01*
X129547631Y-100674433D01*
X129504391Y-100638946D01*
X129425663Y-100574337D01*
X129361054Y-100495609D01*
X129325567Y-100452369D01*
X129277097Y-100361687D01*
X129251189Y-100313217D01*
X129205387Y-100162225D01*
X129189921Y-100005204D01*
X129205387Y-99848182D01*
X129251189Y-99697192D01*
X129251189Y-99697191D01*
X129277097Y-99648721D01*
X129325567Y-99558039D01*
X129400583Y-99466633D01*
X135466632Y-93400583D01*
X135558039Y-93325567D01*
X135602238Y-93301942D01*
X135697191Y-93251188D01*
X135813039Y-93216046D01*
X135848181Y-93205386D01*
X136005204Y-93189921D01*
X136162227Y-93205386D01*
X136162227Y-93205386D01*
G37*
G36*
X127162227Y-93205386D02*
G01*
X127197369Y-93216046D01*
X127313217Y-93251188D01*
X127408170Y-93301942D01*
X127452369Y-93325567D01*
X127452371Y-93325568D01*
X127452370Y-93325568D01*
X127574337Y-93425663D01*
X127674432Y-93547630D01*
X127748812Y-93686783D01*
X127794614Y-93837774D01*
X127810079Y-93994796D01*
X127794614Y-94151818D01*
X127748812Y-94302809D01*
X127698058Y-94397762D01*
X127674433Y-94441961D01*
X127599417Y-94533368D01*
X121533367Y-100599417D01*
X121441961Y-100674433D01*
X121351279Y-100722903D01*
X121302809Y-100748811D01*
X121227313Y-100771712D01*
X121151818Y-100794613D01*
X120994796Y-100810079D01*
X120837774Y-100794613D01*
X120762279Y-100771712D01*
X120686783Y-100748811D01*
X120638313Y-100722903D01*
X120547631Y-100674433D01*
X120504391Y-100638946D01*
X120425663Y-100574337D01*
X120361054Y-100495609D01*
X120325567Y-100452369D01*
X120277097Y-100361687D01*
X120251189Y-100313217D01*
X120205387Y-100162225D01*
X120189921Y-100005204D01*
X120205387Y-99848182D01*
X120251189Y-99697192D01*
X120251189Y-99697191D01*
X120277097Y-99648721D01*
X120325567Y-99558039D01*
X120400583Y-99466633D01*
X126466632Y-93400583D01*
X126558039Y-93325567D01*
X126602238Y-93301942D01*
X126697191Y-93251188D01*
X126813039Y-93216046D01*
X126848181Y-93205386D01*
X127005204Y-93189921D01*
X127162227Y-93205386D01*
X127162227Y-93205386D01*
G37*
G36*
X118162227Y-93205386D02*
G01*
X118197369Y-93216046D01*
X118313217Y-93251188D01*
X118408170Y-93301942D01*
X118452369Y-93325567D01*
X118452371Y-93325568D01*
X118452370Y-93325568D01*
X118574337Y-93425663D01*
X118674432Y-93547630D01*
X118748812Y-93686783D01*
X118794614Y-93837774D01*
X118810079Y-93994796D01*
X118794614Y-94151818D01*
X118748812Y-94302809D01*
X118698058Y-94397762D01*
X118674433Y-94441961D01*
X118599417Y-94533368D01*
X112533367Y-100599417D01*
X112441961Y-100674433D01*
X112351279Y-100722903D01*
X112302809Y-100748811D01*
X112227313Y-100771712D01*
X112151818Y-100794613D01*
X111994796Y-100810079D01*
X111837774Y-100794613D01*
X111762279Y-100771712D01*
X111686783Y-100748811D01*
X111638313Y-100722903D01*
X111547631Y-100674433D01*
X111504391Y-100638946D01*
X111425663Y-100574337D01*
X111361054Y-100495609D01*
X111325567Y-100452369D01*
X111277097Y-100361687D01*
X111251189Y-100313217D01*
X111205387Y-100162225D01*
X111189921Y-100005204D01*
X111205387Y-99848182D01*
X111251189Y-99697192D01*
X111251189Y-99697191D01*
X111277097Y-99648721D01*
X111325567Y-99558039D01*
X111400583Y-99466633D01*
X117466632Y-93400583D01*
X117558039Y-93325567D01*
X117602238Y-93301942D01*
X117697191Y-93251188D01*
X117813039Y-93216046D01*
X117848181Y-93205386D01*
X118005204Y-93189921D01*
X118162227Y-93205386D01*
X118162227Y-93205386D01*
G37*
G36*
X127162227Y-89205386D02*
G01*
X127197369Y-89216046D01*
X127313217Y-89251188D01*
X127408170Y-89301942D01*
X127452369Y-89325567D01*
X127452371Y-89325568D01*
X127452370Y-89325568D01*
X127574337Y-89425663D01*
X127674432Y-89547630D01*
X127748812Y-89686783D01*
X127794614Y-89837774D01*
X127810079Y-89994796D01*
X127794614Y-90151818D01*
X127748812Y-90302809D01*
X127698058Y-90397762D01*
X127674433Y-90441961D01*
X127599417Y-90533368D01*
X121533367Y-96599417D01*
X121441961Y-96674433D01*
X121351279Y-96722903D01*
X121302809Y-96748811D01*
X121227313Y-96771712D01*
X121151818Y-96794613D01*
X120994796Y-96810079D01*
X120837774Y-96794613D01*
X120762279Y-96771712D01*
X120686783Y-96748811D01*
X120638313Y-96722903D01*
X120547631Y-96674433D01*
X120504391Y-96638946D01*
X120425663Y-96574337D01*
X120361054Y-96495609D01*
X120325567Y-96452369D01*
X120277097Y-96361687D01*
X120251189Y-96313217D01*
X120205387Y-96162225D01*
X120189921Y-96005204D01*
X120205387Y-95848182D01*
X120251189Y-95697192D01*
X120251189Y-95697191D01*
X120277097Y-95648721D01*
X120325567Y-95558039D01*
X120400583Y-95466633D01*
X126466632Y-89400583D01*
X126558039Y-89325567D01*
X126602238Y-89301942D01*
X126697191Y-89251188D01*
X126813039Y-89216046D01*
X126848181Y-89205386D01*
X127005204Y-89189921D01*
X127162227Y-89205386D01*
X127162227Y-89205386D01*
G37*
G36*
X118162227Y-89205386D02*
G01*
X118197369Y-89216046D01*
X118313217Y-89251188D01*
X118408170Y-89301942D01*
X118452369Y-89325567D01*
X118452371Y-89325568D01*
X118452370Y-89325568D01*
X118574337Y-89425663D01*
X118674432Y-89547630D01*
X118748812Y-89686783D01*
X118794614Y-89837774D01*
X118810079Y-89994796D01*
X118794614Y-90151818D01*
X118748812Y-90302809D01*
X118698058Y-90397762D01*
X118674433Y-90441961D01*
X118599417Y-90533368D01*
X112533367Y-96599417D01*
X112441961Y-96674433D01*
X112351279Y-96722903D01*
X112302809Y-96748811D01*
X112227313Y-96771712D01*
X112151818Y-96794613D01*
X111994796Y-96810079D01*
X111837774Y-96794613D01*
X111762279Y-96771712D01*
X111686783Y-96748811D01*
X111638313Y-96722903D01*
X111547631Y-96674433D01*
X111504391Y-96638946D01*
X111425663Y-96574337D01*
X111361054Y-96495609D01*
X111325567Y-96452369D01*
X111277097Y-96361687D01*
X111251189Y-96313217D01*
X111205387Y-96162225D01*
X111189921Y-96005204D01*
X111205387Y-95848182D01*
X111251189Y-95697192D01*
X111251189Y-95697191D01*
X111277097Y-95648721D01*
X111325567Y-95558039D01*
X111400583Y-95466633D01*
X117466632Y-89400583D01*
X117558039Y-89325567D01*
X117602238Y-89301942D01*
X117697191Y-89251188D01*
X117813039Y-89216046D01*
X117848181Y-89205386D01*
X118005204Y-89189921D01*
X118162227Y-89205386D01*
X118162227Y-89205386D01*
G37*
G36*
X136162227Y-89205386D02*
G01*
X136197369Y-89216046D01*
X136313217Y-89251188D01*
X136408170Y-89301942D01*
X136452369Y-89325567D01*
X136452371Y-89325568D01*
X136452370Y-89325568D01*
X136574337Y-89425663D01*
X136674432Y-89547630D01*
X136748812Y-89686783D01*
X136794614Y-89837774D01*
X136810079Y-89994796D01*
X136794614Y-90151818D01*
X136748812Y-90302809D01*
X136698058Y-90397762D01*
X136674433Y-90441961D01*
X136599417Y-90533368D01*
X130533367Y-96599417D01*
X130441961Y-96674433D01*
X130351279Y-96722903D01*
X130302809Y-96748811D01*
X130227313Y-96771712D01*
X130151818Y-96794613D01*
X129994796Y-96810079D01*
X129837774Y-96794613D01*
X129762279Y-96771712D01*
X129686783Y-96748811D01*
X129638313Y-96722903D01*
X129547631Y-96674433D01*
X129504391Y-96638946D01*
X129425663Y-96574337D01*
X129361054Y-96495609D01*
X129325567Y-96452369D01*
X129277097Y-96361687D01*
X129251189Y-96313217D01*
X129205387Y-96162225D01*
X129189921Y-96005204D01*
X129205387Y-95848182D01*
X129251189Y-95697192D01*
X129251189Y-95697191D01*
X129277097Y-95648721D01*
X129325567Y-95558039D01*
X129400583Y-95466633D01*
X135466632Y-89400583D01*
X135558039Y-89325567D01*
X135602238Y-89301942D01*
X135697191Y-89251188D01*
X135813039Y-89216046D01*
X135848181Y-89205386D01*
X136005204Y-89189921D01*
X136162227Y-89205386D01*
X136162227Y-89205386D01*
G37*
G36*
X118162227Y-85205386D02*
G01*
X118197369Y-85216046D01*
X118313217Y-85251188D01*
X118408170Y-85301942D01*
X118452369Y-85325567D01*
X118452371Y-85325568D01*
X118452370Y-85325568D01*
X118574337Y-85425663D01*
X118674432Y-85547630D01*
X118748812Y-85686783D01*
X118794614Y-85837774D01*
X118810079Y-85994796D01*
X118794614Y-86151818D01*
X118748812Y-86302809D01*
X118698058Y-86397762D01*
X118674433Y-86441961D01*
X118599417Y-86533368D01*
X112533367Y-92599417D01*
X112441961Y-92674433D01*
X112351279Y-92722903D01*
X112302809Y-92748811D01*
X112227313Y-92771712D01*
X112151818Y-92794613D01*
X111994796Y-92810079D01*
X111837774Y-92794613D01*
X111762279Y-92771712D01*
X111686783Y-92748811D01*
X111638313Y-92722903D01*
X111547631Y-92674433D01*
X111504391Y-92638946D01*
X111425663Y-92574337D01*
X111361054Y-92495609D01*
X111325567Y-92452369D01*
X111277097Y-92361687D01*
X111251189Y-92313217D01*
X111205387Y-92162225D01*
X111189921Y-92005204D01*
X111205387Y-91848182D01*
X111251189Y-91697192D01*
X111251189Y-91697191D01*
X111277097Y-91648721D01*
X111325567Y-91558039D01*
X111400583Y-91466633D01*
X117466632Y-85400583D01*
X117558039Y-85325567D01*
X117602238Y-85301942D01*
X117697191Y-85251188D01*
X117813039Y-85216046D01*
X117848181Y-85205386D01*
X118005204Y-85189921D01*
X118162227Y-85205386D01*
X118162227Y-85205386D01*
G37*
G36*
X127162227Y-85205386D02*
G01*
X127197369Y-85216046D01*
X127313217Y-85251188D01*
X127408170Y-85301942D01*
X127452369Y-85325567D01*
X127452371Y-85325568D01*
X127452370Y-85325568D01*
X127574337Y-85425663D01*
X127674432Y-85547630D01*
X127748812Y-85686783D01*
X127794614Y-85837774D01*
X127810079Y-85994796D01*
X127794614Y-86151818D01*
X127748812Y-86302809D01*
X127698058Y-86397762D01*
X127674433Y-86441961D01*
X127599417Y-86533368D01*
X121533367Y-92599417D01*
X121441961Y-92674433D01*
X121351279Y-92722903D01*
X121302809Y-92748811D01*
X121227313Y-92771712D01*
X121151818Y-92794613D01*
X120994796Y-92810079D01*
X120837774Y-92794613D01*
X120762279Y-92771712D01*
X120686783Y-92748811D01*
X120638313Y-92722903D01*
X120547631Y-92674433D01*
X120504391Y-92638946D01*
X120425663Y-92574337D01*
X120361054Y-92495609D01*
X120325567Y-92452369D01*
X120277097Y-92361687D01*
X120251189Y-92313217D01*
X120205387Y-92162225D01*
X120189921Y-92005204D01*
X120205387Y-91848182D01*
X120251189Y-91697192D01*
X120251189Y-91697191D01*
X120277097Y-91648721D01*
X120325567Y-91558039D01*
X120400583Y-91466633D01*
X126466632Y-85400583D01*
X126558039Y-85325567D01*
X126602238Y-85301942D01*
X126697191Y-85251188D01*
X126813039Y-85216046D01*
X126848181Y-85205386D01*
X127005204Y-85189921D01*
X127162227Y-85205386D01*
X127162227Y-85205386D01*
G37*
G36*
X136162227Y-85205386D02*
G01*
X136197369Y-85216046D01*
X136313217Y-85251188D01*
X136408170Y-85301942D01*
X136452369Y-85325567D01*
X136452371Y-85325568D01*
X136452370Y-85325568D01*
X136574337Y-85425663D01*
X136674432Y-85547630D01*
X136748812Y-85686783D01*
X136794614Y-85837774D01*
X136810079Y-85994796D01*
X136794614Y-86151818D01*
X136748812Y-86302809D01*
X136698058Y-86397762D01*
X136674433Y-86441961D01*
X136599417Y-86533368D01*
X130533367Y-92599417D01*
X130441961Y-92674433D01*
X130351279Y-92722903D01*
X130302809Y-92748811D01*
X130227313Y-92771712D01*
X130151818Y-92794613D01*
X129994796Y-92810079D01*
X129837774Y-92794613D01*
X129762279Y-92771712D01*
X129686783Y-92748811D01*
X129638313Y-92722903D01*
X129547631Y-92674433D01*
X129504391Y-92638946D01*
X129425663Y-92574337D01*
X129361054Y-92495609D01*
X129325567Y-92452369D01*
X129277097Y-92361687D01*
X129251189Y-92313217D01*
X129205387Y-92162225D01*
X129189921Y-92005204D01*
X129205387Y-91848182D01*
X129251189Y-91697192D01*
X129251189Y-91697191D01*
X129277097Y-91648721D01*
X129325567Y-91558039D01*
X129400583Y-91466633D01*
X135466632Y-85400583D01*
X135558039Y-85325567D01*
X135602238Y-85301942D01*
X135697191Y-85251188D01*
X135813039Y-85216046D01*
X135848181Y-85205386D01*
X136005204Y-85189921D01*
X136162227Y-85205386D01*
X136162227Y-85205386D01*
G37*
G36*
X118162227Y-81205386D02*
G01*
X118197369Y-81216046D01*
X118313217Y-81251188D01*
X118408170Y-81301942D01*
X118452369Y-81325567D01*
X118452371Y-81325568D01*
X118452370Y-81325568D01*
X118574337Y-81425663D01*
X118674432Y-81547630D01*
X118748812Y-81686783D01*
X118794614Y-81837774D01*
X118810079Y-81994796D01*
X118794614Y-82151818D01*
X118748812Y-82302809D01*
X118698058Y-82397762D01*
X118674433Y-82441961D01*
X118599417Y-82533368D01*
X112533367Y-88599417D01*
X112441961Y-88674433D01*
X112351279Y-88722903D01*
X112302809Y-88748811D01*
X112227313Y-88771712D01*
X112151818Y-88794613D01*
X111994796Y-88810079D01*
X111837774Y-88794613D01*
X111762279Y-88771712D01*
X111686783Y-88748811D01*
X111638313Y-88722903D01*
X111547631Y-88674433D01*
X111504391Y-88638946D01*
X111425663Y-88574337D01*
X111361054Y-88495609D01*
X111325567Y-88452369D01*
X111277097Y-88361687D01*
X111251189Y-88313217D01*
X111205387Y-88162225D01*
X111189921Y-88005204D01*
X111205387Y-87848182D01*
X111251189Y-87697192D01*
X111251189Y-87697191D01*
X111277097Y-87648721D01*
X111325567Y-87558039D01*
X111400583Y-87466633D01*
X117466632Y-81400583D01*
X117558039Y-81325567D01*
X117602238Y-81301942D01*
X117697191Y-81251188D01*
X117813039Y-81216046D01*
X117848181Y-81205386D01*
X118005204Y-81189921D01*
X118162227Y-81205386D01*
X118162227Y-81205386D01*
G37*
G36*
X127162227Y-81205386D02*
G01*
X127197369Y-81216046D01*
X127313217Y-81251188D01*
X127408170Y-81301942D01*
X127452369Y-81325567D01*
X127452371Y-81325568D01*
X127452370Y-81325568D01*
X127574337Y-81425663D01*
X127674432Y-81547630D01*
X127748812Y-81686783D01*
X127794614Y-81837774D01*
X127810079Y-81994796D01*
X127794614Y-82151818D01*
X127748812Y-82302809D01*
X127698058Y-82397762D01*
X127674433Y-82441961D01*
X127599417Y-82533368D01*
X121533367Y-88599417D01*
X121441961Y-88674433D01*
X121351279Y-88722903D01*
X121302809Y-88748811D01*
X121227313Y-88771712D01*
X121151818Y-88794613D01*
X120994796Y-88810079D01*
X120837774Y-88794613D01*
X120762279Y-88771712D01*
X120686783Y-88748811D01*
X120638313Y-88722903D01*
X120547631Y-88674433D01*
X120504391Y-88638946D01*
X120425663Y-88574337D01*
X120361054Y-88495609D01*
X120325567Y-88452369D01*
X120277097Y-88361687D01*
X120251189Y-88313217D01*
X120205387Y-88162225D01*
X120189921Y-88005204D01*
X120205387Y-87848182D01*
X120251189Y-87697192D01*
X120251189Y-87697191D01*
X120277097Y-87648721D01*
X120325567Y-87558039D01*
X120400583Y-87466633D01*
X126466632Y-81400583D01*
X126558039Y-81325567D01*
X126602238Y-81301942D01*
X126697191Y-81251188D01*
X126813039Y-81216046D01*
X126848181Y-81205386D01*
X127005204Y-81189921D01*
X127162227Y-81205386D01*
X127162227Y-81205386D01*
G37*
G36*
X136162227Y-81205386D02*
G01*
X136197369Y-81216046D01*
X136313217Y-81251188D01*
X136408170Y-81301942D01*
X136452369Y-81325567D01*
X136452371Y-81325568D01*
X136452370Y-81325568D01*
X136574337Y-81425663D01*
X136674432Y-81547630D01*
X136748812Y-81686783D01*
X136794614Y-81837774D01*
X136810079Y-81994796D01*
X136794614Y-82151818D01*
X136748812Y-82302809D01*
X136698058Y-82397762D01*
X136674433Y-82441961D01*
X136599417Y-82533368D01*
X130533367Y-88599417D01*
X130441961Y-88674433D01*
X130351279Y-88722903D01*
X130302809Y-88748811D01*
X130227313Y-88771712D01*
X130151818Y-88794613D01*
X129994796Y-88810079D01*
X129837774Y-88794613D01*
X129762279Y-88771712D01*
X129686783Y-88748811D01*
X129638313Y-88722903D01*
X129547631Y-88674433D01*
X129504391Y-88638946D01*
X129425663Y-88574337D01*
X129361054Y-88495609D01*
X129325567Y-88452369D01*
X129277097Y-88361687D01*
X129251189Y-88313217D01*
X129205387Y-88162225D01*
X129189921Y-88005204D01*
X129205387Y-87848182D01*
X129251189Y-87697192D01*
X129251189Y-87697191D01*
X129277097Y-87648721D01*
X129325567Y-87558039D01*
X129400583Y-87466633D01*
X135466632Y-81400583D01*
X135558039Y-81325567D01*
X135602238Y-81301942D01*
X135697191Y-81251188D01*
X135813039Y-81216046D01*
X135848181Y-81205386D01*
X136005204Y-81189921D01*
X136162227Y-81205386D01*
X136162227Y-81205386D01*
G37*
G36*
X112775331Y-80568211D02*
G01*
X113103092Y-80703974D01*
X113398070Y-80901072D01*
X113648928Y-81151930D01*
X113846026Y-81446908D01*
X113981789Y-81774669D01*
X114051000Y-82122616D01*
X114051000Y-82477384D01*
X113981789Y-82825331D01*
X113846026Y-83153092D01*
X113648928Y-83448070D01*
X113398070Y-83698928D01*
X113103092Y-83896026D01*
X112775331Y-84031789D01*
X112427384Y-84101000D01*
X112072616Y-84101000D01*
X111724669Y-84031789D01*
X111396908Y-83896026D01*
X111101930Y-83698928D01*
X110851072Y-83448070D01*
X110653974Y-83153092D01*
X110518211Y-82825331D01*
X110449000Y-82477384D01*
X110449000Y-82122616D01*
X110518211Y-81774669D01*
X110653974Y-81446908D01*
X110851072Y-81151930D01*
X111101930Y-80901072D01*
X111396908Y-80703974D01*
X111724669Y-80568211D01*
X112072616Y-80499000D01*
X112427384Y-80499000D01*
X112775331Y-80568211D01*
X112775331Y-80568211D01*
G37*
M02*
