M48
; DRILL file {KiCad 5.1.0} date 26.04.2019 15:43:14
; FORMAT={-:-/ absolute / metric / decimal}
; #@! TF.CreationDate,2019-04-26T15:43:14+02:00
; #@! TF.GenerationSoftware,Kicad,Pcbnew,5.1.0
; #@! TF.FileFunction,NonPlated,1,2,NPTH
FMAT,2
METRIC
T1C1.500
T2C3.500
%
G90
G05
T2
X135.75Y-105.8
X112.25Y-82.3
T1
G00X136.005Y-93.995
M15
G01X129.995Y-100.005
M16
G05
G00X136.005Y-89.995
M15
G01X129.995Y-96.005
M16
G05
G00X136.005Y-97.995
M15
G01X129.995Y-104.005
M16
G05
G00X127.005Y-81.995
M15
G01X120.995Y-88.005
M16
G05
G00X136.005Y-81.995
M15
G01X129.995Y-88.005
M16
G05
G00X136.005Y-85.995
M15
G01X129.995Y-92.005
M16
G05
G00X118.005Y-97.995
M15
G01X111.995Y-104.005
M16
G05
G00X118.005Y-85.995
M15
G01X111.995Y-92.005
M16
G05
G00X118.005Y-93.995
M15
G01X111.995Y-100.005
M16
G05
G00X127.005Y-97.995
M15
G01X120.995Y-104.005
M16
G05
G00X127.005Y-89.995
M15
G01X120.995Y-96.005
M16
G05
G00X127.005Y-85.995
M15
G01X120.995Y-92.005
M16
G05
G00X127.005Y-93.995
M15
G01X120.995Y-100.005
M16
G05
G00X118.005Y-89.995
M15
G01X111.995Y-96.005
M16
G05
G00X118.005Y-81.995
M15
G01X111.995Y-88.005
M16
G05
T0
M30
