G04 #@! TF.GenerationSoftware,KiCad,Pcbnew,(5.1.2)-1*
G04 #@! TF.CreationDate,2019-05-26T15:49:40+02:00*
G04 #@! TF.ProjectId,Dew Sensor,44657720-5365-46e7-936f-722e6b696361,rev?*
G04 #@! TF.SameCoordinates,Original*
G04 #@! TF.FileFunction,Legend,Bot*
G04 #@! TF.FilePolarity,Positive*
%FSLAX46Y46*%
G04 Gerber Fmt 4.6, Leading zero omitted, Abs format (unit mm)*
G04 Created by KiCad (PCBNEW (5.1.2)-1) date 2019-05-26 15:49:40*
%MOMM*%
%LPD*%
G04 APERTURE LIST*
%ADD10C,0.120000*%
%ADD11C,0.150000*%
G04 APERTURE END LIST*
D10*
X202290000Y-117491422D02*
X202290000Y-118008578D01*
X203710000Y-117491422D02*
X203710000Y-118008578D01*
X201710000Y-117491422D02*
X201710000Y-118008578D01*
X200290000Y-117491422D02*
X200290000Y-118008578D01*
X203529000Y-126623578D02*
X203529000Y-126106422D01*
X202109000Y-126623578D02*
X202109000Y-126106422D01*
X205815000Y-119756422D02*
X205815000Y-120273578D01*
X204395000Y-119756422D02*
X204395000Y-120273578D01*
X205815000Y-124083578D02*
X205815000Y-123566422D01*
X204395000Y-124083578D02*
X204395000Y-123566422D01*
X208241422Y-131290000D02*
X208758578Y-131290000D01*
X208241422Y-132710000D02*
X208758578Y-132710000D01*
X215975000Y-127893578D02*
X215975000Y-127376422D01*
X214555000Y-127893578D02*
X214555000Y-127376422D01*
X204395000Y-127766578D02*
X204395000Y-127249422D01*
X205815000Y-127766578D02*
X205815000Y-127249422D01*
X195623922Y-129592000D02*
X196141078Y-129592000D01*
X195623922Y-131012000D02*
X196141078Y-131012000D01*
X208758578Y-138210000D02*
X208241422Y-138210000D01*
X208758578Y-136790000D02*
X208241422Y-136790000D01*
D11*
X195410000Y-128885000D02*
X194035000Y-128885000D01*
X195410000Y-120010000D02*
X199560000Y-120010000D01*
X195410000Y-128910000D02*
X199560000Y-128910000D01*
X195410000Y-120010000D02*
X195410000Y-120125000D01*
X199560000Y-120010000D02*
X199560000Y-120125000D01*
X199560000Y-128910000D02*
X199560000Y-128795000D01*
X195410000Y-128910000D02*
X195410000Y-128885000D01*
X208110000Y-128900000D02*
X208110000Y-128875000D01*
X212260000Y-128900000D02*
X212260000Y-128795000D01*
X212260000Y-118750000D02*
X212260000Y-118855000D01*
X208110000Y-118750000D02*
X208110000Y-118855000D01*
X208110000Y-128900000D02*
X212260000Y-128900000D01*
X208110000Y-118750000D02*
X212260000Y-118750000D01*
X208110000Y-128875000D02*
X206735000Y-128875000D01*
D10*
X209260000Y-133170000D02*
X209260000Y-134100000D01*
X209260000Y-136330000D02*
X209260000Y-135400000D01*
X209260000Y-136330000D02*
X207100000Y-136330000D01*
X209260000Y-133170000D02*
X207800000Y-133170000D01*
D11*
X204916666Y-117452380D02*
X205250000Y-116976190D01*
X205488095Y-117452380D02*
X205488095Y-116452380D01*
X205107142Y-116452380D01*
X205011904Y-116500000D01*
X204964285Y-116547619D01*
X204916666Y-116642857D01*
X204916666Y-116785714D01*
X204964285Y-116880952D01*
X205011904Y-116928571D01*
X205107142Y-116976190D01*
X205488095Y-116976190D01*
X203964285Y-117452380D02*
X204535714Y-117452380D01*
X204250000Y-117452380D02*
X204250000Y-116452380D01*
X204345238Y-116595238D01*
X204440476Y-116690476D01*
X204535714Y-116738095D01*
X199166666Y-117452380D02*
X199500000Y-116976190D01*
X199738095Y-117452380D02*
X199738095Y-116452380D01*
X199357142Y-116452380D01*
X199261904Y-116500000D01*
X199214285Y-116547619D01*
X199166666Y-116642857D01*
X199166666Y-116785714D01*
X199214285Y-116880952D01*
X199261904Y-116928571D01*
X199357142Y-116976190D01*
X199738095Y-116976190D01*
X198785714Y-116547619D02*
X198738095Y-116500000D01*
X198642857Y-116452380D01*
X198404761Y-116452380D01*
X198309523Y-116500000D01*
X198261904Y-116547619D01*
X198214285Y-116642857D01*
X198214285Y-116738095D01*
X198261904Y-116880952D01*
X198833333Y-117452380D01*
X198214285Y-117452380D01*
X202916666Y-129357142D02*
X202964285Y-129404761D01*
X203107142Y-129452380D01*
X203202380Y-129452380D01*
X203345238Y-129404761D01*
X203440476Y-129309523D01*
X203488095Y-129214285D01*
X203535714Y-129023809D01*
X203535714Y-128880952D01*
X203488095Y-128690476D01*
X203440476Y-128595238D01*
X203345238Y-128500000D01*
X203202380Y-128452380D01*
X203107142Y-128452380D01*
X202964285Y-128500000D01*
X202916666Y-128547619D01*
X202535714Y-128547619D02*
X202488095Y-128500000D01*
X202392857Y-128452380D01*
X202154761Y-128452380D01*
X202059523Y-128500000D01*
X202011904Y-128547619D01*
X201964285Y-128642857D01*
X201964285Y-128738095D01*
X202011904Y-128880952D01*
X202583333Y-129452380D01*
X201964285Y-129452380D01*
X203416666Y-121857142D02*
X203464285Y-121904761D01*
X203607142Y-121952380D01*
X203702380Y-121952380D01*
X203845238Y-121904761D01*
X203940476Y-121809523D01*
X203988095Y-121714285D01*
X204035714Y-121523809D01*
X204035714Y-121380952D01*
X203988095Y-121190476D01*
X203940476Y-121095238D01*
X203845238Y-121000000D01*
X203702380Y-120952380D01*
X203607142Y-120952380D01*
X203464285Y-121000000D01*
X203416666Y-121047619D01*
X203083333Y-120952380D02*
X202464285Y-120952380D01*
X202797619Y-121333333D01*
X202654761Y-121333333D01*
X202559523Y-121380952D01*
X202511904Y-121428571D01*
X202464285Y-121523809D01*
X202464285Y-121761904D01*
X202511904Y-121857142D01*
X202559523Y-121904761D01*
X202654761Y-121952380D01*
X202940476Y-121952380D01*
X203035714Y-121904761D01*
X203083333Y-121857142D01*
X203416666Y-123357142D02*
X203464285Y-123404761D01*
X203607142Y-123452380D01*
X203702380Y-123452380D01*
X203845238Y-123404761D01*
X203940476Y-123309523D01*
X203988095Y-123214285D01*
X204035714Y-123023809D01*
X204035714Y-122880952D01*
X203988095Y-122690476D01*
X203940476Y-122595238D01*
X203845238Y-122500000D01*
X203702380Y-122452380D01*
X203607142Y-122452380D01*
X203464285Y-122500000D01*
X203416666Y-122547619D01*
X202559523Y-122785714D02*
X202559523Y-123452380D01*
X202797619Y-122404761D02*
X203035714Y-123119047D01*
X202416666Y-123119047D01*
X208666666Y-130857142D02*
X208714285Y-130904761D01*
X208857142Y-130952380D01*
X208952380Y-130952380D01*
X209095238Y-130904761D01*
X209190476Y-130809523D01*
X209238095Y-130714285D01*
X209285714Y-130523809D01*
X209285714Y-130380952D01*
X209238095Y-130190476D01*
X209190476Y-130095238D01*
X209095238Y-130000000D01*
X208952380Y-129952380D01*
X208857142Y-129952380D01*
X208714285Y-130000000D01*
X208666666Y-130047619D01*
X207761904Y-129952380D02*
X208238095Y-129952380D01*
X208285714Y-130428571D01*
X208238095Y-130380952D01*
X208142857Y-130333333D01*
X207904761Y-130333333D01*
X207809523Y-130380952D01*
X207761904Y-130428571D01*
X207714285Y-130523809D01*
X207714285Y-130761904D01*
X207761904Y-130857142D01*
X207809523Y-130904761D01*
X207904761Y-130952380D01*
X208142857Y-130952380D01*
X208238095Y-130904761D01*
X208285714Y-130857142D01*
X215416666Y-130607142D02*
X215464285Y-130654761D01*
X215607142Y-130702380D01*
X215702380Y-130702380D01*
X215845238Y-130654761D01*
X215940476Y-130559523D01*
X215988095Y-130464285D01*
X216035714Y-130273809D01*
X216035714Y-130130952D01*
X215988095Y-129940476D01*
X215940476Y-129845238D01*
X215845238Y-129750000D01*
X215702380Y-129702380D01*
X215607142Y-129702380D01*
X215464285Y-129750000D01*
X215416666Y-129797619D01*
X214559523Y-129702380D02*
X214750000Y-129702380D01*
X214845238Y-129750000D01*
X214892857Y-129797619D01*
X214988095Y-129940476D01*
X215035714Y-130130952D01*
X215035714Y-130511904D01*
X214988095Y-130607142D01*
X214940476Y-130654761D01*
X214845238Y-130702380D01*
X214654761Y-130702380D01*
X214559523Y-130654761D01*
X214511904Y-130607142D01*
X214464285Y-130511904D01*
X214464285Y-130273809D01*
X214511904Y-130178571D01*
X214559523Y-130130952D01*
X214654761Y-130083333D01*
X214845238Y-130083333D01*
X214940476Y-130130952D01*
X214988095Y-130178571D01*
X215035714Y-130273809D01*
X205416666Y-130357142D02*
X205464285Y-130404761D01*
X205607142Y-130452380D01*
X205702380Y-130452380D01*
X205845238Y-130404761D01*
X205940476Y-130309523D01*
X205988095Y-130214285D01*
X206035714Y-130023809D01*
X206035714Y-129880952D01*
X205988095Y-129690476D01*
X205940476Y-129595238D01*
X205845238Y-129500000D01*
X205702380Y-129452380D01*
X205607142Y-129452380D01*
X205464285Y-129500000D01*
X205416666Y-129547619D01*
X205083333Y-129452380D02*
X204416666Y-129452380D01*
X204845238Y-130452380D01*
X196166666Y-132357142D02*
X196214285Y-132404761D01*
X196357142Y-132452380D01*
X196452380Y-132452380D01*
X196595238Y-132404761D01*
X196690476Y-132309523D01*
X196738095Y-132214285D01*
X196785714Y-132023809D01*
X196785714Y-131880952D01*
X196738095Y-131690476D01*
X196690476Y-131595238D01*
X196595238Y-131500000D01*
X196452380Y-131452380D01*
X196357142Y-131452380D01*
X196214285Y-131500000D01*
X196166666Y-131547619D01*
X195595238Y-131880952D02*
X195690476Y-131833333D01*
X195738095Y-131785714D01*
X195785714Y-131690476D01*
X195785714Y-131642857D01*
X195738095Y-131547619D01*
X195690476Y-131500000D01*
X195595238Y-131452380D01*
X195404761Y-131452380D01*
X195309523Y-131500000D01*
X195261904Y-131547619D01*
X195214285Y-131642857D01*
X195214285Y-131690476D01*
X195261904Y-131785714D01*
X195309523Y-131833333D01*
X195404761Y-131880952D01*
X195595238Y-131880952D01*
X195690476Y-131928571D01*
X195738095Y-131976190D01*
X195785714Y-132071428D01*
X195785714Y-132261904D01*
X195738095Y-132357142D01*
X195690476Y-132404761D01*
X195595238Y-132452380D01*
X195404761Y-132452380D01*
X195309523Y-132404761D01*
X195261904Y-132357142D01*
X195214285Y-132261904D01*
X195214285Y-132071428D01*
X195261904Y-131976190D01*
X195309523Y-131928571D01*
X195404761Y-131880952D01*
X211166666Y-137857142D02*
X211214285Y-137904761D01*
X211357142Y-137952380D01*
X211452380Y-137952380D01*
X211595238Y-137904761D01*
X211690476Y-137809523D01*
X211738095Y-137714285D01*
X211785714Y-137523809D01*
X211785714Y-137380952D01*
X211738095Y-137190476D01*
X211690476Y-137095238D01*
X211595238Y-137000000D01*
X211452380Y-136952380D01*
X211357142Y-136952380D01*
X211214285Y-137000000D01*
X211166666Y-137047619D01*
X210214285Y-137952380D02*
X210785714Y-137952380D01*
X210500000Y-137952380D02*
X210500000Y-136952380D01*
X210595238Y-137095238D01*
X210690476Y-137190476D01*
X210785714Y-137238095D01*
X197011904Y-118702380D02*
X197011904Y-119511904D01*
X196964285Y-119607142D01*
X196916666Y-119654761D01*
X196821428Y-119702380D01*
X196630952Y-119702380D01*
X196535714Y-119654761D01*
X196488095Y-119607142D01*
X196440476Y-119511904D01*
X196440476Y-118702380D01*
X196059523Y-118702380D02*
X195440476Y-118702380D01*
X195773809Y-119083333D01*
X195630952Y-119083333D01*
X195535714Y-119130952D01*
X195488095Y-119178571D01*
X195440476Y-119273809D01*
X195440476Y-119511904D01*
X195488095Y-119607142D01*
X195535714Y-119654761D01*
X195630952Y-119702380D01*
X195916666Y-119702380D01*
X196011904Y-119654761D01*
X196059523Y-119607142D01*
X211011904Y-117452380D02*
X211011904Y-118261904D01*
X210964285Y-118357142D01*
X210916666Y-118404761D01*
X210821428Y-118452380D01*
X210630952Y-118452380D01*
X210535714Y-118404761D01*
X210488095Y-118357142D01*
X210440476Y-118261904D01*
X210440476Y-117452380D01*
X210011904Y-117547619D02*
X209964285Y-117500000D01*
X209869047Y-117452380D01*
X209630952Y-117452380D01*
X209535714Y-117500000D01*
X209488095Y-117547619D01*
X209440476Y-117642857D01*
X209440476Y-117738095D01*
X209488095Y-117880952D01*
X210059523Y-118452380D01*
X209440476Y-118452380D01*
X211761904Y-134202380D02*
X211761904Y-135011904D01*
X211714285Y-135107142D01*
X211666666Y-135154761D01*
X211571428Y-135202380D01*
X211380952Y-135202380D01*
X211285714Y-135154761D01*
X211238095Y-135107142D01*
X211190476Y-135011904D01*
X211190476Y-134202380D01*
X210190476Y-135202380D02*
X210761904Y-135202380D01*
X210476190Y-135202380D02*
X210476190Y-134202380D01*
X210571428Y-134345238D01*
X210666666Y-134440476D01*
X210761904Y-134488095D01*
M02*
