G04 #@! TF.GenerationSoftware,KiCad,Pcbnew,(5.1.2)-1*
G04 #@! TF.CreationDate,2019-05-26T15:49:40+02:00*
G04 #@! TF.ProjectId,Dew Sensor,44657720-5365-46e7-936f-722e6b696361,rev?*
G04 #@! TF.SameCoordinates,Original*
G04 #@! TF.FileFunction,Copper,L1,Top*
G04 #@! TF.FilePolarity,Positive*
%FSLAX46Y46*%
G04 Gerber Fmt 4.6, Leading zero omitted, Abs format (unit mm)*
G04 Created by KiCad (PCBNEW (5.1.2)-1) date 2019-05-26 15:49:40*
%MOMM*%
%LPD*%
G04 APERTURE LIST*
%ADD10O,1.700000X1.700000*%
%ADD11R,1.700000X1.700000*%
%ADD12O,1.000000X1.000000*%
%ADD13R,1.000000X1.000000*%
%ADD14C,0.100000*%
%ADD15C,0.975000*%
%ADD16C,0.450000*%
%ADD17R,1.300000X2.500000*%
%ADD18C,0.800000*%
%ADD19C,0.200000*%
%ADD20C,0.400000*%
%ADD21C,0.500000*%
G04 APERTURE END LIST*
D10*
X218440000Y-121412000D03*
X218440000Y-123952000D03*
X218440000Y-126492000D03*
D11*
X218440000Y-129032000D03*
D12*
X199460000Y-133000000D03*
X200730000Y-133000000D03*
X202000000Y-133000000D03*
X203270000Y-133000000D03*
D13*
X204540000Y-133000000D03*
D14*
G36*
X203730142Y-113076174D02*
G01*
X203753803Y-113079684D01*
X203777007Y-113085496D01*
X203799529Y-113093554D01*
X203821153Y-113103782D01*
X203841670Y-113116079D01*
X203860883Y-113130329D01*
X203878607Y-113146393D01*
X203894671Y-113164117D01*
X203908921Y-113183330D01*
X203921218Y-113203847D01*
X203931446Y-113225471D01*
X203939504Y-113247993D01*
X203945316Y-113271197D01*
X203948826Y-113294858D01*
X203950000Y-113318750D01*
X203950000Y-113806250D01*
X203948826Y-113830142D01*
X203945316Y-113853803D01*
X203939504Y-113877007D01*
X203931446Y-113899529D01*
X203921218Y-113921153D01*
X203908921Y-113941670D01*
X203894671Y-113960883D01*
X203878607Y-113978607D01*
X203860883Y-113994671D01*
X203841670Y-114008921D01*
X203821153Y-114021218D01*
X203799529Y-114031446D01*
X203777007Y-114039504D01*
X203753803Y-114045316D01*
X203730142Y-114048826D01*
X203706250Y-114050000D01*
X202793750Y-114050000D01*
X202769858Y-114048826D01*
X202746197Y-114045316D01*
X202722993Y-114039504D01*
X202700471Y-114031446D01*
X202678847Y-114021218D01*
X202658330Y-114008921D01*
X202639117Y-113994671D01*
X202621393Y-113978607D01*
X202605329Y-113960883D01*
X202591079Y-113941670D01*
X202578782Y-113921153D01*
X202568554Y-113899529D01*
X202560496Y-113877007D01*
X202554684Y-113853803D01*
X202551174Y-113830142D01*
X202550000Y-113806250D01*
X202550000Y-113318750D01*
X202551174Y-113294858D01*
X202554684Y-113271197D01*
X202560496Y-113247993D01*
X202568554Y-113225471D01*
X202578782Y-113203847D01*
X202591079Y-113183330D01*
X202605329Y-113164117D01*
X202621393Y-113146393D01*
X202639117Y-113130329D01*
X202658330Y-113116079D01*
X202678847Y-113103782D01*
X202700471Y-113093554D01*
X202722993Y-113085496D01*
X202746197Y-113079684D01*
X202769858Y-113076174D01*
X202793750Y-113075000D01*
X203706250Y-113075000D01*
X203730142Y-113076174D01*
X203730142Y-113076174D01*
G37*
D15*
X203250000Y-113562500D03*
D14*
G36*
X203730142Y-114951174D02*
G01*
X203753803Y-114954684D01*
X203777007Y-114960496D01*
X203799529Y-114968554D01*
X203821153Y-114978782D01*
X203841670Y-114991079D01*
X203860883Y-115005329D01*
X203878607Y-115021393D01*
X203894671Y-115039117D01*
X203908921Y-115058330D01*
X203921218Y-115078847D01*
X203931446Y-115100471D01*
X203939504Y-115122993D01*
X203945316Y-115146197D01*
X203948826Y-115169858D01*
X203950000Y-115193750D01*
X203950000Y-115681250D01*
X203948826Y-115705142D01*
X203945316Y-115728803D01*
X203939504Y-115752007D01*
X203931446Y-115774529D01*
X203921218Y-115796153D01*
X203908921Y-115816670D01*
X203894671Y-115835883D01*
X203878607Y-115853607D01*
X203860883Y-115869671D01*
X203841670Y-115883921D01*
X203821153Y-115896218D01*
X203799529Y-115906446D01*
X203777007Y-115914504D01*
X203753803Y-115920316D01*
X203730142Y-115923826D01*
X203706250Y-115925000D01*
X202793750Y-115925000D01*
X202769858Y-115923826D01*
X202746197Y-115920316D01*
X202722993Y-115914504D01*
X202700471Y-115906446D01*
X202678847Y-115896218D01*
X202658330Y-115883921D01*
X202639117Y-115869671D01*
X202621393Y-115853607D01*
X202605329Y-115835883D01*
X202591079Y-115816670D01*
X202578782Y-115796153D01*
X202568554Y-115774529D01*
X202560496Y-115752007D01*
X202554684Y-115728803D01*
X202551174Y-115705142D01*
X202550000Y-115681250D01*
X202550000Y-115193750D01*
X202551174Y-115169858D01*
X202554684Y-115146197D01*
X202560496Y-115122993D01*
X202568554Y-115100471D01*
X202578782Y-115078847D01*
X202591079Y-115058330D01*
X202605329Y-115039117D01*
X202621393Y-115021393D01*
X202639117Y-115005329D01*
X202658330Y-114991079D01*
X202678847Y-114978782D01*
X202700471Y-114968554D01*
X202722993Y-114960496D01*
X202746197Y-114954684D01*
X202769858Y-114951174D01*
X202793750Y-114950000D01*
X203706250Y-114950000D01*
X203730142Y-114951174D01*
X203730142Y-114951174D01*
G37*
D15*
X203250000Y-115437500D03*
D14*
G36*
X209048527Y-115275542D02*
G01*
X209059448Y-115277162D01*
X209070157Y-115279844D01*
X209080552Y-115283564D01*
X209090532Y-115288284D01*
X209100002Y-115293960D01*
X209108869Y-115300536D01*
X209117050Y-115307950D01*
X209124464Y-115316131D01*
X209131040Y-115324998D01*
X209136716Y-115334468D01*
X209141436Y-115344448D01*
X209145156Y-115354843D01*
X209147838Y-115365552D01*
X209149458Y-115376473D01*
X209150000Y-115387500D01*
X209150000Y-115612500D01*
X209149458Y-115623527D01*
X209147838Y-115634448D01*
X209145156Y-115645157D01*
X209141436Y-115655552D01*
X209136716Y-115665532D01*
X209131040Y-115675002D01*
X209124464Y-115683869D01*
X209117050Y-115692050D01*
X209108869Y-115699464D01*
X209100002Y-115706040D01*
X209090532Y-115711716D01*
X209080552Y-115716436D01*
X209070157Y-115720156D01*
X209059448Y-115722838D01*
X209048527Y-115724458D01*
X209037500Y-115725000D01*
X208262500Y-115725000D01*
X208251473Y-115724458D01*
X208240552Y-115722838D01*
X208229843Y-115720156D01*
X208219448Y-115716436D01*
X208209468Y-115711716D01*
X208199998Y-115706040D01*
X208191131Y-115699464D01*
X208182950Y-115692050D01*
X208175536Y-115683869D01*
X208168960Y-115675002D01*
X208163284Y-115665532D01*
X208158564Y-115655552D01*
X208154844Y-115645157D01*
X208152162Y-115634448D01*
X208150542Y-115623527D01*
X208150000Y-115612500D01*
X208150000Y-115387500D01*
X208150542Y-115376473D01*
X208152162Y-115365552D01*
X208154844Y-115354843D01*
X208158564Y-115344448D01*
X208163284Y-115334468D01*
X208168960Y-115324998D01*
X208175536Y-115316131D01*
X208182950Y-115307950D01*
X208191131Y-115300536D01*
X208199998Y-115293960D01*
X208209468Y-115288284D01*
X208219448Y-115283564D01*
X208229843Y-115279844D01*
X208240552Y-115277162D01*
X208251473Y-115275542D01*
X208262500Y-115275000D01*
X209037500Y-115275000D01*
X209048527Y-115275542D01*
X209048527Y-115275542D01*
G37*
D16*
X208650000Y-115500000D03*
D14*
G36*
X209048527Y-114275542D02*
G01*
X209059448Y-114277162D01*
X209070157Y-114279844D01*
X209080552Y-114283564D01*
X209090532Y-114288284D01*
X209100002Y-114293960D01*
X209108869Y-114300536D01*
X209117050Y-114307950D01*
X209124464Y-114316131D01*
X209131040Y-114324998D01*
X209136716Y-114334468D01*
X209141436Y-114344448D01*
X209145156Y-114354843D01*
X209147838Y-114365552D01*
X209149458Y-114376473D01*
X209150000Y-114387500D01*
X209150000Y-114612500D01*
X209149458Y-114623527D01*
X209147838Y-114634448D01*
X209145156Y-114645157D01*
X209141436Y-114655552D01*
X209136716Y-114665532D01*
X209131040Y-114675002D01*
X209124464Y-114683869D01*
X209117050Y-114692050D01*
X209108869Y-114699464D01*
X209100002Y-114706040D01*
X209090532Y-114711716D01*
X209080552Y-114716436D01*
X209070157Y-114720156D01*
X209059448Y-114722838D01*
X209048527Y-114724458D01*
X209037500Y-114725000D01*
X208262500Y-114725000D01*
X208251473Y-114724458D01*
X208240552Y-114722838D01*
X208229843Y-114720156D01*
X208219448Y-114716436D01*
X208209468Y-114711716D01*
X208199998Y-114706040D01*
X208191131Y-114699464D01*
X208182950Y-114692050D01*
X208175536Y-114683869D01*
X208168960Y-114675002D01*
X208163284Y-114665532D01*
X208158564Y-114655552D01*
X208154844Y-114645157D01*
X208152162Y-114634448D01*
X208150542Y-114623527D01*
X208150000Y-114612500D01*
X208150000Y-114387500D01*
X208150542Y-114376473D01*
X208152162Y-114365552D01*
X208154844Y-114354843D01*
X208158564Y-114344448D01*
X208163284Y-114334468D01*
X208168960Y-114324998D01*
X208175536Y-114316131D01*
X208182950Y-114307950D01*
X208191131Y-114300536D01*
X208199998Y-114293960D01*
X208209468Y-114288284D01*
X208219448Y-114283564D01*
X208229843Y-114279844D01*
X208240552Y-114277162D01*
X208251473Y-114275542D01*
X208262500Y-114275000D01*
X209037500Y-114275000D01*
X209048527Y-114275542D01*
X209048527Y-114275542D01*
G37*
D16*
X208650000Y-114500000D03*
D14*
G36*
X209048527Y-113275542D02*
G01*
X209059448Y-113277162D01*
X209070157Y-113279844D01*
X209080552Y-113283564D01*
X209090532Y-113288284D01*
X209100002Y-113293960D01*
X209108869Y-113300536D01*
X209117050Y-113307950D01*
X209124464Y-113316131D01*
X209131040Y-113324998D01*
X209136716Y-113334468D01*
X209141436Y-113344448D01*
X209145156Y-113354843D01*
X209147838Y-113365552D01*
X209149458Y-113376473D01*
X209150000Y-113387500D01*
X209150000Y-113612500D01*
X209149458Y-113623527D01*
X209147838Y-113634448D01*
X209145156Y-113645157D01*
X209141436Y-113655552D01*
X209136716Y-113665532D01*
X209131040Y-113675002D01*
X209124464Y-113683869D01*
X209117050Y-113692050D01*
X209108869Y-113699464D01*
X209100002Y-113706040D01*
X209090532Y-113711716D01*
X209080552Y-113716436D01*
X209070157Y-113720156D01*
X209059448Y-113722838D01*
X209048527Y-113724458D01*
X209037500Y-113725000D01*
X208262500Y-113725000D01*
X208251473Y-113724458D01*
X208240552Y-113722838D01*
X208229843Y-113720156D01*
X208219448Y-113716436D01*
X208209468Y-113711716D01*
X208199998Y-113706040D01*
X208191131Y-113699464D01*
X208182950Y-113692050D01*
X208175536Y-113683869D01*
X208168960Y-113675002D01*
X208163284Y-113665532D01*
X208158564Y-113655552D01*
X208154844Y-113645157D01*
X208152162Y-113634448D01*
X208150542Y-113623527D01*
X208150000Y-113612500D01*
X208150000Y-113387500D01*
X208150542Y-113376473D01*
X208152162Y-113365552D01*
X208154844Y-113354843D01*
X208158564Y-113344448D01*
X208163284Y-113334468D01*
X208168960Y-113324998D01*
X208175536Y-113316131D01*
X208182950Y-113307950D01*
X208191131Y-113300536D01*
X208199998Y-113293960D01*
X208209468Y-113288284D01*
X208219448Y-113283564D01*
X208229843Y-113279844D01*
X208240552Y-113277162D01*
X208251473Y-113275542D01*
X208262500Y-113275000D01*
X209037500Y-113275000D01*
X209048527Y-113275542D01*
X209048527Y-113275542D01*
G37*
D16*
X208650000Y-113500000D03*
D14*
G36*
X205748527Y-113275542D02*
G01*
X205759448Y-113277162D01*
X205770157Y-113279844D01*
X205780552Y-113283564D01*
X205790532Y-113288284D01*
X205800002Y-113293960D01*
X205808869Y-113300536D01*
X205817050Y-113307950D01*
X205824464Y-113316131D01*
X205831040Y-113324998D01*
X205836716Y-113334468D01*
X205841436Y-113344448D01*
X205845156Y-113354843D01*
X205847838Y-113365552D01*
X205849458Y-113376473D01*
X205850000Y-113387500D01*
X205850000Y-113612500D01*
X205849458Y-113623527D01*
X205847838Y-113634448D01*
X205845156Y-113645157D01*
X205841436Y-113655552D01*
X205836716Y-113665532D01*
X205831040Y-113675002D01*
X205824464Y-113683869D01*
X205817050Y-113692050D01*
X205808869Y-113699464D01*
X205800002Y-113706040D01*
X205790532Y-113711716D01*
X205780552Y-113716436D01*
X205770157Y-113720156D01*
X205759448Y-113722838D01*
X205748527Y-113724458D01*
X205737500Y-113725000D01*
X204962500Y-113725000D01*
X204951473Y-113724458D01*
X204940552Y-113722838D01*
X204929843Y-113720156D01*
X204919448Y-113716436D01*
X204909468Y-113711716D01*
X204899998Y-113706040D01*
X204891131Y-113699464D01*
X204882950Y-113692050D01*
X204875536Y-113683869D01*
X204868960Y-113675002D01*
X204863284Y-113665532D01*
X204858564Y-113655552D01*
X204854844Y-113645157D01*
X204852162Y-113634448D01*
X204850542Y-113623527D01*
X204850000Y-113612500D01*
X204850000Y-113387500D01*
X204850542Y-113376473D01*
X204852162Y-113365552D01*
X204854844Y-113354843D01*
X204858564Y-113344448D01*
X204863284Y-113334468D01*
X204868960Y-113324998D01*
X204875536Y-113316131D01*
X204882950Y-113307950D01*
X204891131Y-113300536D01*
X204899998Y-113293960D01*
X204909468Y-113288284D01*
X204919448Y-113283564D01*
X204929843Y-113279844D01*
X204940552Y-113277162D01*
X204951473Y-113275542D01*
X204962500Y-113275000D01*
X205737500Y-113275000D01*
X205748527Y-113275542D01*
X205748527Y-113275542D01*
G37*
D16*
X205350000Y-113500000D03*
D14*
G36*
X205748527Y-114275542D02*
G01*
X205759448Y-114277162D01*
X205770157Y-114279844D01*
X205780552Y-114283564D01*
X205790532Y-114288284D01*
X205800002Y-114293960D01*
X205808869Y-114300536D01*
X205817050Y-114307950D01*
X205824464Y-114316131D01*
X205831040Y-114324998D01*
X205836716Y-114334468D01*
X205841436Y-114344448D01*
X205845156Y-114354843D01*
X205847838Y-114365552D01*
X205849458Y-114376473D01*
X205850000Y-114387500D01*
X205850000Y-114612500D01*
X205849458Y-114623527D01*
X205847838Y-114634448D01*
X205845156Y-114645157D01*
X205841436Y-114655552D01*
X205836716Y-114665532D01*
X205831040Y-114675002D01*
X205824464Y-114683869D01*
X205817050Y-114692050D01*
X205808869Y-114699464D01*
X205800002Y-114706040D01*
X205790532Y-114711716D01*
X205780552Y-114716436D01*
X205770157Y-114720156D01*
X205759448Y-114722838D01*
X205748527Y-114724458D01*
X205737500Y-114725000D01*
X204962500Y-114725000D01*
X204951473Y-114724458D01*
X204940552Y-114722838D01*
X204929843Y-114720156D01*
X204919448Y-114716436D01*
X204909468Y-114711716D01*
X204899998Y-114706040D01*
X204891131Y-114699464D01*
X204882950Y-114692050D01*
X204875536Y-114683869D01*
X204868960Y-114675002D01*
X204863284Y-114665532D01*
X204858564Y-114655552D01*
X204854844Y-114645157D01*
X204852162Y-114634448D01*
X204850542Y-114623527D01*
X204850000Y-114612500D01*
X204850000Y-114387500D01*
X204850542Y-114376473D01*
X204852162Y-114365552D01*
X204854844Y-114354843D01*
X204858564Y-114344448D01*
X204863284Y-114334468D01*
X204868960Y-114324998D01*
X204875536Y-114316131D01*
X204882950Y-114307950D01*
X204891131Y-114300536D01*
X204899998Y-114293960D01*
X204909468Y-114288284D01*
X204919448Y-114283564D01*
X204929843Y-114279844D01*
X204940552Y-114277162D01*
X204951473Y-114275542D01*
X204962500Y-114275000D01*
X205737500Y-114275000D01*
X205748527Y-114275542D01*
X205748527Y-114275542D01*
G37*
D16*
X205350000Y-114500000D03*
D14*
G36*
X205748527Y-115275542D02*
G01*
X205759448Y-115277162D01*
X205770157Y-115279844D01*
X205780552Y-115283564D01*
X205790532Y-115288284D01*
X205800002Y-115293960D01*
X205808869Y-115300536D01*
X205817050Y-115307950D01*
X205824464Y-115316131D01*
X205831040Y-115324998D01*
X205836716Y-115334468D01*
X205841436Y-115344448D01*
X205845156Y-115354843D01*
X205847838Y-115365552D01*
X205849458Y-115376473D01*
X205850000Y-115387500D01*
X205850000Y-115612500D01*
X205849458Y-115623527D01*
X205847838Y-115634448D01*
X205845156Y-115645157D01*
X205841436Y-115655552D01*
X205836716Y-115665532D01*
X205831040Y-115675002D01*
X205824464Y-115683869D01*
X205817050Y-115692050D01*
X205808869Y-115699464D01*
X205800002Y-115706040D01*
X205790532Y-115711716D01*
X205780552Y-115716436D01*
X205770157Y-115720156D01*
X205759448Y-115722838D01*
X205748527Y-115724458D01*
X205737500Y-115725000D01*
X204962500Y-115725000D01*
X204951473Y-115724458D01*
X204940552Y-115722838D01*
X204929843Y-115720156D01*
X204919448Y-115716436D01*
X204909468Y-115711716D01*
X204899998Y-115706040D01*
X204891131Y-115699464D01*
X204882950Y-115692050D01*
X204875536Y-115683869D01*
X204868960Y-115675002D01*
X204863284Y-115665532D01*
X204858564Y-115655552D01*
X204854844Y-115645157D01*
X204852162Y-115634448D01*
X204850542Y-115623527D01*
X204850000Y-115612500D01*
X204850000Y-115387500D01*
X204850542Y-115376473D01*
X204852162Y-115365552D01*
X204854844Y-115354843D01*
X204858564Y-115344448D01*
X204863284Y-115334468D01*
X204868960Y-115324998D01*
X204875536Y-115316131D01*
X204882950Y-115307950D01*
X204891131Y-115300536D01*
X204899998Y-115293960D01*
X204909468Y-115288284D01*
X204919448Y-115283564D01*
X204929843Y-115279844D01*
X204940552Y-115277162D01*
X204951473Y-115275542D01*
X204962500Y-115275000D01*
X205737500Y-115275000D01*
X205748527Y-115275542D01*
X205748527Y-115275542D01*
G37*
D16*
X205350000Y-115500000D03*
D17*
X207000000Y-114500000D03*
D18*
X202000000Y-120750000D03*
X215250000Y-125750000D03*
X210500000Y-132000000D03*
X206500000Y-137500000D03*
X205106623Y-118078444D03*
X202821656Y-124424996D03*
X198871070Y-128256759D03*
X197805542Y-130267855D03*
X202000000Y-115500000D03*
X203119982Y-119869982D03*
D19*
X202565685Y-120750000D02*
X202000000Y-120750000D01*
X207650000Y-116500000D02*
X205557850Y-116500000D01*
X208650000Y-115500000D02*
X207650000Y-116500000D01*
X205557850Y-116500000D02*
X203819983Y-118237867D01*
X203819983Y-118237867D02*
X203819983Y-120205983D01*
X203819983Y-120205983D02*
X203275966Y-120750000D01*
X203275966Y-120750000D02*
X202565685Y-120750000D01*
D20*
X204750000Y-114500000D02*
X205350000Y-114500000D01*
X203250000Y-115437500D02*
X203812500Y-115437500D01*
X203812500Y-115437500D02*
X204750000Y-114500000D01*
D21*
X203250000Y-115437500D02*
X202062500Y-115437500D01*
X202062500Y-115437500D02*
X202000000Y-115500000D01*
D19*
X205350000Y-115950000D02*
X203119982Y-118180018D01*
X205350000Y-115500000D02*
X205350000Y-115950000D01*
X203119982Y-118180018D02*
X203119982Y-119304297D01*
X203119982Y-119304297D02*
X203119982Y-119869982D01*
G36*
X194338174Y-110926341D02*
G01*
X194047953Y-111626996D01*
X193900000Y-112370808D01*
X193900000Y-113129192D01*
X194047953Y-113873004D01*
X194338174Y-114573659D01*
X194759509Y-115204232D01*
X195295768Y-115740491D01*
X195926341Y-116161826D01*
X196626996Y-116452047D01*
X197370808Y-116600000D01*
X198129192Y-116600000D01*
X198873004Y-116452047D01*
X199573659Y-116161826D01*
X200204232Y-115740491D01*
X200523516Y-115421207D01*
X201200000Y-115421207D01*
X201200000Y-115578793D01*
X201230743Y-115733351D01*
X201291049Y-115878942D01*
X201378599Y-116009970D01*
X201490030Y-116121401D01*
X201621058Y-116208951D01*
X201766649Y-116269257D01*
X201921207Y-116300000D01*
X202078793Y-116300000D01*
X202233351Y-116269257D01*
X202378942Y-116208951D01*
X202403700Y-116192408D01*
X202435027Y-116218117D01*
X202546657Y-116277785D01*
X202667783Y-116314528D01*
X202793750Y-116326935D01*
X203706250Y-116326935D01*
X203832217Y-116314528D01*
X203953343Y-116277785D01*
X204064973Y-116218117D01*
X204162818Y-116137818D01*
X204243117Y-116039973D01*
X204302785Y-115928343D01*
X204339528Y-115807217D01*
X204344796Y-115753731D01*
X204451469Y-115647058D01*
X204457950Y-115712861D01*
X204487224Y-115809366D01*
X204534763Y-115898305D01*
X204598740Y-115976260D01*
X204608568Y-115984326D01*
X202783806Y-117809089D01*
X202764718Y-117824754D01*
X202702236Y-117900889D01*
X202655807Y-117987752D01*
X202638259Y-118045600D01*
X202627217Y-118082001D01*
X202617563Y-118180018D01*
X202619982Y-118204579D01*
X202619983Y-119241919D01*
X202610012Y-119248581D01*
X202498581Y-119360012D01*
X202411031Y-119491040D01*
X202350725Y-119636631D01*
X202319982Y-119791189D01*
X202319982Y-119948775D01*
X202334690Y-120022719D01*
X202233351Y-119980743D01*
X202078793Y-119950000D01*
X201921207Y-119950000D01*
X201766649Y-119980743D01*
X201621058Y-120041049D01*
X201490030Y-120128599D01*
X201378599Y-120240030D01*
X201291049Y-120371058D01*
X201230743Y-120516649D01*
X201200000Y-120671207D01*
X201200000Y-120828793D01*
X201230743Y-120983351D01*
X201291049Y-121128942D01*
X201378599Y-121259970D01*
X201490030Y-121371401D01*
X201621058Y-121458951D01*
X201766649Y-121519257D01*
X201921207Y-121550000D01*
X202078793Y-121550000D01*
X202233351Y-121519257D01*
X202378942Y-121458951D01*
X202449209Y-121412000D01*
X217183952Y-121412000D01*
X217208087Y-121657043D01*
X217279563Y-121892669D01*
X217395634Y-122109823D01*
X217551840Y-122300160D01*
X217742177Y-122456366D01*
X217959331Y-122572437D01*
X218194957Y-122643913D01*
X218378595Y-122662000D01*
X218501405Y-122662000D01*
X218685043Y-122643913D01*
X218920669Y-122572437D01*
X219137823Y-122456366D01*
X219328160Y-122300160D01*
X219484366Y-122109823D01*
X219600437Y-121892669D01*
X219671913Y-121657043D01*
X219696048Y-121412000D01*
X219671913Y-121166957D01*
X219600437Y-120931331D01*
X219484366Y-120714177D01*
X219328160Y-120523840D01*
X219137823Y-120367634D01*
X218920669Y-120251563D01*
X218685043Y-120180087D01*
X218501405Y-120162000D01*
X218378595Y-120162000D01*
X218194957Y-120180087D01*
X217959331Y-120251563D01*
X217742177Y-120367634D01*
X217551840Y-120523840D01*
X217395634Y-120714177D01*
X217279563Y-120931331D01*
X217208087Y-121166957D01*
X217183952Y-121412000D01*
X202449209Y-121412000D01*
X202509970Y-121371401D01*
X202621401Y-121259970D01*
X202628063Y-121250000D01*
X203251406Y-121250000D01*
X203275966Y-121252419D01*
X203300526Y-121250000D01*
X203373983Y-121242765D01*
X203468233Y-121214175D01*
X203555095Y-121167746D01*
X203631230Y-121105264D01*
X203646895Y-121086177D01*
X204156169Y-120576904D01*
X204175247Y-120561247D01*
X204237729Y-120485112D01*
X204284158Y-120398250D01*
X204312748Y-120304000D01*
X204319983Y-120230543D01*
X204319983Y-120230542D01*
X204322402Y-120205984D01*
X204319983Y-120181426D01*
X204319983Y-118444972D01*
X205764956Y-117000000D01*
X207625440Y-117000000D01*
X207650000Y-117002419D01*
X207674560Y-117000000D01*
X207748017Y-116992765D01*
X207842267Y-116964175D01*
X207929129Y-116917746D01*
X208005264Y-116855264D01*
X208020929Y-116836176D01*
X208730171Y-116126935D01*
X209037500Y-116126935D01*
X209137861Y-116117050D01*
X209234366Y-116087776D01*
X209323305Y-116040237D01*
X209401260Y-115976260D01*
X209465237Y-115898305D01*
X209512776Y-115809366D01*
X209542050Y-115712861D01*
X209551935Y-115612500D01*
X209551935Y-115387500D01*
X209542050Y-115287139D01*
X209515798Y-115200596D01*
X209562793Y-115164425D01*
X209640589Y-115075449D01*
X209699531Y-114973006D01*
X209737356Y-114861033D01*
X209750000Y-114775000D01*
X209600000Y-114625000D01*
X208800000Y-114625000D01*
X208800000Y-114670000D01*
X208500000Y-114670000D01*
X208500000Y-114625000D01*
X208480000Y-114625000D01*
X208480000Y-114375000D01*
X208500000Y-114375000D01*
X208500000Y-114330000D01*
X208800000Y-114330000D01*
X208800000Y-114375000D01*
X209600000Y-114375000D01*
X209750000Y-114225000D01*
X209737356Y-114138967D01*
X209699531Y-114026994D01*
X209640589Y-113924551D01*
X209562793Y-113835575D01*
X209515798Y-113799404D01*
X209542050Y-113712861D01*
X209551935Y-113612500D01*
X209551935Y-113387500D01*
X209542050Y-113287139D01*
X209512776Y-113190634D01*
X209465237Y-113101695D01*
X209401260Y-113023740D01*
X209323305Y-112959763D01*
X209234366Y-112912224D01*
X209137861Y-112882950D01*
X209037500Y-112873065D01*
X208262500Y-112873065D01*
X208162139Y-112882950D01*
X208065634Y-112912224D01*
X207976695Y-112959763D01*
X207948354Y-112983022D01*
X207934211Y-112965789D01*
X207873303Y-112915803D01*
X207803814Y-112878660D01*
X207728414Y-112855788D01*
X207650000Y-112848065D01*
X206350000Y-112848065D01*
X206271586Y-112855788D01*
X206196186Y-112878660D01*
X206126697Y-112915803D01*
X206065789Y-112965789D01*
X206051646Y-112983022D01*
X206023305Y-112959763D01*
X205934366Y-112912224D01*
X205837861Y-112882950D01*
X205737500Y-112873065D01*
X204962500Y-112873065D01*
X204862139Y-112882950D01*
X204765634Y-112912224D01*
X204676695Y-112959763D01*
X204598740Y-113023740D01*
X204552831Y-113079680D01*
X204552903Y-113075000D01*
X204541318Y-112957379D01*
X204507010Y-112844279D01*
X204451296Y-112740045D01*
X204376317Y-112648683D01*
X204284955Y-112573704D01*
X204180721Y-112517990D01*
X204067621Y-112483682D01*
X203950000Y-112472097D01*
X203550000Y-112475000D01*
X203400000Y-112625000D01*
X203400000Y-113412500D01*
X203420000Y-113412500D01*
X203420000Y-113712500D01*
X203400000Y-113712500D01*
X203400000Y-113732500D01*
X203100000Y-113732500D01*
X203100000Y-113712500D01*
X202100000Y-113712500D01*
X201950000Y-113862500D01*
X201947097Y-114050000D01*
X201958682Y-114167621D01*
X201992990Y-114280721D01*
X202048704Y-114384955D01*
X202123683Y-114476317D01*
X202215045Y-114551296D01*
X202319279Y-114607010D01*
X202432379Y-114641318D01*
X202459204Y-114643960D01*
X202435027Y-114656883D01*
X202337182Y-114737182D01*
X202314784Y-114764474D01*
X202233351Y-114730743D01*
X202078793Y-114700000D01*
X201921207Y-114700000D01*
X201766649Y-114730743D01*
X201621058Y-114791049D01*
X201490030Y-114878599D01*
X201378599Y-114990030D01*
X201291049Y-115121058D01*
X201230743Y-115266649D01*
X201200000Y-115421207D01*
X200523516Y-115421207D01*
X200740491Y-115204232D01*
X201161826Y-114573659D01*
X201452047Y-113873004D01*
X201600000Y-113129192D01*
X201600000Y-113075000D01*
X201947097Y-113075000D01*
X201950000Y-113262500D01*
X202100000Y-113412500D01*
X203100000Y-113412500D01*
X203100000Y-112625000D01*
X202950000Y-112475000D01*
X202550000Y-112472097D01*
X202432379Y-112483682D01*
X202319279Y-112517990D01*
X202215045Y-112573704D01*
X202123683Y-112648683D01*
X202048704Y-112740045D01*
X201992990Y-112844279D01*
X201958682Y-112957379D01*
X201947097Y-113075000D01*
X201600000Y-113075000D01*
X201600000Y-112370808D01*
X201452047Y-111626996D01*
X201161826Y-110926341D01*
X200860250Y-110475000D01*
X214275001Y-110475000D01*
X214275000Y-113273331D01*
X214277159Y-113295250D01*
X214277028Y-113313994D01*
X214277675Y-113320595D01*
X214338876Y-113902885D01*
X214347538Y-113945083D01*
X214355600Y-113987347D01*
X214357515Y-113993688D01*
X214357516Y-113993695D01*
X214357519Y-113993701D01*
X214530654Y-114553009D01*
X214547341Y-114592706D01*
X214563464Y-114632612D01*
X214566576Y-114638464D01*
X214566578Y-114638469D01*
X214566581Y-114638473D01*
X214845054Y-115153500D01*
X214869132Y-115189197D01*
X214892701Y-115225216D01*
X214896893Y-115230356D01*
X215270103Y-115681489D01*
X215300648Y-115711821D01*
X215330772Y-115742583D01*
X215335877Y-115746805D01*
X215335883Y-115746811D01*
X215335890Y-115746815D01*
X215789611Y-116116863D01*
X215825474Y-116140690D01*
X215860992Y-116165010D01*
X215866826Y-116168164D01*
X216383791Y-116443038D01*
X216423568Y-116459433D01*
X216463164Y-116476404D01*
X216469499Y-116478365D01*
X217030007Y-116647592D01*
X217072252Y-116655957D01*
X217114349Y-116664905D01*
X217120945Y-116665598D01*
X217703647Y-116722733D01*
X217703650Y-116722733D01*
X217726668Y-116725000D01*
X220525001Y-116725000D01*
X220525000Y-138525000D01*
X218360250Y-138525000D01*
X218661826Y-138073659D01*
X218952047Y-137373004D01*
X219100000Y-136629192D01*
X219100000Y-135870808D01*
X218952047Y-135126996D01*
X218661826Y-134426341D01*
X218240491Y-133795768D01*
X217704232Y-133259509D01*
X217073659Y-132838174D01*
X216373004Y-132547953D01*
X215629192Y-132400000D01*
X214870808Y-132400000D01*
X214126996Y-132547953D01*
X213426341Y-132838174D01*
X212795768Y-133259509D01*
X212259509Y-133795768D01*
X211838174Y-134426341D01*
X211547953Y-135126996D01*
X211400000Y-135870808D01*
X211400000Y-136629192D01*
X211547953Y-137373004D01*
X211838174Y-138073659D01*
X212139750Y-138525000D01*
X198725000Y-138525000D01*
X198725000Y-135726668D01*
X198722841Y-135704749D01*
X198722972Y-135686005D01*
X198722325Y-135679405D01*
X198661124Y-135097115D01*
X198652461Y-135054910D01*
X198644400Y-135012654D01*
X198642486Y-135006315D01*
X198642484Y-135006305D01*
X198642480Y-135006296D01*
X198469346Y-134446991D01*
X198452659Y-134407294D01*
X198436536Y-134367388D01*
X198433422Y-134361532D01*
X198433422Y-134361531D01*
X198433419Y-134361527D01*
X198154946Y-133846500D01*
X198130884Y-133810826D01*
X198107299Y-133774784D01*
X198103107Y-133769644D01*
X197729897Y-133318511D01*
X197699335Y-133288162D01*
X197669228Y-133257417D01*
X197664123Y-133253195D01*
X197664117Y-133253189D01*
X197664110Y-133253185D01*
X197353676Y-133000000D01*
X198555646Y-133000000D01*
X198573023Y-133176431D01*
X198624486Y-133346081D01*
X198708057Y-133502432D01*
X198820525Y-133639475D01*
X198957568Y-133751943D01*
X199113919Y-133835514D01*
X199283569Y-133886977D01*
X199415793Y-133900000D01*
X199504207Y-133900000D01*
X199636431Y-133886977D01*
X199806081Y-133835514D01*
X199962432Y-133751943D01*
X200095000Y-133643148D01*
X200227568Y-133751943D01*
X200383919Y-133835514D01*
X200553569Y-133886977D01*
X200685793Y-133900000D01*
X200774207Y-133900000D01*
X200906431Y-133886977D01*
X201076081Y-133835514D01*
X201213776Y-133761915D01*
X201301606Y-133849860D01*
X201480825Y-133969780D01*
X201679995Y-134052432D01*
X201681376Y-134052844D01*
X201850000Y-133938083D01*
X201850000Y-133150000D01*
X201830000Y-133150000D01*
X201830000Y-132850000D01*
X201850000Y-132850000D01*
X201850000Y-132061917D01*
X202150000Y-132061917D01*
X202150000Y-132850000D01*
X202170000Y-132850000D01*
X202170000Y-133150000D01*
X202150000Y-133150000D01*
X202150000Y-133938083D01*
X202318624Y-134052844D01*
X202320005Y-134052432D01*
X202519175Y-133969780D01*
X202698394Y-133849860D01*
X202786224Y-133761915D01*
X202923919Y-133835514D01*
X203093569Y-133886977D01*
X203225793Y-133900000D01*
X203314207Y-133900000D01*
X203446431Y-133886977D01*
X203616081Y-133835514D01*
X203742456Y-133767965D01*
X203755789Y-133784211D01*
X203816697Y-133834197D01*
X203886186Y-133871340D01*
X203961586Y-133894212D01*
X204040000Y-133901935D01*
X205040000Y-133901935D01*
X205118414Y-133894212D01*
X205193814Y-133871340D01*
X205263303Y-133834197D01*
X205324211Y-133784211D01*
X205374197Y-133723303D01*
X205411340Y-133653814D01*
X205434212Y-133578414D01*
X205441935Y-133500000D01*
X205441935Y-132500000D01*
X205434212Y-132421586D01*
X205411340Y-132346186D01*
X205374197Y-132276697D01*
X205324211Y-132215789D01*
X205263303Y-132165803D01*
X205193814Y-132128660D01*
X205118414Y-132105788D01*
X205040000Y-132098065D01*
X204040000Y-132098065D01*
X203961586Y-132105788D01*
X203886186Y-132128660D01*
X203816697Y-132165803D01*
X203755789Y-132215789D01*
X203742456Y-132232035D01*
X203616081Y-132164486D01*
X203446431Y-132113023D01*
X203314207Y-132100000D01*
X203225793Y-132100000D01*
X203093569Y-132113023D01*
X202923919Y-132164486D01*
X202786224Y-132238085D01*
X202698394Y-132150140D01*
X202519175Y-132030220D01*
X202320005Y-131947568D01*
X202318624Y-131947156D01*
X202150000Y-132061917D01*
X201850000Y-132061917D01*
X201681376Y-131947156D01*
X201679995Y-131947568D01*
X201480825Y-132030220D01*
X201301606Y-132150140D01*
X201213776Y-132238085D01*
X201076081Y-132164486D01*
X200906431Y-132113023D01*
X200774207Y-132100000D01*
X200685793Y-132100000D01*
X200553569Y-132113023D01*
X200383919Y-132164486D01*
X200227568Y-132248057D01*
X200095000Y-132356852D01*
X199962432Y-132248057D01*
X199806081Y-132164486D01*
X199636431Y-132113023D01*
X199504207Y-132100000D01*
X199415793Y-132100000D01*
X199283569Y-132113023D01*
X199113919Y-132164486D01*
X198957568Y-132248057D01*
X198820525Y-132360525D01*
X198708057Y-132497568D01*
X198624486Y-132653919D01*
X198573023Y-132823569D01*
X198555646Y-133000000D01*
X197353676Y-133000000D01*
X197210389Y-132883138D01*
X197174537Y-132859318D01*
X197139008Y-132834990D01*
X197133179Y-132831839D01*
X197133175Y-132831836D01*
X197133171Y-132831834D01*
X196616210Y-132556962D01*
X196576406Y-132540556D01*
X196536836Y-132523596D01*
X196530501Y-132521635D01*
X195969993Y-132352408D01*
X195927748Y-132344043D01*
X195885651Y-132335095D01*
X195879055Y-132334402D01*
X195296352Y-132277267D01*
X195296350Y-132277267D01*
X195273332Y-132275000D01*
X192475000Y-132275000D01*
X192475000Y-126865766D01*
X217039000Y-126865766D01*
X217067452Y-126959582D01*
X217185046Y-127218368D01*
X217350867Y-127449240D01*
X217558543Y-127643326D01*
X217778971Y-127780065D01*
X217590000Y-127780065D01*
X217511586Y-127787788D01*
X217436186Y-127810660D01*
X217366697Y-127847803D01*
X217305789Y-127897789D01*
X217255803Y-127958697D01*
X217218660Y-128028186D01*
X217195788Y-128103586D01*
X217188065Y-128182000D01*
X217188065Y-129882000D01*
X217195788Y-129960414D01*
X217218660Y-130035814D01*
X217255803Y-130105303D01*
X217305789Y-130166211D01*
X217366697Y-130216197D01*
X217436186Y-130253340D01*
X217511586Y-130276212D01*
X217590000Y-130283935D01*
X219290000Y-130283935D01*
X219368414Y-130276212D01*
X219443814Y-130253340D01*
X219513303Y-130216197D01*
X219574211Y-130166211D01*
X219624197Y-130105303D01*
X219661340Y-130035814D01*
X219684212Y-129960414D01*
X219691935Y-129882000D01*
X219691935Y-128182000D01*
X219684212Y-128103586D01*
X219661340Y-128028186D01*
X219624197Y-127958697D01*
X219574211Y-127897789D01*
X219513303Y-127847803D01*
X219443814Y-127810660D01*
X219368414Y-127787788D01*
X219290000Y-127780065D01*
X219101029Y-127780065D01*
X219321457Y-127643326D01*
X219529133Y-127449240D01*
X219694954Y-127218368D01*
X219812548Y-126959582D01*
X219841000Y-126865766D01*
X219731317Y-126642000D01*
X218590000Y-126642000D01*
X218590000Y-126662000D01*
X218290000Y-126662000D01*
X218290000Y-126642000D01*
X217148683Y-126642000D01*
X217039000Y-126865766D01*
X192475000Y-126865766D01*
X192475000Y-126118234D01*
X217039000Y-126118234D01*
X217148683Y-126342000D01*
X218290000Y-126342000D01*
X218290000Y-126322000D01*
X218590000Y-126322000D01*
X218590000Y-126342000D01*
X219731317Y-126342000D01*
X219841000Y-126118234D01*
X219812548Y-126024418D01*
X219694954Y-125765632D01*
X219529133Y-125534760D01*
X219321457Y-125340674D01*
X219079908Y-125190833D01*
X218893166Y-125120780D01*
X218920669Y-125112437D01*
X219137823Y-124996366D01*
X219328160Y-124840160D01*
X219484366Y-124649823D01*
X219600437Y-124432669D01*
X219671913Y-124197043D01*
X219696048Y-123952000D01*
X219671913Y-123706957D01*
X219600437Y-123471331D01*
X219484366Y-123254177D01*
X219328160Y-123063840D01*
X219137823Y-122907634D01*
X218920669Y-122791563D01*
X218685043Y-122720087D01*
X218501405Y-122702000D01*
X218378595Y-122702000D01*
X218194957Y-122720087D01*
X217959331Y-122791563D01*
X217742177Y-122907634D01*
X217551840Y-123063840D01*
X217395634Y-123254177D01*
X217279563Y-123471331D01*
X217208087Y-123706957D01*
X217183952Y-123952000D01*
X217208087Y-124197043D01*
X217279563Y-124432669D01*
X217395634Y-124649823D01*
X217551840Y-124840160D01*
X217742177Y-124996366D01*
X217959331Y-125112437D01*
X217986834Y-125120780D01*
X217800092Y-125190833D01*
X217558543Y-125340674D01*
X217350867Y-125534760D01*
X217185046Y-125765632D01*
X217067452Y-126024418D01*
X217039000Y-126118234D01*
X192475000Y-126118234D01*
X192475000Y-110475000D01*
X194639750Y-110475000D01*
X194338174Y-110926341D01*
X194338174Y-110926341D01*
G37*
X194338174Y-110926341D02*
X194047953Y-111626996D01*
X193900000Y-112370808D01*
X193900000Y-113129192D01*
X194047953Y-113873004D01*
X194338174Y-114573659D01*
X194759509Y-115204232D01*
X195295768Y-115740491D01*
X195926341Y-116161826D01*
X196626996Y-116452047D01*
X197370808Y-116600000D01*
X198129192Y-116600000D01*
X198873004Y-116452047D01*
X199573659Y-116161826D01*
X200204232Y-115740491D01*
X200523516Y-115421207D01*
X201200000Y-115421207D01*
X201200000Y-115578793D01*
X201230743Y-115733351D01*
X201291049Y-115878942D01*
X201378599Y-116009970D01*
X201490030Y-116121401D01*
X201621058Y-116208951D01*
X201766649Y-116269257D01*
X201921207Y-116300000D01*
X202078793Y-116300000D01*
X202233351Y-116269257D01*
X202378942Y-116208951D01*
X202403700Y-116192408D01*
X202435027Y-116218117D01*
X202546657Y-116277785D01*
X202667783Y-116314528D01*
X202793750Y-116326935D01*
X203706250Y-116326935D01*
X203832217Y-116314528D01*
X203953343Y-116277785D01*
X204064973Y-116218117D01*
X204162818Y-116137818D01*
X204243117Y-116039973D01*
X204302785Y-115928343D01*
X204339528Y-115807217D01*
X204344796Y-115753731D01*
X204451469Y-115647058D01*
X204457950Y-115712861D01*
X204487224Y-115809366D01*
X204534763Y-115898305D01*
X204598740Y-115976260D01*
X204608568Y-115984326D01*
X202783806Y-117809089D01*
X202764718Y-117824754D01*
X202702236Y-117900889D01*
X202655807Y-117987752D01*
X202638259Y-118045600D01*
X202627217Y-118082001D01*
X202617563Y-118180018D01*
X202619982Y-118204579D01*
X202619983Y-119241919D01*
X202610012Y-119248581D01*
X202498581Y-119360012D01*
X202411031Y-119491040D01*
X202350725Y-119636631D01*
X202319982Y-119791189D01*
X202319982Y-119948775D01*
X202334690Y-120022719D01*
X202233351Y-119980743D01*
X202078793Y-119950000D01*
X201921207Y-119950000D01*
X201766649Y-119980743D01*
X201621058Y-120041049D01*
X201490030Y-120128599D01*
X201378599Y-120240030D01*
X201291049Y-120371058D01*
X201230743Y-120516649D01*
X201200000Y-120671207D01*
X201200000Y-120828793D01*
X201230743Y-120983351D01*
X201291049Y-121128942D01*
X201378599Y-121259970D01*
X201490030Y-121371401D01*
X201621058Y-121458951D01*
X201766649Y-121519257D01*
X201921207Y-121550000D01*
X202078793Y-121550000D01*
X202233351Y-121519257D01*
X202378942Y-121458951D01*
X202449209Y-121412000D01*
X217183952Y-121412000D01*
X217208087Y-121657043D01*
X217279563Y-121892669D01*
X217395634Y-122109823D01*
X217551840Y-122300160D01*
X217742177Y-122456366D01*
X217959331Y-122572437D01*
X218194957Y-122643913D01*
X218378595Y-122662000D01*
X218501405Y-122662000D01*
X218685043Y-122643913D01*
X218920669Y-122572437D01*
X219137823Y-122456366D01*
X219328160Y-122300160D01*
X219484366Y-122109823D01*
X219600437Y-121892669D01*
X219671913Y-121657043D01*
X219696048Y-121412000D01*
X219671913Y-121166957D01*
X219600437Y-120931331D01*
X219484366Y-120714177D01*
X219328160Y-120523840D01*
X219137823Y-120367634D01*
X218920669Y-120251563D01*
X218685043Y-120180087D01*
X218501405Y-120162000D01*
X218378595Y-120162000D01*
X218194957Y-120180087D01*
X217959331Y-120251563D01*
X217742177Y-120367634D01*
X217551840Y-120523840D01*
X217395634Y-120714177D01*
X217279563Y-120931331D01*
X217208087Y-121166957D01*
X217183952Y-121412000D01*
X202449209Y-121412000D01*
X202509970Y-121371401D01*
X202621401Y-121259970D01*
X202628063Y-121250000D01*
X203251406Y-121250000D01*
X203275966Y-121252419D01*
X203300526Y-121250000D01*
X203373983Y-121242765D01*
X203468233Y-121214175D01*
X203555095Y-121167746D01*
X203631230Y-121105264D01*
X203646895Y-121086177D01*
X204156169Y-120576904D01*
X204175247Y-120561247D01*
X204237729Y-120485112D01*
X204284158Y-120398250D01*
X204312748Y-120304000D01*
X204319983Y-120230543D01*
X204319983Y-120230542D01*
X204322402Y-120205984D01*
X204319983Y-120181426D01*
X204319983Y-118444972D01*
X205764956Y-117000000D01*
X207625440Y-117000000D01*
X207650000Y-117002419D01*
X207674560Y-117000000D01*
X207748017Y-116992765D01*
X207842267Y-116964175D01*
X207929129Y-116917746D01*
X208005264Y-116855264D01*
X208020929Y-116836176D01*
X208730171Y-116126935D01*
X209037500Y-116126935D01*
X209137861Y-116117050D01*
X209234366Y-116087776D01*
X209323305Y-116040237D01*
X209401260Y-115976260D01*
X209465237Y-115898305D01*
X209512776Y-115809366D01*
X209542050Y-115712861D01*
X209551935Y-115612500D01*
X209551935Y-115387500D01*
X209542050Y-115287139D01*
X209515798Y-115200596D01*
X209562793Y-115164425D01*
X209640589Y-115075449D01*
X209699531Y-114973006D01*
X209737356Y-114861033D01*
X209750000Y-114775000D01*
X209600000Y-114625000D01*
X208800000Y-114625000D01*
X208800000Y-114670000D01*
X208500000Y-114670000D01*
X208500000Y-114625000D01*
X208480000Y-114625000D01*
X208480000Y-114375000D01*
X208500000Y-114375000D01*
X208500000Y-114330000D01*
X208800000Y-114330000D01*
X208800000Y-114375000D01*
X209600000Y-114375000D01*
X209750000Y-114225000D01*
X209737356Y-114138967D01*
X209699531Y-114026994D01*
X209640589Y-113924551D01*
X209562793Y-113835575D01*
X209515798Y-113799404D01*
X209542050Y-113712861D01*
X209551935Y-113612500D01*
X209551935Y-113387500D01*
X209542050Y-113287139D01*
X209512776Y-113190634D01*
X209465237Y-113101695D01*
X209401260Y-113023740D01*
X209323305Y-112959763D01*
X209234366Y-112912224D01*
X209137861Y-112882950D01*
X209037500Y-112873065D01*
X208262500Y-112873065D01*
X208162139Y-112882950D01*
X208065634Y-112912224D01*
X207976695Y-112959763D01*
X207948354Y-112983022D01*
X207934211Y-112965789D01*
X207873303Y-112915803D01*
X207803814Y-112878660D01*
X207728414Y-112855788D01*
X207650000Y-112848065D01*
X206350000Y-112848065D01*
X206271586Y-112855788D01*
X206196186Y-112878660D01*
X206126697Y-112915803D01*
X206065789Y-112965789D01*
X206051646Y-112983022D01*
X206023305Y-112959763D01*
X205934366Y-112912224D01*
X205837861Y-112882950D01*
X205737500Y-112873065D01*
X204962500Y-112873065D01*
X204862139Y-112882950D01*
X204765634Y-112912224D01*
X204676695Y-112959763D01*
X204598740Y-113023740D01*
X204552831Y-113079680D01*
X204552903Y-113075000D01*
X204541318Y-112957379D01*
X204507010Y-112844279D01*
X204451296Y-112740045D01*
X204376317Y-112648683D01*
X204284955Y-112573704D01*
X204180721Y-112517990D01*
X204067621Y-112483682D01*
X203950000Y-112472097D01*
X203550000Y-112475000D01*
X203400000Y-112625000D01*
X203400000Y-113412500D01*
X203420000Y-113412500D01*
X203420000Y-113712500D01*
X203400000Y-113712500D01*
X203400000Y-113732500D01*
X203100000Y-113732500D01*
X203100000Y-113712500D01*
X202100000Y-113712500D01*
X201950000Y-113862500D01*
X201947097Y-114050000D01*
X201958682Y-114167621D01*
X201992990Y-114280721D01*
X202048704Y-114384955D01*
X202123683Y-114476317D01*
X202215045Y-114551296D01*
X202319279Y-114607010D01*
X202432379Y-114641318D01*
X202459204Y-114643960D01*
X202435027Y-114656883D01*
X202337182Y-114737182D01*
X202314784Y-114764474D01*
X202233351Y-114730743D01*
X202078793Y-114700000D01*
X201921207Y-114700000D01*
X201766649Y-114730743D01*
X201621058Y-114791049D01*
X201490030Y-114878599D01*
X201378599Y-114990030D01*
X201291049Y-115121058D01*
X201230743Y-115266649D01*
X201200000Y-115421207D01*
X200523516Y-115421207D01*
X200740491Y-115204232D01*
X201161826Y-114573659D01*
X201452047Y-113873004D01*
X201600000Y-113129192D01*
X201600000Y-113075000D01*
X201947097Y-113075000D01*
X201950000Y-113262500D01*
X202100000Y-113412500D01*
X203100000Y-113412500D01*
X203100000Y-112625000D01*
X202950000Y-112475000D01*
X202550000Y-112472097D01*
X202432379Y-112483682D01*
X202319279Y-112517990D01*
X202215045Y-112573704D01*
X202123683Y-112648683D01*
X202048704Y-112740045D01*
X201992990Y-112844279D01*
X201958682Y-112957379D01*
X201947097Y-113075000D01*
X201600000Y-113075000D01*
X201600000Y-112370808D01*
X201452047Y-111626996D01*
X201161826Y-110926341D01*
X200860250Y-110475000D01*
X214275001Y-110475000D01*
X214275000Y-113273331D01*
X214277159Y-113295250D01*
X214277028Y-113313994D01*
X214277675Y-113320595D01*
X214338876Y-113902885D01*
X214347538Y-113945083D01*
X214355600Y-113987347D01*
X214357515Y-113993688D01*
X214357516Y-113993695D01*
X214357519Y-113993701D01*
X214530654Y-114553009D01*
X214547341Y-114592706D01*
X214563464Y-114632612D01*
X214566576Y-114638464D01*
X214566578Y-114638469D01*
X214566581Y-114638473D01*
X214845054Y-115153500D01*
X214869132Y-115189197D01*
X214892701Y-115225216D01*
X214896893Y-115230356D01*
X215270103Y-115681489D01*
X215300648Y-115711821D01*
X215330772Y-115742583D01*
X215335877Y-115746805D01*
X215335883Y-115746811D01*
X215335890Y-115746815D01*
X215789611Y-116116863D01*
X215825474Y-116140690D01*
X215860992Y-116165010D01*
X215866826Y-116168164D01*
X216383791Y-116443038D01*
X216423568Y-116459433D01*
X216463164Y-116476404D01*
X216469499Y-116478365D01*
X217030007Y-116647592D01*
X217072252Y-116655957D01*
X217114349Y-116664905D01*
X217120945Y-116665598D01*
X217703647Y-116722733D01*
X217703650Y-116722733D01*
X217726668Y-116725000D01*
X220525001Y-116725000D01*
X220525000Y-138525000D01*
X218360250Y-138525000D01*
X218661826Y-138073659D01*
X218952047Y-137373004D01*
X219100000Y-136629192D01*
X219100000Y-135870808D01*
X218952047Y-135126996D01*
X218661826Y-134426341D01*
X218240491Y-133795768D01*
X217704232Y-133259509D01*
X217073659Y-132838174D01*
X216373004Y-132547953D01*
X215629192Y-132400000D01*
X214870808Y-132400000D01*
X214126996Y-132547953D01*
X213426341Y-132838174D01*
X212795768Y-133259509D01*
X212259509Y-133795768D01*
X211838174Y-134426341D01*
X211547953Y-135126996D01*
X211400000Y-135870808D01*
X211400000Y-136629192D01*
X211547953Y-137373004D01*
X211838174Y-138073659D01*
X212139750Y-138525000D01*
X198725000Y-138525000D01*
X198725000Y-135726668D01*
X198722841Y-135704749D01*
X198722972Y-135686005D01*
X198722325Y-135679405D01*
X198661124Y-135097115D01*
X198652461Y-135054910D01*
X198644400Y-135012654D01*
X198642486Y-135006315D01*
X198642484Y-135006305D01*
X198642480Y-135006296D01*
X198469346Y-134446991D01*
X198452659Y-134407294D01*
X198436536Y-134367388D01*
X198433422Y-134361532D01*
X198433422Y-134361531D01*
X198433419Y-134361527D01*
X198154946Y-133846500D01*
X198130884Y-133810826D01*
X198107299Y-133774784D01*
X198103107Y-133769644D01*
X197729897Y-133318511D01*
X197699335Y-133288162D01*
X197669228Y-133257417D01*
X197664123Y-133253195D01*
X197664117Y-133253189D01*
X197664110Y-133253185D01*
X197353676Y-133000000D01*
X198555646Y-133000000D01*
X198573023Y-133176431D01*
X198624486Y-133346081D01*
X198708057Y-133502432D01*
X198820525Y-133639475D01*
X198957568Y-133751943D01*
X199113919Y-133835514D01*
X199283569Y-133886977D01*
X199415793Y-133900000D01*
X199504207Y-133900000D01*
X199636431Y-133886977D01*
X199806081Y-133835514D01*
X199962432Y-133751943D01*
X200095000Y-133643148D01*
X200227568Y-133751943D01*
X200383919Y-133835514D01*
X200553569Y-133886977D01*
X200685793Y-133900000D01*
X200774207Y-133900000D01*
X200906431Y-133886977D01*
X201076081Y-133835514D01*
X201213776Y-133761915D01*
X201301606Y-133849860D01*
X201480825Y-133969780D01*
X201679995Y-134052432D01*
X201681376Y-134052844D01*
X201850000Y-133938083D01*
X201850000Y-133150000D01*
X201830000Y-133150000D01*
X201830000Y-132850000D01*
X201850000Y-132850000D01*
X201850000Y-132061917D01*
X202150000Y-132061917D01*
X202150000Y-132850000D01*
X202170000Y-132850000D01*
X202170000Y-133150000D01*
X202150000Y-133150000D01*
X202150000Y-133938083D01*
X202318624Y-134052844D01*
X202320005Y-134052432D01*
X202519175Y-133969780D01*
X202698394Y-133849860D01*
X202786224Y-133761915D01*
X202923919Y-133835514D01*
X203093569Y-133886977D01*
X203225793Y-133900000D01*
X203314207Y-133900000D01*
X203446431Y-133886977D01*
X203616081Y-133835514D01*
X203742456Y-133767965D01*
X203755789Y-133784211D01*
X203816697Y-133834197D01*
X203886186Y-133871340D01*
X203961586Y-133894212D01*
X204040000Y-133901935D01*
X205040000Y-133901935D01*
X205118414Y-133894212D01*
X205193814Y-133871340D01*
X205263303Y-133834197D01*
X205324211Y-133784211D01*
X205374197Y-133723303D01*
X205411340Y-133653814D01*
X205434212Y-133578414D01*
X205441935Y-133500000D01*
X205441935Y-132500000D01*
X205434212Y-132421586D01*
X205411340Y-132346186D01*
X205374197Y-132276697D01*
X205324211Y-132215789D01*
X205263303Y-132165803D01*
X205193814Y-132128660D01*
X205118414Y-132105788D01*
X205040000Y-132098065D01*
X204040000Y-132098065D01*
X203961586Y-132105788D01*
X203886186Y-132128660D01*
X203816697Y-132165803D01*
X203755789Y-132215789D01*
X203742456Y-132232035D01*
X203616081Y-132164486D01*
X203446431Y-132113023D01*
X203314207Y-132100000D01*
X203225793Y-132100000D01*
X203093569Y-132113023D01*
X202923919Y-132164486D01*
X202786224Y-132238085D01*
X202698394Y-132150140D01*
X202519175Y-132030220D01*
X202320005Y-131947568D01*
X202318624Y-131947156D01*
X202150000Y-132061917D01*
X201850000Y-132061917D01*
X201681376Y-131947156D01*
X201679995Y-131947568D01*
X201480825Y-132030220D01*
X201301606Y-132150140D01*
X201213776Y-132238085D01*
X201076081Y-132164486D01*
X200906431Y-132113023D01*
X200774207Y-132100000D01*
X200685793Y-132100000D01*
X200553569Y-132113023D01*
X200383919Y-132164486D01*
X200227568Y-132248057D01*
X200095000Y-132356852D01*
X199962432Y-132248057D01*
X199806081Y-132164486D01*
X199636431Y-132113023D01*
X199504207Y-132100000D01*
X199415793Y-132100000D01*
X199283569Y-132113023D01*
X199113919Y-132164486D01*
X198957568Y-132248057D01*
X198820525Y-132360525D01*
X198708057Y-132497568D01*
X198624486Y-132653919D01*
X198573023Y-132823569D01*
X198555646Y-133000000D01*
X197353676Y-133000000D01*
X197210389Y-132883138D01*
X197174537Y-132859318D01*
X197139008Y-132834990D01*
X197133179Y-132831839D01*
X197133175Y-132831836D01*
X197133171Y-132831834D01*
X196616210Y-132556962D01*
X196576406Y-132540556D01*
X196536836Y-132523596D01*
X196530501Y-132521635D01*
X195969993Y-132352408D01*
X195927748Y-132344043D01*
X195885651Y-132335095D01*
X195879055Y-132334402D01*
X195296352Y-132277267D01*
X195296350Y-132277267D01*
X195273332Y-132275000D01*
X192475000Y-132275000D01*
X192475000Y-126865766D01*
X217039000Y-126865766D01*
X217067452Y-126959582D01*
X217185046Y-127218368D01*
X217350867Y-127449240D01*
X217558543Y-127643326D01*
X217778971Y-127780065D01*
X217590000Y-127780065D01*
X217511586Y-127787788D01*
X217436186Y-127810660D01*
X217366697Y-127847803D01*
X217305789Y-127897789D01*
X217255803Y-127958697D01*
X217218660Y-128028186D01*
X217195788Y-128103586D01*
X217188065Y-128182000D01*
X217188065Y-129882000D01*
X217195788Y-129960414D01*
X217218660Y-130035814D01*
X217255803Y-130105303D01*
X217305789Y-130166211D01*
X217366697Y-130216197D01*
X217436186Y-130253340D01*
X217511586Y-130276212D01*
X217590000Y-130283935D01*
X219290000Y-130283935D01*
X219368414Y-130276212D01*
X219443814Y-130253340D01*
X219513303Y-130216197D01*
X219574211Y-130166211D01*
X219624197Y-130105303D01*
X219661340Y-130035814D01*
X219684212Y-129960414D01*
X219691935Y-129882000D01*
X219691935Y-128182000D01*
X219684212Y-128103586D01*
X219661340Y-128028186D01*
X219624197Y-127958697D01*
X219574211Y-127897789D01*
X219513303Y-127847803D01*
X219443814Y-127810660D01*
X219368414Y-127787788D01*
X219290000Y-127780065D01*
X219101029Y-127780065D01*
X219321457Y-127643326D01*
X219529133Y-127449240D01*
X219694954Y-127218368D01*
X219812548Y-126959582D01*
X219841000Y-126865766D01*
X219731317Y-126642000D01*
X218590000Y-126642000D01*
X218590000Y-126662000D01*
X218290000Y-126662000D01*
X218290000Y-126642000D01*
X217148683Y-126642000D01*
X217039000Y-126865766D01*
X192475000Y-126865766D01*
X192475000Y-126118234D01*
X217039000Y-126118234D01*
X217148683Y-126342000D01*
X218290000Y-126342000D01*
X218290000Y-126322000D01*
X218590000Y-126322000D01*
X218590000Y-126342000D01*
X219731317Y-126342000D01*
X219841000Y-126118234D01*
X219812548Y-126024418D01*
X219694954Y-125765632D01*
X219529133Y-125534760D01*
X219321457Y-125340674D01*
X219079908Y-125190833D01*
X218893166Y-125120780D01*
X218920669Y-125112437D01*
X219137823Y-124996366D01*
X219328160Y-124840160D01*
X219484366Y-124649823D01*
X219600437Y-124432669D01*
X219671913Y-124197043D01*
X219696048Y-123952000D01*
X219671913Y-123706957D01*
X219600437Y-123471331D01*
X219484366Y-123254177D01*
X219328160Y-123063840D01*
X219137823Y-122907634D01*
X218920669Y-122791563D01*
X218685043Y-122720087D01*
X218501405Y-122702000D01*
X218378595Y-122702000D01*
X218194957Y-122720087D01*
X217959331Y-122791563D01*
X217742177Y-122907634D01*
X217551840Y-123063840D01*
X217395634Y-123254177D01*
X217279563Y-123471331D01*
X217208087Y-123706957D01*
X217183952Y-123952000D01*
X217208087Y-124197043D01*
X217279563Y-124432669D01*
X217395634Y-124649823D01*
X217551840Y-124840160D01*
X217742177Y-124996366D01*
X217959331Y-125112437D01*
X217986834Y-125120780D01*
X217800092Y-125190833D01*
X217558543Y-125340674D01*
X217350867Y-125534760D01*
X217185046Y-125765632D01*
X217067452Y-126024418D01*
X217039000Y-126118234D01*
X192475000Y-126118234D01*
X192475000Y-110475000D01*
X194639750Y-110475000D01*
X194338174Y-110926341D01*
M02*
