G04 #@! TF.GenerationSoftware,KiCad,Pcbnew,(5.1.2)-1*
G04 #@! TF.CreationDate,2019-05-26T15:49:40+02:00*
G04 #@! TF.ProjectId,Dew Sensor,44657720-5365-46e7-936f-722e6b696361,rev?*
G04 #@! TF.SameCoordinates,Original*
G04 #@! TF.FileFunction,Copper,L2,Bot*
G04 #@! TF.FilePolarity,Positive*
%FSLAX46Y46*%
G04 Gerber Fmt 4.6, Leading zero omitted, Abs format (unit mm)*
G04 Created by KiCad (PCBNEW (5.1.2)-1) date 2019-05-26 15:49:40*
%MOMM*%
%LPD*%
G04 APERTURE LIST*
%ADD10O,1.700000X1.700000*%
%ADD11R,1.700000X1.700000*%
%ADD12O,1.000000X1.000000*%
%ADD13R,1.000000X1.000000*%
%ADD14C,0.100000*%
%ADD15C,0.975000*%
%ADD16R,1.500000X0.600000*%
%ADD17R,0.900000X0.800000*%
%ADD18C,0.800000*%
%ADD19C,0.200000*%
%ADD20C,0.500000*%
G04 APERTURE END LIST*
D10*
X218440000Y-121412000D03*
X218440000Y-123952000D03*
X218440000Y-126492000D03*
D11*
X218440000Y-129032000D03*
D12*
X199460000Y-133000000D03*
X200730000Y-133000000D03*
X202000000Y-133000000D03*
X203270000Y-133000000D03*
D13*
X204540000Y-133000000D03*
D14*
G36*
X203480142Y-116326174D02*
G01*
X203503803Y-116329684D01*
X203527007Y-116335496D01*
X203549529Y-116343554D01*
X203571153Y-116353782D01*
X203591670Y-116366079D01*
X203610883Y-116380329D01*
X203628607Y-116396393D01*
X203644671Y-116414117D01*
X203658921Y-116433330D01*
X203671218Y-116453847D01*
X203681446Y-116475471D01*
X203689504Y-116497993D01*
X203695316Y-116521197D01*
X203698826Y-116544858D01*
X203700000Y-116568750D01*
X203700000Y-117056250D01*
X203698826Y-117080142D01*
X203695316Y-117103803D01*
X203689504Y-117127007D01*
X203681446Y-117149529D01*
X203671218Y-117171153D01*
X203658921Y-117191670D01*
X203644671Y-117210883D01*
X203628607Y-117228607D01*
X203610883Y-117244671D01*
X203591670Y-117258921D01*
X203571153Y-117271218D01*
X203549529Y-117281446D01*
X203527007Y-117289504D01*
X203503803Y-117295316D01*
X203480142Y-117298826D01*
X203456250Y-117300000D01*
X202543750Y-117300000D01*
X202519858Y-117298826D01*
X202496197Y-117295316D01*
X202472993Y-117289504D01*
X202450471Y-117281446D01*
X202428847Y-117271218D01*
X202408330Y-117258921D01*
X202389117Y-117244671D01*
X202371393Y-117228607D01*
X202355329Y-117210883D01*
X202341079Y-117191670D01*
X202328782Y-117171153D01*
X202318554Y-117149529D01*
X202310496Y-117127007D01*
X202304684Y-117103803D01*
X202301174Y-117080142D01*
X202300000Y-117056250D01*
X202300000Y-116568750D01*
X202301174Y-116544858D01*
X202304684Y-116521197D01*
X202310496Y-116497993D01*
X202318554Y-116475471D01*
X202328782Y-116453847D01*
X202341079Y-116433330D01*
X202355329Y-116414117D01*
X202371393Y-116396393D01*
X202389117Y-116380329D01*
X202408330Y-116366079D01*
X202428847Y-116353782D01*
X202450471Y-116343554D01*
X202472993Y-116335496D01*
X202496197Y-116329684D01*
X202519858Y-116326174D01*
X202543750Y-116325000D01*
X203456250Y-116325000D01*
X203480142Y-116326174D01*
X203480142Y-116326174D01*
G37*
D15*
X203000000Y-116812500D03*
D14*
G36*
X203480142Y-118201174D02*
G01*
X203503803Y-118204684D01*
X203527007Y-118210496D01*
X203549529Y-118218554D01*
X203571153Y-118228782D01*
X203591670Y-118241079D01*
X203610883Y-118255329D01*
X203628607Y-118271393D01*
X203644671Y-118289117D01*
X203658921Y-118308330D01*
X203671218Y-118328847D01*
X203681446Y-118350471D01*
X203689504Y-118372993D01*
X203695316Y-118396197D01*
X203698826Y-118419858D01*
X203700000Y-118443750D01*
X203700000Y-118931250D01*
X203698826Y-118955142D01*
X203695316Y-118978803D01*
X203689504Y-119002007D01*
X203681446Y-119024529D01*
X203671218Y-119046153D01*
X203658921Y-119066670D01*
X203644671Y-119085883D01*
X203628607Y-119103607D01*
X203610883Y-119119671D01*
X203591670Y-119133921D01*
X203571153Y-119146218D01*
X203549529Y-119156446D01*
X203527007Y-119164504D01*
X203503803Y-119170316D01*
X203480142Y-119173826D01*
X203456250Y-119175000D01*
X202543750Y-119175000D01*
X202519858Y-119173826D01*
X202496197Y-119170316D01*
X202472993Y-119164504D01*
X202450471Y-119156446D01*
X202428847Y-119146218D01*
X202408330Y-119133921D01*
X202389117Y-119119671D01*
X202371393Y-119103607D01*
X202355329Y-119085883D01*
X202341079Y-119066670D01*
X202328782Y-119046153D01*
X202318554Y-119024529D01*
X202310496Y-119002007D01*
X202304684Y-118978803D01*
X202301174Y-118955142D01*
X202300000Y-118931250D01*
X202300000Y-118443750D01*
X202301174Y-118419858D01*
X202304684Y-118396197D01*
X202310496Y-118372993D01*
X202318554Y-118350471D01*
X202328782Y-118328847D01*
X202341079Y-118308330D01*
X202355329Y-118289117D01*
X202371393Y-118271393D01*
X202389117Y-118255329D01*
X202408330Y-118241079D01*
X202428847Y-118228782D01*
X202450471Y-118218554D01*
X202472993Y-118210496D01*
X202496197Y-118204684D01*
X202519858Y-118201174D01*
X202543750Y-118200000D01*
X203456250Y-118200000D01*
X203480142Y-118201174D01*
X203480142Y-118201174D01*
G37*
D15*
X203000000Y-118687500D03*
D14*
G36*
X201480142Y-118201174D02*
G01*
X201503803Y-118204684D01*
X201527007Y-118210496D01*
X201549529Y-118218554D01*
X201571153Y-118228782D01*
X201591670Y-118241079D01*
X201610883Y-118255329D01*
X201628607Y-118271393D01*
X201644671Y-118289117D01*
X201658921Y-118308330D01*
X201671218Y-118328847D01*
X201681446Y-118350471D01*
X201689504Y-118372993D01*
X201695316Y-118396197D01*
X201698826Y-118419858D01*
X201700000Y-118443750D01*
X201700000Y-118931250D01*
X201698826Y-118955142D01*
X201695316Y-118978803D01*
X201689504Y-119002007D01*
X201681446Y-119024529D01*
X201671218Y-119046153D01*
X201658921Y-119066670D01*
X201644671Y-119085883D01*
X201628607Y-119103607D01*
X201610883Y-119119671D01*
X201591670Y-119133921D01*
X201571153Y-119146218D01*
X201549529Y-119156446D01*
X201527007Y-119164504D01*
X201503803Y-119170316D01*
X201480142Y-119173826D01*
X201456250Y-119175000D01*
X200543750Y-119175000D01*
X200519858Y-119173826D01*
X200496197Y-119170316D01*
X200472993Y-119164504D01*
X200450471Y-119156446D01*
X200428847Y-119146218D01*
X200408330Y-119133921D01*
X200389117Y-119119671D01*
X200371393Y-119103607D01*
X200355329Y-119085883D01*
X200341079Y-119066670D01*
X200328782Y-119046153D01*
X200318554Y-119024529D01*
X200310496Y-119002007D01*
X200304684Y-118978803D01*
X200301174Y-118955142D01*
X200300000Y-118931250D01*
X200300000Y-118443750D01*
X200301174Y-118419858D01*
X200304684Y-118396197D01*
X200310496Y-118372993D01*
X200318554Y-118350471D01*
X200328782Y-118328847D01*
X200341079Y-118308330D01*
X200355329Y-118289117D01*
X200371393Y-118271393D01*
X200389117Y-118255329D01*
X200408330Y-118241079D01*
X200428847Y-118228782D01*
X200450471Y-118218554D01*
X200472993Y-118210496D01*
X200496197Y-118204684D01*
X200519858Y-118201174D01*
X200543750Y-118200000D01*
X201456250Y-118200000D01*
X201480142Y-118201174D01*
X201480142Y-118201174D01*
G37*
D15*
X201000000Y-118687500D03*
D14*
G36*
X201480142Y-116326174D02*
G01*
X201503803Y-116329684D01*
X201527007Y-116335496D01*
X201549529Y-116343554D01*
X201571153Y-116353782D01*
X201591670Y-116366079D01*
X201610883Y-116380329D01*
X201628607Y-116396393D01*
X201644671Y-116414117D01*
X201658921Y-116433330D01*
X201671218Y-116453847D01*
X201681446Y-116475471D01*
X201689504Y-116497993D01*
X201695316Y-116521197D01*
X201698826Y-116544858D01*
X201700000Y-116568750D01*
X201700000Y-117056250D01*
X201698826Y-117080142D01*
X201695316Y-117103803D01*
X201689504Y-117127007D01*
X201681446Y-117149529D01*
X201671218Y-117171153D01*
X201658921Y-117191670D01*
X201644671Y-117210883D01*
X201628607Y-117228607D01*
X201610883Y-117244671D01*
X201591670Y-117258921D01*
X201571153Y-117271218D01*
X201549529Y-117281446D01*
X201527007Y-117289504D01*
X201503803Y-117295316D01*
X201480142Y-117298826D01*
X201456250Y-117300000D01*
X200543750Y-117300000D01*
X200519858Y-117298826D01*
X200496197Y-117295316D01*
X200472993Y-117289504D01*
X200450471Y-117281446D01*
X200428847Y-117271218D01*
X200408330Y-117258921D01*
X200389117Y-117244671D01*
X200371393Y-117228607D01*
X200355329Y-117210883D01*
X200341079Y-117191670D01*
X200328782Y-117171153D01*
X200318554Y-117149529D01*
X200310496Y-117127007D01*
X200304684Y-117103803D01*
X200301174Y-117080142D01*
X200300000Y-117056250D01*
X200300000Y-116568750D01*
X200301174Y-116544858D01*
X200304684Y-116521197D01*
X200310496Y-116497993D01*
X200318554Y-116475471D01*
X200328782Y-116453847D01*
X200341079Y-116433330D01*
X200355329Y-116414117D01*
X200371393Y-116396393D01*
X200389117Y-116380329D01*
X200408330Y-116366079D01*
X200428847Y-116353782D01*
X200450471Y-116343554D01*
X200472993Y-116335496D01*
X200496197Y-116329684D01*
X200519858Y-116326174D01*
X200543750Y-116325000D01*
X201456250Y-116325000D01*
X201480142Y-116326174D01*
X201480142Y-116326174D01*
G37*
D15*
X201000000Y-116812500D03*
D14*
G36*
X203299142Y-126816174D02*
G01*
X203322803Y-126819684D01*
X203346007Y-126825496D01*
X203368529Y-126833554D01*
X203390153Y-126843782D01*
X203410670Y-126856079D01*
X203429883Y-126870329D01*
X203447607Y-126886393D01*
X203463671Y-126904117D01*
X203477921Y-126923330D01*
X203490218Y-126943847D01*
X203500446Y-126965471D01*
X203508504Y-126987993D01*
X203514316Y-127011197D01*
X203517826Y-127034858D01*
X203519000Y-127058750D01*
X203519000Y-127546250D01*
X203517826Y-127570142D01*
X203514316Y-127593803D01*
X203508504Y-127617007D01*
X203500446Y-127639529D01*
X203490218Y-127661153D01*
X203477921Y-127681670D01*
X203463671Y-127700883D01*
X203447607Y-127718607D01*
X203429883Y-127734671D01*
X203410670Y-127748921D01*
X203390153Y-127761218D01*
X203368529Y-127771446D01*
X203346007Y-127779504D01*
X203322803Y-127785316D01*
X203299142Y-127788826D01*
X203275250Y-127790000D01*
X202362750Y-127790000D01*
X202338858Y-127788826D01*
X202315197Y-127785316D01*
X202291993Y-127779504D01*
X202269471Y-127771446D01*
X202247847Y-127761218D01*
X202227330Y-127748921D01*
X202208117Y-127734671D01*
X202190393Y-127718607D01*
X202174329Y-127700883D01*
X202160079Y-127681670D01*
X202147782Y-127661153D01*
X202137554Y-127639529D01*
X202129496Y-127617007D01*
X202123684Y-127593803D01*
X202120174Y-127570142D01*
X202119000Y-127546250D01*
X202119000Y-127058750D01*
X202120174Y-127034858D01*
X202123684Y-127011197D01*
X202129496Y-126987993D01*
X202137554Y-126965471D01*
X202147782Y-126943847D01*
X202160079Y-126923330D01*
X202174329Y-126904117D01*
X202190393Y-126886393D01*
X202208117Y-126870329D01*
X202227330Y-126856079D01*
X202247847Y-126843782D01*
X202269471Y-126833554D01*
X202291993Y-126825496D01*
X202315197Y-126819684D01*
X202338858Y-126816174D01*
X202362750Y-126815000D01*
X203275250Y-126815000D01*
X203299142Y-126816174D01*
X203299142Y-126816174D01*
G37*
D15*
X202819000Y-127302500D03*
D14*
G36*
X203299142Y-124941174D02*
G01*
X203322803Y-124944684D01*
X203346007Y-124950496D01*
X203368529Y-124958554D01*
X203390153Y-124968782D01*
X203410670Y-124981079D01*
X203429883Y-124995329D01*
X203447607Y-125011393D01*
X203463671Y-125029117D01*
X203477921Y-125048330D01*
X203490218Y-125068847D01*
X203500446Y-125090471D01*
X203508504Y-125112993D01*
X203514316Y-125136197D01*
X203517826Y-125159858D01*
X203519000Y-125183750D01*
X203519000Y-125671250D01*
X203517826Y-125695142D01*
X203514316Y-125718803D01*
X203508504Y-125742007D01*
X203500446Y-125764529D01*
X203490218Y-125786153D01*
X203477921Y-125806670D01*
X203463671Y-125825883D01*
X203447607Y-125843607D01*
X203429883Y-125859671D01*
X203410670Y-125873921D01*
X203390153Y-125886218D01*
X203368529Y-125896446D01*
X203346007Y-125904504D01*
X203322803Y-125910316D01*
X203299142Y-125913826D01*
X203275250Y-125915000D01*
X202362750Y-125915000D01*
X202338858Y-125913826D01*
X202315197Y-125910316D01*
X202291993Y-125904504D01*
X202269471Y-125896446D01*
X202247847Y-125886218D01*
X202227330Y-125873921D01*
X202208117Y-125859671D01*
X202190393Y-125843607D01*
X202174329Y-125825883D01*
X202160079Y-125806670D01*
X202147782Y-125786153D01*
X202137554Y-125764529D01*
X202129496Y-125742007D01*
X202123684Y-125718803D01*
X202120174Y-125695142D01*
X202119000Y-125671250D01*
X202119000Y-125183750D01*
X202120174Y-125159858D01*
X202123684Y-125136197D01*
X202129496Y-125112993D01*
X202137554Y-125090471D01*
X202147782Y-125068847D01*
X202160079Y-125048330D01*
X202174329Y-125029117D01*
X202190393Y-125011393D01*
X202208117Y-124995329D01*
X202227330Y-124981079D01*
X202247847Y-124968782D01*
X202269471Y-124958554D01*
X202291993Y-124950496D01*
X202315197Y-124944684D01*
X202338858Y-124941174D01*
X202362750Y-124940000D01*
X203275250Y-124940000D01*
X203299142Y-124941174D01*
X203299142Y-124941174D01*
G37*
D15*
X202819000Y-125427500D03*
D14*
G36*
X205585142Y-120466174D02*
G01*
X205608803Y-120469684D01*
X205632007Y-120475496D01*
X205654529Y-120483554D01*
X205676153Y-120493782D01*
X205696670Y-120506079D01*
X205715883Y-120520329D01*
X205733607Y-120536393D01*
X205749671Y-120554117D01*
X205763921Y-120573330D01*
X205776218Y-120593847D01*
X205786446Y-120615471D01*
X205794504Y-120637993D01*
X205800316Y-120661197D01*
X205803826Y-120684858D01*
X205805000Y-120708750D01*
X205805000Y-121196250D01*
X205803826Y-121220142D01*
X205800316Y-121243803D01*
X205794504Y-121267007D01*
X205786446Y-121289529D01*
X205776218Y-121311153D01*
X205763921Y-121331670D01*
X205749671Y-121350883D01*
X205733607Y-121368607D01*
X205715883Y-121384671D01*
X205696670Y-121398921D01*
X205676153Y-121411218D01*
X205654529Y-121421446D01*
X205632007Y-121429504D01*
X205608803Y-121435316D01*
X205585142Y-121438826D01*
X205561250Y-121440000D01*
X204648750Y-121440000D01*
X204624858Y-121438826D01*
X204601197Y-121435316D01*
X204577993Y-121429504D01*
X204555471Y-121421446D01*
X204533847Y-121411218D01*
X204513330Y-121398921D01*
X204494117Y-121384671D01*
X204476393Y-121368607D01*
X204460329Y-121350883D01*
X204446079Y-121331670D01*
X204433782Y-121311153D01*
X204423554Y-121289529D01*
X204415496Y-121267007D01*
X204409684Y-121243803D01*
X204406174Y-121220142D01*
X204405000Y-121196250D01*
X204405000Y-120708750D01*
X204406174Y-120684858D01*
X204409684Y-120661197D01*
X204415496Y-120637993D01*
X204423554Y-120615471D01*
X204433782Y-120593847D01*
X204446079Y-120573330D01*
X204460329Y-120554117D01*
X204476393Y-120536393D01*
X204494117Y-120520329D01*
X204513330Y-120506079D01*
X204533847Y-120493782D01*
X204555471Y-120483554D01*
X204577993Y-120475496D01*
X204601197Y-120469684D01*
X204624858Y-120466174D01*
X204648750Y-120465000D01*
X205561250Y-120465000D01*
X205585142Y-120466174D01*
X205585142Y-120466174D01*
G37*
D15*
X205105000Y-120952500D03*
D14*
G36*
X205585142Y-118591174D02*
G01*
X205608803Y-118594684D01*
X205632007Y-118600496D01*
X205654529Y-118608554D01*
X205676153Y-118618782D01*
X205696670Y-118631079D01*
X205715883Y-118645329D01*
X205733607Y-118661393D01*
X205749671Y-118679117D01*
X205763921Y-118698330D01*
X205776218Y-118718847D01*
X205786446Y-118740471D01*
X205794504Y-118762993D01*
X205800316Y-118786197D01*
X205803826Y-118809858D01*
X205805000Y-118833750D01*
X205805000Y-119321250D01*
X205803826Y-119345142D01*
X205800316Y-119368803D01*
X205794504Y-119392007D01*
X205786446Y-119414529D01*
X205776218Y-119436153D01*
X205763921Y-119456670D01*
X205749671Y-119475883D01*
X205733607Y-119493607D01*
X205715883Y-119509671D01*
X205696670Y-119523921D01*
X205676153Y-119536218D01*
X205654529Y-119546446D01*
X205632007Y-119554504D01*
X205608803Y-119560316D01*
X205585142Y-119563826D01*
X205561250Y-119565000D01*
X204648750Y-119565000D01*
X204624858Y-119563826D01*
X204601197Y-119560316D01*
X204577993Y-119554504D01*
X204555471Y-119546446D01*
X204533847Y-119536218D01*
X204513330Y-119523921D01*
X204494117Y-119509671D01*
X204476393Y-119493607D01*
X204460329Y-119475883D01*
X204446079Y-119456670D01*
X204433782Y-119436153D01*
X204423554Y-119414529D01*
X204415496Y-119392007D01*
X204409684Y-119368803D01*
X204406174Y-119345142D01*
X204405000Y-119321250D01*
X204405000Y-118833750D01*
X204406174Y-118809858D01*
X204409684Y-118786197D01*
X204415496Y-118762993D01*
X204423554Y-118740471D01*
X204433782Y-118718847D01*
X204446079Y-118698330D01*
X204460329Y-118679117D01*
X204476393Y-118661393D01*
X204494117Y-118645329D01*
X204513330Y-118631079D01*
X204533847Y-118618782D01*
X204555471Y-118608554D01*
X204577993Y-118600496D01*
X204601197Y-118594684D01*
X204624858Y-118591174D01*
X204648750Y-118590000D01*
X205561250Y-118590000D01*
X205585142Y-118591174D01*
X205585142Y-118591174D01*
G37*
D15*
X205105000Y-119077500D03*
D14*
G36*
X205585142Y-124276174D02*
G01*
X205608803Y-124279684D01*
X205632007Y-124285496D01*
X205654529Y-124293554D01*
X205676153Y-124303782D01*
X205696670Y-124316079D01*
X205715883Y-124330329D01*
X205733607Y-124346393D01*
X205749671Y-124364117D01*
X205763921Y-124383330D01*
X205776218Y-124403847D01*
X205786446Y-124425471D01*
X205794504Y-124447993D01*
X205800316Y-124471197D01*
X205803826Y-124494858D01*
X205805000Y-124518750D01*
X205805000Y-125006250D01*
X205803826Y-125030142D01*
X205800316Y-125053803D01*
X205794504Y-125077007D01*
X205786446Y-125099529D01*
X205776218Y-125121153D01*
X205763921Y-125141670D01*
X205749671Y-125160883D01*
X205733607Y-125178607D01*
X205715883Y-125194671D01*
X205696670Y-125208921D01*
X205676153Y-125221218D01*
X205654529Y-125231446D01*
X205632007Y-125239504D01*
X205608803Y-125245316D01*
X205585142Y-125248826D01*
X205561250Y-125250000D01*
X204648750Y-125250000D01*
X204624858Y-125248826D01*
X204601197Y-125245316D01*
X204577993Y-125239504D01*
X204555471Y-125231446D01*
X204533847Y-125221218D01*
X204513330Y-125208921D01*
X204494117Y-125194671D01*
X204476393Y-125178607D01*
X204460329Y-125160883D01*
X204446079Y-125141670D01*
X204433782Y-125121153D01*
X204423554Y-125099529D01*
X204415496Y-125077007D01*
X204409684Y-125053803D01*
X204406174Y-125030142D01*
X204405000Y-125006250D01*
X204405000Y-124518750D01*
X204406174Y-124494858D01*
X204409684Y-124471197D01*
X204415496Y-124447993D01*
X204423554Y-124425471D01*
X204433782Y-124403847D01*
X204446079Y-124383330D01*
X204460329Y-124364117D01*
X204476393Y-124346393D01*
X204494117Y-124330329D01*
X204513330Y-124316079D01*
X204533847Y-124303782D01*
X204555471Y-124293554D01*
X204577993Y-124285496D01*
X204601197Y-124279684D01*
X204624858Y-124276174D01*
X204648750Y-124275000D01*
X205561250Y-124275000D01*
X205585142Y-124276174D01*
X205585142Y-124276174D01*
G37*
D15*
X205105000Y-124762500D03*
D14*
G36*
X205585142Y-122401174D02*
G01*
X205608803Y-122404684D01*
X205632007Y-122410496D01*
X205654529Y-122418554D01*
X205676153Y-122428782D01*
X205696670Y-122441079D01*
X205715883Y-122455329D01*
X205733607Y-122471393D01*
X205749671Y-122489117D01*
X205763921Y-122508330D01*
X205776218Y-122528847D01*
X205786446Y-122550471D01*
X205794504Y-122572993D01*
X205800316Y-122596197D01*
X205803826Y-122619858D01*
X205805000Y-122643750D01*
X205805000Y-123131250D01*
X205803826Y-123155142D01*
X205800316Y-123178803D01*
X205794504Y-123202007D01*
X205786446Y-123224529D01*
X205776218Y-123246153D01*
X205763921Y-123266670D01*
X205749671Y-123285883D01*
X205733607Y-123303607D01*
X205715883Y-123319671D01*
X205696670Y-123333921D01*
X205676153Y-123346218D01*
X205654529Y-123356446D01*
X205632007Y-123364504D01*
X205608803Y-123370316D01*
X205585142Y-123373826D01*
X205561250Y-123375000D01*
X204648750Y-123375000D01*
X204624858Y-123373826D01*
X204601197Y-123370316D01*
X204577993Y-123364504D01*
X204555471Y-123356446D01*
X204533847Y-123346218D01*
X204513330Y-123333921D01*
X204494117Y-123319671D01*
X204476393Y-123303607D01*
X204460329Y-123285883D01*
X204446079Y-123266670D01*
X204433782Y-123246153D01*
X204423554Y-123224529D01*
X204415496Y-123202007D01*
X204409684Y-123178803D01*
X204406174Y-123155142D01*
X204405000Y-123131250D01*
X204405000Y-122643750D01*
X204406174Y-122619858D01*
X204409684Y-122596197D01*
X204415496Y-122572993D01*
X204423554Y-122550471D01*
X204433782Y-122528847D01*
X204446079Y-122508330D01*
X204460329Y-122489117D01*
X204476393Y-122471393D01*
X204494117Y-122455329D01*
X204513330Y-122441079D01*
X204533847Y-122428782D01*
X204555471Y-122418554D01*
X204577993Y-122410496D01*
X204601197Y-122404684D01*
X204624858Y-122401174D01*
X204648750Y-122400000D01*
X205561250Y-122400000D01*
X205585142Y-122401174D01*
X205585142Y-122401174D01*
G37*
D15*
X205105000Y-122887500D03*
D14*
G36*
X209705142Y-131301174D02*
G01*
X209728803Y-131304684D01*
X209752007Y-131310496D01*
X209774529Y-131318554D01*
X209796153Y-131328782D01*
X209816670Y-131341079D01*
X209835883Y-131355329D01*
X209853607Y-131371393D01*
X209869671Y-131389117D01*
X209883921Y-131408330D01*
X209896218Y-131428847D01*
X209906446Y-131450471D01*
X209914504Y-131472993D01*
X209920316Y-131496197D01*
X209923826Y-131519858D01*
X209925000Y-131543750D01*
X209925000Y-132456250D01*
X209923826Y-132480142D01*
X209920316Y-132503803D01*
X209914504Y-132527007D01*
X209906446Y-132549529D01*
X209896218Y-132571153D01*
X209883921Y-132591670D01*
X209869671Y-132610883D01*
X209853607Y-132628607D01*
X209835883Y-132644671D01*
X209816670Y-132658921D01*
X209796153Y-132671218D01*
X209774529Y-132681446D01*
X209752007Y-132689504D01*
X209728803Y-132695316D01*
X209705142Y-132698826D01*
X209681250Y-132700000D01*
X209193750Y-132700000D01*
X209169858Y-132698826D01*
X209146197Y-132695316D01*
X209122993Y-132689504D01*
X209100471Y-132681446D01*
X209078847Y-132671218D01*
X209058330Y-132658921D01*
X209039117Y-132644671D01*
X209021393Y-132628607D01*
X209005329Y-132610883D01*
X208991079Y-132591670D01*
X208978782Y-132571153D01*
X208968554Y-132549529D01*
X208960496Y-132527007D01*
X208954684Y-132503803D01*
X208951174Y-132480142D01*
X208950000Y-132456250D01*
X208950000Y-131543750D01*
X208951174Y-131519858D01*
X208954684Y-131496197D01*
X208960496Y-131472993D01*
X208968554Y-131450471D01*
X208978782Y-131428847D01*
X208991079Y-131408330D01*
X209005329Y-131389117D01*
X209021393Y-131371393D01*
X209039117Y-131355329D01*
X209058330Y-131341079D01*
X209078847Y-131328782D01*
X209100471Y-131318554D01*
X209122993Y-131310496D01*
X209146197Y-131304684D01*
X209169858Y-131301174D01*
X209193750Y-131300000D01*
X209681250Y-131300000D01*
X209705142Y-131301174D01*
X209705142Y-131301174D01*
G37*
D15*
X209437500Y-132000000D03*
D14*
G36*
X207830142Y-131301174D02*
G01*
X207853803Y-131304684D01*
X207877007Y-131310496D01*
X207899529Y-131318554D01*
X207921153Y-131328782D01*
X207941670Y-131341079D01*
X207960883Y-131355329D01*
X207978607Y-131371393D01*
X207994671Y-131389117D01*
X208008921Y-131408330D01*
X208021218Y-131428847D01*
X208031446Y-131450471D01*
X208039504Y-131472993D01*
X208045316Y-131496197D01*
X208048826Y-131519858D01*
X208050000Y-131543750D01*
X208050000Y-132456250D01*
X208048826Y-132480142D01*
X208045316Y-132503803D01*
X208039504Y-132527007D01*
X208031446Y-132549529D01*
X208021218Y-132571153D01*
X208008921Y-132591670D01*
X207994671Y-132610883D01*
X207978607Y-132628607D01*
X207960883Y-132644671D01*
X207941670Y-132658921D01*
X207921153Y-132671218D01*
X207899529Y-132681446D01*
X207877007Y-132689504D01*
X207853803Y-132695316D01*
X207830142Y-132698826D01*
X207806250Y-132700000D01*
X207318750Y-132700000D01*
X207294858Y-132698826D01*
X207271197Y-132695316D01*
X207247993Y-132689504D01*
X207225471Y-132681446D01*
X207203847Y-132671218D01*
X207183330Y-132658921D01*
X207164117Y-132644671D01*
X207146393Y-132628607D01*
X207130329Y-132610883D01*
X207116079Y-132591670D01*
X207103782Y-132571153D01*
X207093554Y-132549529D01*
X207085496Y-132527007D01*
X207079684Y-132503803D01*
X207076174Y-132480142D01*
X207075000Y-132456250D01*
X207075000Y-131543750D01*
X207076174Y-131519858D01*
X207079684Y-131496197D01*
X207085496Y-131472993D01*
X207093554Y-131450471D01*
X207103782Y-131428847D01*
X207116079Y-131408330D01*
X207130329Y-131389117D01*
X207146393Y-131371393D01*
X207164117Y-131355329D01*
X207183330Y-131341079D01*
X207203847Y-131328782D01*
X207225471Y-131318554D01*
X207247993Y-131310496D01*
X207271197Y-131304684D01*
X207294858Y-131301174D01*
X207318750Y-131300000D01*
X207806250Y-131300000D01*
X207830142Y-131301174D01*
X207830142Y-131301174D01*
G37*
D15*
X207562500Y-132000000D03*
D14*
G36*
X215745142Y-128086174D02*
G01*
X215768803Y-128089684D01*
X215792007Y-128095496D01*
X215814529Y-128103554D01*
X215836153Y-128113782D01*
X215856670Y-128126079D01*
X215875883Y-128140329D01*
X215893607Y-128156393D01*
X215909671Y-128174117D01*
X215923921Y-128193330D01*
X215936218Y-128213847D01*
X215946446Y-128235471D01*
X215954504Y-128257993D01*
X215960316Y-128281197D01*
X215963826Y-128304858D01*
X215965000Y-128328750D01*
X215965000Y-128816250D01*
X215963826Y-128840142D01*
X215960316Y-128863803D01*
X215954504Y-128887007D01*
X215946446Y-128909529D01*
X215936218Y-128931153D01*
X215923921Y-128951670D01*
X215909671Y-128970883D01*
X215893607Y-128988607D01*
X215875883Y-129004671D01*
X215856670Y-129018921D01*
X215836153Y-129031218D01*
X215814529Y-129041446D01*
X215792007Y-129049504D01*
X215768803Y-129055316D01*
X215745142Y-129058826D01*
X215721250Y-129060000D01*
X214808750Y-129060000D01*
X214784858Y-129058826D01*
X214761197Y-129055316D01*
X214737993Y-129049504D01*
X214715471Y-129041446D01*
X214693847Y-129031218D01*
X214673330Y-129018921D01*
X214654117Y-129004671D01*
X214636393Y-128988607D01*
X214620329Y-128970883D01*
X214606079Y-128951670D01*
X214593782Y-128931153D01*
X214583554Y-128909529D01*
X214575496Y-128887007D01*
X214569684Y-128863803D01*
X214566174Y-128840142D01*
X214565000Y-128816250D01*
X214565000Y-128328750D01*
X214566174Y-128304858D01*
X214569684Y-128281197D01*
X214575496Y-128257993D01*
X214583554Y-128235471D01*
X214593782Y-128213847D01*
X214606079Y-128193330D01*
X214620329Y-128174117D01*
X214636393Y-128156393D01*
X214654117Y-128140329D01*
X214673330Y-128126079D01*
X214693847Y-128113782D01*
X214715471Y-128103554D01*
X214737993Y-128095496D01*
X214761197Y-128089684D01*
X214784858Y-128086174D01*
X214808750Y-128085000D01*
X215721250Y-128085000D01*
X215745142Y-128086174D01*
X215745142Y-128086174D01*
G37*
D15*
X215265000Y-128572500D03*
D14*
G36*
X215745142Y-126211174D02*
G01*
X215768803Y-126214684D01*
X215792007Y-126220496D01*
X215814529Y-126228554D01*
X215836153Y-126238782D01*
X215856670Y-126251079D01*
X215875883Y-126265329D01*
X215893607Y-126281393D01*
X215909671Y-126299117D01*
X215923921Y-126318330D01*
X215936218Y-126338847D01*
X215946446Y-126360471D01*
X215954504Y-126382993D01*
X215960316Y-126406197D01*
X215963826Y-126429858D01*
X215965000Y-126453750D01*
X215965000Y-126941250D01*
X215963826Y-126965142D01*
X215960316Y-126988803D01*
X215954504Y-127012007D01*
X215946446Y-127034529D01*
X215936218Y-127056153D01*
X215923921Y-127076670D01*
X215909671Y-127095883D01*
X215893607Y-127113607D01*
X215875883Y-127129671D01*
X215856670Y-127143921D01*
X215836153Y-127156218D01*
X215814529Y-127166446D01*
X215792007Y-127174504D01*
X215768803Y-127180316D01*
X215745142Y-127183826D01*
X215721250Y-127185000D01*
X214808750Y-127185000D01*
X214784858Y-127183826D01*
X214761197Y-127180316D01*
X214737993Y-127174504D01*
X214715471Y-127166446D01*
X214693847Y-127156218D01*
X214673330Y-127143921D01*
X214654117Y-127129671D01*
X214636393Y-127113607D01*
X214620329Y-127095883D01*
X214606079Y-127076670D01*
X214593782Y-127056153D01*
X214583554Y-127034529D01*
X214575496Y-127012007D01*
X214569684Y-126988803D01*
X214566174Y-126965142D01*
X214565000Y-126941250D01*
X214565000Y-126453750D01*
X214566174Y-126429858D01*
X214569684Y-126406197D01*
X214575496Y-126382993D01*
X214583554Y-126360471D01*
X214593782Y-126338847D01*
X214606079Y-126318330D01*
X214620329Y-126299117D01*
X214636393Y-126281393D01*
X214654117Y-126265329D01*
X214673330Y-126251079D01*
X214693847Y-126238782D01*
X214715471Y-126228554D01*
X214737993Y-126220496D01*
X214761197Y-126214684D01*
X214784858Y-126211174D01*
X214808750Y-126210000D01*
X215721250Y-126210000D01*
X215745142Y-126211174D01*
X215745142Y-126211174D01*
G37*
D15*
X215265000Y-126697500D03*
D14*
G36*
X205585142Y-126084174D02*
G01*
X205608803Y-126087684D01*
X205632007Y-126093496D01*
X205654529Y-126101554D01*
X205676153Y-126111782D01*
X205696670Y-126124079D01*
X205715883Y-126138329D01*
X205733607Y-126154393D01*
X205749671Y-126172117D01*
X205763921Y-126191330D01*
X205776218Y-126211847D01*
X205786446Y-126233471D01*
X205794504Y-126255993D01*
X205800316Y-126279197D01*
X205803826Y-126302858D01*
X205805000Y-126326750D01*
X205805000Y-126814250D01*
X205803826Y-126838142D01*
X205800316Y-126861803D01*
X205794504Y-126885007D01*
X205786446Y-126907529D01*
X205776218Y-126929153D01*
X205763921Y-126949670D01*
X205749671Y-126968883D01*
X205733607Y-126986607D01*
X205715883Y-127002671D01*
X205696670Y-127016921D01*
X205676153Y-127029218D01*
X205654529Y-127039446D01*
X205632007Y-127047504D01*
X205608803Y-127053316D01*
X205585142Y-127056826D01*
X205561250Y-127058000D01*
X204648750Y-127058000D01*
X204624858Y-127056826D01*
X204601197Y-127053316D01*
X204577993Y-127047504D01*
X204555471Y-127039446D01*
X204533847Y-127029218D01*
X204513330Y-127016921D01*
X204494117Y-127002671D01*
X204476393Y-126986607D01*
X204460329Y-126968883D01*
X204446079Y-126949670D01*
X204433782Y-126929153D01*
X204423554Y-126907529D01*
X204415496Y-126885007D01*
X204409684Y-126861803D01*
X204406174Y-126838142D01*
X204405000Y-126814250D01*
X204405000Y-126326750D01*
X204406174Y-126302858D01*
X204409684Y-126279197D01*
X204415496Y-126255993D01*
X204423554Y-126233471D01*
X204433782Y-126211847D01*
X204446079Y-126191330D01*
X204460329Y-126172117D01*
X204476393Y-126154393D01*
X204494117Y-126138329D01*
X204513330Y-126124079D01*
X204533847Y-126111782D01*
X204555471Y-126101554D01*
X204577993Y-126093496D01*
X204601197Y-126087684D01*
X204624858Y-126084174D01*
X204648750Y-126083000D01*
X205561250Y-126083000D01*
X205585142Y-126084174D01*
X205585142Y-126084174D01*
G37*
D15*
X205105000Y-126570500D03*
D14*
G36*
X205585142Y-127959174D02*
G01*
X205608803Y-127962684D01*
X205632007Y-127968496D01*
X205654529Y-127976554D01*
X205676153Y-127986782D01*
X205696670Y-127999079D01*
X205715883Y-128013329D01*
X205733607Y-128029393D01*
X205749671Y-128047117D01*
X205763921Y-128066330D01*
X205776218Y-128086847D01*
X205786446Y-128108471D01*
X205794504Y-128130993D01*
X205800316Y-128154197D01*
X205803826Y-128177858D01*
X205805000Y-128201750D01*
X205805000Y-128689250D01*
X205803826Y-128713142D01*
X205800316Y-128736803D01*
X205794504Y-128760007D01*
X205786446Y-128782529D01*
X205776218Y-128804153D01*
X205763921Y-128824670D01*
X205749671Y-128843883D01*
X205733607Y-128861607D01*
X205715883Y-128877671D01*
X205696670Y-128891921D01*
X205676153Y-128904218D01*
X205654529Y-128914446D01*
X205632007Y-128922504D01*
X205608803Y-128928316D01*
X205585142Y-128931826D01*
X205561250Y-128933000D01*
X204648750Y-128933000D01*
X204624858Y-128931826D01*
X204601197Y-128928316D01*
X204577993Y-128922504D01*
X204555471Y-128914446D01*
X204533847Y-128904218D01*
X204513330Y-128891921D01*
X204494117Y-128877671D01*
X204476393Y-128861607D01*
X204460329Y-128843883D01*
X204446079Y-128824670D01*
X204433782Y-128804153D01*
X204423554Y-128782529D01*
X204415496Y-128760007D01*
X204409684Y-128736803D01*
X204406174Y-128713142D01*
X204405000Y-128689250D01*
X204405000Y-128201750D01*
X204406174Y-128177858D01*
X204409684Y-128154197D01*
X204415496Y-128130993D01*
X204423554Y-128108471D01*
X204433782Y-128086847D01*
X204446079Y-128066330D01*
X204460329Y-128047117D01*
X204476393Y-128029393D01*
X204494117Y-128013329D01*
X204513330Y-127999079D01*
X204533847Y-127986782D01*
X204555471Y-127976554D01*
X204577993Y-127968496D01*
X204601197Y-127962684D01*
X204624858Y-127959174D01*
X204648750Y-127958000D01*
X205561250Y-127958000D01*
X205585142Y-127959174D01*
X205585142Y-127959174D01*
G37*
D15*
X205105000Y-128445500D03*
D14*
G36*
X197087642Y-129603174D02*
G01*
X197111303Y-129606684D01*
X197134507Y-129612496D01*
X197157029Y-129620554D01*
X197178653Y-129630782D01*
X197199170Y-129643079D01*
X197218383Y-129657329D01*
X197236107Y-129673393D01*
X197252171Y-129691117D01*
X197266421Y-129710330D01*
X197278718Y-129730847D01*
X197288946Y-129752471D01*
X197297004Y-129774993D01*
X197302816Y-129798197D01*
X197306326Y-129821858D01*
X197307500Y-129845750D01*
X197307500Y-130758250D01*
X197306326Y-130782142D01*
X197302816Y-130805803D01*
X197297004Y-130829007D01*
X197288946Y-130851529D01*
X197278718Y-130873153D01*
X197266421Y-130893670D01*
X197252171Y-130912883D01*
X197236107Y-130930607D01*
X197218383Y-130946671D01*
X197199170Y-130960921D01*
X197178653Y-130973218D01*
X197157029Y-130983446D01*
X197134507Y-130991504D01*
X197111303Y-130997316D01*
X197087642Y-131000826D01*
X197063750Y-131002000D01*
X196576250Y-131002000D01*
X196552358Y-131000826D01*
X196528697Y-130997316D01*
X196505493Y-130991504D01*
X196482971Y-130983446D01*
X196461347Y-130973218D01*
X196440830Y-130960921D01*
X196421617Y-130946671D01*
X196403893Y-130930607D01*
X196387829Y-130912883D01*
X196373579Y-130893670D01*
X196361282Y-130873153D01*
X196351054Y-130851529D01*
X196342996Y-130829007D01*
X196337184Y-130805803D01*
X196333674Y-130782142D01*
X196332500Y-130758250D01*
X196332500Y-129845750D01*
X196333674Y-129821858D01*
X196337184Y-129798197D01*
X196342996Y-129774993D01*
X196351054Y-129752471D01*
X196361282Y-129730847D01*
X196373579Y-129710330D01*
X196387829Y-129691117D01*
X196403893Y-129673393D01*
X196421617Y-129657329D01*
X196440830Y-129643079D01*
X196461347Y-129630782D01*
X196482971Y-129620554D01*
X196505493Y-129612496D01*
X196528697Y-129606684D01*
X196552358Y-129603174D01*
X196576250Y-129602000D01*
X197063750Y-129602000D01*
X197087642Y-129603174D01*
X197087642Y-129603174D01*
G37*
D15*
X196820000Y-130302000D03*
D14*
G36*
X195212642Y-129603174D02*
G01*
X195236303Y-129606684D01*
X195259507Y-129612496D01*
X195282029Y-129620554D01*
X195303653Y-129630782D01*
X195324170Y-129643079D01*
X195343383Y-129657329D01*
X195361107Y-129673393D01*
X195377171Y-129691117D01*
X195391421Y-129710330D01*
X195403718Y-129730847D01*
X195413946Y-129752471D01*
X195422004Y-129774993D01*
X195427816Y-129798197D01*
X195431326Y-129821858D01*
X195432500Y-129845750D01*
X195432500Y-130758250D01*
X195431326Y-130782142D01*
X195427816Y-130805803D01*
X195422004Y-130829007D01*
X195413946Y-130851529D01*
X195403718Y-130873153D01*
X195391421Y-130893670D01*
X195377171Y-130912883D01*
X195361107Y-130930607D01*
X195343383Y-130946671D01*
X195324170Y-130960921D01*
X195303653Y-130973218D01*
X195282029Y-130983446D01*
X195259507Y-130991504D01*
X195236303Y-130997316D01*
X195212642Y-131000826D01*
X195188750Y-131002000D01*
X194701250Y-131002000D01*
X194677358Y-131000826D01*
X194653697Y-130997316D01*
X194630493Y-130991504D01*
X194607971Y-130983446D01*
X194586347Y-130973218D01*
X194565830Y-130960921D01*
X194546617Y-130946671D01*
X194528893Y-130930607D01*
X194512829Y-130912883D01*
X194498579Y-130893670D01*
X194486282Y-130873153D01*
X194476054Y-130851529D01*
X194467996Y-130829007D01*
X194462184Y-130805803D01*
X194458674Y-130782142D01*
X194457500Y-130758250D01*
X194457500Y-129845750D01*
X194458674Y-129821858D01*
X194462184Y-129798197D01*
X194467996Y-129774993D01*
X194476054Y-129752471D01*
X194486282Y-129730847D01*
X194498579Y-129710330D01*
X194512829Y-129691117D01*
X194528893Y-129673393D01*
X194546617Y-129657329D01*
X194565830Y-129643079D01*
X194586347Y-129630782D01*
X194607971Y-129620554D01*
X194630493Y-129612496D01*
X194653697Y-129606684D01*
X194677358Y-129603174D01*
X194701250Y-129602000D01*
X195188750Y-129602000D01*
X195212642Y-129603174D01*
X195212642Y-129603174D01*
G37*
D15*
X194945000Y-130302000D03*
D14*
G36*
X207830142Y-136801174D02*
G01*
X207853803Y-136804684D01*
X207877007Y-136810496D01*
X207899529Y-136818554D01*
X207921153Y-136828782D01*
X207941670Y-136841079D01*
X207960883Y-136855329D01*
X207978607Y-136871393D01*
X207994671Y-136889117D01*
X208008921Y-136908330D01*
X208021218Y-136928847D01*
X208031446Y-136950471D01*
X208039504Y-136972993D01*
X208045316Y-136996197D01*
X208048826Y-137019858D01*
X208050000Y-137043750D01*
X208050000Y-137956250D01*
X208048826Y-137980142D01*
X208045316Y-138003803D01*
X208039504Y-138027007D01*
X208031446Y-138049529D01*
X208021218Y-138071153D01*
X208008921Y-138091670D01*
X207994671Y-138110883D01*
X207978607Y-138128607D01*
X207960883Y-138144671D01*
X207941670Y-138158921D01*
X207921153Y-138171218D01*
X207899529Y-138181446D01*
X207877007Y-138189504D01*
X207853803Y-138195316D01*
X207830142Y-138198826D01*
X207806250Y-138200000D01*
X207318750Y-138200000D01*
X207294858Y-138198826D01*
X207271197Y-138195316D01*
X207247993Y-138189504D01*
X207225471Y-138181446D01*
X207203847Y-138171218D01*
X207183330Y-138158921D01*
X207164117Y-138144671D01*
X207146393Y-138128607D01*
X207130329Y-138110883D01*
X207116079Y-138091670D01*
X207103782Y-138071153D01*
X207093554Y-138049529D01*
X207085496Y-138027007D01*
X207079684Y-138003803D01*
X207076174Y-137980142D01*
X207075000Y-137956250D01*
X207075000Y-137043750D01*
X207076174Y-137019858D01*
X207079684Y-136996197D01*
X207085496Y-136972993D01*
X207093554Y-136950471D01*
X207103782Y-136928847D01*
X207116079Y-136908330D01*
X207130329Y-136889117D01*
X207146393Y-136871393D01*
X207164117Y-136855329D01*
X207183330Y-136841079D01*
X207203847Y-136828782D01*
X207225471Y-136818554D01*
X207247993Y-136810496D01*
X207271197Y-136804684D01*
X207294858Y-136801174D01*
X207318750Y-136800000D01*
X207806250Y-136800000D01*
X207830142Y-136801174D01*
X207830142Y-136801174D01*
G37*
D15*
X207562500Y-137500000D03*
D14*
G36*
X209705142Y-136801174D02*
G01*
X209728803Y-136804684D01*
X209752007Y-136810496D01*
X209774529Y-136818554D01*
X209796153Y-136828782D01*
X209816670Y-136841079D01*
X209835883Y-136855329D01*
X209853607Y-136871393D01*
X209869671Y-136889117D01*
X209883921Y-136908330D01*
X209896218Y-136928847D01*
X209906446Y-136950471D01*
X209914504Y-136972993D01*
X209920316Y-136996197D01*
X209923826Y-137019858D01*
X209925000Y-137043750D01*
X209925000Y-137956250D01*
X209923826Y-137980142D01*
X209920316Y-138003803D01*
X209914504Y-138027007D01*
X209906446Y-138049529D01*
X209896218Y-138071153D01*
X209883921Y-138091670D01*
X209869671Y-138110883D01*
X209853607Y-138128607D01*
X209835883Y-138144671D01*
X209816670Y-138158921D01*
X209796153Y-138171218D01*
X209774529Y-138181446D01*
X209752007Y-138189504D01*
X209728803Y-138195316D01*
X209705142Y-138198826D01*
X209681250Y-138200000D01*
X209193750Y-138200000D01*
X209169858Y-138198826D01*
X209146197Y-138195316D01*
X209122993Y-138189504D01*
X209100471Y-138181446D01*
X209078847Y-138171218D01*
X209058330Y-138158921D01*
X209039117Y-138144671D01*
X209021393Y-138128607D01*
X209005329Y-138110883D01*
X208991079Y-138091670D01*
X208978782Y-138071153D01*
X208968554Y-138049529D01*
X208960496Y-138027007D01*
X208954684Y-138003803D01*
X208951174Y-137980142D01*
X208950000Y-137956250D01*
X208950000Y-137043750D01*
X208951174Y-137019858D01*
X208954684Y-136996197D01*
X208960496Y-136972993D01*
X208968554Y-136950471D01*
X208978782Y-136928847D01*
X208991079Y-136908330D01*
X209005329Y-136889117D01*
X209021393Y-136871393D01*
X209039117Y-136855329D01*
X209058330Y-136841079D01*
X209078847Y-136828782D01*
X209100471Y-136818554D01*
X209122993Y-136810496D01*
X209146197Y-136804684D01*
X209169858Y-136801174D01*
X209193750Y-136800000D01*
X209681250Y-136800000D01*
X209705142Y-136801174D01*
X209705142Y-136801174D01*
G37*
D15*
X209437500Y-137500000D03*
D16*
X200185000Y-128270000D03*
X200185000Y-127000000D03*
X200185000Y-125730000D03*
X200185000Y-124460000D03*
X200185000Y-123190000D03*
X200185000Y-121920000D03*
X200185000Y-120650000D03*
X194785000Y-120650000D03*
X194785000Y-121920000D03*
X194785000Y-123190000D03*
X194785000Y-124460000D03*
X194785000Y-125730000D03*
X194785000Y-127000000D03*
X194785000Y-128270000D03*
X207485000Y-128270000D03*
X207485000Y-127000000D03*
X207485000Y-125730000D03*
X207485000Y-124460000D03*
X207485000Y-123190000D03*
X207485000Y-121920000D03*
X207485000Y-120650000D03*
X207485000Y-119380000D03*
X212885000Y-119380000D03*
X212885000Y-120650000D03*
X212885000Y-121920000D03*
X212885000Y-123190000D03*
X212885000Y-124460000D03*
X212885000Y-125730000D03*
X212885000Y-127000000D03*
X212885000Y-128270000D03*
D17*
X207500000Y-135700000D03*
X207500000Y-133800000D03*
X209500000Y-134750000D03*
D18*
X202000000Y-120750000D03*
X215250000Y-125750000D03*
X210500000Y-132000000D03*
X206500000Y-137500000D03*
X205106623Y-118078444D03*
X202821656Y-124424996D03*
X198871070Y-128256759D03*
X197805542Y-130267855D03*
X202000000Y-115500000D03*
X203119982Y-119869982D03*
D19*
X201580000Y-121920000D02*
X202000000Y-121500000D01*
X200185000Y-121920000D02*
X201580000Y-121920000D01*
X202000000Y-121500000D02*
X202000000Y-120750000D01*
X202000000Y-120184315D02*
X202000000Y-120750000D01*
X202000000Y-120000000D02*
X202000000Y-120184315D01*
X201000000Y-118687500D02*
X201000000Y-119000000D01*
X201000000Y-119000000D02*
X202000000Y-120000000D01*
D20*
X205105000Y-117983000D02*
X205105000Y-119077500D01*
X215265000Y-125765000D02*
X215250000Y-125750000D01*
X215265000Y-126697500D02*
X215265000Y-125765000D01*
X214302500Y-126697500D02*
X215265000Y-126697500D01*
X212885000Y-127000000D02*
X214000000Y-127000000D01*
X214000000Y-127000000D02*
X214302500Y-126697500D01*
X209437500Y-132000000D02*
X210500000Y-132000000D01*
X207500000Y-137437500D02*
X207562500Y-137500000D01*
X207500000Y-135700000D02*
X207500000Y-137437500D01*
X207562500Y-137500000D02*
X206500000Y-137500000D01*
X205105000Y-118080067D02*
X205106623Y-118078444D01*
X205105000Y-119077500D02*
X205105000Y-118080067D01*
X202819000Y-124427652D02*
X202821656Y-124424996D01*
X202819000Y-125427500D02*
X202819000Y-124427652D01*
X200185000Y-128270000D02*
X198884311Y-128270000D01*
X198884311Y-128270000D02*
X198871070Y-128256759D01*
X196820000Y-130302000D02*
X197771397Y-130302000D01*
X197771397Y-130302000D02*
X197805542Y-130267855D01*
X214424500Y-128572500D02*
X215265000Y-128572500D01*
X212885000Y-128270000D02*
X214122000Y-128270000D01*
X214122000Y-128270000D02*
X214424500Y-128572500D01*
X194945000Y-128430000D02*
X194785000Y-128270000D01*
X194945000Y-130302000D02*
X194945000Y-128430000D01*
X207500000Y-132062500D02*
X207562500Y-132000000D01*
X207500000Y-133800000D02*
X207500000Y-132062500D01*
X199250000Y-134500000D02*
X196750000Y-132000000D01*
X200730000Y-134480000D02*
X200750000Y-134500000D01*
X200730000Y-133000000D02*
X200730000Y-134480000D01*
X200750000Y-134500000D02*
X199250000Y-134500000D01*
X194945000Y-131945000D02*
X195000000Y-132000000D01*
X194945000Y-130302000D02*
X194945000Y-131945000D01*
X196750000Y-132000000D02*
X195000000Y-132000000D01*
X199937500Y-116812500D02*
X201000000Y-116812500D01*
X194000000Y-132000000D02*
X193250000Y-131250000D01*
X195000000Y-132000000D02*
X194000000Y-132000000D01*
X193250000Y-131250000D02*
X193250000Y-119750000D01*
X193250000Y-119750000D02*
X194250000Y-118750000D01*
X194250000Y-118750000D02*
X198000000Y-118750000D01*
X198000000Y-118750000D02*
X199937500Y-116812500D01*
X201000000Y-116812500D02*
X201937500Y-116812500D01*
X201937500Y-116812500D02*
X203000000Y-116812500D01*
X206750000Y-130500000D02*
X207702000Y-130500000D01*
X206250000Y-131000000D02*
X206750000Y-130500000D01*
X206250000Y-133750000D02*
X206250000Y-131000000D01*
X200750000Y-134500000D02*
X205500000Y-134500000D01*
X205500000Y-134500000D02*
X206250000Y-133750000D01*
X207562500Y-130639500D02*
X207562500Y-132000000D01*
X207702000Y-130500000D02*
X207562500Y-130639500D01*
X214250000Y-130500000D02*
X207702000Y-130500000D01*
X215265000Y-128572500D02*
X215265000Y-129485000D01*
X215265000Y-129485000D02*
X214250000Y-130500000D01*
X202000000Y-116750000D02*
X201937500Y-116812500D01*
X202000000Y-115500000D02*
X202000000Y-116750000D01*
D19*
X203000000Y-119750000D02*
X203119982Y-119869982D01*
X203000000Y-118687500D02*
X203000000Y-119750000D01*
X203119982Y-120435667D02*
X203119982Y-119869982D01*
X203119982Y-121380018D02*
X203119982Y-120435667D01*
X200185000Y-123190000D02*
X201310000Y-123190000D01*
X201310000Y-123190000D02*
X203119982Y-121380018D01*
D20*
X209500000Y-137437500D02*
X209437500Y-137500000D01*
X209500000Y-134750000D02*
X209500000Y-137437500D01*
X210250000Y-137500000D02*
X209437500Y-137500000D01*
X211000000Y-136750000D02*
X210250000Y-137500000D01*
X211000000Y-133725000D02*
X211000000Y-136750000D01*
X213201500Y-131523500D02*
X211000000Y-133725000D01*
X218440000Y-129032000D02*
X215948500Y-131523500D01*
X215948500Y-131523500D02*
X213201500Y-131523500D01*
D19*
X205105000Y-128445500D02*
X206169500Y-128445500D01*
X206345000Y-128270000D02*
X207485000Y-128270000D01*
X206169500Y-128445500D02*
X206345000Y-128270000D01*
X206354000Y-127000000D02*
X207485000Y-127000000D01*
X205953090Y-127400910D02*
X206354000Y-127000000D01*
X203717410Y-127400910D02*
X205953090Y-127400910D01*
X203619000Y-127302500D02*
X203717410Y-127400910D01*
X202819000Y-127302500D02*
X203619000Y-127302500D01*
X206502000Y-125730000D02*
X207485000Y-125730000D01*
X205105000Y-126570500D02*
X205661500Y-126570500D01*
X205661500Y-126570500D02*
X206502000Y-125730000D01*
X205105000Y-124762500D02*
X205945500Y-124762500D01*
X206354000Y-124460000D02*
X207485000Y-124460000D01*
X206248000Y-124460000D02*
X206354000Y-124460000D01*
X205945500Y-124762500D02*
X206248000Y-124460000D01*
X205105000Y-122887500D02*
X205407500Y-123190000D01*
X205407500Y-123190000D02*
X206354000Y-123190000D01*
X206354000Y-123190000D02*
X207485000Y-123190000D01*
X205788500Y-120952500D02*
X205105000Y-120952500D01*
X207485000Y-121920000D02*
X206756000Y-121920000D01*
X206756000Y-121920000D02*
X205788500Y-120952500D01*
X195920000Y-121920000D02*
X194785000Y-121920000D01*
X201540001Y-123859999D02*
X197859999Y-123859999D01*
X203480000Y-121920000D02*
X201540001Y-123859999D01*
X206319401Y-122499401D02*
X205740000Y-121920000D01*
X205740000Y-121920000D02*
X203480000Y-121920000D01*
X211881000Y-121920000D02*
X211301599Y-122499401D01*
X197859999Y-123859999D02*
X195920000Y-121920000D01*
X206494999Y-122520001D02*
X206474399Y-122499401D01*
X212885000Y-121920000D02*
X211881000Y-121920000D01*
X211301599Y-122499401D02*
X208495601Y-122499401D01*
X206474399Y-122499401D02*
X206319401Y-122499401D01*
X208495601Y-122499401D02*
X208475001Y-122520001D01*
X208475001Y-122520001D02*
X206494999Y-122520001D01*
X203896003Y-123859999D02*
X208475001Y-123859999D01*
X202612430Y-123549998D02*
X203586002Y-123549998D01*
X208475001Y-123859999D02*
X208495601Y-123880599D01*
X203586002Y-123549998D02*
X203896003Y-123859999D01*
X201102427Y-125060001D02*
X202612430Y-123549998D01*
X208495601Y-123880599D02*
X211190401Y-123880599D01*
X195930250Y-123190000D02*
X197800251Y-125060001D01*
X211190401Y-123880599D02*
X211881000Y-123190000D01*
X197800251Y-125060001D02*
X201102427Y-125060001D01*
X194785000Y-123190000D02*
X195930250Y-123190000D01*
X211935000Y-123190000D02*
X212885000Y-123190000D01*
X211881000Y-123190000D02*
X211935000Y-123190000D01*
X216916000Y-122936000D02*
X218440000Y-121412000D01*
X215392000Y-122936000D02*
X216916000Y-122936000D01*
X212885000Y-124460000D02*
X213868000Y-124460000D01*
X213868000Y-124460000D02*
X215392000Y-122936000D01*
X217237919Y-123952000D02*
X218440000Y-123952000D01*
X215656664Y-123952000D02*
X217237919Y-123952000D01*
X212885000Y-125730000D02*
X213878664Y-125730000D01*
X213878664Y-125730000D02*
X215656664Y-123952000D01*
X199460000Y-130673996D02*
X199460000Y-132292894D01*
X194785000Y-124460000D02*
X195235000Y-124460000D01*
X197700002Y-128913998D02*
X199460000Y-130673996D01*
X195235000Y-124460000D02*
X197700002Y-126925002D01*
X199460000Y-132292894D02*
X199460000Y-133000000D01*
X197700002Y-126925002D02*
X197700002Y-128913998D01*
X204540000Y-131040000D02*
X204540000Y-133000000D01*
X201500000Y-128000000D02*
X204540000Y-131040000D01*
X201500000Y-126095000D02*
X201500000Y-128000000D01*
X200185000Y-125730000D02*
X201135000Y-125730000D01*
X201135000Y-125730000D02*
X201500000Y-126095000D01*
X203250000Y-132980000D02*
X203270000Y-133000000D01*
X203250000Y-131500000D02*
X203250000Y-132980000D01*
X200185000Y-127000000D02*
X198500000Y-127000000D01*
X198500000Y-127000000D02*
X198100013Y-127399987D01*
X198100013Y-127399987D02*
X198100013Y-128748309D01*
X198100013Y-128748309D02*
X198851704Y-129500000D01*
X198851704Y-129500000D02*
X201250000Y-129500000D01*
X201250000Y-129500000D02*
X203250000Y-131500000D01*
M02*
