M48
;DRILL file {KiCad 5.0.1} date Mon 25 Feb 2019 11:40:46 PM CET
;FORMAT={-:-/ absolute / inch / decimal}
FMAT,2
INCH,TZ
T1C0.0118
T2C0.0157
T3C0.0197
T4C0.0236
T5C0.0276
T6C0.0315
T7C0.0374
T8C0.0394
T9C0.0433
T10C0.0512
T11C0.0591
T12C0.1260
%
G90
G05
M72
T1
X2.9961Y-3.4724
X2.9961Y-3.5039
X2.9961Y-3.5354
X3.0276Y-3.4724
X3.0276Y-3.5039
X3.0276Y-3.5354
T2
X1.6437Y-3.2677
X1.7323Y-3.5039
X1.8799Y-3.3071
X2.6181Y-3.2677
X2.9134Y-3.5531
X3.0118Y-3.2677
X3.0315Y-3.7303
X3.1102Y-3.7303
X3.6811Y-3.376
X3.7106Y-3.1496
X3.8189Y-3.376
X3.8484Y-3.1004
X4.0945Y-3.1693
X4.1043Y-3.1004
X4.1043Y-3.2382
X4.2815Y-3.6417
T3
X1.4567Y-3.0512
X1.4567Y-3.1004
X1.4567Y-3.1693
X1.4567Y-3.2185
X1.624Y-4.1142
X1.7717Y-3.0512
X1.7717Y-3.1004
X1.7717Y-3.1693
X1.7717Y-3.2185
X1.8012Y-4.2028
X1.8504Y-4.2028
X2.0079Y-3.376
X2.0571Y-3.376
X2.313Y-3.7598
X2.3819Y-3.5433
X2.4311Y-3.0512
X2.4311Y-3.1004
X2.4311Y-3.1693
X2.4311Y-3.2185
X2.4311Y-3.3268
X2.4311Y-3.376
X2.4409Y-4.1496
X2.4409Y-4.4488
X2.4508Y-3.7008
X2.5984Y-4.0945
X2.5984Y-4.1535
X2.8248Y-3.0512
X2.8248Y-3.1004
X2.8248Y-3.1693
X2.8248Y-3.2185
X2.8543Y-3.4646
X2.9035Y-3.4646
X3.1791Y-3.878
X3.1811Y-3.7953
X3.2283Y-3.624
X3.2283Y-3.6791
X3.5531Y-3.3169
X3.6024Y-3.3169
X4.0354Y-3.6417
X4.0354Y-3.7106
X4.3506Y-3.0126
X4.498Y-3.9405
X4.498Y-4.0079
X4.9018Y-3.0028
X4.9311Y-3.169
T4
X1.2992Y-2.6772
X1.2992Y-2.7953
X1.2992Y-2.9134
X1.2992Y-3.0315
X1.2992Y-3.1496
X1.2992Y-3.2677
X1.2992Y-3.3858
X1.2992Y-3.5039
X1.2992Y-3.622
X1.2992Y-3.7402
X1.2992Y-3.8583
X1.2992Y-3.9764
X1.2992Y-4.0945
X1.2992Y-4.2126
X1.2992Y-4.3307
X1.2992Y-4.4488
X1.3976Y-4.2815
X1.3976Y-4.4193
X1.437Y-4.2126
X1.437Y-4.3504
X1.437Y-4.4783
X1.4764Y-4.2815
X1.4764Y-4.4193
X1.5157Y-4.3504
X1.5157Y-4.4783
X1.5551Y-4.2815
X1.5551Y-4.4193
X1.6043Y-4.4783
X3.3661Y-3.8484
X3.3661Y-4.0256
X3.435Y-3.8484
X3.435Y-4.0256
X3.563Y-3.7992
X5.1575Y-2.6772
X5.1575Y-2.7953
X5.1575Y-2.9134
X5.1575Y-3.0315
X5.1575Y-3.1496
X5.1575Y-3.2677
X5.1575Y-3.3858
X5.1575Y-3.5039
X5.1575Y-3.622
X5.1575Y-3.7402
X5.1575Y-3.8583
X5.1575Y-3.9764
X5.1575Y-4.0945
X5.1575Y-4.2126
X5.1575Y-4.3307
X5.1575Y-4.4488
T5
X2.4984Y-4.3504
X2.5484Y-4.3504
X2.5984Y-4.3504
X2.6484Y-4.3504
X2.6984Y-4.3504
X2.7484Y-4.3504
X2.7984Y-4.3504
X2.8484Y-4.3504
X2.8984Y-4.3504
X2.9484Y-4.3504
X2.9984Y-4.3504
X3.0484Y-4.3504
X3.0984Y-4.3504
X3.1484Y-4.3504
X3.1984Y-4.3504
T6
X1.8307Y-3.678
X1.8307Y-3.778
X1.8307Y-3.878
X1.9307Y-3.628
X1.9307Y-3.728
X1.9307Y-3.828
T7
X4.3504Y-4.311
X4.4488Y-4.311
X4.5472Y-4.311
X4.6457Y-4.311
T8
X3.8583Y-4.1929
X3.9567Y-4.1929
X4.3898Y-3.5433
X4.3898Y-4.1142
X4.4882Y-4.1142
X4.5866Y-3.5433
X4.5866Y-4.1142
T9
X3.7756Y-2.9528
X3.937Y-2.9646
X4.0354Y-2.874
T12
X2.2362Y-3.1693
X2.2362Y-4.3504
X3.4646Y-3.1693
X3.4646Y-4.3504
T8
X3.248Y-2.8524G85X3.248Y-2.9114
G05
X3.5236Y-2.8524G85X3.5236Y-2.9114
G05
X2.1457Y-2.8524G85X2.1457Y-2.9114
G05
X2.4213Y-2.8524G85X2.4213Y-2.9114
G05
X2.6969Y-2.8524G85X2.6969Y-2.9114
G05
X2.9724Y-2.8524G85X2.9724Y-2.9114
G05
X1.5945Y-2.8524G85X1.5945Y-2.9114
G05
X1.8701Y-2.8524G85X1.8701Y-2.9114
G05
T10
X3.4094Y-2.7362G85X3.3622Y-2.7362
G05
X2.3071Y-2.7362G85X2.2598Y-2.7362
G05
X2.8583Y-2.7362G85X2.811Y-2.7362
G05
X1.7559Y-2.7362G85X1.7087Y-2.7362
G05
T11
X4.2677Y-3.8445G85X4.2677Y-3.7933
G05
X4.7087Y-3.8445G85X4.7087Y-3.7933
G05
T0
M30
