G04 #@! TF.GenerationSoftware,KiCad,Pcbnew,5.0.1*
G04 #@! TF.CreationDate,2019-02-25T23:40:44+01:00*
G04 #@! TF.ProjectId,Dew Heater - V2,44657720486561746572202D2056322E,rev?*
G04 #@! TF.SameCoordinates,Original*
G04 #@! TF.FileFunction,Legend,Bot*
G04 #@! TF.FilePolarity,Positive*
%FSLAX46Y46*%
G04 Gerber Fmt 4.6, Leading zero omitted, Abs format (unit mm)*
G04 Created by KiCad (PCBNEW 5.0.1) date Mon 25 Feb 2019 11:40:44 PM CET*
%MOMM*%
%LPD*%
G01*
G04 APERTURE LIST*
%ADD10C,0.200000*%
%ADD11C,0.150000*%
%ADD12C,0.120000*%
G04 APERTURE END LIST*
D10*
X116657142Y-114792857D02*
X117057142Y-114221428D01*
X117342857Y-114792857D02*
X117342857Y-113592857D01*
X116885714Y-113592857D01*
X116771428Y-113650000D01*
X116714285Y-113707142D01*
X116657142Y-113821428D01*
X116657142Y-113992857D01*
X116714285Y-114107142D01*
X116771428Y-114164285D01*
X116885714Y-114221428D01*
X117342857Y-114221428D01*
X116200000Y-114735714D02*
X116028571Y-114792857D01*
X115742857Y-114792857D01*
X115628571Y-114735714D01*
X115571428Y-114678571D01*
X115514285Y-114564285D01*
X115514285Y-114450000D01*
X115571428Y-114335714D01*
X115628571Y-114278571D01*
X115742857Y-114221428D01*
X115971428Y-114164285D01*
X116085714Y-114107142D01*
X116142857Y-114050000D01*
X116200000Y-113935714D01*
X116200000Y-113821428D01*
X116142857Y-113707142D01*
X116085714Y-113650000D01*
X115971428Y-113592857D01*
X115685714Y-113592857D01*
X115514285Y-113650000D01*
X115000000Y-114335714D02*
X114085714Y-114335714D01*
X113571428Y-113707142D02*
X113514285Y-113650000D01*
X113400000Y-113592857D01*
X113114285Y-113592857D01*
X113000000Y-113650000D01*
X112942857Y-113707142D01*
X112885714Y-113821428D01*
X112885714Y-113935714D01*
X112942857Y-114107142D01*
X113628571Y-114792857D01*
X112885714Y-114792857D01*
X112485714Y-113592857D02*
X111742857Y-113592857D01*
X112142857Y-114050000D01*
X111971428Y-114050000D01*
X111857142Y-114107142D01*
X111800000Y-114164285D01*
X111742857Y-114278571D01*
X111742857Y-114564285D01*
X111800000Y-114678571D01*
X111857142Y-114735714D01*
X111971428Y-114792857D01*
X112314285Y-114792857D01*
X112428571Y-114735714D01*
X112485714Y-114678571D01*
X111285714Y-113707142D02*
X111228571Y-113650000D01*
X111114285Y-113592857D01*
X110828571Y-113592857D01*
X110714285Y-113650000D01*
X110657142Y-113707142D01*
X110600000Y-113821428D01*
X110600000Y-113935714D01*
X110657142Y-114107142D01*
X111342857Y-114792857D01*
X110600000Y-114792857D01*
X101442857Y-112042857D02*
X102128571Y-112042857D01*
X101785714Y-112042857D02*
X101785714Y-110842857D01*
X101900000Y-111014285D01*
X102014285Y-111128571D01*
X102128571Y-111185714D01*
X100985714Y-110957142D02*
X100928571Y-110900000D01*
X100814285Y-110842857D01*
X100528571Y-110842857D01*
X100414285Y-110900000D01*
X100357142Y-110957142D01*
X100300000Y-111071428D01*
X100300000Y-111185714D01*
X100357142Y-111357142D01*
X101042857Y-112042857D01*
X100300000Y-112042857D01*
X99957142Y-110842857D02*
X99557142Y-112042857D01*
X99157142Y-110842857D01*
X98757142Y-112042857D02*
X98757142Y-110842857D01*
X98471428Y-110842857D01*
X98300000Y-110900000D01*
X98185714Y-111014285D01*
X98128571Y-111128571D01*
X98071428Y-111357142D01*
X98071428Y-111528571D01*
X98128571Y-111757142D01*
X98185714Y-111871428D01*
X98300000Y-111985714D01*
X98471428Y-112042857D01*
X98757142Y-112042857D01*
X96871428Y-111928571D02*
X96928571Y-111985714D01*
X97100000Y-112042857D01*
X97214285Y-112042857D01*
X97385714Y-111985714D01*
X97500000Y-111871428D01*
X97557142Y-111757142D01*
X97614285Y-111528571D01*
X97614285Y-111357142D01*
X97557142Y-111128571D01*
X97500000Y-111014285D01*
X97385714Y-110900000D01*
X97214285Y-110842857D01*
X97100000Y-110842857D01*
X96928571Y-110900000D01*
X96871428Y-110957142D01*
D11*
G04 #@! TO.C,U2*
X119281459Y-72495435D02*
X119281459Y-72770435D01*
X113731459Y-72495435D02*
X113731459Y-72850435D01*
X113731459Y-83045435D02*
X113731459Y-82690435D01*
X119281459Y-83045435D02*
X119281459Y-82690435D01*
X119281459Y-72495435D02*
X113731459Y-72495435D01*
X119281459Y-83045435D02*
X113731459Y-83045435D01*
X119281459Y-72770435D02*
X120806459Y-72770435D01*
D12*
G04 #@! TO.C,R6*
X90874721Y-85490000D02*
X91200279Y-85490000D01*
X90874721Y-86510000D02*
X91200279Y-86510000D01*
G04 #@! TO.C,R5*
X87837221Y-85490000D02*
X88162779Y-85490000D01*
X87837221Y-86510000D02*
X88162779Y-86510000D01*
G04 #@! TO.C,C26*
X45912779Y-89510000D02*
X45587221Y-89510000D01*
X45912779Y-88490000D02*
X45587221Y-88490000D01*
G04 #@! TO.C,R25*
X48587221Y-88490000D02*
X48912779Y-88490000D01*
X48587221Y-89510000D02*
X48912779Y-89510000D01*
G04 #@! TO.C,R26*
X51912779Y-89510000D02*
X51587221Y-89510000D01*
X51912779Y-88490000D02*
X51587221Y-88490000D01*
G04 #@! TO.C,F2*
X104740000Y-73912779D02*
X104740000Y-73587221D01*
X105760000Y-73912779D02*
X105760000Y-73587221D01*
G04 #@! TO.C,F1*
X99703752Y-96830000D02*
X95296248Y-96830000D01*
X99703752Y-102170000D02*
X95296248Y-102170000D01*
G04 #@! TO.C,C11*
X95412779Y-86260000D02*
X95087221Y-86260000D01*
X95412779Y-85240000D02*
X95087221Y-85240000D01*
G04 #@! TO.C,C9*
X91990000Y-88662779D02*
X91990000Y-88337221D01*
X93010000Y-88662779D02*
X93010000Y-88337221D01*
G04 #@! TO.C,C19*
X63837221Y-103490000D02*
X64162779Y-103490000D01*
X63837221Y-104510000D02*
X64162779Y-104510000D01*
G04 #@! TO.C,C18*
X63837221Y-104990000D02*
X64162779Y-104990000D01*
X63837221Y-106010000D02*
X64162779Y-106010000D01*
G04 #@! TO.C,C22*
X110662779Y-93010000D02*
X110337221Y-93010000D01*
X110662779Y-91990000D02*
X110337221Y-91990000D01*
G04 #@! TO.C,C15*
X102337221Y-81740000D02*
X102662779Y-81740000D01*
X102337221Y-82760000D02*
X102662779Y-82760000D01*
G04 #@! TO.C,C14*
X102337221Y-78240000D02*
X102662779Y-78240000D01*
X102337221Y-79260000D02*
X102662779Y-79260000D01*
G04 #@! TO.C,C13*
X95837221Y-78240000D02*
X96162779Y-78240000D01*
X95837221Y-79260000D02*
X96162779Y-79260000D01*
G04 #@! TO.C,C12*
X113510000Y-99138582D02*
X113510000Y-99464140D01*
X112490000Y-99138582D02*
X112490000Y-99464140D01*
G04 #@! TO.C,C6*
X79510000Y-92837221D02*
X79510000Y-93162779D01*
X78490000Y-92837221D02*
X78490000Y-93162779D01*
G04 #@! TO.C,C10*
X116010000Y-99138582D02*
X116010000Y-99464140D01*
X114990000Y-99138582D02*
X114990000Y-99464140D01*
G04 #@! TO.C,R7*
X99662779Y-79260000D02*
X99337221Y-79260000D01*
X99662779Y-78240000D02*
X99337221Y-78240000D01*
G04 #@! TO.C,R17*
X110990000Y-99464140D02*
X110990000Y-99138582D01*
X112010000Y-99464140D02*
X112010000Y-99138582D01*
G04 #@! TO.C,R18*
X116490000Y-99464140D02*
X116490000Y-99138582D01*
X117510000Y-99464140D02*
X117510000Y-99138582D01*
G04 #@! TO.C,R8*
X71240000Y-90450279D02*
X71240000Y-90124721D01*
X72260000Y-90450279D02*
X72260000Y-90124721D01*
G04 #@! TO.C,R19*
X115980940Y-101291361D02*
X116306498Y-101291361D01*
X115980940Y-102311361D02*
X116306498Y-102311361D01*
G04 #@! TO.C,R20*
X112306498Y-102311361D02*
X111980940Y-102311361D01*
X112306498Y-101291361D02*
X111980940Y-101291361D01*
G04 #@! TO.C,R4*
X77510000Y-92837221D02*
X77510000Y-93162779D01*
X76490000Y-92837221D02*
X76490000Y-93162779D01*
G04 #@! TO.C,R21*
X117806498Y-93010000D02*
X117480940Y-93010000D01*
X117806498Y-91990000D02*
X117480940Y-91990000D01*
G04 #@! TO.C,R1*
X86087221Y-88990000D02*
X86412779Y-88990000D01*
X86087221Y-90010000D02*
X86412779Y-90010000D01*
G04 #@! TO.C,R22*
X113837221Y-91990000D02*
X114162779Y-91990000D01*
X113837221Y-93010000D02*
X114162779Y-93010000D01*
G04 #@! TO.C,R3*
X86087221Y-86990000D02*
X86412779Y-86990000D01*
X86087221Y-88010000D02*
X86412779Y-88010000D01*
D11*
G04 #@! TO.C,U6*
X52625000Y-93125000D02*
X52625000Y-91300000D01*
X70625000Y-93125000D02*
X70625000Y-100875000D01*
X52375000Y-93125000D02*
X52375000Y-100875000D01*
X70625000Y-93125000D02*
X70280000Y-93125000D01*
X70625000Y-100875000D02*
X70280000Y-100875000D01*
X52375000Y-100875000D02*
X52720000Y-100875000D01*
X52375000Y-93125000D02*
X52625000Y-93125000D01*
G04 #@! TO.C,J5*
X45250000Y-90500000D02*
X45250000Y-100250000D01*
X49250000Y-100250000D02*
X50250000Y-100250000D01*
X50250000Y-100250000D02*
X50250000Y-90500000D01*
X50250000Y-90500000D02*
X45250000Y-90500000D01*
X45250000Y-100250000D02*
X47250000Y-100250000D01*
D12*
G04 #@! TO.C,U5*
X97500000Y-83120000D02*
X94500000Y-83120000D01*
X98500000Y-79880000D02*
X96500000Y-79880000D01*
D11*
G04 #@! TO.C,J3*
X102500000Y-62500000D02*
X102500000Y-65500000D01*
X97500000Y-62500000D02*
X102500000Y-62500000D01*
X97500000Y-65500000D02*
X97500000Y-62500000D01*
X94500000Y-76500000D02*
X94500000Y-65500000D01*
X103750000Y-76500000D02*
X94500000Y-76500000D01*
X103750000Y-65500000D02*
X103750000Y-76500000D01*
X94500000Y-65500000D02*
X103750000Y-65500000D01*
D12*
G04 #@! TO.C,U1*
X86400000Y-92720000D02*
X85200000Y-92720000D01*
X86400000Y-96720000D02*
X86400000Y-92720000D01*
X81600000Y-92720000D02*
X81600000Y-95420000D01*
X82800000Y-92720000D02*
X81600000Y-92720000D01*
G04 #@! TO.C,U7*
X40720000Y-108100000D02*
X40720000Y-109300000D01*
X44720000Y-108100000D02*
X40720000Y-108100000D01*
X40720000Y-112900000D02*
X43420000Y-112900000D01*
X40720000Y-111700000D02*
X40720000Y-112900000D01*
G04 #@! TO.C,C25*
X64258578Y-113710000D02*
X63741422Y-113710000D01*
X64258578Y-112290000D02*
X63741422Y-112290000D01*
G04 #@! TO.C,C24*
X45340000Y-111102064D02*
X45340000Y-109897936D01*
X47160000Y-111102064D02*
X47160000Y-109897936D01*
G04 #@! TO.C,C23*
X41897936Y-105840000D02*
X43102064Y-105840000D01*
X41897936Y-107660000D02*
X43102064Y-107660000D01*
G04 #@! TO.C,Q11*
X39830000Y-106010000D02*
X39830000Y-104550000D01*
X36670000Y-106010000D02*
X36670000Y-103850000D01*
X36670000Y-106010000D02*
X37600000Y-106010000D01*
X39830000Y-106010000D02*
X38900000Y-106010000D01*
G04 #@! TO.C,Q10*
X41990000Y-104580000D02*
X43450000Y-104580000D01*
X41990000Y-101420000D02*
X44150000Y-101420000D01*
X41990000Y-101420000D02*
X41990000Y-102350000D01*
X41990000Y-104580000D02*
X41990000Y-103650000D01*
G04 #@! TO.C,R23*
X46210000Y-102741422D02*
X46210000Y-103258578D01*
X44790000Y-102741422D02*
X44790000Y-103258578D01*
G04 #@! TO.C,R24*
X38508578Y-103210000D02*
X37991422Y-103210000D01*
X38508578Y-101790000D02*
X37991422Y-101790000D01*
G04 #@! TO.C,C8*
X111216459Y-74011857D02*
X111216459Y-74529013D01*
X109796459Y-74011857D02*
X109796459Y-74529013D01*
G04 #@! TO.C,C7*
X123216459Y-74011857D02*
X123216459Y-74529013D01*
X121796459Y-74011857D02*
X121796459Y-74529013D01*
G04 #@! TO.C,C4*
X123216459Y-77511857D02*
X123216459Y-78029013D01*
X121796459Y-77511857D02*
X121796459Y-78029013D01*
G04 #@! TO.C,C3*
X123529013Y-81203541D02*
X123011857Y-81203541D01*
X123529013Y-79783541D02*
X123011857Y-79783541D01*
G04 #@! TO.C,C2*
X125216459Y-74011857D02*
X125216459Y-74529013D01*
X123796459Y-74011857D02*
X123796459Y-74529013D01*
G04 #@! TO.C,C17*
X45840000Y-80102064D02*
X45840000Y-78897936D01*
X47660000Y-80102064D02*
X47660000Y-78897936D01*
G04 #@! TO.C,C5*
X83410000Y-99397936D02*
X83410000Y-100602064D01*
X81590000Y-99397936D02*
X81590000Y-100602064D01*
G04 #@! TO.C,C16*
X37840000Y-80102064D02*
X37840000Y-78897936D01*
X39660000Y-80102064D02*
X39660000Y-78897936D01*
G04 #@! TO.C,C20*
X62590000Y-80102064D02*
X62590000Y-78897936D01*
X64410000Y-80102064D02*
X64410000Y-78897936D01*
G04 #@! TO.C,C21*
X72590000Y-80102064D02*
X72590000Y-78897936D01*
X74410000Y-80102064D02*
X74410000Y-78897936D01*
G04 #@! TO.C,C1*
X88910000Y-93897936D02*
X88910000Y-95102064D01*
X87090000Y-93897936D02*
X87090000Y-95102064D01*
G04 #@! TO.C,J1*
X103350000Y-103750000D02*
X103350000Y-105000000D01*
X102100000Y-103750000D02*
X103350000Y-103750000D01*
X96200000Y-109250000D02*
X99250000Y-109250000D01*
X96200000Y-106300000D02*
X96200000Y-109250000D01*
X95450000Y-106300000D02*
X96200000Y-106300000D01*
X102300000Y-109250000D02*
X99250000Y-109250000D01*
X102300000Y-106300000D02*
X102300000Y-109250000D01*
X103050000Y-106300000D02*
X102300000Y-106300000D01*
X95450000Y-104050000D02*
X97250000Y-104050000D01*
X95450000Y-104800000D02*
X95450000Y-104050000D01*
X97250000Y-104800000D02*
X95450000Y-104800000D01*
X97250000Y-104050000D02*
X97250000Y-104800000D01*
X101250000Y-104050000D02*
X103050000Y-104050000D01*
X101250000Y-104800000D02*
X101250000Y-104050000D01*
X103050000Y-104800000D02*
X101250000Y-104800000D01*
X103050000Y-104050000D02*
X103050000Y-104800000D01*
X98750000Y-104050000D02*
X99750000Y-104050000D01*
X98750000Y-104800000D02*
X98750000Y-104050000D01*
X99750000Y-104800000D02*
X98750000Y-104800000D01*
X99750000Y-104050000D02*
X99750000Y-104800000D01*
X95440000Y-104040000D02*
X103060000Y-104040000D01*
X95440000Y-110010000D02*
X95440000Y-104040000D01*
X103060000Y-110010000D02*
X95440000Y-110010000D01*
X103060000Y-104040000D02*
X103060000Y-110010000D01*
G04 #@! TO.C,J2*
X120850000Y-106750000D02*
X120850000Y-108000000D01*
X119600000Y-106750000D02*
X120850000Y-106750000D01*
X108700000Y-112250000D02*
X114250000Y-112250000D01*
X108700000Y-109300000D02*
X108700000Y-112250000D01*
X107950000Y-109300000D02*
X108700000Y-109300000D01*
X119800000Y-112250000D02*
X114250000Y-112250000D01*
X119800000Y-109300000D02*
X119800000Y-112250000D01*
X120550000Y-109300000D02*
X119800000Y-109300000D01*
X107950000Y-107050000D02*
X109750000Y-107050000D01*
X107950000Y-107800000D02*
X107950000Y-107050000D01*
X109750000Y-107800000D02*
X107950000Y-107800000D01*
X109750000Y-107050000D02*
X109750000Y-107800000D01*
X118750000Y-107050000D02*
X120550000Y-107050000D01*
X118750000Y-107800000D02*
X118750000Y-107050000D01*
X120550000Y-107800000D02*
X118750000Y-107800000D01*
X120550000Y-107050000D02*
X120550000Y-107800000D01*
X111250000Y-107050000D02*
X117250000Y-107050000D01*
X111250000Y-107800000D02*
X111250000Y-107050000D01*
X117250000Y-107800000D02*
X111250000Y-107800000D01*
X117250000Y-107050000D02*
X117250000Y-107800000D01*
X107940000Y-107040000D02*
X120560000Y-107040000D01*
X107940000Y-113010000D02*
X107940000Y-107040000D01*
X120560000Y-113010000D02*
X107940000Y-113010000D01*
X120560000Y-107040000D02*
X120560000Y-113010000D01*
G04 #@! TO.C,D6*
X38650000Y-74900000D02*
X38650000Y-69500000D01*
X35350000Y-74900000D02*
X35350000Y-69500000D01*
X38650000Y-74900000D02*
X35350000Y-74900000D01*
G04 #@! TO.C,D7*
X52650000Y-74900000D02*
X52650000Y-69500000D01*
X49350000Y-74900000D02*
X49350000Y-69500000D01*
X52650000Y-74900000D02*
X49350000Y-74900000D01*
G04 #@! TO.C,D8*
X66650000Y-74900000D02*
X66650000Y-69500000D01*
X63350000Y-74900000D02*
X63350000Y-69500000D01*
X66650000Y-74900000D02*
X63350000Y-74900000D01*
G04 #@! TO.C,D9*
X80650000Y-74900000D02*
X80650000Y-69500000D01*
X77350000Y-74900000D02*
X77350000Y-69500000D01*
X80650000Y-74900000D02*
X77350000Y-74900000D01*
G04 #@! TO.C,D1*
X92050000Y-97850000D02*
X86350000Y-97850000D01*
X92050000Y-102150000D02*
X86350000Y-102150000D01*
X92050000Y-97850000D02*
X92050000Y-102150000D01*
G04 #@! TO.C,D2*
X94450000Y-95650000D02*
X100150000Y-95650000D01*
X94450000Y-91350000D02*
X100150000Y-91350000D01*
X94450000Y-95650000D02*
X94450000Y-91350000D01*
G04 #@! TO.C,D4*
X93850000Y-80200000D02*
X93850000Y-78350000D01*
X92650000Y-80200000D02*
X92650000Y-78350000D01*
X92650000Y-78350000D02*
X93850000Y-78350000D01*
G04 #@! TO.C,D5*
X103200000Y-79900000D02*
X101350000Y-79900000D01*
X103200000Y-81100000D02*
X101350000Y-81100000D01*
X101350000Y-81100000D02*
X101350000Y-79900000D01*
G04 #@! TO.C,Q5*
X48170000Y-77240000D02*
X48170000Y-78700000D01*
X51330000Y-77240000D02*
X51330000Y-79400000D01*
X51330000Y-77240000D02*
X50400000Y-77240000D01*
X48170000Y-77240000D02*
X49100000Y-77240000D01*
G04 #@! TO.C,Q9*
X74920000Y-77240000D02*
X74920000Y-78700000D01*
X78080000Y-77240000D02*
X78080000Y-79400000D01*
X78080000Y-77240000D02*
X77150000Y-77240000D01*
X74920000Y-77240000D02*
X75850000Y-77240000D01*
G04 #@! TO.C,Q8*
X64920000Y-77240000D02*
X64920000Y-78700000D01*
X68080000Y-77240000D02*
X68080000Y-79400000D01*
X68080000Y-77240000D02*
X67150000Y-77240000D01*
X64920000Y-77240000D02*
X65850000Y-77240000D01*
G04 #@! TO.C,Q2*
X42510000Y-82420000D02*
X41050000Y-82420000D01*
X42510000Y-85580000D02*
X40350000Y-85580000D01*
X42510000Y-85580000D02*
X42510000Y-84650000D01*
X42510000Y-82420000D02*
X42510000Y-83350000D01*
G04 #@! TO.C,Q3*
X50510000Y-82420000D02*
X49050000Y-82420000D01*
X50510000Y-85580000D02*
X48350000Y-85580000D01*
X50510000Y-85580000D02*
X50510000Y-84650000D01*
X50510000Y-82420000D02*
X50510000Y-83350000D01*
G04 #@! TO.C,Q4*
X40170000Y-77240000D02*
X40170000Y-78700000D01*
X43330000Y-77240000D02*
X43330000Y-79400000D01*
X43330000Y-77240000D02*
X42400000Y-77240000D01*
X40170000Y-77240000D02*
X41100000Y-77240000D01*
G04 #@! TO.C,D3*
X88170000Y-87740000D02*
X88170000Y-89200000D01*
X91330000Y-87740000D02*
X91330000Y-89900000D01*
X91330000Y-87740000D02*
X90400000Y-87740000D01*
X88170000Y-87740000D02*
X89100000Y-87740000D01*
G04 #@! TO.C,Q6*
X67260000Y-82420000D02*
X65800000Y-82420000D01*
X67260000Y-85580000D02*
X65100000Y-85580000D01*
X67260000Y-85580000D02*
X67260000Y-84650000D01*
X67260000Y-82420000D02*
X67260000Y-83350000D01*
G04 #@! TO.C,Q7*
X77260000Y-82420000D02*
X75800000Y-82420000D01*
X77260000Y-85580000D02*
X75100000Y-85580000D01*
X77260000Y-85580000D02*
X77260000Y-84650000D01*
X77260000Y-82420000D02*
X77260000Y-83350000D01*
G04 #@! TO.C,Q1*
X92260000Y-92670000D02*
X90800000Y-92670000D01*
X92260000Y-95830000D02*
X90100000Y-95830000D01*
X92260000Y-95830000D02*
X92260000Y-94900000D01*
X92260000Y-92670000D02*
X92260000Y-93600000D01*
G04 #@! TO.C,U4*
X96860000Y-87600000D02*
X96860000Y-90050000D01*
X93640000Y-89400000D02*
X93640000Y-87600000D01*
G04 #@! TO.C,R9*
X38040000Y-84258578D02*
X38040000Y-83741422D01*
X39460000Y-84258578D02*
X39460000Y-83741422D01*
G04 #@! TO.C,R10*
X46040000Y-84258578D02*
X46040000Y-83741422D01*
X47460000Y-84258578D02*
X47460000Y-83741422D01*
G04 #@! TO.C,R12*
X50008578Y-81710000D02*
X49491422Y-81710000D01*
X50008578Y-80290000D02*
X49491422Y-80290000D01*
G04 #@! TO.C,R13*
X64210000Y-83741422D02*
X64210000Y-84258578D01*
X62790000Y-83741422D02*
X62790000Y-84258578D01*
G04 #@! TO.C,R14*
X72790000Y-84258578D02*
X72790000Y-83741422D01*
X74210000Y-84258578D02*
X74210000Y-83741422D01*
G04 #@! TO.C,R15*
X66758578Y-81710000D02*
X66241422Y-81710000D01*
X66758578Y-80290000D02*
X66241422Y-80290000D01*
G04 #@! TO.C,R16*
X76758578Y-81710000D02*
X76241422Y-81710000D01*
X76758578Y-80290000D02*
X76241422Y-80290000D01*
G04 #@! TO.C,R11*
X42008578Y-81710000D02*
X41491422Y-81710000D01*
X42008578Y-80290000D02*
X41491422Y-80290000D01*
D11*
G04 #@! TO.C,U3*
X78000000Y-87500000D02*
X75000000Y-87500000D01*
X78000000Y-90500000D02*
X75000000Y-90500000D01*
X78000000Y-87500000D02*
X78000000Y-87700000D01*
X75000000Y-87500000D02*
X75000000Y-87700000D01*
X78000000Y-90500000D02*
X78000000Y-90300000D01*
X75000000Y-90500000D02*
X75000000Y-90300000D01*
D10*
X78450000Y-87600000D02*
G75*
G03X78450000Y-87600000I-50000J0D01*
G01*
D11*
G04 #@! TO.C,J7*
X60000000Y-65600000D02*
X59750000Y-66500000D01*
X60250000Y-66500000D02*
X60000000Y-65600000D01*
X60000000Y-67500000D02*
X60000000Y-65600000D01*
X56000000Y-65600000D02*
X55750000Y-66500000D01*
X56250000Y-66500000D02*
X56000000Y-65600000D01*
X56000000Y-67500000D02*
X56000000Y-65700000D01*
X62200000Y-56300000D02*
G75*
G03X61900000Y-56000000I-300000J0D01*
G01*
X54100000Y-56000000D02*
G75*
G03X53800000Y-56300000I0J-300000D01*
G01*
X53000000Y-75500000D02*
X63000000Y-75500000D01*
X62200000Y-56300000D02*
X62200000Y-65500000D01*
X53800000Y-56300000D02*
X53800000Y-65500000D01*
X54100000Y-56000000D02*
X61900000Y-56000000D01*
X63000000Y-65500000D02*
X63000000Y-75500000D01*
X53000000Y-65500000D02*
X53000000Y-75500000D01*
X53800000Y-63500000D02*
X62200000Y-63500000D01*
X53000000Y-65500000D02*
X63000000Y-65500000D01*
G04 #@! TO.C,J9*
X88000000Y-65600000D02*
X87750000Y-66500000D01*
X88250000Y-66500000D02*
X88000000Y-65600000D01*
X88000000Y-67500000D02*
X88000000Y-65600000D01*
X84000000Y-65600000D02*
X83750000Y-66500000D01*
X84250000Y-66500000D02*
X84000000Y-65600000D01*
X84000000Y-67500000D02*
X84000000Y-65700000D01*
X90200000Y-56300000D02*
G75*
G03X89900000Y-56000000I-300000J0D01*
G01*
X82100000Y-56000000D02*
G75*
G03X81800000Y-56300000I0J-300000D01*
G01*
X81000000Y-75500000D02*
X91000000Y-75500000D01*
X90200000Y-56300000D02*
X90200000Y-65500000D01*
X81800000Y-56300000D02*
X81800000Y-65500000D01*
X82100000Y-56000000D02*
X89900000Y-56000000D01*
X91000000Y-65500000D02*
X91000000Y-75500000D01*
X81000000Y-65500000D02*
X81000000Y-75500000D01*
X81800000Y-63500000D02*
X90200000Y-63500000D01*
X81000000Y-65500000D02*
X91000000Y-65500000D01*
G04 #@! TO.C,J8*
X74000000Y-65600000D02*
X73750000Y-66500000D01*
X74250000Y-66500000D02*
X74000000Y-65600000D01*
X74000000Y-67500000D02*
X74000000Y-65600000D01*
X70000000Y-65600000D02*
X69750000Y-66500000D01*
X70250000Y-66500000D02*
X70000000Y-65600000D01*
X70000000Y-67500000D02*
X70000000Y-65700000D01*
X76200000Y-56300000D02*
G75*
G03X75900000Y-56000000I-300000J0D01*
G01*
X68100000Y-56000000D02*
G75*
G03X67800000Y-56300000I0J-300000D01*
G01*
X67000000Y-75500000D02*
X77000000Y-75500000D01*
X76200000Y-56300000D02*
X76200000Y-65500000D01*
X67800000Y-56300000D02*
X67800000Y-65500000D01*
X68100000Y-56000000D02*
X75900000Y-56000000D01*
X77000000Y-65500000D02*
X77000000Y-75500000D01*
X67000000Y-65500000D02*
X67000000Y-75500000D01*
X67800000Y-63500000D02*
X76200000Y-63500000D01*
X67000000Y-65500000D02*
X77000000Y-65500000D01*
G04 #@! TO.C,J6*
X46000000Y-65600000D02*
X45750000Y-66500000D01*
X46250000Y-66500000D02*
X46000000Y-65600000D01*
X46000000Y-67500000D02*
X46000000Y-65600000D01*
X42000000Y-65600000D02*
X41750000Y-66500000D01*
X42250000Y-66500000D02*
X42000000Y-65600000D01*
X42000000Y-67500000D02*
X42000000Y-65700000D01*
X48200000Y-56300000D02*
G75*
G03X47900000Y-56000000I-300000J0D01*
G01*
X40100000Y-56000000D02*
G75*
G03X39800000Y-56300000I0J-300000D01*
G01*
X39000000Y-75500000D02*
X49000000Y-75500000D01*
X48200000Y-56300000D02*
X48200000Y-65500000D01*
X39800000Y-56300000D02*
X39800000Y-65500000D01*
X40100000Y-56000000D02*
X47900000Y-56000000D01*
X49000000Y-65500000D02*
X49000000Y-75500000D01*
X39000000Y-65500000D02*
X39000000Y-75500000D01*
X39800000Y-63500000D02*
X48200000Y-63500000D01*
X39000000Y-65500000D02*
X49000000Y-65500000D01*
D12*
G04 #@! TO.C,R2*
X81000000Y-87600000D02*
X81000000Y-88400000D01*
X83000000Y-88400000D02*
X83000000Y-87600000D01*
G04 #@! TO.C,U2*
D11*
X117511904Y-71202380D02*
X117511904Y-72011904D01*
X117464285Y-72107142D01*
X117416666Y-72154761D01*
X117321428Y-72202380D01*
X117130952Y-72202380D01*
X117035714Y-72154761D01*
X116988095Y-72107142D01*
X116940476Y-72011904D01*
X116940476Y-71202380D01*
X116511904Y-71297619D02*
X116464285Y-71250000D01*
X116369047Y-71202380D01*
X116130952Y-71202380D01*
X116035714Y-71250000D01*
X115988095Y-71297619D01*
X115940476Y-71392857D01*
X115940476Y-71488095D01*
X115988095Y-71630952D01*
X116559523Y-72202380D01*
X115940476Y-72202380D01*
G04 #@! TO.C,R6*
X92916666Y-85202380D02*
X93250000Y-84726190D01*
X93488095Y-85202380D02*
X93488095Y-84202380D01*
X93107142Y-84202380D01*
X93011904Y-84250000D01*
X92964285Y-84297619D01*
X92916666Y-84392857D01*
X92916666Y-84535714D01*
X92964285Y-84630952D01*
X93011904Y-84678571D01*
X93107142Y-84726190D01*
X93488095Y-84726190D01*
X92059523Y-84202380D02*
X92250000Y-84202380D01*
X92345238Y-84250000D01*
X92392857Y-84297619D01*
X92488095Y-84440476D01*
X92535714Y-84630952D01*
X92535714Y-85011904D01*
X92488095Y-85107142D01*
X92440476Y-85154761D01*
X92345238Y-85202380D01*
X92154761Y-85202380D01*
X92059523Y-85154761D01*
X92011904Y-85107142D01*
X91964285Y-85011904D01*
X91964285Y-84773809D01*
X92011904Y-84678571D01*
X92059523Y-84630952D01*
X92154761Y-84583333D01*
X92345238Y-84583333D01*
X92440476Y-84630952D01*
X92488095Y-84678571D01*
X92535714Y-84773809D01*
G04 #@! TO.C,R5*
X88166666Y-85202380D02*
X88500000Y-84726190D01*
X88738095Y-85202380D02*
X88738095Y-84202380D01*
X88357142Y-84202380D01*
X88261904Y-84250000D01*
X88214285Y-84297619D01*
X88166666Y-84392857D01*
X88166666Y-84535714D01*
X88214285Y-84630952D01*
X88261904Y-84678571D01*
X88357142Y-84726190D01*
X88738095Y-84726190D01*
X87261904Y-84202380D02*
X87738095Y-84202380D01*
X87785714Y-84678571D01*
X87738095Y-84630952D01*
X87642857Y-84583333D01*
X87404761Y-84583333D01*
X87309523Y-84630952D01*
X87261904Y-84678571D01*
X87214285Y-84773809D01*
X87214285Y-85011904D01*
X87261904Y-85107142D01*
X87309523Y-85154761D01*
X87404761Y-85202380D01*
X87642857Y-85202380D01*
X87738095Y-85154761D01*
X87785714Y-85107142D01*
G04 #@! TO.C,C26*
X46392857Y-87857142D02*
X46440476Y-87904761D01*
X46583333Y-87952380D01*
X46678571Y-87952380D01*
X46821428Y-87904761D01*
X46916666Y-87809523D01*
X46964285Y-87714285D01*
X47011904Y-87523809D01*
X47011904Y-87380952D01*
X46964285Y-87190476D01*
X46916666Y-87095238D01*
X46821428Y-87000000D01*
X46678571Y-86952380D01*
X46583333Y-86952380D01*
X46440476Y-87000000D01*
X46392857Y-87047619D01*
X46011904Y-87047619D02*
X45964285Y-87000000D01*
X45869047Y-86952380D01*
X45630952Y-86952380D01*
X45535714Y-87000000D01*
X45488095Y-87047619D01*
X45440476Y-87142857D01*
X45440476Y-87238095D01*
X45488095Y-87380952D01*
X46059523Y-87952380D01*
X45440476Y-87952380D01*
X44583333Y-86952380D02*
X44773809Y-86952380D01*
X44869047Y-87000000D01*
X44916666Y-87047619D01*
X45011904Y-87190476D01*
X45059523Y-87380952D01*
X45059523Y-87761904D01*
X45011904Y-87857142D01*
X44964285Y-87904761D01*
X44869047Y-87952380D01*
X44678571Y-87952380D01*
X44583333Y-87904761D01*
X44535714Y-87857142D01*
X44488095Y-87761904D01*
X44488095Y-87523809D01*
X44535714Y-87428571D01*
X44583333Y-87380952D01*
X44678571Y-87333333D01*
X44869047Y-87333333D01*
X44964285Y-87380952D01*
X45011904Y-87428571D01*
X45059523Y-87523809D01*
G04 #@! TO.C,R25*
X49392857Y-87952380D02*
X49726190Y-87476190D01*
X49964285Y-87952380D02*
X49964285Y-86952380D01*
X49583333Y-86952380D01*
X49488095Y-87000000D01*
X49440476Y-87047619D01*
X49392857Y-87142857D01*
X49392857Y-87285714D01*
X49440476Y-87380952D01*
X49488095Y-87428571D01*
X49583333Y-87476190D01*
X49964285Y-87476190D01*
X49011904Y-87047619D02*
X48964285Y-87000000D01*
X48869047Y-86952380D01*
X48630952Y-86952380D01*
X48535714Y-87000000D01*
X48488095Y-87047619D01*
X48440476Y-87142857D01*
X48440476Y-87238095D01*
X48488095Y-87380952D01*
X49059523Y-87952380D01*
X48440476Y-87952380D01*
X47535714Y-86952380D02*
X48011904Y-86952380D01*
X48059523Y-87428571D01*
X48011904Y-87380952D01*
X47916666Y-87333333D01*
X47678571Y-87333333D01*
X47583333Y-87380952D01*
X47535714Y-87428571D01*
X47488095Y-87523809D01*
X47488095Y-87761904D01*
X47535714Y-87857142D01*
X47583333Y-87904761D01*
X47678571Y-87952380D01*
X47916666Y-87952380D01*
X48011904Y-87904761D01*
X48059523Y-87857142D01*
G04 #@! TO.C,R26*
X52392857Y-87952380D02*
X52726190Y-87476190D01*
X52964285Y-87952380D02*
X52964285Y-86952380D01*
X52583333Y-86952380D01*
X52488095Y-87000000D01*
X52440476Y-87047619D01*
X52392857Y-87142857D01*
X52392857Y-87285714D01*
X52440476Y-87380952D01*
X52488095Y-87428571D01*
X52583333Y-87476190D01*
X52964285Y-87476190D01*
X52011904Y-87047619D02*
X51964285Y-87000000D01*
X51869047Y-86952380D01*
X51630952Y-86952380D01*
X51535714Y-87000000D01*
X51488095Y-87047619D01*
X51440476Y-87142857D01*
X51440476Y-87238095D01*
X51488095Y-87380952D01*
X52059523Y-87952380D01*
X51440476Y-87952380D01*
X50583333Y-86952380D02*
X50773809Y-86952380D01*
X50869047Y-87000000D01*
X50916666Y-87047619D01*
X51011904Y-87190476D01*
X51059523Y-87380952D01*
X51059523Y-87761904D01*
X51011904Y-87857142D01*
X50964285Y-87904761D01*
X50869047Y-87952380D01*
X50678571Y-87952380D01*
X50583333Y-87904761D01*
X50535714Y-87857142D01*
X50488095Y-87761904D01*
X50488095Y-87523809D01*
X50535714Y-87428571D01*
X50583333Y-87380952D01*
X50678571Y-87333333D01*
X50869047Y-87333333D01*
X50964285Y-87380952D01*
X51011904Y-87428571D01*
X51059523Y-87523809D01*
G04 #@! TO.C,F2*
X105583333Y-71678571D02*
X105916666Y-71678571D01*
X105916666Y-72202380D02*
X105916666Y-71202380D01*
X105440476Y-71202380D01*
X105107142Y-71297619D02*
X105059523Y-71250000D01*
X104964285Y-71202380D01*
X104726190Y-71202380D01*
X104630952Y-71250000D01*
X104583333Y-71297619D01*
X104535714Y-71392857D01*
X104535714Y-71488095D01*
X104583333Y-71630952D01*
X105154761Y-72202380D01*
X104535714Y-72202380D01*
G04 #@! TO.C,F1*
X103583333Y-99428571D02*
X103916666Y-99428571D01*
X103916666Y-99952380D02*
X103916666Y-98952380D01*
X103440476Y-98952380D01*
X102535714Y-99952380D02*
X103107142Y-99952380D01*
X102821428Y-99952380D02*
X102821428Y-98952380D01*
X102916666Y-99095238D01*
X103011904Y-99190476D01*
X103107142Y-99238095D01*
G04 #@! TO.C,C11*
X99142857Y-86107142D02*
X99190476Y-86154761D01*
X99333333Y-86202380D01*
X99428571Y-86202380D01*
X99571428Y-86154761D01*
X99666666Y-86059523D01*
X99714285Y-85964285D01*
X99761904Y-85773809D01*
X99761904Y-85630952D01*
X99714285Y-85440476D01*
X99666666Y-85345238D01*
X99571428Y-85250000D01*
X99428571Y-85202380D01*
X99333333Y-85202380D01*
X99190476Y-85250000D01*
X99142857Y-85297619D01*
X98190476Y-86202380D02*
X98761904Y-86202380D01*
X98476190Y-86202380D02*
X98476190Y-85202380D01*
X98571428Y-85345238D01*
X98666666Y-85440476D01*
X98761904Y-85488095D01*
X97238095Y-86202380D02*
X97809523Y-86202380D01*
X97523809Y-86202380D02*
X97523809Y-85202380D01*
X97619047Y-85345238D01*
X97714285Y-85440476D01*
X97809523Y-85488095D01*
G04 #@! TO.C,C9*
X92666666Y-91107142D02*
X92714285Y-91154761D01*
X92857142Y-91202380D01*
X92952380Y-91202380D01*
X93095238Y-91154761D01*
X93190476Y-91059523D01*
X93238095Y-90964285D01*
X93285714Y-90773809D01*
X93285714Y-90630952D01*
X93238095Y-90440476D01*
X93190476Y-90345238D01*
X93095238Y-90250000D01*
X92952380Y-90202380D01*
X92857142Y-90202380D01*
X92714285Y-90250000D01*
X92666666Y-90297619D01*
X92190476Y-91202380D02*
X92000000Y-91202380D01*
X91904761Y-91154761D01*
X91857142Y-91107142D01*
X91761904Y-90964285D01*
X91714285Y-90773809D01*
X91714285Y-90392857D01*
X91761904Y-90297619D01*
X91809523Y-90250000D01*
X91904761Y-90202380D01*
X92095238Y-90202380D01*
X92190476Y-90250000D01*
X92238095Y-90297619D01*
X92285714Y-90392857D01*
X92285714Y-90630952D01*
X92238095Y-90726190D01*
X92190476Y-90773809D01*
X92095238Y-90821428D01*
X91904761Y-90821428D01*
X91809523Y-90773809D01*
X91761904Y-90726190D01*
X91714285Y-90630952D01*
G04 #@! TO.C,C19*
X68392857Y-104357142D02*
X68440476Y-104404761D01*
X68583333Y-104452380D01*
X68678571Y-104452380D01*
X68821428Y-104404761D01*
X68916666Y-104309523D01*
X68964285Y-104214285D01*
X69011904Y-104023809D01*
X69011904Y-103880952D01*
X68964285Y-103690476D01*
X68916666Y-103595238D01*
X68821428Y-103500000D01*
X68678571Y-103452380D01*
X68583333Y-103452380D01*
X68440476Y-103500000D01*
X68392857Y-103547619D01*
X67440476Y-104452380D02*
X68011904Y-104452380D01*
X67726190Y-104452380D02*
X67726190Y-103452380D01*
X67821428Y-103595238D01*
X67916666Y-103690476D01*
X68011904Y-103738095D01*
X66964285Y-104452380D02*
X66773809Y-104452380D01*
X66678571Y-104404761D01*
X66630952Y-104357142D01*
X66535714Y-104214285D01*
X66488095Y-104023809D01*
X66488095Y-103642857D01*
X66535714Y-103547619D01*
X66583333Y-103500000D01*
X66678571Y-103452380D01*
X66869047Y-103452380D01*
X66964285Y-103500000D01*
X67011904Y-103547619D01*
X67059523Y-103642857D01*
X67059523Y-103880952D01*
X67011904Y-103976190D01*
X66964285Y-104023809D01*
X66869047Y-104071428D01*
X66678571Y-104071428D01*
X66583333Y-104023809D01*
X66535714Y-103976190D01*
X66488095Y-103880952D01*
G04 #@! TO.C,C18*
X68392857Y-105857142D02*
X68440476Y-105904761D01*
X68583333Y-105952380D01*
X68678571Y-105952380D01*
X68821428Y-105904761D01*
X68916666Y-105809523D01*
X68964285Y-105714285D01*
X69011904Y-105523809D01*
X69011904Y-105380952D01*
X68964285Y-105190476D01*
X68916666Y-105095238D01*
X68821428Y-105000000D01*
X68678571Y-104952380D01*
X68583333Y-104952380D01*
X68440476Y-105000000D01*
X68392857Y-105047619D01*
X67440476Y-105952380D02*
X68011904Y-105952380D01*
X67726190Y-105952380D02*
X67726190Y-104952380D01*
X67821428Y-105095238D01*
X67916666Y-105190476D01*
X68011904Y-105238095D01*
X66869047Y-105380952D02*
X66964285Y-105333333D01*
X67011904Y-105285714D01*
X67059523Y-105190476D01*
X67059523Y-105142857D01*
X67011904Y-105047619D01*
X66964285Y-105000000D01*
X66869047Y-104952380D01*
X66678571Y-104952380D01*
X66583333Y-105000000D01*
X66535714Y-105047619D01*
X66488095Y-105142857D01*
X66488095Y-105190476D01*
X66535714Y-105285714D01*
X66583333Y-105333333D01*
X66678571Y-105380952D01*
X66869047Y-105380952D01*
X66964285Y-105428571D01*
X67011904Y-105476190D01*
X67059523Y-105571428D01*
X67059523Y-105761904D01*
X67011904Y-105857142D01*
X66964285Y-105904761D01*
X66869047Y-105952380D01*
X66678571Y-105952380D01*
X66583333Y-105904761D01*
X66535714Y-105857142D01*
X66488095Y-105761904D01*
X66488095Y-105571428D01*
X66535714Y-105476190D01*
X66583333Y-105428571D01*
X66678571Y-105380952D01*
G04 #@! TO.C,C22*
X111142857Y-94357142D02*
X111190476Y-94404761D01*
X111333333Y-94452380D01*
X111428571Y-94452380D01*
X111571428Y-94404761D01*
X111666666Y-94309523D01*
X111714285Y-94214285D01*
X111761904Y-94023809D01*
X111761904Y-93880952D01*
X111714285Y-93690476D01*
X111666666Y-93595238D01*
X111571428Y-93500000D01*
X111428571Y-93452380D01*
X111333333Y-93452380D01*
X111190476Y-93500000D01*
X111142857Y-93547619D01*
X110761904Y-93547619D02*
X110714285Y-93500000D01*
X110619047Y-93452380D01*
X110380952Y-93452380D01*
X110285714Y-93500000D01*
X110238095Y-93547619D01*
X110190476Y-93642857D01*
X110190476Y-93738095D01*
X110238095Y-93880952D01*
X110809523Y-94452380D01*
X110190476Y-94452380D01*
X109809523Y-93547619D02*
X109761904Y-93500000D01*
X109666666Y-93452380D01*
X109428571Y-93452380D01*
X109333333Y-93500000D01*
X109285714Y-93547619D01*
X109238095Y-93642857D01*
X109238095Y-93738095D01*
X109285714Y-93880952D01*
X109857142Y-94452380D01*
X109238095Y-94452380D01*
G04 #@! TO.C,C15*
X106642857Y-82607142D02*
X106690476Y-82654761D01*
X106833333Y-82702380D01*
X106928571Y-82702380D01*
X107071428Y-82654761D01*
X107166666Y-82559523D01*
X107214285Y-82464285D01*
X107261904Y-82273809D01*
X107261904Y-82130952D01*
X107214285Y-81940476D01*
X107166666Y-81845238D01*
X107071428Y-81750000D01*
X106928571Y-81702380D01*
X106833333Y-81702380D01*
X106690476Y-81750000D01*
X106642857Y-81797619D01*
X105690476Y-82702380D02*
X106261904Y-82702380D01*
X105976190Y-82702380D02*
X105976190Y-81702380D01*
X106071428Y-81845238D01*
X106166666Y-81940476D01*
X106261904Y-81988095D01*
X104785714Y-81702380D02*
X105261904Y-81702380D01*
X105309523Y-82178571D01*
X105261904Y-82130952D01*
X105166666Y-82083333D01*
X104928571Y-82083333D01*
X104833333Y-82130952D01*
X104785714Y-82178571D01*
X104738095Y-82273809D01*
X104738095Y-82511904D01*
X104785714Y-82607142D01*
X104833333Y-82654761D01*
X104928571Y-82702380D01*
X105166666Y-82702380D01*
X105261904Y-82654761D01*
X105309523Y-82607142D01*
G04 #@! TO.C,C14*
X106642857Y-79107142D02*
X106690476Y-79154761D01*
X106833333Y-79202380D01*
X106928571Y-79202380D01*
X107071428Y-79154761D01*
X107166666Y-79059523D01*
X107214285Y-78964285D01*
X107261904Y-78773809D01*
X107261904Y-78630952D01*
X107214285Y-78440476D01*
X107166666Y-78345238D01*
X107071428Y-78250000D01*
X106928571Y-78202380D01*
X106833333Y-78202380D01*
X106690476Y-78250000D01*
X106642857Y-78297619D01*
X105690476Y-79202380D02*
X106261904Y-79202380D01*
X105976190Y-79202380D02*
X105976190Y-78202380D01*
X106071428Y-78345238D01*
X106166666Y-78440476D01*
X106261904Y-78488095D01*
X104833333Y-78535714D02*
X104833333Y-79202380D01*
X105071428Y-78154761D02*
X105309523Y-78869047D01*
X104690476Y-78869047D01*
G04 #@! TO.C,C13*
X96642857Y-77857142D02*
X96690476Y-77904761D01*
X96833333Y-77952380D01*
X96928571Y-77952380D01*
X97071428Y-77904761D01*
X97166666Y-77809523D01*
X97214285Y-77714285D01*
X97261904Y-77523809D01*
X97261904Y-77380952D01*
X97214285Y-77190476D01*
X97166666Y-77095238D01*
X97071428Y-77000000D01*
X96928571Y-76952380D01*
X96833333Y-76952380D01*
X96690476Y-77000000D01*
X96642857Y-77047619D01*
X95690476Y-77952380D02*
X96261904Y-77952380D01*
X95976190Y-77952380D02*
X95976190Y-76952380D01*
X96071428Y-77095238D01*
X96166666Y-77190476D01*
X96261904Y-77238095D01*
X95357142Y-76952380D02*
X94738095Y-76952380D01*
X95071428Y-77333333D01*
X94928571Y-77333333D01*
X94833333Y-77380952D01*
X94785714Y-77428571D01*
X94738095Y-77523809D01*
X94738095Y-77761904D01*
X94785714Y-77857142D01*
X94833333Y-77904761D01*
X94928571Y-77952380D01*
X95214285Y-77952380D01*
X95309523Y-77904761D01*
X95357142Y-77857142D01*
G04 #@! TO.C,C12*
X113357142Y-95607142D02*
X113404761Y-95559523D01*
X113452380Y-95416666D01*
X113452380Y-95321428D01*
X113404761Y-95178571D01*
X113309523Y-95083333D01*
X113214285Y-95035714D01*
X113023809Y-94988095D01*
X112880952Y-94988095D01*
X112690476Y-95035714D01*
X112595238Y-95083333D01*
X112500000Y-95178571D01*
X112452380Y-95321428D01*
X112452380Y-95416666D01*
X112500000Y-95559523D01*
X112547619Y-95607142D01*
X113452380Y-96559523D02*
X113452380Y-95988095D01*
X113452380Y-96273809D02*
X112452380Y-96273809D01*
X112595238Y-96178571D01*
X112690476Y-96083333D01*
X112738095Y-95988095D01*
X112547619Y-96940476D02*
X112500000Y-96988095D01*
X112452380Y-97083333D01*
X112452380Y-97321428D01*
X112500000Y-97416666D01*
X112547619Y-97464285D01*
X112642857Y-97511904D01*
X112738095Y-97511904D01*
X112880952Y-97464285D01*
X113452380Y-96892857D01*
X113452380Y-97511904D01*
G04 #@! TO.C,C6*
X79166666Y-96357142D02*
X79214285Y-96404761D01*
X79357142Y-96452380D01*
X79452380Y-96452380D01*
X79595238Y-96404761D01*
X79690476Y-96309523D01*
X79738095Y-96214285D01*
X79785714Y-96023809D01*
X79785714Y-95880952D01*
X79738095Y-95690476D01*
X79690476Y-95595238D01*
X79595238Y-95500000D01*
X79452380Y-95452380D01*
X79357142Y-95452380D01*
X79214285Y-95500000D01*
X79166666Y-95547619D01*
X78309523Y-95452380D02*
X78500000Y-95452380D01*
X78595238Y-95500000D01*
X78642857Y-95547619D01*
X78738095Y-95690476D01*
X78785714Y-95880952D01*
X78785714Y-96261904D01*
X78738095Y-96357142D01*
X78690476Y-96404761D01*
X78595238Y-96452380D01*
X78404761Y-96452380D01*
X78309523Y-96404761D01*
X78261904Y-96357142D01*
X78214285Y-96261904D01*
X78214285Y-96023809D01*
X78261904Y-95928571D01*
X78309523Y-95880952D01*
X78404761Y-95833333D01*
X78595238Y-95833333D01*
X78690476Y-95880952D01*
X78738095Y-95928571D01*
X78785714Y-96023809D01*
G04 #@! TO.C,C10*
X115857142Y-95607142D02*
X115904761Y-95559523D01*
X115952380Y-95416666D01*
X115952380Y-95321428D01*
X115904761Y-95178571D01*
X115809523Y-95083333D01*
X115714285Y-95035714D01*
X115523809Y-94988095D01*
X115380952Y-94988095D01*
X115190476Y-95035714D01*
X115095238Y-95083333D01*
X115000000Y-95178571D01*
X114952380Y-95321428D01*
X114952380Y-95416666D01*
X115000000Y-95559523D01*
X115047619Y-95607142D01*
X115952380Y-96559523D02*
X115952380Y-95988095D01*
X115952380Y-96273809D02*
X114952380Y-96273809D01*
X115095238Y-96178571D01*
X115190476Y-96083333D01*
X115238095Y-95988095D01*
X114952380Y-97178571D02*
X114952380Y-97273809D01*
X115000000Y-97369047D01*
X115047619Y-97416666D01*
X115142857Y-97464285D01*
X115333333Y-97511904D01*
X115571428Y-97511904D01*
X115761904Y-97464285D01*
X115857142Y-97416666D01*
X115904761Y-97369047D01*
X115952380Y-97273809D01*
X115952380Y-97178571D01*
X115904761Y-97083333D01*
X115857142Y-97035714D01*
X115761904Y-96988095D01*
X115571428Y-96940476D01*
X115333333Y-96940476D01*
X115142857Y-96988095D01*
X115047619Y-97035714D01*
X115000000Y-97083333D01*
X114952380Y-97178571D01*
G04 #@! TO.C,R7*
X99666666Y-77952380D02*
X100000000Y-77476190D01*
X100238095Y-77952380D02*
X100238095Y-76952380D01*
X99857142Y-76952380D01*
X99761904Y-77000000D01*
X99714285Y-77047619D01*
X99666666Y-77142857D01*
X99666666Y-77285714D01*
X99714285Y-77380952D01*
X99761904Y-77428571D01*
X99857142Y-77476190D01*
X100238095Y-77476190D01*
X99333333Y-76952380D02*
X98666666Y-76952380D01*
X99095238Y-77952380D01*
G04 #@! TO.C,R17*
X111952380Y-95607142D02*
X111476190Y-95273809D01*
X111952380Y-95035714D02*
X110952380Y-95035714D01*
X110952380Y-95416666D01*
X111000000Y-95511904D01*
X111047619Y-95559523D01*
X111142857Y-95607142D01*
X111285714Y-95607142D01*
X111380952Y-95559523D01*
X111428571Y-95511904D01*
X111476190Y-95416666D01*
X111476190Y-95035714D01*
X111952380Y-96559523D02*
X111952380Y-95988095D01*
X111952380Y-96273809D02*
X110952380Y-96273809D01*
X111095238Y-96178571D01*
X111190476Y-96083333D01*
X111238095Y-95988095D01*
X110952380Y-96892857D02*
X110952380Y-97559523D01*
X111952380Y-97130952D01*
G04 #@! TO.C,R18*
X117452380Y-95607142D02*
X116976190Y-95273809D01*
X117452380Y-95035714D02*
X116452380Y-95035714D01*
X116452380Y-95416666D01*
X116500000Y-95511904D01*
X116547619Y-95559523D01*
X116642857Y-95607142D01*
X116785714Y-95607142D01*
X116880952Y-95559523D01*
X116928571Y-95511904D01*
X116976190Y-95416666D01*
X116976190Y-95035714D01*
X117452380Y-96559523D02*
X117452380Y-95988095D01*
X117452380Y-96273809D02*
X116452380Y-96273809D01*
X116595238Y-96178571D01*
X116690476Y-96083333D01*
X116738095Y-95988095D01*
X116880952Y-97130952D02*
X116833333Y-97035714D01*
X116785714Y-96988095D01*
X116690476Y-96940476D01*
X116642857Y-96940476D01*
X116547619Y-96988095D01*
X116500000Y-97035714D01*
X116452380Y-97130952D01*
X116452380Y-97321428D01*
X116500000Y-97416666D01*
X116547619Y-97464285D01*
X116642857Y-97511904D01*
X116690476Y-97511904D01*
X116785714Y-97464285D01*
X116833333Y-97416666D01*
X116880952Y-97321428D01*
X116880952Y-97130952D01*
X116928571Y-97035714D01*
X116976190Y-96988095D01*
X117071428Y-96940476D01*
X117261904Y-96940476D01*
X117357142Y-96988095D01*
X117404761Y-97035714D01*
X117452380Y-97130952D01*
X117452380Y-97321428D01*
X117404761Y-97416666D01*
X117357142Y-97464285D01*
X117261904Y-97511904D01*
X117071428Y-97511904D01*
X116976190Y-97464285D01*
X116928571Y-97416666D01*
X116880952Y-97321428D01*
G04 #@! TO.C,R8*
X71916666Y-92952380D02*
X72250000Y-92476190D01*
X72488095Y-92952380D02*
X72488095Y-91952380D01*
X72107142Y-91952380D01*
X72011904Y-92000000D01*
X71964285Y-92047619D01*
X71916666Y-92142857D01*
X71916666Y-92285714D01*
X71964285Y-92380952D01*
X72011904Y-92428571D01*
X72107142Y-92476190D01*
X72488095Y-92476190D01*
X71345238Y-92380952D02*
X71440476Y-92333333D01*
X71488095Y-92285714D01*
X71535714Y-92190476D01*
X71535714Y-92142857D01*
X71488095Y-92047619D01*
X71440476Y-92000000D01*
X71345238Y-91952380D01*
X71154761Y-91952380D01*
X71059523Y-92000000D01*
X71011904Y-92047619D01*
X70964285Y-92142857D01*
X70964285Y-92190476D01*
X71011904Y-92285714D01*
X71059523Y-92333333D01*
X71154761Y-92380952D01*
X71345238Y-92380952D01*
X71440476Y-92428571D01*
X71488095Y-92476190D01*
X71535714Y-92571428D01*
X71535714Y-92761904D01*
X71488095Y-92857142D01*
X71440476Y-92904761D01*
X71345238Y-92952380D01*
X71154761Y-92952380D01*
X71059523Y-92904761D01*
X71011904Y-92857142D01*
X70964285Y-92761904D01*
X70964285Y-92571428D01*
X71011904Y-92476190D01*
X71059523Y-92428571D01*
X71154761Y-92380952D01*
G04 #@! TO.C,R19*
X119642857Y-102202380D02*
X119976190Y-101726190D01*
X120214285Y-102202380D02*
X120214285Y-101202380D01*
X119833333Y-101202380D01*
X119738095Y-101250000D01*
X119690476Y-101297619D01*
X119642857Y-101392857D01*
X119642857Y-101535714D01*
X119690476Y-101630952D01*
X119738095Y-101678571D01*
X119833333Y-101726190D01*
X120214285Y-101726190D01*
X118690476Y-102202380D02*
X119261904Y-102202380D01*
X118976190Y-102202380D02*
X118976190Y-101202380D01*
X119071428Y-101345238D01*
X119166666Y-101440476D01*
X119261904Y-101488095D01*
X118214285Y-102202380D02*
X118023809Y-102202380D01*
X117928571Y-102154761D01*
X117880952Y-102107142D01*
X117785714Y-101964285D01*
X117738095Y-101773809D01*
X117738095Y-101392857D01*
X117785714Y-101297619D01*
X117833333Y-101250000D01*
X117928571Y-101202380D01*
X118119047Y-101202380D01*
X118214285Y-101250000D01*
X118261904Y-101297619D01*
X118309523Y-101392857D01*
X118309523Y-101630952D01*
X118261904Y-101726190D01*
X118214285Y-101773809D01*
X118119047Y-101821428D01*
X117928571Y-101821428D01*
X117833333Y-101773809D01*
X117785714Y-101726190D01*
X117738095Y-101630952D01*
G04 #@! TO.C,R20*
X109892857Y-102202380D02*
X110226190Y-101726190D01*
X110464285Y-102202380D02*
X110464285Y-101202380D01*
X110083333Y-101202380D01*
X109988095Y-101250000D01*
X109940476Y-101297619D01*
X109892857Y-101392857D01*
X109892857Y-101535714D01*
X109940476Y-101630952D01*
X109988095Y-101678571D01*
X110083333Y-101726190D01*
X110464285Y-101726190D01*
X109511904Y-101297619D02*
X109464285Y-101250000D01*
X109369047Y-101202380D01*
X109130952Y-101202380D01*
X109035714Y-101250000D01*
X108988095Y-101297619D01*
X108940476Y-101392857D01*
X108940476Y-101488095D01*
X108988095Y-101630952D01*
X109559523Y-102202380D01*
X108940476Y-102202380D01*
X108321428Y-101202380D02*
X108226190Y-101202380D01*
X108130952Y-101250000D01*
X108083333Y-101297619D01*
X108035714Y-101392857D01*
X107988095Y-101583333D01*
X107988095Y-101821428D01*
X108035714Y-102011904D01*
X108083333Y-102107142D01*
X108130952Y-102154761D01*
X108226190Y-102202380D01*
X108321428Y-102202380D01*
X108416666Y-102154761D01*
X108464285Y-102107142D01*
X108511904Y-102011904D01*
X108559523Y-101821428D01*
X108559523Y-101583333D01*
X108511904Y-101392857D01*
X108464285Y-101297619D01*
X108416666Y-101250000D01*
X108321428Y-101202380D01*
G04 #@! TO.C,R4*
X76916666Y-96452380D02*
X77250000Y-95976190D01*
X77488095Y-96452380D02*
X77488095Y-95452380D01*
X77107142Y-95452380D01*
X77011904Y-95500000D01*
X76964285Y-95547619D01*
X76916666Y-95642857D01*
X76916666Y-95785714D01*
X76964285Y-95880952D01*
X77011904Y-95928571D01*
X77107142Y-95976190D01*
X77488095Y-95976190D01*
X76059523Y-95785714D02*
X76059523Y-96452380D01*
X76297619Y-95404761D02*
X76535714Y-96119047D01*
X75916666Y-96119047D01*
G04 #@! TO.C,R21*
X118142857Y-94452380D02*
X118476190Y-93976190D01*
X118714285Y-94452380D02*
X118714285Y-93452380D01*
X118333333Y-93452380D01*
X118238095Y-93500000D01*
X118190476Y-93547619D01*
X118142857Y-93642857D01*
X118142857Y-93785714D01*
X118190476Y-93880952D01*
X118238095Y-93928571D01*
X118333333Y-93976190D01*
X118714285Y-93976190D01*
X117761904Y-93547619D02*
X117714285Y-93500000D01*
X117619047Y-93452380D01*
X117380952Y-93452380D01*
X117285714Y-93500000D01*
X117238095Y-93547619D01*
X117190476Y-93642857D01*
X117190476Y-93738095D01*
X117238095Y-93880952D01*
X117809523Y-94452380D01*
X117190476Y-94452380D01*
X116238095Y-94452380D02*
X116809523Y-94452380D01*
X116523809Y-94452380D02*
X116523809Y-93452380D01*
X116619047Y-93595238D01*
X116714285Y-93690476D01*
X116809523Y-93738095D01*
G04 #@! TO.C,R1*
X84702380Y-89583333D02*
X84226190Y-89250000D01*
X84702380Y-89011904D02*
X83702380Y-89011904D01*
X83702380Y-89392857D01*
X83750000Y-89488095D01*
X83797619Y-89535714D01*
X83892857Y-89583333D01*
X84035714Y-89583333D01*
X84130952Y-89535714D01*
X84178571Y-89488095D01*
X84226190Y-89392857D01*
X84226190Y-89011904D01*
X84702380Y-90535714D02*
X84702380Y-89964285D01*
X84702380Y-90250000D02*
X83702380Y-90250000D01*
X83845238Y-90154761D01*
X83940476Y-90059523D01*
X83988095Y-89964285D01*
G04 #@! TO.C,R22*
X114642857Y-94382380D02*
X114976190Y-93906190D01*
X115214285Y-94382380D02*
X115214285Y-93382380D01*
X114833333Y-93382380D01*
X114738095Y-93430000D01*
X114690476Y-93477619D01*
X114642857Y-93572857D01*
X114642857Y-93715714D01*
X114690476Y-93810952D01*
X114738095Y-93858571D01*
X114833333Y-93906190D01*
X115214285Y-93906190D01*
X114261904Y-93477619D02*
X114214285Y-93430000D01*
X114119047Y-93382380D01*
X113880952Y-93382380D01*
X113785714Y-93430000D01*
X113738095Y-93477619D01*
X113690476Y-93572857D01*
X113690476Y-93668095D01*
X113738095Y-93810952D01*
X114309523Y-94382380D01*
X113690476Y-94382380D01*
X113309523Y-93477619D02*
X113261904Y-93430000D01*
X113166666Y-93382380D01*
X112928571Y-93382380D01*
X112833333Y-93430000D01*
X112785714Y-93477619D01*
X112738095Y-93572857D01*
X112738095Y-93668095D01*
X112785714Y-93810952D01*
X113357142Y-94382380D01*
X112738095Y-94382380D01*
G04 #@! TO.C,R3*
X84702380Y-87083333D02*
X84226190Y-86750000D01*
X84702380Y-86511904D02*
X83702380Y-86511904D01*
X83702380Y-86892857D01*
X83750000Y-86988095D01*
X83797619Y-87035714D01*
X83892857Y-87083333D01*
X84035714Y-87083333D01*
X84130952Y-87035714D01*
X84178571Y-86988095D01*
X84226190Y-86892857D01*
X84226190Y-86511904D01*
X83702380Y-87416666D02*
X83702380Y-88035714D01*
X84083333Y-87702380D01*
X84083333Y-87845238D01*
X84130952Y-87940476D01*
X84178571Y-87988095D01*
X84273809Y-88035714D01*
X84511904Y-88035714D01*
X84607142Y-87988095D01*
X84654761Y-87940476D01*
X84702380Y-87845238D01*
X84702380Y-87559523D01*
X84654761Y-87464285D01*
X84607142Y-87416666D01*
G04 #@! TO.C,U6*
X72511904Y-96202380D02*
X72511904Y-97011904D01*
X72464285Y-97107142D01*
X72416666Y-97154761D01*
X72321428Y-97202380D01*
X72130952Y-97202380D01*
X72035714Y-97154761D01*
X71988095Y-97107142D01*
X71940476Y-97011904D01*
X71940476Y-96202380D01*
X71035714Y-96202380D02*
X71226190Y-96202380D01*
X71321428Y-96250000D01*
X71369047Y-96297619D01*
X71464285Y-96440476D01*
X71511904Y-96630952D01*
X71511904Y-97011904D01*
X71464285Y-97107142D01*
X71416666Y-97154761D01*
X71321428Y-97202380D01*
X71130952Y-97202380D01*
X71035714Y-97154761D01*
X70988095Y-97107142D01*
X70940476Y-97011904D01*
X70940476Y-96773809D01*
X70988095Y-96678571D01*
X71035714Y-96630952D01*
X71130952Y-96583333D01*
X71321428Y-96583333D01*
X71416666Y-96630952D01*
X71464285Y-96678571D01*
X71511904Y-96773809D01*
G04 #@! TO.C,J5*
X44583333Y-90702380D02*
X44583333Y-91416666D01*
X44630952Y-91559523D01*
X44726190Y-91654761D01*
X44869047Y-91702380D01*
X44964285Y-91702380D01*
X43630952Y-90702380D02*
X44107142Y-90702380D01*
X44154761Y-91178571D01*
X44107142Y-91130952D01*
X44011904Y-91083333D01*
X43773809Y-91083333D01*
X43678571Y-91130952D01*
X43630952Y-91178571D01*
X43583333Y-91273809D01*
X43583333Y-91511904D01*
X43630952Y-91607142D01*
X43678571Y-91654761D01*
X43773809Y-91702380D01*
X44011904Y-91702380D01*
X44107142Y-91654761D01*
X44154761Y-91607142D01*
G04 #@! TO.C,U5*
X98261904Y-83452380D02*
X98261904Y-84261904D01*
X98214285Y-84357142D01*
X98166666Y-84404761D01*
X98071428Y-84452380D01*
X97880952Y-84452380D01*
X97785714Y-84404761D01*
X97738095Y-84357142D01*
X97690476Y-84261904D01*
X97690476Y-83452380D01*
X96738095Y-83452380D02*
X97214285Y-83452380D01*
X97261904Y-83928571D01*
X97214285Y-83880952D01*
X97119047Y-83833333D01*
X96880952Y-83833333D01*
X96785714Y-83880952D01*
X96738095Y-83928571D01*
X96690476Y-84023809D01*
X96690476Y-84261904D01*
X96738095Y-84357142D01*
X96785714Y-84404761D01*
X96880952Y-84452380D01*
X97119047Y-84452380D01*
X97214285Y-84404761D01*
X97261904Y-84357142D01*
G04 #@! TO.C,J3*
X93833333Y-66452380D02*
X93833333Y-67166666D01*
X93880952Y-67309523D01*
X93976190Y-67404761D01*
X94119047Y-67452380D01*
X94214285Y-67452380D01*
X93452380Y-66452380D02*
X92833333Y-66452380D01*
X93166666Y-66833333D01*
X93023809Y-66833333D01*
X92928571Y-66880952D01*
X92880952Y-66928571D01*
X92833333Y-67023809D01*
X92833333Y-67261904D01*
X92880952Y-67357142D01*
X92928571Y-67404761D01*
X93023809Y-67452380D01*
X93309523Y-67452380D01*
X93404761Y-67404761D01*
X93452380Y-67357142D01*
G04 #@! TO.C,U1*
X81261904Y-92952380D02*
X81261904Y-93761904D01*
X81214285Y-93857142D01*
X81166666Y-93904761D01*
X81071428Y-93952380D01*
X80880952Y-93952380D01*
X80785714Y-93904761D01*
X80738095Y-93857142D01*
X80690476Y-93761904D01*
X80690476Y-92952380D01*
X79690476Y-93952380D02*
X80261904Y-93952380D01*
X79976190Y-93952380D02*
X79976190Y-92952380D01*
X80071428Y-93095238D01*
X80166666Y-93190476D01*
X80261904Y-93238095D01*
G04 #@! TO.C,U7*
X43511904Y-113452380D02*
X43511904Y-114261904D01*
X43464285Y-114357142D01*
X43416666Y-114404761D01*
X43321428Y-114452380D01*
X43130952Y-114452380D01*
X43035714Y-114404761D01*
X42988095Y-114357142D01*
X42940476Y-114261904D01*
X42940476Y-113452380D01*
X42559523Y-113452380D02*
X41892857Y-113452380D01*
X42321428Y-114452380D01*
G04 #@! TO.C,C25*
X67892857Y-113357142D02*
X67940476Y-113404761D01*
X68083333Y-113452380D01*
X68178571Y-113452380D01*
X68321428Y-113404761D01*
X68416666Y-113309523D01*
X68464285Y-113214285D01*
X68511904Y-113023809D01*
X68511904Y-112880952D01*
X68464285Y-112690476D01*
X68416666Y-112595238D01*
X68321428Y-112500000D01*
X68178571Y-112452380D01*
X68083333Y-112452380D01*
X67940476Y-112500000D01*
X67892857Y-112547619D01*
X67511904Y-112547619D02*
X67464285Y-112500000D01*
X67369047Y-112452380D01*
X67130952Y-112452380D01*
X67035714Y-112500000D01*
X66988095Y-112547619D01*
X66940476Y-112642857D01*
X66940476Y-112738095D01*
X66988095Y-112880952D01*
X67559523Y-113452380D01*
X66940476Y-113452380D01*
X66035714Y-112452380D02*
X66511904Y-112452380D01*
X66559523Y-112928571D01*
X66511904Y-112880952D01*
X66416666Y-112833333D01*
X66178571Y-112833333D01*
X66083333Y-112880952D01*
X66035714Y-112928571D01*
X65988095Y-113023809D01*
X65988095Y-113261904D01*
X66035714Y-113357142D01*
X66083333Y-113404761D01*
X66178571Y-113452380D01*
X66416666Y-113452380D01*
X66511904Y-113404761D01*
X66559523Y-113357142D01*
G04 #@! TO.C,C24*
X49392857Y-110857142D02*
X49440476Y-110904761D01*
X49583333Y-110952380D01*
X49678571Y-110952380D01*
X49821428Y-110904761D01*
X49916666Y-110809523D01*
X49964285Y-110714285D01*
X50011904Y-110523809D01*
X50011904Y-110380952D01*
X49964285Y-110190476D01*
X49916666Y-110095238D01*
X49821428Y-110000000D01*
X49678571Y-109952380D01*
X49583333Y-109952380D01*
X49440476Y-110000000D01*
X49392857Y-110047619D01*
X49011904Y-110047619D02*
X48964285Y-110000000D01*
X48869047Y-109952380D01*
X48630952Y-109952380D01*
X48535714Y-110000000D01*
X48488095Y-110047619D01*
X48440476Y-110142857D01*
X48440476Y-110238095D01*
X48488095Y-110380952D01*
X49059523Y-110952380D01*
X48440476Y-110952380D01*
X47583333Y-110285714D02*
X47583333Y-110952380D01*
X47821428Y-109904761D02*
X48059523Y-110619047D01*
X47440476Y-110619047D01*
G04 #@! TO.C,C23*
X46892857Y-105607142D02*
X46940476Y-105654761D01*
X47083333Y-105702380D01*
X47178571Y-105702380D01*
X47321428Y-105654761D01*
X47416666Y-105559523D01*
X47464285Y-105464285D01*
X47511904Y-105273809D01*
X47511904Y-105130952D01*
X47464285Y-104940476D01*
X47416666Y-104845238D01*
X47321428Y-104750000D01*
X47178571Y-104702380D01*
X47083333Y-104702380D01*
X46940476Y-104750000D01*
X46892857Y-104797619D01*
X46511904Y-104797619D02*
X46464285Y-104750000D01*
X46369047Y-104702380D01*
X46130952Y-104702380D01*
X46035714Y-104750000D01*
X45988095Y-104797619D01*
X45940476Y-104892857D01*
X45940476Y-104988095D01*
X45988095Y-105130952D01*
X46559523Y-105702380D01*
X45940476Y-105702380D01*
X45607142Y-104702380D02*
X44988095Y-104702380D01*
X45321428Y-105083333D01*
X45178571Y-105083333D01*
X45083333Y-105130952D01*
X45035714Y-105178571D01*
X44988095Y-105273809D01*
X44988095Y-105511904D01*
X45035714Y-105607142D01*
X45083333Y-105654761D01*
X45178571Y-105702380D01*
X45464285Y-105702380D01*
X45559523Y-105654761D01*
X45607142Y-105607142D01*
G04 #@! TO.C,Q11*
X36297619Y-104178571D02*
X36250000Y-104083333D01*
X36154761Y-103988095D01*
X36011904Y-103845238D01*
X35964285Y-103750000D01*
X35964285Y-103654761D01*
X36202380Y-103702380D02*
X36154761Y-103607142D01*
X36059523Y-103511904D01*
X35869047Y-103464285D01*
X35535714Y-103464285D01*
X35345238Y-103511904D01*
X35250000Y-103607142D01*
X35202380Y-103702380D01*
X35202380Y-103892857D01*
X35250000Y-103988095D01*
X35345238Y-104083333D01*
X35535714Y-104130952D01*
X35869047Y-104130952D01*
X36059523Y-104083333D01*
X36154761Y-103988095D01*
X36202380Y-103892857D01*
X36202380Y-103702380D01*
X36202380Y-105083333D02*
X36202380Y-104511904D01*
X36202380Y-104797619D02*
X35202380Y-104797619D01*
X35345238Y-104702380D01*
X35440476Y-104607142D01*
X35488095Y-104511904D01*
X36202380Y-106035714D02*
X36202380Y-105464285D01*
X36202380Y-105750000D02*
X35202380Y-105750000D01*
X35345238Y-105654761D01*
X35440476Y-105559523D01*
X35488095Y-105464285D01*
G04 #@! TO.C,Q10*
X43321428Y-101047619D02*
X43416666Y-101000000D01*
X43511904Y-100904761D01*
X43654761Y-100761904D01*
X43750000Y-100714285D01*
X43845238Y-100714285D01*
X43797619Y-100952380D02*
X43892857Y-100904761D01*
X43988095Y-100809523D01*
X44035714Y-100619047D01*
X44035714Y-100285714D01*
X43988095Y-100095238D01*
X43892857Y-100000000D01*
X43797619Y-99952380D01*
X43607142Y-99952380D01*
X43511904Y-100000000D01*
X43416666Y-100095238D01*
X43369047Y-100285714D01*
X43369047Y-100619047D01*
X43416666Y-100809523D01*
X43511904Y-100904761D01*
X43607142Y-100952380D01*
X43797619Y-100952380D01*
X42416666Y-100952380D02*
X42988095Y-100952380D01*
X42702380Y-100952380D02*
X42702380Y-99952380D01*
X42797619Y-100095238D01*
X42892857Y-100190476D01*
X42988095Y-100238095D01*
X41797619Y-99952380D02*
X41702380Y-99952380D01*
X41607142Y-100000000D01*
X41559523Y-100047619D01*
X41511904Y-100142857D01*
X41464285Y-100333333D01*
X41464285Y-100571428D01*
X41511904Y-100761904D01*
X41559523Y-100857142D01*
X41607142Y-100904761D01*
X41702380Y-100952380D01*
X41797619Y-100952380D01*
X41892857Y-100904761D01*
X41940476Y-100857142D01*
X41988095Y-100761904D01*
X42035714Y-100571428D01*
X42035714Y-100333333D01*
X41988095Y-100142857D01*
X41940476Y-100047619D01*
X41892857Y-100000000D01*
X41797619Y-99952380D01*
G04 #@! TO.C,R23*
X48642857Y-103452380D02*
X48976190Y-102976190D01*
X49214285Y-103452380D02*
X49214285Y-102452380D01*
X48833333Y-102452380D01*
X48738095Y-102500000D01*
X48690476Y-102547619D01*
X48642857Y-102642857D01*
X48642857Y-102785714D01*
X48690476Y-102880952D01*
X48738095Y-102928571D01*
X48833333Y-102976190D01*
X49214285Y-102976190D01*
X48261904Y-102547619D02*
X48214285Y-102500000D01*
X48119047Y-102452380D01*
X47880952Y-102452380D01*
X47785714Y-102500000D01*
X47738095Y-102547619D01*
X47690476Y-102642857D01*
X47690476Y-102738095D01*
X47738095Y-102880952D01*
X48309523Y-103452380D01*
X47690476Y-103452380D01*
X47357142Y-102452380D02*
X46738095Y-102452380D01*
X47071428Y-102833333D01*
X46928571Y-102833333D01*
X46833333Y-102880952D01*
X46785714Y-102928571D01*
X46738095Y-103023809D01*
X46738095Y-103261904D01*
X46785714Y-103357142D01*
X46833333Y-103404761D01*
X46928571Y-103452380D01*
X47214285Y-103452380D01*
X47309523Y-103404761D01*
X47357142Y-103357142D01*
G04 #@! TO.C,R24*
X38892857Y-101452380D02*
X39226190Y-100976190D01*
X39464285Y-101452380D02*
X39464285Y-100452380D01*
X39083333Y-100452380D01*
X38988095Y-100500000D01*
X38940476Y-100547619D01*
X38892857Y-100642857D01*
X38892857Y-100785714D01*
X38940476Y-100880952D01*
X38988095Y-100928571D01*
X39083333Y-100976190D01*
X39464285Y-100976190D01*
X38511904Y-100547619D02*
X38464285Y-100500000D01*
X38369047Y-100452380D01*
X38130952Y-100452380D01*
X38035714Y-100500000D01*
X37988095Y-100547619D01*
X37940476Y-100642857D01*
X37940476Y-100738095D01*
X37988095Y-100880952D01*
X38559523Y-101452380D01*
X37940476Y-101452380D01*
X37083333Y-100785714D02*
X37083333Y-101452380D01*
X37321428Y-100404761D02*
X37559523Y-101119047D01*
X36940476Y-101119047D01*
G04 #@! TO.C,C8*
X110666666Y-72357142D02*
X110714285Y-72404761D01*
X110857142Y-72452380D01*
X110952380Y-72452380D01*
X111095238Y-72404761D01*
X111190476Y-72309523D01*
X111238095Y-72214285D01*
X111285714Y-72023809D01*
X111285714Y-71880952D01*
X111238095Y-71690476D01*
X111190476Y-71595238D01*
X111095238Y-71500000D01*
X110952380Y-71452380D01*
X110857142Y-71452380D01*
X110714285Y-71500000D01*
X110666666Y-71547619D01*
X110095238Y-71880952D02*
X110190476Y-71833333D01*
X110238095Y-71785714D01*
X110285714Y-71690476D01*
X110285714Y-71642857D01*
X110238095Y-71547619D01*
X110190476Y-71500000D01*
X110095238Y-71452380D01*
X109904761Y-71452380D01*
X109809523Y-71500000D01*
X109761904Y-71547619D01*
X109714285Y-71642857D01*
X109714285Y-71690476D01*
X109761904Y-71785714D01*
X109809523Y-71833333D01*
X109904761Y-71880952D01*
X110095238Y-71880952D01*
X110190476Y-71928571D01*
X110238095Y-71976190D01*
X110285714Y-72071428D01*
X110285714Y-72261904D01*
X110238095Y-72357142D01*
X110190476Y-72404761D01*
X110095238Y-72452380D01*
X109904761Y-72452380D01*
X109809523Y-72404761D01*
X109761904Y-72357142D01*
X109714285Y-72261904D01*
X109714285Y-72071428D01*
X109761904Y-71976190D01*
X109809523Y-71928571D01*
X109904761Y-71880952D01*
G04 #@! TO.C,C7*
X122673125Y-72107142D02*
X122720744Y-72154761D01*
X122863601Y-72202380D01*
X122958839Y-72202380D01*
X123101697Y-72154761D01*
X123196935Y-72059523D01*
X123244554Y-71964285D01*
X123292173Y-71773809D01*
X123292173Y-71630952D01*
X123244554Y-71440476D01*
X123196935Y-71345238D01*
X123101697Y-71250000D01*
X122958839Y-71202380D01*
X122863601Y-71202380D01*
X122720744Y-71250000D01*
X122673125Y-71297619D01*
X122339792Y-71202380D02*
X121673125Y-71202380D01*
X122101697Y-72202380D01*
G04 #@! TO.C,C4*
X124666666Y-78107142D02*
X124714285Y-78154761D01*
X124857142Y-78202380D01*
X124952380Y-78202380D01*
X125095238Y-78154761D01*
X125190476Y-78059523D01*
X125238095Y-77964285D01*
X125285714Y-77773809D01*
X125285714Y-77630952D01*
X125238095Y-77440476D01*
X125190476Y-77345238D01*
X125095238Y-77250000D01*
X124952380Y-77202380D01*
X124857142Y-77202380D01*
X124714285Y-77250000D01*
X124666666Y-77297619D01*
X123809523Y-77535714D02*
X123809523Y-78202380D01*
X124047619Y-77154761D02*
X124285714Y-77869047D01*
X123666666Y-77869047D01*
G04 #@! TO.C,C3*
X123666666Y-82607142D02*
X123714285Y-82654761D01*
X123857142Y-82702380D01*
X123952380Y-82702380D01*
X124095238Y-82654761D01*
X124190476Y-82559523D01*
X124238095Y-82464285D01*
X124285714Y-82273809D01*
X124285714Y-82130952D01*
X124238095Y-81940476D01*
X124190476Y-81845238D01*
X124095238Y-81750000D01*
X123952380Y-81702380D01*
X123857142Y-81702380D01*
X123714285Y-81750000D01*
X123666666Y-81797619D01*
X123333333Y-81702380D02*
X122714285Y-81702380D01*
X123047619Y-82083333D01*
X122904761Y-82083333D01*
X122809523Y-82130952D01*
X122761904Y-82178571D01*
X122714285Y-82273809D01*
X122714285Y-82511904D01*
X122761904Y-82607142D01*
X122809523Y-82654761D01*
X122904761Y-82702380D01*
X123190476Y-82702380D01*
X123285714Y-82654761D01*
X123333333Y-82607142D01*
G04 #@! TO.C,C2*
X124673125Y-72107142D02*
X124720744Y-72154761D01*
X124863601Y-72202380D01*
X124958839Y-72202380D01*
X125101697Y-72154761D01*
X125196935Y-72059523D01*
X125244554Y-71964285D01*
X125292173Y-71773809D01*
X125292173Y-71630952D01*
X125244554Y-71440476D01*
X125196935Y-71345238D01*
X125101697Y-71250000D01*
X124958839Y-71202380D01*
X124863601Y-71202380D01*
X124720744Y-71250000D01*
X124673125Y-71297619D01*
X124292173Y-71297619D02*
X124244554Y-71250000D01*
X124149316Y-71202380D01*
X123911220Y-71202380D01*
X123815982Y-71250000D01*
X123768363Y-71297619D01*
X123720744Y-71392857D01*
X123720744Y-71488095D01*
X123768363Y-71630952D01*
X124339792Y-72202380D01*
X123720744Y-72202380D01*
G04 #@! TO.C,C17*
X47392857Y-76857142D02*
X47440476Y-76904761D01*
X47583333Y-76952380D01*
X47678571Y-76952380D01*
X47821428Y-76904761D01*
X47916666Y-76809523D01*
X47964285Y-76714285D01*
X48011904Y-76523809D01*
X48011904Y-76380952D01*
X47964285Y-76190476D01*
X47916666Y-76095238D01*
X47821428Y-76000000D01*
X47678571Y-75952380D01*
X47583333Y-75952380D01*
X47440476Y-76000000D01*
X47392857Y-76047619D01*
X46440476Y-76952380D02*
X47011904Y-76952380D01*
X46726190Y-76952380D02*
X46726190Y-75952380D01*
X46821428Y-76095238D01*
X46916666Y-76190476D01*
X47011904Y-76238095D01*
X46107142Y-75952380D02*
X45440476Y-75952380D01*
X45869047Y-76952380D01*
G04 #@! TO.C,C5*
X82666666Y-103607142D02*
X82714285Y-103654761D01*
X82857142Y-103702380D01*
X82952380Y-103702380D01*
X83095238Y-103654761D01*
X83190476Y-103559523D01*
X83238095Y-103464285D01*
X83285714Y-103273809D01*
X83285714Y-103130952D01*
X83238095Y-102940476D01*
X83190476Y-102845238D01*
X83095238Y-102750000D01*
X82952380Y-102702380D01*
X82857142Y-102702380D01*
X82714285Y-102750000D01*
X82666666Y-102797619D01*
X81761904Y-102702380D02*
X82238095Y-102702380D01*
X82285714Y-103178571D01*
X82238095Y-103130952D01*
X82142857Y-103083333D01*
X81904761Y-103083333D01*
X81809523Y-103130952D01*
X81761904Y-103178571D01*
X81714285Y-103273809D01*
X81714285Y-103511904D01*
X81761904Y-103607142D01*
X81809523Y-103654761D01*
X81904761Y-103702380D01*
X82142857Y-103702380D01*
X82238095Y-103654761D01*
X82285714Y-103607142D01*
G04 #@! TO.C,C16*
X38392857Y-76857142D02*
X38440476Y-76904761D01*
X38583333Y-76952380D01*
X38678571Y-76952380D01*
X38821428Y-76904761D01*
X38916666Y-76809523D01*
X38964285Y-76714285D01*
X39011904Y-76523809D01*
X39011904Y-76380952D01*
X38964285Y-76190476D01*
X38916666Y-76095238D01*
X38821428Y-76000000D01*
X38678571Y-75952380D01*
X38583333Y-75952380D01*
X38440476Y-76000000D01*
X38392857Y-76047619D01*
X37440476Y-76952380D02*
X38011904Y-76952380D01*
X37726190Y-76952380D02*
X37726190Y-75952380D01*
X37821428Y-76095238D01*
X37916666Y-76190476D01*
X38011904Y-76238095D01*
X36583333Y-75952380D02*
X36773809Y-75952380D01*
X36869047Y-76000000D01*
X36916666Y-76047619D01*
X37011904Y-76190476D01*
X37059523Y-76380952D01*
X37059523Y-76761904D01*
X37011904Y-76857142D01*
X36964285Y-76904761D01*
X36869047Y-76952380D01*
X36678571Y-76952380D01*
X36583333Y-76904761D01*
X36535714Y-76857142D01*
X36488095Y-76761904D01*
X36488095Y-76523809D01*
X36535714Y-76428571D01*
X36583333Y-76380952D01*
X36678571Y-76333333D01*
X36869047Y-76333333D01*
X36964285Y-76380952D01*
X37011904Y-76428571D01*
X37059523Y-76523809D01*
G04 #@! TO.C,C20*
X64142857Y-76857142D02*
X64190476Y-76904761D01*
X64333333Y-76952380D01*
X64428571Y-76952380D01*
X64571428Y-76904761D01*
X64666666Y-76809523D01*
X64714285Y-76714285D01*
X64761904Y-76523809D01*
X64761904Y-76380952D01*
X64714285Y-76190476D01*
X64666666Y-76095238D01*
X64571428Y-76000000D01*
X64428571Y-75952380D01*
X64333333Y-75952380D01*
X64190476Y-76000000D01*
X64142857Y-76047619D01*
X63761904Y-76047619D02*
X63714285Y-76000000D01*
X63619047Y-75952380D01*
X63380952Y-75952380D01*
X63285714Y-76000000D01*
X63238095Y-76047619D01*
X63190476Y-76142857D01*
X63190476Y-76238095D01*
X63238095Y-76380952D01*
X63809523Y-76952380D01*
X63190476Y-76952380D01*
X62571428Y-75952380D02*
X62476190Y-75952380D01*
X62380952Y-76000000D01*
X62333333Y-76047619D01*
X62285714Y-76142857D01*
X62238095Y-76333333D01*
X62238095Y-76571428D01*
X62285714Y-76761904D01*
X62333333Y-76857142D01*
X62380952Y-76904761D01*
X62476190Y-76952380D01*
X62571428Y-76952380D01*
X62666666Y-76904761D01*
X62714285Y-76857142D01*
X62761904Y-76761904D01*
X62809523Y-76571428D01*
X62809523Y-76333333D01*
X62761904Y-76142857D01*
X62714285Y-76047619D01*
X62666666Y-76000000D01*
X62571428Y-75952380D01*
G04 #@! TO.C,C21*
X74142857Y-76857142D02*
X74190476Y-76904761D01*
X74333333Y-76952380D01*
X74428571Y-76952380D01*
X74571428Y-76904761D01*
X74666666Y-76809523D01*
X74714285Y-76714285D01*
X74761904Y-76523809D01*
X74761904Y-76380952D01*
X74714285Y-76190476D01*
X74666666Y-76095238D01*
X74571428Y-76000000D01*
X74428571Y-75952380D01*
X74333333Y-75952380D01*
X74190476Y-76000000D01*
X74142857Y-76047619D01*
X73761904Y-76047619D02*
X73714285Y-76000000D01*
X73619047Y-75952380D01*
X73380952Y-75952380D01*
X73285714Y-76000000D01*
X73238095Y-76047619D01*
X73190476Y-76142857D01*
X73190476Y-76238095D01*
X73238095Y-76380952D01*
X73809523Y-76952380D01*
X73190476Y-76952380D01*
X72238095Y-76952380D02*
X72809523Y-76952380D01*
X72523809Y-76952380D02*
X72523809Y-75952380D01*
X72619047Y-76095238D01*
X72714285Y-76190476D01*
X72809523Y-76238095D01*
G04 #@! TO.C,C1*
X88166666Y-91857142D02*
X88214285Y-91904761D01*
X88357142Y-91952380D01*
X88452380Y-91952380D01*
X88595238Y-91904761D01*
X88690476Y-91809523D01*
X88738095Y-91714285D01*
X88785714Y-91523809D01*
X88785714Y-91380952D01*
X88738095Y-91190476D01*
X88690476Y-91095238D01*
X88595238Y-91000000D01*
X88452380Y-90952380D01*
X88357142Y-90952380D01*
X88214285Y-91000000D01*
X88166666Y-91047619D01*
X87214285Y-91952380D02*
X87785714Y-91952380D01*
X87500000Y-91952380D02*
X87500000Y-90952380D01*
X87595238Y-91095238D01*
X87690476Y-91190476D01*
X87785714Y-91238095D01*
G04 #@! TO.C,J1*
X94833333Y-104202380D02*
X94833333Y-104916666D01*
X94880952Y-105059523D01*
X94976190Y-105154761D01*
X95119047Y-105202380D01*
X95214285Y-105202380D01*
X93833333Y-105202380D02*
X94404761Y-105202380D01*
X94119047Y-105202380D02*
X94119047Y-104202380D01*
X94214285Y-104345238D01*
X94309523Y-104440476D01*
X94404761Y-104488095D01*
G04 #@! TO.C,J2*
X107333333Y-107202380D02*
X107333333Y-107916666D01*
X107380952Y-108059523D01*
X107476190Y-108154761D01*
X107619047Y-108202380D01*
X107714285Y-108202380D01*
X106904761Y-107297619D02*
X106857142Y-107250000D01*
X106761904Y-107202380D01*
X106523809Y-107202380D01*
X106428571Y-107250000D01*
X106380952Y-107297619D01*
X106333333Y-107392857D01*
X106333333Y-107488095D01*
X106380952Y-107630952D01*
X106952380Y-108202380D01*
X106333333Y-108202380D01*
G04 #@! TO.C,D6*
X37738095Y-67452380D02*
X37738095Y-66452380D01*
X37500000Y-66452380D01*
X37357142Y-66500000D01*
X37261904Y-66595238D01*
X37214285Y-66690476D01*
X37166666Y-66880952D01*
X37166666Y-67023809D01*
X37214285Y-67214285D01*
X37261904Y-67309523D01*
X37357142Y-67404761D01*
X37500000Y-67452380D01*
X37738095Y-67452380D01*
X36309523Y-66452380D02*
X36500000Y-66452380D01*
X36595238Y-66500000D01*
X36642857Y-66547619D01*
X36738095Y-66690476D01*
X36785714Y-66880952D01*
X36785714Y-67261904D01*
X36738095Y-67357142D01*
X36690476Y-67404761D01*
X36595238Y-67452380D01*
X36404761Y-67452380D01*
X36309523Y-67404761D01*
X36261904Y-67357142D01*
X36214285Y-67261904D01*
X36214285Y-67023809D01*
X36261904Y-66928571D01*
X36309523Y-66880952D01*
X36404761Y-66833333D01*
X36595238Y-66833333D01*
X36690476Y-66880952D01*
X36738095Y-66928571D01*
X36785714Y-67023809D01*
G04 #@! TO.C,D7*
X51738095Y-67452380D02*
X51738095Y-66452380D01*
X51500000Y-66452380D01*
X51357142Y-66500000D01*
X51261904Y-66595238D01*
X51214285Y-66690476D01*
X51166666Y-66880952D01*
X51166666Y-67023809D01*
X51214285Y-67214285D01*
X51261904Y-67309523D01*
X51357142Y-67404761D01*
X51500000Y-67452380D01*
X51738095Y-67452380D01*
X50833333Y-66452380D02*
X50166666Y-66452380D01*
X50595238Y-67452380D01*
G04 #@! TO.C,D8*
X65738095Y-67202380D02*
X65738095Y-66202380D01*
X65500000Y-66202380D01*
X65357142Y-66250000D01*
X65261904Y-66345238D01*
X65214285Y-66440476D01*
X65166666Y-66630952D01*
X65166666Y-66773809D01*
X65214285Y-66964285D01*
X65261904Y-67059523D01*
X65357142Y-67154761D01*
X65500000Y-67202380D01*
X65738095Y-67202380D01*
X64595238Y-66630952D02*
X64690476Y-66583333D01*
X64738095Y-66535714D01*
X64785714Y-66440476D01*
X64785714Y-66392857D01*
X64738095Y-66297619D01*
X64690476Y-66250000D01*
X64595238Y-66202380D01*
X64404761Y-66202380D01*
X64309523Y-66250000D01*
X64261904Y-66297619D01*
X64214285Y-66392857D01*
X64214285Y-66440476D01*
X64261904Y-66535714D01*
X64309523Y-66583333D01*
X64404761Y-66630952D01*
X64595238Y-66630952D01*
X64690476Y-66678571D01*
X64738095Y-66726190D01*
X64785714Y-66821428D01*
X64785714Y-67011904D01*
X64738095Y-67107142D01*
X64690476Y-67154761D01*
X64595238Y-67202380D01*
X64404761Y-67202380D01*
X64309523Y-67154761D01*
X64261904Y-67107142D01*
X64214285Y-67011904D01*
X64214285Y-66821428D01*
X64261904Y-66726190D01*
X64309523Y-66678571D01*
X64404761Y-66630952D01*
G04 #@! TO.C,D9*
X79738095Y-67202380D02*
X79738095Y-66202380D01*
X79500000Y-66202380D01*
X79357142Y-66250000D01*
X79261904Y-66345238D01*
X79214285Y-66440476D01*
X79166666Y-66630952D01*
X79166666Y-66773809D01*
X79214285Y-66964285D01*
X79261904Y-67059523D01*
X79357142Y-67154761D01*
X79500000Y-67202380D01*
X79738095Y-67202380D01*
X78690476Y-67202380D02*
X78500000Y-67202380D01*
X78404761Y-67154761D01*
X78357142Y-67107142D01*
X78261904Y-66964285D01*
X78214285Y-66773809D01*
X78214285Y-66392857D01*
X78261904Y-66297619D01*
X78309523Y-66250000D01*
X78404761Y-66202380D01*
X78595238Y-66202380D01*
X78690476Y-66250000D01*
X78738095Y-66297619D01*
X78785714Y-66392857D01*
X78785714Y-66630952D01*
X78738095Y-66726190D01*
X78690476Y-66773809D01*
X78595238Y-66821428D01*
X78404761Y-66821428D01*
X78309523Y-66773809D01*
X78261904Y-66726190D01*
X78214285Y-66630952D01*
G04 #@! TO.C,D1*
X91988095Y-103452380D02*
X91988095Y-102452380D01*
X91750000Y-102452380D01*
X91607142Y-102500000D01*
X91511904Y-102595238D01*
X91464285Y-102690476D01*
X91416666Y-102880952D01*
X91416666Y-103023809D01*
X91464285Y-103214285D01*
X91511904Y-103309523D01*
X91607142Y-103404761D01*
X91750000Y-103452380D01*
X91988095Y-103452380D01*
X90464285Y-103452380D02*
X91035714Y-103452380D01*
X90750000Y-103452380D02*
X90750000Y-102452380D01*
X90845238Y-102595238D01*
X90940476Y-102690476D01*
X91035714Y-102738095D01*
G04 #@! TO.C,D2*
X100488095Y-90952380D02*
X100488095Y-89952380D01*
X100250000Y-89952380D01*
X100107142Y-90000000D01*
X100011904Y-90095238D01*
X99964285Y-90190476D01*
X99916666Y-90380952D01*
X99916666Y-90523809D01*
X99964285Y-90714285D01*
X100011904Y-90809523D01*
X100107142Y-90904761D01*
X100250000Y-90952380D01*
X100488095Y-90952380D01*
X99535714Y-90047619D02*
X99488095Y-90000000D01*
X99392857Y-89952380D01*
X99154761Y-89952380D01*
X99059523Y-90000000D01*
X99011904Y-90047619D01*
X98964285Y-90142857D01*
X98964285Y-90238095D01*
X99011904Y-90380952D01*
X99583333Y-90952380D01*
X98964285Y-90952380D01*
G04 #@! TO.C,D4*
X93988095Y-77952380D02*
X93988095Y-76952380D01*
X93750000Y-76952380D01*
X93607142Y-77000000D01*
X93511904Y-77095238D01*
X93464285Y-77190476D01*
X93416666Y-77380952D01*
X93416666Y-77523809D01*
X93464285Y-77714285D01*
X93511904Y-77809523D01*
X93607142Y-77904761D01*
X93750000Y-77952380D01*
X93988095Y-77952380D01*
X92559523Y-77285714D02*
X92559523Y-77952380D01*
X92797619Y-76904761D02*
X93035714Y-77619047D01*
X92416666Y-77619047D01*
G04 #@! TO.C,D5*
X106238095Y-80952380D02*
X106238095Y-79952380D01*
X106000000Y-79952380D01*
X105857142Y-80000000D01*
X105761904Y-80095238D01*
X105714285Y-80190476D01*
X105666666Y-80380952D01*
X105666666Y-80523809D01*
X105714285Y-80714285D01*
X105761904Y-80809523D01*
X105857142Y-80904761D01*
X106000000Y-80952380D01*
X106238095Y-80952380D01*
X104761904Y-79952380D02*
X105238095Y-79952380D01*
X105285714Y-80428571D01*
X105238095Y-80380952D01*
X105142857Y-80333333D01*
X104904761Y-80333333D01*
X104809523Y-80380952D01*
X104761904Y-80428571D01*
X104714285Y-80523809D01*
X104714285Y-80761904D01*
X104761904Y-80857142D01*
X104809523Y-80904761D01*
X104904761Y-80952380D01*
X105142857Y-80952380D01*
X105238095Y-80904761D01*
X105285714Y-80857142D01*
G04 #@! TO.C,Q5*
X52595238Y-78797619D02*
X52690476Y-78750000D01*
X52785714Y-78654761D01*
X52928571Y-78511904D01*
X53023809Y-78464285D01*
X53119047Y-78464285D01*
X53071428Y-78702380D02*
X53166666Y-78654761D01*
X53261904Y-78559523D01*
X53309523Y-78369047D01*
X53309523Y-78035714D01*
X53261904Y-77845238D01*
X53166666Y-77750000D01*
X53071428Y-77702380D01*
X52880952Y-77702380D01*
X52785714Y-77750000D01*
X52690476Y-77845238D01*
X52642857Y-78035714D01*
X52642857Y-78369047D01*
X52690476Y-78559523D01*
X52785714Y-78654761D01*
X52880952Y-78702380D01*
X53071428Y-78702380D01*
X51738095Y-77702380D02*
X52214285Y-77702380D01*
X52261904Y-78178571D01*
X52214285Y-78130952D01*
X52119047Y-78083333D01*
X51880952Y-78083333D01*
X51785714Y-78130952D01*
X51738095Y-78178571D01*
X51690476Y-78273809D01*
X51690476Y-78511904D01*
X51738095Y-78607142D01*
X51785714Y-78654761D01*
X51880952Y-78702380D01*
X52119047Y-78702380D01*
X52214285Y-78654761D01*
X52261904Y-78607142D01*
G04 #@! TO.C,Q9*
X79345238Y-78797619D02*
X79440476Y-78750000D01*
X79535714Y-78654761D01*
X79678571Y-78511904D01*
X79773809Y-78464285D01*
X79869047Y-78464285D01*
X79821428Y-78702380D02*
X79916666Y-78654761D01*
X80011904Y-78559523D01*
X80059523Y-78369047D01*
X80059523Y-78035714D01*
X80011904Y-77845238D01*
X79916666Y-77750000D01*
X79821428Y-77702380D01*
X79630952Y-77702380D01*
X79535714Y-77750000D01*
X79440476Y-77845238D01*
X79392857Y-78035714D01*
X79392857Y-78369047D01*
X79440476Y-78559523D01*
X79535714Y-78654761D01*
X79630952Y-78702380D01*
X79821428Y-78702380D01*
X78916666Y-78702380D02*
X78726190Y-78702380D01*
X78630952Y-78654761D01*
X78583333Y-78607142D01*
X78488095Y-78464285D01*
X78440476Y-78273809D01*
X78440476Y-77892857D01*
X78488095Y-77797619D01*
X78535714Y-77750000D01*
X78630952Y-77702380D01*
X78821428Y-77702380D01*
X78916666Y-77750000D01*
X78964285Y-77797619D01*
X79011904Y-77892857D01*
X79011904Y-78130952D01*
X78964285Y-78226190D01*
X78916666Y-78273809D01*
X78821428Y-78321428D01*
X78630952Y-78321428D01*
X78535714Y-78273809D01*
X78488095Y-78226190D01*
X78440476Y-78130952D01*
G04 #@! TO.C,Q8*
X69345238Y-78797619D02*
X69440476Y-78750000D01*
X69535714Y-78654761D01*
X69678571Y-78511904D01*
X69773809Y-78464285D01*
X69869047Y-78464285D01*
X69821428Y-78702380D02*
X69916666Y-78654761D01*
X70011904Y-78559523D01*
X70059523Y-78369047D01*
X70059523Y-78035714D01*
X70011904Y-77845238D01*
X69916666Y-77750000D01*
X69821428Y-77702380D01*
X69630952Y-77702380D01*
X69535714Y-77750000D01*
X69440476Y-77845238D01*
X69392857Y-78035714D01*
X69392857Y-78369047D01*
X69440476Y-78559523D01*
X69535714Y-78654761D01*
X69630952Y-78702380D01*
X69821428Y-78702380D01*
X68821428Y-78130952D02*
X68916666Y-78083333D01*
X68964285Y-78035714D01*
X69011904Y-77940476D01*
X69011904Y-77892857D01*
X68964285Y-77797619D01*
X68916666Y-77750000D01*
X68821428Y-77702380D01*
X68630952Y-77702380D01*
X68535714Y-77750000D01*
X68488095Y-77797619D01*
X68440476Y-77892857D01*
X68440476Y-77940476D01*
X68488095Y-78035714D01*
X68535714Y-78083333D01*
X68630952Y-78130952D01*
X68821428Y-78130952D01*
X68916666Y-78178571D01*
X68964285Y-78226190D01*
X69011904Y-78321428D01*
X69011904Y-78511904D01*
X68964285Y-78607142D01*
X68916666Y-78654761D01*
X68821428Y-78702380D01*
X68630952Y-78702380D01*
X68535714Y-78654761D01*
X68488095Y-78607142D01*
X68440476Y-78511904D01*
X68440476Y-78321428D01*
X68488095Y-78226190D01*
X68535714Y-78178571D01*
X68630952Y-78130952D01*
G04 #@! TO.C,Q2*
X41595238Y-87047619D02*
X41690476Y-87000000D01*
X41785714Y-86904761D01*
X41928571Y-86761904D01*
X42023809Y-86714285D01*
X42119047Y-86714285D01*
X42071428Y-86952380D02*
X42166666Y-86904761D01*
X42261904Y-86809523D01*
X42309523Y-86619047D01*
X42309523Y-86285714D01*
X42261904Y-86095238D01*
X42166666Y-86000000D01*
X42071428Y-85952380D01*
X41880952Y-85952380D01*
X41785714Y-86000000D01*
X41690476Y-86095238D01*
X41642857Y-86285714D01*
X41642857Y-86619047D01*
X41690476Y-86809523D01*
X41785714Y-86904761D01*
X41880952Y-86952380D01*
X42071428Y-86952380D01*
X41261904Y-86047619D02*
X41214285Y-86000000D01*
X41119047Y-85952380D01*
X40880952Y-85952380D01*
X40785714Y-86000000D01*
X40738095Y-86047619D01*
X40690476Y-86142857D01*
X40690476Y-86238095D01*
X40738095Y-86380952D01*
X41309523Y-86952380D01*
X40690476Y-86952380D01*
G04 #@! TO.C,Q3*
X52595238Y-84547619D02*
X52690476Y-84500000D01*
X52785714Y-84404761D01*
X52928571Y-84261904D01*
X53023809Y-84214285D01*
X53119047Y-84214285D01*
X53071428Y-84452380D02*
X53166666Y-84404761D01*
X53261904Y-84309523D01*
X53309523Y-84119047D01*
X53309523Y-83785714D01*
X53261904Y-83595238D01*
X53166666Y-83500000D01*
X53071428Y-83452380D01*
X52880952Y-83452380D01*
X52785714Y-83500000D01*
X52690476Y-83595238D01*
X52642857Y-83785714D01*
X52642857Y-84119047D01*
X52690476Y-84309523D01*
X52785714Y-84404761D01*
X52880952Y-84452380D01*
X53071428Y-84452380D01*
X52309523Y-83452380D02*
X51690476Y-83452380D01*
X52023809Y-83833333D01*
X51880952Y-83833333D01*
X51785714Y-83880952D01*
X51738095Y-83928571D01*
X51690476Y-84023809D01*
X51690476Y-84261904D01*
X51738095Y-84357142D01*
X51785714Y-84404761D01*
X51880952Y-84452380D01*
X52166666Y-84452380D01*
X52261904Y-84404761D01*
X52309523Y-84357142D01*
G04 #@! TO.C,Q4*
X43595238Y-77047619D02*
X43690476Y-77000000D01*
X43785714Y-76904761D01*
X43928571Y-76761904D01*
X44023809Y-76714285D01*
X44119047Y-76714285D01*
X44071428Y-76952380D02*
X44166666Y-76904761D01*
X44261904Y-76809523D01*
X44309523Y-76619047D01*
X44309523Y-76285714D01*
X44261904Y-76095238D01*
X44166666Y-76000000D01*
X44071428Y-75952380D01*
X43880952Y-75952380D01*
X43785714Y-76000000D01*
X43690476Y-76095238D01*
X43642857Y-76285714D01*
X43642857Y-76619047D01*
X43690476Y-76809523D01*
X43785714Y-76904761D01*
X43880952Y-76952380D01*
X44071428Y-76952380D01*
X42785714Y-76285714D02*
X42785714Y-76952380D01*
X43023809Y-75904761D02*
X43261904Y-76619047D01*
X42642857Y-76619047D01*
G04 #@! TO.C,D3*
X90738095Y-91452380D02*
X90738095Y-90452380D01*
X90500000Y-90452380D01*
X90357142Y-90500000D01*
X90261904Y-90595238D01*
X90214285Y-90690476D01*
X90166666Y-90880952D01*
X90166666Y-91023809D01*
X90214285Y-91214285D01*
X90261904Y-91309523D01*
X90357142Y-91404761D01*
X90500000Y-91452380D01*
X90738095Y-91452380D01*
X89833333Y-90452380D02*
X89214285Y-90452380D01*
X89547619Y-90833333D01*
X89404761Y-90833333D01*
X89309523Y-90880952D01*
X89261904Y-90928571D01*
X89214285Y-91023809D01*
X89214285Y-91261904D01*
X89261904Y-91357142D01*
X89309523Y-91404761D01*
X89404761Y-91452380D01*
X89690476Y-91452380D01*
X89785714Y-91404761D01*
X89833333Y-91357142D01*
G04 #@! TO.C,Q6*
X69345238Y-84547619D02*
X69440476Y-84500000D01*
X69535714Y-84404761D01*
X69678571Y-84261904D01*
X69773809Y-84214285D01*
X69869047Y-84214285D01*
X69821428Y-84452380D02*
X69916666Y-84404761D01*
X70011904Y-84309523D01*
X70059523Y-84119047D01*
X70059523Y-83785714D01*
X70011904Y-83595238D01*
X69916666Y-83500000D01*
X69821428Y-83452380D01*
X69630952Y-83452380D01*
X69535714Y-83500000D01*
X69440476Y-83595238D01*
X69392857Y-83785714D01*
X69392857Y-84119047D01*
X69440476Y-84309523D01*
X69535714Y-84404761D01*
X69630952Y-84452380D01*
X69821428Y-84452380D01*
X68535714Y-83452380D02*
X68726190Y-83452380D01*
X68821428Y-83500000D01*
X68869047Y-83547619D01*
X68964285Y-83690476D01*
X69011904Y-83880952D01*
X69011904Y-84261904D01*
X68964285Y-84357142D01*
X68916666Y-84404761D01*
X68821428Y-84452380D01*
X68630952Y-84452380D01*
X68535714Y-84404761D01*
X68488095Y-84357142D01*
X68440476Y-84261904D01*
X68440476Y-84023809D01*
X68488095Y-83928571D01*
X68535714Y-83880952D01*
X68630952Y-83833333D01*
X68821428Y-83833333D01*
X68916666Y-83880952D01*
X68964285Y-83928571D01*
X69011904Y-84023809D01*
G04 #@! TO.C,Q7*
X79345238Y-84297619D02*
X79440476Y-84250000D01*
X79535714Y-84154761D01*
X79678571Y-84011904D01*
X79773809Y-83964285D01*
X79869047Y-83964285D01*
X79821428Y-84202380D02*
X79916666Y-84154761D01*
X80011904Y-84059523D01*
X80059523Y-83869047D01*
X80059523Y-83535714D01*
X80011904Y-83345238D01*
X79916666Y-83250000D01*
X79821428Y-83202380D01*
X79630952Y-83202380D01*
X79535714Y-83250000D01*
X79440476Y-83345238D01*
X79392857Y-83535714D01*
X79392857Y-83869047D01*
X79440476Y-84059523D01*
X79535714Y-84154761D01*
X79630952Y-84202380D01*
X79821428Y-84202380D01*
X79059523Y-83202380D02*
X78392857Y-83202380D01*
X78821428Y-84202380D01*
G04 #@! TO.C,Q1*
X91845238Y-97297619D02*
X91940476Y-97250000D01*
X92035714Y-97154761D01*
X92178571Y-97011904D01*
X92273809Y-96964285D01*
X92369047Y-96964285D01*
X92321428Y-97202380D02*
X92416666Y-97154761D01*
X92511904Y-97059523D01*
X92559523Y-96869047D01*
X92559523Y-96535714D01*
X92511904Y-96345238D01*
X92416666Y-96250000D01*
X92321428Y-96202380D01*
X92130952Y-96202380D01*
X92035714Y-96250000D01*
X91940476Y-96345238D01*
X91892857Y-96535714D01*
X91892857Y-96869047D01*
X91940476Y-97059523D01*
X92035714Y-97154761D01*
X92130952Y-97202380D01*
X92321428Y-97202380D01*
X90940476Y-97202380D02*
X91511904Y-97202380D01*
X91226190Y-97202380D02*
X91226190Y-96202380D01*
X91321428Y-96345238D01*
X91416666Y-96440476D01*
X91511904Y-96488095D01*
G04 #@! TO.C,U4*
X98761904Y-87952380D02*
X98761904Y-88761904D01*
X98714285Y-88857142D01*
X98666666Y-88904761D01*
X98571428Y-88952380D01*
X98380952Y-88952380D01*
X98285714Y-88904761D01*
X98238095Y-88857142D01*
X98190476Y-88761904D01*
X98190476Y-87952380D01*
X97285714Y-88285714D02*
X97285714Y-88952380D01*
X97523809Y-87904761D02*
X97761904Y-88619047D01*
X97142857Y-88619047D01*
G04 #@! TO.C,R9*
X38916666Y-86952380D02*
X39250000Y-86476190D01*
X39488095Y-86952380D02*
X39488095Y-85952380D01*
X39107142Y-85952380D01*
X39011904Y-86000000D01*
X38964285Y-86047619D01*
X38916666Y-86142857D01*
X38916666Y-86285714D01*
X38964285Y-86380952D01*
X39011904Y-86428571D01*
X39107142Y-86476190D01*
X39488095Y-86476190D01*
X38440476Y-86952380D02*
X38250000Y-86952380D01*
X38154761Y-86904761D01*
X38107142Y-86857142D01*
X38011904Y-86714285D01*
X37964285Y-86523809D01*
X37964285Y-86142857D01*
X38011904Y-86047619D01*
X38059523Y-86000000D01*
X38154761Y-85952380D01*
X38345238Y-85952380D01*
X38440476Y-86000000D01*
X38488095Y-86047619D01*
X38535714Y-86142857D01*
X38535714Y-86380952D01*
X38488095Y-86476190D01*
X38440476Y-86523809D01*
X38345238Y-86571428D01*
X38154761Y-86571428D01*
X38059523Y-86523809D01*
X38011904Y-86476190D01*
X37964285Y-86380952D01*
G04 #@! TO.C,R10*
X45452380Y-83357142D02*
X44976190Y-83023809D01*
X45452380Y-82785714D02*
X44452380Y-82785714D01*
X44452380Y-83166666D01*
X44500000Y-83261904D01*
X44547619Y-83309523D01*
X44642857Y-83357142D01*
X44785714Y-83357142D01*
X44880952Y-83309523D01*
X44928571Y-83261904D01*
X44976190Y-83166666D01*
X44976190Y-82785714D01*
X45452380Y-84309523D02*
X45452380Y-83738095D01*
X45452380Y-84023809D02*
X44452380Y-84023809D01*
X44595238Y-83928571D01*
X44690476Y-83833333D01*
X44738095Y-83738095D01*
X44452380Y-84928571D02*
X44452380Y-85023809D01*
X44500000Y-85119047D01*
X44547619Y-85166666D01*
X44642857Y-85214285D01*
X44833333Y-85261904D01*
X45071428Y-85261904D01*
X45261904Y-85214285D01*
X45357142Y-85166666D01*
X45404761Y-85119047D01*
X45452380Y-85023809D01*
X45452380Y-84928571D01*
X45404761Y-84833333D01*
X45357142Y-84785714D01*
X45261904Y-84738095D01*
X45071428Y-84690476D01*
X44833333Y-84690476D01*
X44642857Y-84738095D01*
X44547619Y-84785714D01*
X44500000Y-84833333D01*
X44452380Y-84928571D01*
G04 #@! TO.C,R12*
X52702380Y-80357142D02*
X52226190Y-80023809D01*
X52702380Y-79785714D02*
X51702380Y-79785714D01*
X51702380Y-80166666D01*
X51750000Y-80261904D01*
X51797619Y-80309523D01*
X51892857Y-80357142D01*
X52035714Y-80357142D01*
X52130952Y-80309523D01*
X52178571Y-80261904D01*
X52226190Y-80166666D01*
X52226190Y-79785714D01*
X52702380Y-81309523D02*
X52702380Y-80738095D01*
X52702380Y-81023809D02*
X51702380Y-81023809D01*
X51845238Y-80928571D01*
X51940476Y-80833333D01*
X51988095Y-80738095D01*
X51797619Y-81690476D02*
X51750000Y-81738095D01*
X51702380Y-81833333D01*
X51702380Y-82071428D01*
X51750000Y-82166666D01*
X51797619Y-82214285D01*
X51892857Y-82261904D01*
X51988095Y-82261904D01*
X52130952Y-82214285D01*
X52702380Y-81642857D01*
X52702380Y-82261904D01*
G04 #@! TO.C,R13*
X61892857Y-83702380D02*
X62226190Y-83226190D01*
X62464285Y-83702380D02*
X62464285Y-82702380D01*
X62083333Y-82702380D01*
X61988095Y-82750000D01*
X61940476Y-82797619D01*
X61892857Y-82892857D01*
X61892857Y-83035714D01*
X61940476Y-83130952D01*
X61988095Y-83178571D01*
X62083333Y-83226190D01*
X62464285Y-83226190D01*
X60940476Y-83702380D02*
X61511904Y-83702380D01*
X61226190Y-83702380D02*
X61226190Y-82702380D01*
X61321428Y-82845238D01*
X61416666Y-82940476D01*
X61511904Y-82988095D01*
X60607142Y-82702380D02*
X59988095Y-82702380D01*
X60321428Y-83083333D01*
X60178571Y-83083333D01*
X60083333Y-83130952D01*
X60035714Y-83178571D01*
X59988095Y-83273809D01*
X59988095Y-83511904D01*
X60035714Y-83607142D01*
X60083333Y-83654761D01*
X60178571Y-83702380D01*
X60464285Y-83702380D01*
X60559523Y-83654761D01*
X60607142Y-83607142D01*
G04 #@! TO.C,R14*
X72452380Y-83357142D02*
X71976190Y-83023809D01*
X72452380Y-82785714D02*
X71452380Y-82785714D01*
X71452380Y-83166666D01*
X71500000Y-83261904D01*
X71547619Y-83309523D01*
X71642857Y-83357142D01*
X71785714Y-83357142D01*
X71880952Y-83309523D01*
X71928571Y-83261904D01*
X71976190Y-83166666D01*
X71976190Y-82785714D01*
X72452380Y-84309523D02*
X72452380Y-83738095D01*
X72452380Y-84023809D02*
X71452380Y-84023809D01*
X71595238Y-83928571D01*
X71690476Y-83833333D01*
X71738095Y-83738095D01*
X71785714Y-85166666D02*
X72452380Y-85166666D01*
X71404761Y-84928571D02*
X72119047Y-84690476D01*
X72119047Y-85309523D01*
G04 #@! TO.C,R15*
X70392857Y-81452380D02*
X70726190Y-80976190D01*
X70964285Y-81452380D02*
X70964285Y-80452380D01*
X70583333Y-80452380D01*
X70488095Y-80500000D01*
X70440476Y-80547619D01*
X70392857Y-80642857D01*
X70392857Y-80785714D01*
X70440476Y-80880952D01*
X70488095Y-80928571D01*
X70583333Y-80976190D01*
X70964285Y-80976190D01*
X69440476Y-81452380D02*
X70011904Y-81452380D01*
X69726190Y-81452380D02*
X69726190Y-80452380D01*
X69821428Y-80595238D01*
X69916666Y-80690476D01*
X70011904Y-80738095D01*
X68535714Y-80452380D02*
X69011904Y-80452380D01*
X69059523Y-80928571D01*
X69011904Y-80880952D01*
X68916666Y-80833333D01*
X68678571Y-80833333D01*
X68583333Y-80880952D01*
X68535714Y-80928571D01*
X68488095Y-81023809D01*
X68488095Y-81261904D01*
X68535714Y-81357142D01*
X68583333Y-81404761D01*
X68678571Y-81452380D01*
X68916666Y-81452380D01*
X69011904Y-81404761D01*
X69059523Y-81357142D01*
G04 #@! TO.C,R16*
X80392857Y-81452380D02*
X80726190Y-80976190D01*
X80964285Y-81452380D02*
X80964285Y-80452380D01*
X80583333Y-80452380D01*
X80488095Y-80500000D01*
X80440476Y-80547619D01*
X80392857Y-80642857D01*
X80392857Y-80785714D01*
X80440476Y-80880952D01*
X80488095Y-80928571D01*
X80583333Y-80976190D01*
X80964285Y-80976190D01*
X79440476Y-81452380D02*
X80011904Y-81452380D01*
X79726190Y-81452380D02*
X79726190Y-80452380D01*
X79821428Y-80595238D01*
X79916666Y-80690476D01*
X80011904Y-80738095D01*
X78583333Y-80452380D02*
X78773809Y-80452380D01*
X78869047Y-80500000D01*
X78916666Y-80547619D01*
X79011904Y-80690476D01*
X79059523Y-80880952D01*
X79059523Y-81261904D01*
X79011904Y-81357142D01*
X78964285Y-81404761D01*
X78869047Y-81452380D01*
X78678571Y-81452380D01*
X78583333Y-81404761D01*
X78535714Y-81357142D01*
X78488095Y-81261904D01*
X78488095Y-81023809D01*
X78535714Y-80928571D01*
X78583333Y-80880952D01*
X78678571Y-80833333D01*
X78869047Y-80833333D01*
X78964285Y-80880952D01*
X79011904Y-80928571D01*
X79059523Y-81023809D01*
G04 #@! TO.C,R11*
X44452380Y-80357142D02*
X43976190Y-80023809D01*
X44452380Y-79785714D02*
X43452380Y-79785714D01*
X43452380Y-80166666D01*
X43500000Y-80261904D01*
X43547619Y-80309523D01*
X43642857Y-80357142D01*
X43785714Y-80357142D01*
X43880952Y-80309523D01*
X43928571Y-80261904D01*
X43976190Y-80166666D01*
X43976190Y-79785714D01*
X44452380Y-81309523D02*
X44452380Y-80738095D01*
X44452380Y-81023809D02*
X43452380Y-81023809D01*
X43595238Y-80928571D01*
X43690476Y-80833333D01*
X43738095Y-80738095D01*
X44452380Y-82261904D02*
X44452380Y-81690476D01*
X44452380Y-81976190D02*
X43452380Y-81976190D01*
X43595238Y-81880952D01*
X43690476Y-81785714D01*
X43738095Y-81690476D01*
G04 #@! TO.C,U3*
X77261904Y-85977380D02*
X77261904Y-86786904D01*
X77214285Y-86882142D01*
X77166666Y-86929761D01*
X77071428Y-86977380D01*
X76880952Y-86977380D01*
X76785714Y-86929761D01*
X76738095Y-86882142D01*
X76690476Y-86786904D01*
X76690476Y-85977380D01*
X76309523Y-85977380D02*
X75690476Y-85977380D01*
X76023809Y-86358333D01*
X75880952Y-86358333D01*
X75785714Y-86405952D01*
X75738095Y-86453571D01*
X75690476Y-86548809D01*
X75690476Y-86786904D01*
X75738095Y-86882142D01*
X75785714Y-86929761D01*
X75880952Y-86977380D01*
X76166666Y-86977380D01*
X76261904Y-86929761D01*
X76309523Y-86882142D01*
G04 #@! TO.C,J7*
X55333333Y-75702380D02*
X55333333Y-76416666D01*
X55380952Y-76559523D01*
X55476190Y-76654761D01*
X55619047Y-76702380D01*
X55714285Y-76702380D01*
X54952380Y-75702380D02*
X54285714Y-75702380D01*
X54714285Y-76702380D01*
G04 #@! TO.C,J9*
X83333333Y-75702380D02*
X83333333Y-76416666D01*
X83380952Y-76559523D01*
X83476190Y-76654761D01*
X83619047Y-76702380D01*
X83714285Y-76702380D01*
X82809523Y-76702380D02*
X82619047Y-76702380D01*
X82523809Y-76654761D01*
X82476190Y-76607142D01*
X82380952Y-76464285D01*
X82333333Y-76273809D01*
X82333333Y-75892857D01*
X82380952Y-75797619D01*
X82428571Y-75750000D01*
X82523809Y-75702380D01*
X82714285Y-75702380D01*
X82809523Y-75750000D01*
X82857142Y-75797619D01*
X82904761Y-75892857D01*
X82904761Y-76130952D01*
X82857142Y-76226190D01*
X82809523Y-76273809D01*
X82714285Y-76321428D01*
X82523809Y-76321428D01*
X82428571Y-76273809D01*
X82380952Y-76226190D01*
X82333333Y-76130952D01*
G04 #@! TO.C,J8*
X69333333Y-75702380D02*
X69333333Y-76416666D01*
X69380952Y-76559523D01*
X69476190Y-76654761D01*
X69619047Y-76702380D01*
X69714285Y-76702380D01*
X68714285Y-76130952D02*
X68809523Y-76083333D01*
X68857142Y-76035714D01*
X68904761Y-75940476D01*
X68904761Y-75892857D01*
X68857142Y-75797619D01*
X68809523Y-75750000D01*
X68714285Y-75702380D01*
X68523809Y-75702380D01*
X68428571Y-75750000D01*
X68380952Y-75797619D01*
X68333333Y-75892857D01*
X68333333Y-75940476D01*
X68380952Y-76035714D01*
X68428571Y-76083333D01*
X68523809Y-76130952D01*
X68714285Y-76130952D01*
X68809523Y-76178571D01*
X68857142Y-76226190D01*
X68904761Y-76321428D01*
X68904761Y-76511904D01*
X68857142Y-76607142D01*
X68809523Y-76654761D01*
X68714285Y-76702380D01*
X68523809Y-76702380D01*
X68428571Y-76654761D01*
X68380952Y-76607142D01*
X68333333Y-76511904D01*
X68333333Y-76321428D01*
X68380952Y-76226190D01*
X68428571Y-76178571D01*
X68523809Y-76130952D01*
G04 #@! TO.C,J6*
X40583333Y-75702380D02*
X40583333Y-76416666D01*
X40630952Y-76559523D01*
X40726190Y-76654761D01*
X40869047Y-76702380D01*
X40964285Y-76702380D01*
X39678571Y-75702380D02*
X39869047Y-75702380D01*
X39964285Y-75750000D01*
X40011904Y-75797619D01*
X40107142Y-75940476D01*
X40154761Y-76130952D01*
X40154761Y-76511904D01*
X40107142Y-76607142D01*
X40059523Y-76654761D01*
X39964285Y-76702380D01*
X39773809Y-76702380D01*
X39678571Y-76654761D01*
X39630952Y-76607142D01*
X39583333Y-76511904D01*
X39583333Y-76273809D01*
X39630952Y-76178571D01*
X39678571Y-76130952D01*
X39773809Y-76083333D01*
X39964285Y-76083333D01*
X40059523Y-76130952D01*
X40107142Y-76178571D01*
X40154761Y-76273809D01*
G04 #@! TO.C,R2*
X82166666Y-85202380D02*
X82500000Y-84726190D01*
X82738095Y-85202380D02*
X82738095Y-84202380D01*
X82357142Y-84202380D01*
X82261904Y-84250000D01*
X82214285Y-84297619D01*
X82166666Y-84392857D01*
X82166666Y-84535714D01*
X82214285Y-84630952D01*
X82261904Y-84678571D01*
X82357142Y-84726190D01*
X82738095Y-84726190D01*
X81785714Y-84297619D02*
X81738095Y-84250000D01*
X81642857Y-84202380D01*
X81404761Y-84202380D01*
X81309523Y-84250000D01*
X81261904Y-84297619D01*
X81214285Y-84392857D01*
X81214285Y-84488095D01*
X81261904Y-84630952D01*
X81833333Y-85202380D01*
X81214285Y-85202380D01*
G04 #@! TD*
M02*
