G04 #@! TF.GenerationSoftware,KiCad,Pcbnew,5.0.1*
G04 #@! TF.CreationDate,2019-02-25T23:40:44+01:00*
G04 #@! TF.ProjectId,Dew Heater - V2,44657720486561746572202D2056322E,rev?*
G04 #@! TF.SameCoordinates,Original*
G04 #@! TF.FileFunction,Copper,L1,Top,Signal*
G04 #@! TF.FilePolarity,Positive*
%FSLAX46Y46*%
G04 Gerber Fmt 4.6, Leading zero omitted, Abs format (unit mm)*
G04 Created by KiCad (PCBNEW 5.0.1) date Mon 25 Feb 2019 11:40:44 PM CET*
%MOMM*%
%LPD*%
G01*
G04 APERTURE LIST*
G04 #@! TA.AperFunction,ComponentPad*
%ADD10C,1.400000*%
G04 #@! TD*
G04 #@! TA.AperFunction,ComponentPad*
%ADD11C,2.000000*%
G04 #@! TD*
G04 #@! TA.AperFunction,ComponentPad*
%ADD12R,2.000000X3.200000*%
G04 #@! TD*
G04 #@! TA.AperFunction,ComponentPad*
%ADD13R,2.000000X2.000000*%
G04 #@! TD*
G04 #@! TA.AperFunction,ComponentPad*
%ADD14C,1.900000*%
G04 #@! TD*
G04 #@! TA.AperFunction,ComponentPad*
%ADD15C,6.000000*%
G04 #@! TD*
G04 #@! TA.AperFunction,ComponentPad*
%ADD16O,1.000000X1.800000*%
G04 #@! TD*
G04 #@! TA.AperFunction,ComponentPad*
%ADD17O,1.700000X2.000000*%
G04 #@! TD*
G04 #@! TA.AperFunction,Conductor*
%ADD18C,0.200000*%
G04 #@! TD*
G04 #@! TA.AperFunction,ComponentPad*
%ADD19C,1.700000*%
G04 #@! TD*
G04 #@! TA.AperFunction,ComponentPad*
%ADD20O,1.700000X1.950000*%
G04 #@! TD*
G04 #@! TA.AperFunction,ComponentPad*
%ADD21C,1.800000*%
G04 #@! TD*
G04 #@! TA.AperFunction,ViaPad*
%ADD22C,1.200000*%
G04 #@! TD*
G04 #@! TA.AperFunction,ViaPad*
%ADD23C,0.600000*%
G04 #@! TD*
G04 #@! TA.AperFunction,ViaPad*
%ADD24C,1.000000*%
G04 #@! TD*
G04 #@! TA.AperFunction,ViaPad*
%ADD25C,0.800000*%
G04 #@! TD*
G04 #@! TA.AperFunction,Conductor*
%ADD26C,1.000000*%
G04 #@! TD*
G04 #@! TA.AperFunction,Conductor*
%ADD27C,0.300000*%
G04 #@! TD*
G04 #@! TA.AperFunction,Conductor*
%ADD28C,0.500000*%
G04 #@! TD*
G04 #@! TA.AperFunction,Conductor*
%ADD29C,0.800000*%
G04 #@! TD*
G04 #@! TA.AperFunction,Conductor*
%ADD30C,0.254000*%
G04 #@! TD*
G04 #@! TA.AperFunction,Conductor*
%ADD31C,0.100000*%
G04 #@! TD*
G04 APERTURE END LIST*
D10*
G04 #@! TO.P,J5,1*
G04 #@! TO.N,/MCLR*
X49040000Y-92150000D03*
G04 #@! TO.P,J5,2*
G04 #@! TO.N,+5V*
X46500000Y-93420000D03*
G04 #@! TO.P,J5,3*
G04 #@! TO.N,GND*
X49040000Y-94690000D03*
G04 #@! TO.P,J5,4*
G04 #@! TO.N,/ICSPDAT*
X46500000Y-95960000D03*
G04 #@! TO.P,J5,5*
G04 #@! TO.N,/ICSPCLK*
X49040000Y-97230000D03*
G04 #@! TO.P,J5,6*
G04 #@! TO.N,Net-(J5-Pad6)*
X46500000Y-98500000D03*
G04 #@! TD*
D11*
G04 #@! TO.P,SW1,S1*
G04 #@! TO.N,Net-(R21-Pad2)*
X116500000Y-90000000D03*
G04 #@! TO.P,SW1,S2*
G04 #@! TO.N,GND*
X111500000Y-90000000D03*
D12*
G04 #@! TO.P,SW1,MP*
G04 #@! TO.N,N/C*
X119600000Y-97000000D03*
X108400000Y-97000000D03*
D11*
G04 #@! TO.P,SW1,B*
G04 #@! TO.N,Net-(R18-Pad1)*
X116500000Y-104500000D03*
G04 #@! TO.P,SW1,C*
G04 #@! TO.N,GND*
X114000000Y-104500000D03*
D13*
G04 #@! TO.P,SW1,A*
G04 #@! TO.N,Net-(R17-Pad1)*
X111500000Y-104500000D03*
G04 #@! TD*
D14*
G04 #@! TO.P,J3,T*
G04 #@! TO.N,Net-(C14-Pad1)*
X95900000Y-75000000D03*
G04 #@! TO.P,J3,TN*
G04 #@! TO.N,Net-(J3-PadTN)*
X100000000Y-75300000D03*
G04 #@! TO.P,J3,S*
G04 #@! TO.N,Net-(F2-Pad2)*
X102500000Y-73000000D03*
G04 #@! TD*
D15*
G04 #@! TO.P,U8,~*
G04 #@! TO.N,N/C*
X56800000Y-110500000D03*
X88000000Y-110500000D03*
X88000000Y-80500000D03*
X56800000Y-80500000D03*
D16*
G04 #@! TO.P,U8,15*
G04 #@! TO.N,Net-(U8-Pad15)*
X81240000Y-110500000D03*
G04 #@! TO.P,U8,14*
G04 #@! TO.N,/DB3*
X79970000Y-110500000D03*
G04 #@! TO.P,U8,13*
G04 #@! TO.N,/DB2*
X78700000Y-110500000D03*
G04 #@! TO.P,U8,12*
G04 #@! TO.N,/DB1*
X77430000Y-110500000D03*
G04 #@! TO.P,U8,11*
G04 #@! TO.N,/DB0*
X76160000Y-110500000D03*
G04 #@! TO.P,U8,10*
G04 #@! TO.N,Net-(U8-Pad10)*
X74890000Y-110500000D03*
G04 #@! TO.P,U8,9*
G04 #@! TO.N,Net-(U8-Pad9)*
X73620000Y-110500000D03*
G04 #@! TO.P,U8,8*
G04 #@! TO.N,Net-(U8-Pad8)*
X72350000Y-110500000D03*
G04 #@! TO.P,U8,7*
G04 #@! TO.N,Net-(U8-Pad7)*
X71080000Y-110500000D03*
G04 #@! TO.P,U8,6*
G04 #@! TO.N,/EN*
X69810000Y-110500000D03*
G04 #@! TO.P,U8,5*
G04 #@! TO.N,/RW*
X68540000Y-110500000D03*
G04 #@! TO.P,U8,4*
G04 #@! TO.N,/RS*
X67270000Y-110500000D03*
G04 #@! TO.P,U8,3*
G04 #@! TO.N,Net-(U8-Pad3)*
X66000000Y-110500000D03*
G04 #@! TO.P,U8,2*
G04 #@! TO.N,+5VP*
X64730000Y-110500000D03*
G04 #@! TO.P,U8,1*
G04 #@! TO.N,GND*
X63460000Y-110500000D03*
G04 #@! TD*
D17*
G04 #@! TO.P,J1,2*
G04 #@! TO.N,GND*
X98000000Y-106500000D03*
D18*
G04 #@! TD*
G04 #@! TO.N,Net-(F1-Pad1)*
G04 #@! TO.C,J1*
G36*
X101124504Y-105501204D02*
X101148773Y-105504804D01*
X101172571Y-105510765D01*
X101195671Y-105519030D01*
X101217849Y-105529520D01*
X101238893Y-105542133D01*
X101258598Y-105556747D01*
X101276777Y-105573223D01*
X101293253Y-105591402D01*
X101307867Y-105611107D01*
X101320480Y-105632151D01*
X101330970Y-105654329D01*
X101339235Y-105677429D01*
X101345196Y-105701227D01*
X101348796Y-105725496D01*
X101350000Y-105750000D01*
X101350000Y-107250000D01*
X101348796Y-107274504D01*
X101345196Y-107298773D01*
X101339235Y-107322571D01*
X101330970Y-107345671D01*
X101320480Y-107367849D01*
X101307867Y-107388893D01*
X101293253Y-107408598D01*
X101276777Y-107426777D01*
X101258598Y-107443253D01*
X101238893Y-107457867D01*
X101217849Y-107470480D01*
X101195671Y-107480970D01*
X101172571Y-107489235D01*
X101148773Y-107495196D01*
X101124504Y-107498796D01*
X101100000Y-107500000D01*
X99900000Y-107500000D01*
X99875496Y-107498796D01*
X99851227Y-107495196D01*
X99827429Y-107489235D01*
X99804329Y-107480970D01*
X99782151Y-107470480D01*
X99761107Y-107457867D01*
X99741402Y-107443253D01*
X99723223Y-107426777D01*
X99706747Y-107408598D01*
X99692133Y-107388893D01*
X99679520Y-107367849D01*
X99669030Y-107345671D01*
X99660765Y-107322571D01*
X99654804Y-107298773D01*
X99651204Y-107274504D01*
X99650000Y-107250000D01*
X99650000Y-105750000D01*
X99651204Y-105725496D01*
X99654804Y-105701227D01*
X99660765Y-105677429D01*
X99669030Y-105654329D01*
X99679520Y-105632151D01*
X99692133Y-105611107D01*
X99706747Y-105591402D01*
X99723223Y-105573223D01*
X99741402Y-105556747D01*
X99761107Y-105542133D01*
X99782151Y-105529520D01*
X99804329Y-105519030D01*
X99827429Y-105510765D01*
X99851227Y-105504804D01*
X99875496Y-105501204D01*
X99900000Y-105500000D01*
X101100000Y-105500000D01*
X101124504Y-105501204D01*
X101124504Y-105501204D01*
G37*
D19*
G04 #@! TO.P,J1,1*
G04 #@! TO.N,Net-(F1-Pad1)*
X100500000Y-106500000D03*
G04 #@! TD*
D20*
G04 #@! TO.P,J2,4*
G04 #@! TO.N,/TX-OUT*
X110500000Y-109500000D03*
G04 #@! TO.P,J2,3*
G04 #@! TO.N,/RX-IN*
X113000000Y-109500000D03*
G04 #@! TO.P,J2,2*
G04 #@! TO.N,GND*
X115500000Y-109500000D03*
D18*
G04 #@! TD*
G04 #@! TO.N,+5V*
G04 #@! TO.C,J2*
G36*
X118624504Y-108526204D02*
X118648773Y-108529804D01*
X118672571Y-108535765D01*
X118695671Y-108544030D01*
X118717849Y-108554520D01*
X118738893Y-108567133D01*
X118758598Y-108581747D01*
X118776777Y-108598223D01*
X118793253Y-108616402D01*
X118807867Y-108636107D01*
X118820480Y-108657151D01*
X118830970Y-108679329D01*
X118839235Y-108702429D01*
X118845196Y-108726227D01*
X118848796Y-108750496D01*
X118850000Y-108775000D01*
X118850000Y-110225000D01*
X118848796Y-110249504D01*
X118845196Y-110273773D01*
X118839235Y-110297571D01*
X118830970Y-110320671D01*
X118820480Y-110342849D01*
X118807867Y-110363893D01*
X118793253Y-110383598D01*
X118776777Y-110401777D01*
X118758598Y-110418253D01*
X118738893Y-110432867D01*
X118717849Y-110445480D01*
X118695671Y-110455970D01*
X118672571Y-110464235D01*
X118648773Y-110470196D01*
X118624504Y-110473796D01*
X118600000Y-110475000D01*
X117400000Y-110475000D01*
X117375496Y-110473796D01*
X117351227Y-110470196D01*
X117327429Y-110464235D01*
X117304329Y-110455970D01*
X117282151Y-110445480D01*
X117261107Y-110432867D01*
X117241402Y-110418253D01*
X117223223Y-110401777D01*
X117206747Y-110383598D01*
X117192133Y-110363893D01*
X117179520Y-110342849D01*
X117169030Y-110320671D01*
X117160765Y-110297571D01*
X117154804Y-110273773D01*
X117151204Y-110249504D01*
X117150000Y-110225000D01*
X117150000Y-108775000D01*
X117151204Y-108750496D01*
X117154804Y-108726227D01*
X117160765Y-108702429D01*
X117169030Y-108679329D01*
X117179520Y-108657151D01*
X117192133Y-108636107D01*
X117206747Y-108616402D01*
X117223223Y-108598223D01*
X117241402Y-108581747D01*
X117261107Y-108567133D01*
X117282151Y-108554520D01*
X117304329Y-108544030D01*
X117327429Y-108535765D01*
X117351227Y-108529804D01*
X117375496Y-108526204D01*
X117400000Y-108525000D01*
X118600000Y-108525000D01*
X118624504Y-108526204D01*
X118624504Y-108526204D01*
G37*
D19*
G04 #@! TO.P,J2,1*
G04 #@! TO.N,+5V*
X118000000Y-109500000D03*
G04 #@! TD*
D18*
G04 #@! TO.N,Net-(D7-Pad1)*
G04 #@! TO.C,J7*
G36*
X54994108Y-71602167D02*
X55037791Y-71608647D01*
X55080628Y-71619377D01*
X55122208Y-71634254D01*
X55162129Y-71653135D01*
X55200007Y-71675839D01*
X55235477Y-71702145D01*
X55268198Y-71731802D01*
X55297855Y-71764523D01*
X55324161Y-71799993D01*
X55346865Y-71837871D01*
X55365746Y-71877792D01*
X55380623Y-71919372D01*
X55391353Y-71962209D01*
X55397833Y-72005892D01*
X55400000Y-72050000D01*
X55400000Y-74350000D01*
X55397833Y-74394108D01*
X55391353Y-74437791D01*
X55380623Y-74480628D01*
X55365746Y-74522208D01*
X55346865Y-74562129D01*
X55324161Y-74600007D01*
X55297855Y-74635477D01*
X55268198Y-74668198D01*
X55235477Y-74697855D01*
X55200007Y-74724161D01*
X55162129Y-74746865D01*
X55122208Y-74765746D01*
X55080628Y-74780623D01*
X55037791Y-74791353D01*
X54994108Y-74797833D01*
X54950000Y-74800000D01*
X54050000Y-74800000D01*
X54005892Y-74797833D01*
X53962209Y-74791353D01*
X53919372Y-74780623D01*
X53877792Y-74765746D01*
X53837871Y-74746865D01*
X53799993Y-74724161D01*
X53764523Y-74697855D01*
X53731802Y-74668198D01*
X53702145Y-74635477D01*
X53675839Y-74600007D01*
X53653135Y-74562129D01*
X53634254Y-74522208D01*
X53619377Y-74480628D01*
X53608647Y-74437791D01*
X53602167Y-74394108D01*
X53600000Y-74350000D01*
X53600000Y-72050000D01*
X53602167Y-72005892D01*
X53608647Y-71962209D01*
X53619377Y-71919372D01*
X53634254Y-71877792D01*
X53653135Y-71837871D01*
X53675839Y-71799993D01*
X53702145Y-71764523D01*
X53731802Y-71731802D01*
X53764523Y-71702145D01*
X53799993Y-71675839D01*
X53837871Y-71653135D01*
X53877792Y-71634254D01*
X53919372Y-71619377D01*
X53962209Y-71608647D01*
X54005892Y-71602167D01*
X54050000Y-71600000D01*
X54950000Y-71600000D01*
X54994108Y-71602167D01*
X54994108Y-71602167D01*
G37*
D21*
G04 #@! TD*
G04 #@! TO.P,J7,1*
G04 #@! TO.N,Net-(D7-Pad1)*
X54500000Y-73200000D03*
D18*
G04 #@! TO.N,N/C*
G04 #@! TO.C,J7*
G36*
X61994108Y-71602167D02*
X62037791Y-71608647D01*
X62080628Y-71619377D01*
X62122208Y-71634254D01*
X62162129Y-71653135D01*
X62200007Y-71675839D01*
X62235477Y-71702145D01*
X62268198Y-71731802D01*
X62297855Y-71764523D01*
X62324161Y-71799993D01*
X62346865Y-71837871D01*
X62365746Y-71877792D01*
X62380623Y-71919372D01*
X62391353Y-71962209D01*
X62397833Y-72005892D01*
X62400000Y-72050000D01*
X62400000Y-74350000D01*
X62397833Y-74394108D01*
X62391353Y-74437791D01*
X62380623Y-74480628D01*
X62365746Y-74522208D01*
X62346865Y-74562129D01*
X62324161Y-74600007D01*
X62297855Y-74635477D01*
X62268198Y-74668198D01*
X62235477Y-74697855D01*
X62200007Y-74724161D01*
X62162129Y-74746865D01*
X62122208Y-74765746D01*
X62080628Y-74780623D01*
X62037791Y-74791353D01*
X61994108Y-74797833D01*
X61950000Y-74800000D01*
X61050000Y-74800000D01*
X61005892Y-74797833D01*
X60962209Y-74791353D01*
X60919372Y-74780623D01*
X60877792Y-74765746D01*
X60837871Y-74746865D01*
X60799993Y-74724161D01*
X60764523Y-74697855D01*
X60731802Y-74668198D01*
X60702145Y-74635477D01*
X60675839Y-74600007D01*
X60653135Y-74562129D01*
X60634254Y-74522208D01*
X60619377Y-74480628D01*
X60608647Y-74437791D01*
X60602167Y-74394108D01*
X60600000Y-74350000D01*
X60600000Y-72050000D01*
X60602167Y-72005892D01*
X60608647Y-71962209D01*
X60619377Y-71919372D01*
X60634254Y-71877792D01*
X60653135Y-71837871D01*
X60675839Y-71799993D01*
X60702145Y-71764523D01*
X60731802Y-71731802D01*
X60764523Y-71702145D01*
X60799993Y-71675839D01*
X60837871Y-71653135D01*
X60877792Y-71634254D01*
X60919372Y-71619377D01*
X60962209Y-71608647D01*
X61005892Y-71602167D01*
X61050000Y-71600000D01*
X61950000Y-71600000D01*
X61994108Y-71602167D01*
X61994108Y-71602167D01*
G37*
D21*
G04 #@! TD*
G04 #@! TO.P,J7,3*
G04 #@! TO.N,N/C*
X61500000Y-73200000D03*
D18*
G04 #@! TO.N,GND*
G04 #@! TO.C,J7*
G36*
X59149009Y-68502408D02*
X59197545Y-68509607D01*
X59245142Y-68521530D01*
X59291342Y-68538060D01*
X59335698Y-68559039D01*
X59377785Y-68584265D01*
X59417197Y-68613495D01*
X59453553Y-68646447D01*
X59486505Y-68682803D01*
X59515735Y-68722215D01*
X59540961Y-68764302D01*
X59561940Y-68808658D01*
X59578470Y-68854858D01*
X59590393Y-68902455D01*
X59597592Y-68950991D01*
X59600000Y-69000000D01*
X59600000Y-70000000D01*
X59597592Y-70049009D01*
X59590393Y-70097545D01*
X59578470Y-70145142D01*
X59561940Y-70191342D01*
X59540961Y-70235698D01*
X59515735Y-70277785D01*
X59486505Y-70317197D01*
X59453553Y-70353553D01*
X59417197Y-70386505D01*
X59377785Y-70415735D01*
X59335698Y-70440961D01*
X59291342Y-70461940D01*
X59245142Y-70478470D01*
X59197545Y-70490393D01*
X59149009Y-70497592D01*
X59100000Y-70500000D01*
X56900000Y-70500000D01*
X56850991Y-70497592D01*
X56802455Y-70490393D01*
X56754858Y-70478470D01*
X56708658Y-70461940D01*
X56664302Y-70440961D01*
X56622215Y-70415735D01*
X56582803Y-70386505D01*
X56546447Y-70353553D01*
X56513495Y-70317197D01*
X56484265Y-70277785D01*
X56459039Y-70235698D01*
X56438060Y-70191342D01*
X56421530Y-70145142D01*
X56409607Y-70097545D01*
X56402408Y-70049009D01*
X56400000Y-70000000D01*
X56400000Y-69000000D01*
X56402408Y-68950991D01*
X56409607Y-68902455D01*
X56421530Y-68854858D01*
X56438060Y-68808658D01*
X56459039Y-68764302D01*
X56484265Y-68722215D01*
X56513495Y-68682803D01*
X56546447Y-68646447D01*
X56582803Y-68613495D01*
X56622215Y-68584265D01*
X56664302Y-68559039D01*
X56708658Y-68538060D01*
X56754858Y-68521530D01*
X56802455Y-68509607D01*
X56850991Y-68502408D01*
X56900000Y-68500000D01*
X59100000Y-68500000D01*
X59149009Y-68502408D01*
X59149009Y-68502408D01*
G37*
D11*
G04 #@! TD*
G04 #@! TO.P,J7,2*
G04 #@! TO.N,GND*
X58000000Y-69500000D03*
D18*
G04 #@! TO.N,Net-(D9-Pad1)*
G04 #@! TO.C,J9*
G36*
X82994108Y-71602167D02*
X83037791Y-71608647D01*
X83080628Y-71619377D01*
X83122208Y-71634254D01*
X83162129Y-71653135D01*
X83200007Y-71675839D01*
X83235477Y-71702145D01*
X83268198Y-71731802D01*
X83297855Y-71764523D01*
X83324161Y-71799993D01*
X83346865Y-71837871D01*
X83365746Y-71877792D01*
X83380623Y-71919372D01*
X83391353Y-71962209D01*
X83397833Y-72005892D01*
X83400000Y-72050000D01*
X83400000Y-74350000D01*
X83397833Y-74394108D01*
X83391353Y-74437791D01*
X83380623Y-74480628D01*
X83365746Y-74522208D01*
X83346865Y-74562129D01*
X83324161Y-74600007D01*
X83297855Y-74635477D01*
X83268198Y-74668198D01*
X83235477Y-74697855D01*
X83200007Y-74724161D01*
X83162129Y-74746865D01*
X83122208Y-74765746D01*
X83080628Y-74780623D01*
X83037791Y-74791353D01*
X82994108Y-74797833D01*
X82950000Y-74800000D01*
X82050000Y-74800000D01*
X82005892Y-74797833D01*
X81962209Y-74791353D01*
X81919372Y-74780623D01*
X81877792Y-74765746D01*
X81837871Y-74746865D01*
X81799993Y-74724161D01*
X81764523Y-74697855D01*
X81731802Y-74668198D01*
X81702145Y-74635477D01*
X81675839Y-74600007D01*
X81653135Y-74562129D01*
X81634254Y-74522208D01*
X81619377Y-74480628D01*
X81608647Y-74437791D01*
X81602167Y-74394108D01*
X81600000Y-74350000D01*
X81600000Y-72050000D01*
X81602167Y-72005892D01*
X81608647Y-71962209D01*
X81619377Y-71919372D01*
X81634254Y-71877792D01*
X81653135Y-71837871D01*
X81675839Y-71799993D01*
X81702145Y-71764523D01*
X81731802Y-71731802D01*
X81764523Y-71702145D01*
X81799993Y-71675839D01*
X81837871Y-71653135D01*
X81877792Y-71634254D01*
X81919372Y-71619377D01*
X81962209Y-71608647D01*
X82005892Y-71602167D01*
X82050000Y-71600000D01*
X82950000Y-71600000D01*
X82994108Y-71602167D01*
X82994108Y-71602167D01*
G37*
D21*
G04 #@! TD*
G04 #@! TO.P,J9,1*
G04 #@! TO.N,Net-(D9-Pad1)*
X82500000Y-73200000D03*
D18*
G04 #@! TO.N,N/C*
G04 #@! TO.C,J9*
G36*
X89994108Y-71602167D02*
X90037791Y-71608647D01*
X90080628Y-71619377D01*
X90122208Y-71634254D01*
X90162129Y-71653135D01*
X90200007Y-71675839D01*
X90235477Y-71702145D01*
X90268198Y-71731802D01*
X90297855Y-71764523D01*
X90324161Y-71799993D01*
X90346865Y-71837871D01*
X90365746Y-71877792D01*
X90380623Y-71919372D01*
X90391353Y-71962209D01*
X90397833Y-72005892D01*
X90400000Y-72050000D01*
X90400000Y-74350000D01*
X90397833Y-74394108D01*
X90391353Y-74437791D01*
X90380623Y-74480628D01*
X90365746Y-74522208D01*
X90346865Y-74562129D01*
X90324161Y-74600007D01*
X90297855Y-74635477D01*
X90268198Y-74668198D01*
X90235477Y-74697855D01*
X90200007Y-74724161D01*
X90162129Y-74746865D01*
X90122208Y-74765746D01*
X90080628Y-74780623D01*
X90037791Y-74791353D01*
X89994108Y-74797833D01*
X89950000Y-74800000D01*
X89050000Y-74800000D01*
X89005892Y-74797833D01*
X88962209Y-74791353D01*
X88919372Y-74780623D01*
X88877792Y-74765746D01*
X88837871Y-74746865D01*
X88799993Y-74724161D01*
X88764523Y-74697855D01*
X88731802Y-74668198D01*
X88702145Y-74635477D01*
X88675839Y-74600007D01*
X88653135Y-74562129D01*
X88634254Y-74522208D01*
X88619377Y-74480628D01*
X88608647Y-74437791D01*
X88602167Y-74394108D01*
X88600000Y-74350000D01*
X88600000Y-72050000D01*
X88602167Y-72005892D01*
X88608647Y-71962209D01*
X88619377Y-71919372D01*
X88634254Y-71877792D01*
X88653135Y-71837871D01*
X88675839Y-71799993D01*
X88702145Y-71764523D01*
X88731802Y-71731802D01*
X88764523Y-71702145D01*
X88799993Y-71675839D01*
X88837871Y-71653135D01*
X88877792Y-71634254D01*
X88919372Y-71619377D01*
X88962209Y-71608647D01*
X89005892Y-71602167D01*
X89050000Y-71600000D01*
X89950000Y-71600000D01*
X89994108Y-71602167D01*
X89994108Y-71602167D01*
G37*
D21*
G04 #@! TD*
G04 #@! TO.P,J9,3*
G04 #@! TO.N,N/C*
X89500000Y-73200000D03*
D18*
G04 #@! TO.N,GND*
G04 #@! TO.C,J9*
G36*
X87149009Y-68502408D02*
X87197545Y-68509607D01*
X87245142Y-68521530D01*
X87291342Y-68538060D01*
X87335698Y-68559039D01*
X87377785Y-68584265D01*
X87417197Y-68613495D01*
X87453553Y-68646447D01*
X87486505Y-68682803D01*
X87515735Y-68722215D01*
X87540961Y-68764302D01*
X87561940Y-68808658D01*
X87578470Y-68854858D01*
X87590393Y-68902455D01*
X87597592Y-68950991D01*
X87600000Y-69000000D01*
X87600000Y-70000000D01*
X87597592Y-70049009D01*
X87590393Y-70097545D01*
X87578470Y-70145142D01*
X87561940Y-70191342D01*
X87540961Y-70235698D01*
X87515735Y-70277785D01*
X87486505Y-70317197D01*
X87453553Y-70353553D01*
X87417197Y-70386505D01*
X87377785Y-70415735D01*
X87335698Y-70440961D01*
X87291342Y-70461940D01*
X87245142Y-70478470D01*
X87197545Y-70490393D01*
X87149009Y-70497592D01*
X87100000Y-70500000D01*
X84900000Y-70500000D01*
X84850991Y-70497592D01*
X84802455Y-70490393D01*
X84754858Y-70478470D01*
X84708658Y-70461940D01*
X84664302Y-70440961D01*
X84622215Y-70415735D01*
X84582803Y-70386505D01*
X84546447Y-70353553D01*
X84513495Y-70317197D01*
X84484265Y-70277785D01*
X84459039Y-70235698D01*
X84438060Y-70191342D01*
X84421530Y-70145142D01*
X84409607Y-70097545D01*
X84402408Y-70049009D01*
X84400000Y-70000000D01*
X84400000Y-69000000D01*
X84402408Y-68950991D01*
X84409607Y-68902455D01*
X84421530Y-68854858D01*
X84438060Y-68808658D01*
X84459039Y-68764302D01*
X84484265Y-68722215D01*
X84513495Y-68682803D01*
X84546447Y-68646447D01*
X84582803Y-68613495D01*
X84622215Y-68584265D01*
X84664302Y-68559039D01*
X84708658Y-68538060D01*
X84754858Y-68521530D01*
X84802455Y-68509607D01*
X84850991Y-68502408D01*
X84900000Y-68500000D01*
X87100000Y-68500000D01*
X87149009Y-68502408D01*
X87149009Y-68502408D01*
G37*
D11*
G04 #@! TD*
G04 #@! TO.P,J9,2*
G04 #@! TO.N,GND*
X86000000Y-69500000D03*
D18*
G04 #@! TO.N,Net-(D8-Pad1)*
G04 #@! TO.C,J8*
G36*
X68994108Y-71602167D02*
X69037791Y-71608647D01*
X69080628Y-71619377D01*
X69122208Y-71634254D01*
X69162129Y-71653135D01*
X69200007Y-71675839D01*
X69235477Y-71702145D01*
X69268198Y-71731802D01*
X69297855Y-71764523D01*
X69324161Y-71799993D01*
X69346865Y-71837871D01*
X69365746Y-71877792D01*
X69380623Y-71919372D01*
X69391353Y-71962209D01*
X69397833Y-72005892D01*
X69400000Y-72050000D01*
X69400000Y-74350000D01*
X69397833Y-74394108D01*
X69391353Y-74437791D01*
X69380623Y-74480628D01*
X69365746Y-74522208D01*
X69346865Y-74562129D01*
X69324161Y-74600007D01*
X69297855Y-74635477D01*
X69268198Y-74668198D01*
X69235477Y-74697855D01*
X69200007Y-74724161D01*
X69162129Y-74746865D01*
X69122208Y-74765746D01*
X69080628Y-74780623D01*
X69037791Y-74791353D01*
X68994108Y-74797833D01*
X68950000Y-74800000D01*
X68050000Y-74800000D01*
X68005892Y-74797833D01*
X67962209Y-74791353D01*
X67919372Y-74780623D01*
X67877792Y-74765746D01*
X67837871Y-74746865D01*
X67799993Y-74724161D01*
X67764523Y-74697855D01*
X67731802Y-74668198D01*
X67702145Y-74635477D01*
X67675839Y-74600007D01*
X67653135Y-74562129D01*
X67634254Y-74522208D01*
X67619377Y-74480628D01*
X67608647Y-74437791D01*
X67602167Y-74394108D01*
X67600000Y-74350000D01*
X67600000Y-72050000D01*
X67602167Y-72005892D01*
X67608647Y-71962209D01*
X67619377Y-71919372D01*
X67634254Y-71877792D01*
X67653135Y-71837871D01*
X67675839Y-71799993D01*
X67702145Y-71764523D01*
X67731802Y-71731802D01*
X67764523Y-71702145D01*
X67799993Y-71675839D01*
X67837871Y-71653135D01*
X67877792Y-71634254D01*
X67919372Y-71619377D01*
X67962209Y-71608647D01*
X68005892Y-71602167D01*
X68050000Y-71600000D01*
X68950000Y-71600000D01*
X68994108Y-71602167D01*
X68994108Y-71602167D01*
G37*
D21*
G04 #@! TD*
G04 #@! TO.P,J8,1*
G04 #@! TO.N,Net-(D8-Pad1)*
X68500000Y-73200000D03*
D18*
G04 #@! TO.N,N/C*
G04 #@! TO.C,J8*
G36*
X75994108Y-71602167D02*
X76037791Y-71608647D01*
X76080628Y-71619377D01*
X76122208Y-71634254D01*
X76162129Y-71653135D01*
X76200007Y-71675839D01*
X76235477Y-71702145D01*
X76268198Y-71731802D01*
X76297855Y-71764523D01*
X76324161Y-71799993D01*
X76346865Y-71837871D01*
X76365746Y-71877792D01*
X76380623Y-71919372D01*
X76391353Y-71962209D01*
X76397833Y-72005892D01*
X76400000Y-72050000D01*
X76400000Y-74350000D01*
X76397833Y-74394108D01*
X76391353Y-74437791D01*
X76380623Y-74480628D01*
X76365746Y-74522208D01*
X76346865Y-74562129D01*
X76324161Y-74600007D01*
X76297855Y-74635477D01*
X76268198Y-74668198D01*
X76235477Y-74697855D01*
X76200007Y-74724161D01*
X76162129Y-74746865D01*
X76122208Y-74765746D01*
X76080628Y-74780623D01*
X76037791Y-74791353D01*
X75994108Y-74797833D01*
X75950000Y-74800000D01*
X75050000Y-74800000D01*
X75005892Y-74797833D01*
X74962209Y-74791353D01*
X74919372Y-74780623D01*
X74877792Y-74765746D01*
X74837871Y-74746865D01*
X74799993Y-74724161D01*
X74764523Y-74697855D01*
X74731802Y-74668198D01*
X74702145Y-74635477D01*
X74675839Y-74600007D01*
X74653135Y-74562129D01*
X74634254Y-74522208D01*
X74619377Y-74480628D01*
X74608647Y-74437791D01*
X74602167Y-74394108D01*
X74600000Y-74350000D01*
X74600000Y-72050000D01*
X74602167Y-72005892D01*
X74608647Y-71962209D01*
X74619377Y-71919372D01*
X74634254Y-71877792D01*
X74653135Y-71837871D01*
X74675839Y-71799993D01*
X74702145Y-71764523D01*
X74731802Y-71731802D01*
X74764523Y-71702145D01*
X74799993Y-71675839D01*
X74837871Y-71653135D01*
X74877792Y-71634254D01*
X74919372Y-71619377D01*
X74962209Y-71608647D01*
X75005892Y-71602167D01*
X75050000Y-71600000D01*
X75950000Y-71600000D01*
X75994108Y-71602167D01*
X75994108Y-71602167D01*
G37*
D21*
G04 #@! TD*
G04 #@! TO.P,J8,3*
G04 #@! TO.N,N/C*
X75500000Y-73200000D03*
D18*
G04 #@! TO.N,GND*
G04 #@! TO.C,J8*
G36*
X73149009Y-68502408D02*
X73197545Y-68509607D01*
X73245142Y-68521530D01*
X73291342Y-68538060D01*
X73335698Y-68559039D01*
X73377785Y-68584265D01*
X73417197Y-68613495D01*
X73453553Y-68646447D01*
X73486505Y-68682803D01*
X73515735Y-68722215D01*
X73540961Y-68764302D01*
X73561940Y-68808658D01*
X73578470Y-68854858D01*
X73590393Y-68902455D01*
X73597592Y-68950991D01*
X73600000Y-69000000D01*
X73600000Y-70000000D01*
X73597592Y-70049009D01*
X73590393Y-70097545D01*
X73578470Y-70145142D01*
X73561940Y-70191342D01*
X73540961Y-70235698D01*
X73515735Y-70277785D01*
X73486505Y-70317197D01*
X73453553Y-70353553D01*
X73417197Y-70386505D01*
X73377785Y-70415735D01*
X73335698Y-70440961D01*
X73291342Y-70461940D01*
X73245142Y-70478470D01*
X73197545Y-70490393D01*
X73149009Y-70497592D01*
X73100000Y-70500000D01*
X70900000Y-70500000D01*
X70850991Y-70497592D01*
X70802455Y-70490393D01*
X70754858Y-70478470D01*
X70708658Y-70461940D01*
X70664302Y-70440961D01*
X70622215Y-70415735D01*
X70582803Y-70386505D01*
X70546447Y-70353553D01*
X70513495Y-70317197D01*
X70484265Y-70277785D01*
X70459039Y-70235698D01*
X70438060Y-70191342D01*
X70421530Y-70145142D01*
X70409607Y-70097545D01*
X70402408Y-70049009D01*
X70400000Y-70000000D01*
X70400000Y-69000000D01*
X70402408Y-68950991D01*
X70409607Y-68902455D01*
X70421530Y-68854858D01*
X70438060Y-68808658D01*
X70459039Y-68764302D01*
X70484265Y-68722215D01*
X70513495Y-68682803D01*
X70546447Y-68646447D01*
X70582803Y-68613495D01*
X70622215Y-68584265D01*
X70664302Y-68559039D01*
X70708658Y-68538060D01*
X70754858Y-68521530D01*
X70802455Y-68509607D01*
X70850991Y-68502408D01*
X70900000Y-68500000D01*
X73100000Y-68500000D01*
X73149009Y-68502408D01*
X73149009Y-68502408D01*
G37*
D11*
G04 #@! TD*
G04 #@! TO.P,J8,2*
G04 #@! TO.N,GND*
X72000000Y-69500000D03*
D18*
G04 #@! TO.N,Net-(D6-Pad1)*
G04 #@! TO.C,J6*
G36*
X40994108Y-71602167D02*
X41037791Y-71608647D01*
X41080628Y-71619377D01*
X41122208Y-71634254D01*
X41162129Y-71653135D01*
X41200007Y-71675839D01*
X41235477Y-71702145D01*
X41268198Y-71731802D01*
X41297855Y-71764523D01*
X41324161Y-71799993D01*
X41346865Y-71837871D01*
X41365746Y-71877792D01*
X41380623Y-71919372D01*
X41391353Y-71962209D01*
X41397833Y-72005892D01*
X41400000Y-72050000D01*
X41400000Y-74350000D01*
X41397833Y-74394108D01*
X41391353Y-74437791D01*
X41380623Y-74480628D01*
X41365746Y-74522208D01*
X41346865Y-74562129D01*
X41324161Y-74600007D01*
X41297855Y-74635477D01*
X41268198Y-74668198D01*
X41235477Y-74697855D01*
X41200007Y-74724161D01*
X41162129Y-74746865D01*
X41122208Y-74765746D01*
X41080628Y-74780623D01*
X41037791Y-74791353D01*
X40994108Y-74797833D01*
X40950000Y-74800000D01*
X40050000Y-74800000D01*
X40005892Y-74797833D01*
X39962209Y-74791353D01*
X39919372Y-74780623D01*
X39877792Y-74765746D01*
X39837871Y-74746865D01*
X39799993Y-74724161D01*
X39764523Y-74697855D01*
X39731802Y-74668198D01*
X39702145Y-74635477D01*
X39675839Y-74600007D01*
X39653135Y-74562129D01*
X39634254Y-74522208D01*
X39619377Y-74480628D01*
X39608647Y-74437791D01*
X39602167Y-74394108D01*
X39600000Y-74350000D01*
X39600000Y-72050000D01*
X39602167Y-72005892D01*
X39608647Y-71962209D01*
X39619377Y-71919372D01*
X39634254Y-71877792D01*
X39653135Y-71837871D01*
X39675839Y-71799993D01*
X39702145Y-71764523D01*
X39731802Y-71731802D01*
X39764523Y-71702145D01*
X39799993Y-71675839D01*
X39837871Y-71653135D01*
X39877792Y-71634254D01*
X39919372Y-71619377D01*
X39962209Y-71608647D01*
X40005892Y-71602167D01*
X40050000Y-71600000D01*
X40950000Y-71600000D01*
X40994108Y-71602167D01*
X40994108Y-71602167D01*
G37*
D21*
G04 #@! TD*
G04 #@! TO.P,J6,1*
G04 #@! TO.N,Net-(D6-Pad1)*
X40500000Y-73200000D03*
D18*
G04 #@! TO.N,N/C*
G04 #@! TO.C,J6*
G36*
X47994108Y-71602167D02*
X48037791Y-71608647D01*
X48080628Y-71619377D01*
X48122208Y-71634254D01*
X48162129Y-71653135D01*
X48200007Y-71675839D01*
X48235477Y-71702145D01*
X48268198Y-71731802D01*
X48297855Y-71764523D01*
X48324161Y-71799993D01*
X48346865Y-71837871D01*
X48365746Y-71877792D01*
X48380623Y-71919372D01*
X48391353Y-71962209D01*
X48397833Y-72005892D01*
X48400000Y-72050000D01*
X48400000Y-74350000D01*
X48397833Y-74394108D01*
X48391353Y-74437791D01*
X48380623Y-74480628D01*
X48365746Y-74522208D01*
X48346865Y-74562129D01*
X48324161Y-74600007D01*
X48297855Y-74635477D01*
X48268198Y-74668198D01*
X48235477Y-74697855D01*
X48200007Y-74724161D01*
X48162129Y-74746865D01*
X48122208Y-74765746D01*
X48080628Y-74780623D01*
X48037791Y-74791353D01*
X47994108Y-74797833D01*
X47950000Y-74800000D01*
X47050000Y-74800000D01*
X47005892Y-74797833D01*
X46962209Y-74791353D01*
X46919372Y-74780623D01*
X46877792Y-74765746D01*
X46837871Y-74746865D01*
X46799993Y-74724161D01*
X46764523Y-74697855D01*
X46731802Y-74668198D01*
X46702145Y-74635477D01*
X46675839Y-74600007D01*
X46653135Y-74562129D01*
X46634254Y-74522208D01*
X46619377Y-74480628D01*
X46608647Y-74437791D01*
X46602167Y-74394108D01*
X46600000Y-74350000D01*
X46600000Y-72050000D01*
X46602167Y-72005892D01*
X46608647Y-71962209D01*
X46619377Y-71919372D01*
X46634254Y-71877792D01*
X46653135Y-71837871D01*
X46675839Y-71799993D01*
X46702145Y-71764523D01*
X46731802Y-71731802D01*
X46764523Y-71702145D01*
X46799993Y-71675839D01*
X46837871Y-71653135D01*
X46877792Y-71634254D01*
X46919372Y-71619377D01*
X46962209Y-71608647D01*
X47005892Y-71602167D01*
X47050000Y-71600000D01*
X47950000Y-71600000D01*
X47994108Y-71602167D01*
X47994108Y-71602167D01*
G37*
D21*
G04 #@! TD*
G04 #@! TO.P,J6,3*
G04 #@! TO.N,N/C*
X47500000Y-73200000D03*
D18*
G04 #@! TO.N,GND*
G04 #@! TO.C,J6*
G36*
X45149009Y-68502408D02*
X45197545Y-68509607D01*
X45245142Y-68521530D01*
X45291342Y-68538060D01*
X45335698Y-68559039D01*
X45377785Y-68584265D01*
X45417197Y-68613495D01*
X45453553Y-68646447D01*
X45486505Y-68682803D01*
X45515735Y-68722215D01*
X45540961Y-68764302D01*
X45561940Y-68808658D01*
X45578470Y-68854858D01*
X45590393Y-68902455D01*
X45597592Y-68950991D01*
X45600000Y-69000000D01*
X45600000Y-70000000D01*
X45597592Y-70049009D01*
X45590393Y-70097545D01*
X45578470Y-70145142D01*
X45561940Y-70191342D01*
X45540961Y-70235698D01*
X45515735Y-70277785D01*
X45486505Y-70317197D01*
X45453553Y-70353553D01*
X45417197Y-70386505D01*
X45377785Y-70415735D01*
X45335698Y-70440961D01*
X45291342Y-70461940D01*
X45245142Y-70478470D01*
X45197545Y-70490393D01*
X45149009Y-70497592D01*
X45100000Y-70500000D01*
X42900000Y-70500000D01*
X42850991Y-70497592D01*
X42802455Y-70490393D01*
X42754858Y-70478470D01*
X42708658Y-70461940D01*
X42664302Y-70440961D01*
X42622215Y-70415735D01*
X42582803Y-70386505D01*
X42546447Y-70353553D01*
X42513495Y-70317197D01*
X42484265Y-70277785D01*
X42459039Y-70235698D01*
X42438060Y-70191342D01*
X42421530Y-70145142D01*
X42409607Y-70097545D01*
X42402408Y-70049009D01*
X42400000Y-70000000D01*
X42400000Y-69000000D01*
X42402408Y-68950991D01*
X42409607Y-68902455D01*
X42421530Y-68854858D01*
X42438060Y-68808658D01*
X42459039Y-68764302D01*
X42484265Y-68722215D01*
X42513495Y-68682803D01*
X42546447Y-68646447D01*
X42582803Y-68613495D01*
X42622215Y-68584265D01*
X42664302Y-68559039D01*
X42708658Y-68538060D01*
X42754858Y-68521530D01*
X42802455Y-68509607D01*
X42850991Y-68502408D01*
X42900000Y-68500000D01*
X45100000Y-68500000D01*
X45149009Y-68502408D01*
X45149009Y-68502408D01*
G37*
D11*
G04 #@! TD*
G04 #@! TO.P,J6,2*
G04 #@! TO.N,GND*
X44000000Y-69500000D03*
D22*
G04 #@! TO.N,GND*
X33000000Y-110000000D03*
X33000000Y-74000000D03*
X33000000Y-77000000D03*
X33000000Y-80000000D03*
X33000000Y-71000000D03*
X33000000Y-68000000D03*
X33000000Y-107000000D03*
X33000000Y-95000000D03*
X33000000Y-86000000D03*
X33000000Y-89000000D03*
X33000000Y-83000000D03*
X33000000Y-98000000D03*
X33000000Y-113000000D03*
X33000000Y-92000000D03*
X33000000Y-104000000D03*
X33000000Y-101000000D03*
D23*
X76900000Y-88200000D03*
X76900000Y-89000000D03*
X76100000Y-89000000D03*
X76100000Y-89800000D03*
X76900000Y-89800000D03*
X76100000Y-88200000D03*
D24*
X37000000Y-77500000D03*
X37000000Y-78750000D03*
X45000000Y-77500000D03*
X45000000Y-78750000D03*
X61750000Y-78750000D03*
X61750000Y-77500000D03*
X71750000Y-78750000D03*
X71750000Y-77500000D03*
X102500000Y-94250000D03*
X102500000Y-92500000D03*
D25*
X41750000Y-83000000D03*
X66500000Y-83000000D03*
X76500000Y-83000000D03*
X97750000Y-78750000D03*
X104250000Y-78750000D03*
X94250000Y-80000000D03*
X104000000Y-80500000D03*
X104250000Y-82250000D03*
D24*
X110506459Y-76520435D03*
X125250000Y-80493541D03*
X114250000Y-100088861D03*
D22*
X87250000Y-97750000D03*
X85500000Y-97750000D03*
X85500000Y-102250000D03*
X87250000Y-102250000D03*
X90500000Y-96500000D03*
D25*
X93500000Y-85750000D03*
X47750000Y-84000000D03*
X108750000Y-92500000D03*
X79000000Y-94750000D03*
X77000000Y-94750000D03*
X74000000Y-90250000D03*
X44000000Y-89000000D03*
D24*
X66000000Y-104000000D03*
X66000000Y-105500000D03*
X62250000Y-94000000D03*
X124506459Y-76270435D03*
X47000000Y-106750000D03*
X45750000Y-106750000D03*
X62000000Y-113000000D03*
D22*
X131000000Y-68000000D03*
X131000000Y-71000000D03*
X131000000Y-74000000D03*
X131000000Y-77000000D03*
X131000000Y-80000000D03*
X131000000Y-83000000D03*
X131000000Y-86000000D03*
X131000000Y-89000000D03*
X131000000Y-92000000D03*
X131000000Y-95000000D03*
X131000000Y-98000000D03*
X131000000Y-101000000D03*
X131000000Y-104000000D03*
X131000000Y-107000000D03*
X131000000Y-110000000D03*
X131000000Y-113000000D03*
D24*
G04 #@! TO.N,+5V*
X80800000Y-96400000D03*
X80750000Y-98500000D03*
X62000000Y-105400000D03*
X90250000Y-84250000D03*
X91500000Y-84250000D03*
D25*
X97000000Y-85750000D03*
D24*
X114250000Y-101801361D03*
X60500000Y-90000000D03*
X58750000Y-95500000D03*
G04 #@! TO.N,+12V*
X82000000Y-93450000D03*
X41250000Y-104500000D03*
X82000000Y-92050000D03*
G04 #@! TO.N,+VSW*
X52250000Y-85750000D03*
X37000000Y-80500000D03*
X37000000Y-81750000D03*
X45000000Y-80500000D03*
X45000000Y-81750000D03*
X61750000Y-80500000D03*
X61750000Y-81750000D03*
X71750000Y-81750000D03*
X71750000Y-80500000D03*
X73750000Y-88000000D03*
X72500000Y-88000000D03*
X51000000Y-85750000D03*
X61750000Y-85750000D03*
X61750000Y-84500000D03*
D22*
G04 #@! TO.N,+12P*
X38500000Y-110500000D03*
X37500000Y-108750000D03*
X36500000Y-110500000D03*
X37500000Y-112250000D03*
X39500000Y-108750000D03*
X39500000Y-112250000D03*
X35500000Y-108750000D03*
X35500000Y-112250000D03*
X38500000Y-113750000D03*
X36500000Y-113750000D03*
X36500000Y-107000000D03*
X40750000Y-113750000D03*
G04 #@! TD*
D26*
G04 #@! TO.N,+5V*
X80750000Y-97000000D02*
X80750000Y-96450000D01*
X80750000Y-98500000D02*
X80750000Y-97000000D01*
X80750000Y-96450000D02*
X80800000Y-96400000D01*
X90250000Y-84250000D02*
X91500000Y-84250000D01*
D27*
X97000000Y-85500000D02*
X97000000Y-85750000D01*
X91500000Y-84250000D02*
X95750000Y-84250000D01*
X95750000Y-84250000D02*
X97000000Y-85500000D01*
D26*
X89500000Y-85000000D02*
X90250000Y-84250000D01*
X80950000Y-96250000D02*
X83750000Y-96250000D01*
X83750000Y-96250000D02*
X85000000Y-95000000D01*
X85000000Y-95000000D02*
X85000000Y-86000000D01*
X85000000Y-86000000D02*
X86000000Y-85000000D01*
X80800000Y-96400000D02*
X80950000Y-96250000D01*
X86000000Y-85000000D02*
X89500000Y-85000000D01*
D28*
X117801361Y-101801361D02*
X114250000Y-101801361D01*
X118750000Y-102750000D02*
X117801361Y-101801361D01*
X118750000Y-106250000D02*
X118750000Y-102750000D01*
X118000000Y-109500000D02*
X118000000Y-107000000D01*
X118000000Y-107000000D02*
X118750000Y-106250000D01*
D29*
X58750000Y-91750000D02*
X60500000Y-90000000D01*
X58750000Y-95500000D02*
X58750000Y-91750000D01*
X62000000Y-105400000D02*
X62000000Y-98750000D01*
X62000000Y-98750000D02*
X58750000Y-95500000D01*
D26*
G04 #@! TO.N,+12V*
X82000000Y-93450000D02*
X82000000Y-92050000D01*
X82000000Y-79750000D02*
X82000000Y-92050000D01*
X85750000Y-76000000D02*
X82000000Y-79750000D01*
X91750000Y-75000000D02*
X90750000Y-76000000D01*
X91750000Y-68255000D02*
X91750000Y-75000000D01*
X90495000Y-67000000D02*
X91750000Y-68255000D01*
X35750000Y-67000000D02*
X90495000Y-67000000D01*
X90750000Y-76000000D02*
X85750000Y-76000000D01*
X41250000Y-102500000D02*
X39750000Y-101000000D01*
X34750000Y-99750000D02*
X34750000Y-68000000D01*
X41250000Y-104500000D02*
X41250000Y-102500000D01*
X36000000Y-101000000D02*
X34750000Y-99750000D01*
X39750000Y-101000000D02*
X36000000Y-101000000D01*
X34750000Y-68000000D02*
X35750000Y-67000000D01*
G04 #@! TD*
D30*
G04 #@! TO.N,GND*
G36*
X131544001Y-115044000D02*
X42668248Y-115044000D01*
X42677000Y-115000000D01*
X42677000Y-109827477D01*
X53419000Y-109827477D01*
X53419000Y-111172523D01*
X53933726Y-112415183D01*
X54884817Y-113366274D01*
X56127477Y-113881000D01*
X57472523Y-113881000D01*
X58715183Y-113366274D01*
X59666274Y-112415183D01*
X60181000Y-111172523D01*
X60181000Y-110627000D01*
X62579000Y-110627000D01*
X62579000Y-111027000D01*
X62694663Y-111354477D01*
X62926842Y-111612764D01*
X63198184Y-111741198D01*
X63333000Y-111675419D01*
X63333000Y-110627000D01*
X62579000Y-110627000D01*
X60181000Y-110627000D01*
X60181000Y-109973000D01*
X62579000Y-109973000D01*
X62579000Y-110373000D01*
X63333000Y-110373000D01*
X63333000Y-109324581D01*
X63587000Y-109324581D01*
X63587000Y-110373000D01*
X63607000Y-110373000D01*
X63607000Y-110627000D01*
X63587000Y-110627000D01*
X63587000Y-111675419D01*
X63721816Y-111741198D01*
X63993158Y-111612764D01*
X64081225Y-111514794D01*
X64094836Y-111535165D01*
X64386252Y-111729883D01*
X64730000Y-111798259D01*
X65073749Y-111729883D01*
X65365001Y-111535275D01*
X65656252Y-111729883D01*
X66000000Y-111798259D01*
X66343749Y-111729883D01*
X66635001Y-111535275D01*
X66926252Y-111729883D01*
X67270000Y-111798259D01*
X67613749Y-111729883D01*
X67905001Y-111535275D01*
X68196252Y-111729883D01*
X68540000Y-111798259D01*
X68883749Y-111729883D01*
X69175001Y-111535275D01*
X69466252Y-111729883D01*
X69810000Y-111798259D01*
X70153749Y-111729883D01*
X70445001Y-111535275D01*
X70736252Y-111729883D01*
X71080000Y-111798259D01*
X71423749Y-111729883D01*
X71715001Y-111535275D01*
X72006252Y-111729883D01*
X72350000Y-111798259D01*
X72693749Y-111729883D01*
X72985001Y-111535275D01*
X73276252Y-111729883D01*
X73620000Y-111798259D01*
X73963749Y-111729883D01*
X74255001Y-111535275D01*
X74546252Y-111729883D01*
X74890000Y-111798259D01*
X75233749Y-111729883D01*
X75525001Y-111535275D01*
X75816252Y-111729883D01*
X76160000Y-111798259D01*
X76503749Y-111729883D01*
X76795001Y-111535275D01*
X77086252Y-111729883D01*
X77430000Y-111798259D01*
X77773749Y-111729883D01*
X78065001Y-111535275D01*
X78356252Y-111729883D01*
X78700000Y-111798259D01*
X79043749Y-111729883D01*
X79335001Y-111535275D01*
X79626252Y-111729883D01*
X79970000Y-111798259D01*
X80313749Y-111729883D01*
X80605001Y-111535275D01*
X80896252Y-111729883D01*
X81240000Y-111798259D01*
X81583749Y-111729883D01*
X81875165Y-111535165D01*
X82069883Y-111243749D01*
X82121000Y-110986767D01*
X82121000Y-110013233D01*
X82084051Y-109827477D01*
X84619000Y-109827477D01*
X84619000Y-111172523D01*
X85133726Y-112415183D01*
X86084817Y-113366274D01*
X87327477Y-113881000D01*
X88672523Y-113881000D01*
X89915183Y-113366274D01*
X90866274Y-112415183D01*
X91381000Y-111172523D01*
X91381000Y-109827477D01*
X91143360Y-109253761D01*
X109269000Y-109253761D01*
X109269000Y-109746238D01*
X109340424Y-110105311D01*
X109612499Y-110512501D01*
X110019688Y-110784576D01*
X110500000Y-110880116D01*
X110980311Y-110784576D01*
X111387501Y-110512501D01*
X111659576Y-110105312D01*
X111731000Y-109746239D01*
X111731000Y-109253762D01*
X111731000Y-109253761D01*
X111769000Y-109253761D01*
X111769000Y-109746238D01*
X111840424Y-110105311D01*
X112112499Y-110512501D01*
X112519688Y-110784576D01*
X113000000Y-110880116D01*
X113480311Y-110784576D01*
X113887501Y-110512501D01*
X114159576Y-110105312D01*
X114216421Y-109819530D01*
X114284570Y-109819530D01*
X114451533Y-110269847D01*
X114778115Y-110621992D01*
X115183020Y-110814489D01*
X115373000Y-110753627D01*
X115373000Y-109627000D01*
X115627000Y-109627000D01*
X115627000Y-110753627D01*
X115816980Y-110814489D01*
X116221885Y-110621992D01*
X116548467Y-110269847D01*
X116715430Y-109819530D01*
X116635647Y-109627000D01*
X115627000Y-109627000D01*
X115373000Y-109627000D01*
X114364353Y-109627000D01*
X114284570Y-109819530D01*
X114216421Y-109819530D01*
X114231000Y-109746239D01*
X114231000Y-109253762D01*
X114216422Y-109180470D01*
X114284570Y-109180470D01*
X114364353Y-109373000D01*
X115373000Y-109373000D01*
X115373000Y-108246373D01*
X115627000Y-108246373D01*
X115627000Y-109373000D01*
X116635647Y-109373000D01*
X116715430Y-109180470D01*
X116548467Y-108730153D01*
X116221885Y-108378008D01*
X115816980Y-108185511D01*
X115627000Y-108246373D01*
X115373000Y-108246373D01*
X115183020Y-108185511D01*
X114778115Y-108378008D01*
X114451533Y-108730153D01*
X114284570Y-109180470D01*
X114216422Y-109180470D01*
X114159576Y-108894689D01*
X113887501Y-108487499D01*
X113480312Y-108215424D01*
X113000000Y-108119884D01*
X112519689Y-108215424D01*
X112112500Y-108487499D01*
X111840424Y-108894688D01*
X111769000Y-109253761D01*
X111731000Y-109253761D01*
X111659576Y-108894689D01*
X111387501Y-108487499D01*
X110980312Y-108215424D01*
X110500000Y-108119884D01*
X110019689Y-108215424D01*
X109612500Y-108487499D01*
X109340424Y-108894688D01*
X109269000Y-109253761D01*
X91143360Y-109253761D01*
X90866274Y-108584817D01*
X89915183Y-107633726D01*
X88672523Y-107119000D01*
X87327477Y-107119000D01*
X86084817Y-107633726D01*
X85133726Y-108584817D01*
X84619000Y-109827477D01*
X82084051Y-109827477D01*
X82069883Y-109756251D01*
X81875165Y-109464835D01*
X81583748Y-109270117D01*
X81240000Y-109201741D01*
X80896251Y-109270117D01*
X80605000Y-109464725D01*
X80313748Y-109270117D01*
X79970000Y-109201741D01*
X79626251Y-109270117D01*
X79335000Y-109464725D01*
X79043748Y-109270117D01*
X78700000Y-109201741D01*
X78356251Y-109270117D01*
X78065000Y-109464725D01*
X77773748Y-109270117D01*
X77430000Y-109201741D01*
X77086251Y-109270117D01*
X76795000Y-109464725D01*
X76503748Y-109270117D01*
X76160000Y-109201741D01*
X75816251Y-109270117D01*
X75525000Y-109464725D01*
X75233748Y-109270117D01*
X74890000Y-109201741D01*
X74546251Y-109270117D01*
X74255000Y-109464725D01*
X73963748Y-109270117D01*
X73620000Y-109201741D01*
X73276251Y-109270117D01*
X72985000Y-109464725D01*
X72693748Y-109270117D01*
X72350000Y-109201741D01*
X72006251Y-109270117D01*
X71715000Y-109464725D01*
X71423748Y-109270117D01*
X71080000Y-109201741D01*
X70736251Y-109270117D01*
X70445000Y-109464725D01*
X70153748Y-109270117D01*
X69810000Y-109201741D01*
X69466251Y-109270117D01*
X69175000Y-109464725D01*
X68883748Y-109270117D01*
X68540000Y-109201741D01*
X68196251Y-109270117D01*
X67905000Y-109464725D01*
X67613748Y-109270117D01*
X67270000Y-109201741D01*
X66926251Y-109270117D01*
X66635000Y-109464725D01*
X66343748Y-109270117D01*
X66000000Y-109201741D01*
X65656251Y-109270117D01*
X65365000Y-109464725D01*
X65073748Y-109270117D01*
X64730000Y-109201741D01*
X64386251Y-109270117D01*
X64094835Y-109464835D01*
X64081224Y-109485205D01*
X63993158Y-109387236D01*
X63721816Y-109258802D01*
X63587000Y-109324581D01*
X63333000Y-109324581D01*
X63198184Y-109258802D01*
X62926842Y-109387236D01*
X62694663Y-109645523D01*
X62579000Y-109973000D01*
X60181000Y-109973000D01*
X60181000Y-109827477D01*
X59666274Y-108584817D01*
X58715183Y-107633726D01*
X57472523Y-107119000D01*
X56127477Y-107119000D01*
X54884817Y-107633726D01*
X53933726Y-108584817D01*
X53419000Y-109827477D01*
X42677000Y-109827477D01*
X42677000Y-106820039D01*
X96779388Y-106820039D01*
X96937373Y-107274204D01*
X97257133Y-107633339D01*
X97683020Y-107839489D01*
X97873000Y-107778627D01*
X97873000Y-106627000D01*
X98127000Y-106627000D01*
X98127000Y-107778627D01*
X98316980Y-107839489D01*
X98742867Y-107633339D01*
X99062627Y-107274204D01*
X99220612Y-106820039D01*
X99136934Y-106627000D01*
X98127000Y-106627000D01*
X97873000Y-106627000D01*
X96863066Y-106627000D01*
X96779388Y-106820039D01*
X42677000Y-106820039D01*
X42677000Y-105750000D01*
X42644497Y-105586594D01*
X42551935Y-105448065D01*
X42413406Y-105355503D01*
X42250000Y-105323000D01*
X41604049Y-105323000D01*
X41667303Y-105280736D01*
X41749047Y-105246876D01*
X41811611Y-105184312D01*
X41885165Y-105135165D01*
X41934313Y-105061610D01*
X41996876Y-104999047D01*
X42030735Y-104917305D01*
X42079883Y-104843749D01*
X42097142Y-104756983D01*
X42131000Y-104675242D01*
X42131000Y-102586761D01*
X42148258Y-102499999D01*
X42131000Y-102413238D01*
X42131000Y-102413233D01*
X42079883Y-102156251D01*
X41885165Y-101864835D01*
X41811607Y-101815685D01*
X40434317Y-100438395D01*
X40385165Y-100364835D01*
X40093749Y-100170117D01*
X39836767Y-100119000D01*
X39836763Y-100119000D01*
X39750000Y-100101742D01*
X39663237Y-100119000D01*
X36364922Y-100119000D01*
X35920952Y-99675030D01*
X47169000Y-99675030D01*
X47169000Y-100124970D01*
X47341184Y-100540660D01*
X47659340Y-100858816D01*
X48075030Y-101031000D01*
X48524970Y-101031000D01*
X48940660Y-100858816D01*
X49258816Y-100540660D01*
X49431000Y-100124970D01*
X49431000Y-99675030D01*
X49258816Y-99259340D01*
X48940660Y-98941184D01*
X48524970Y-98769000D01*
X48075030Y-98769000D01*
X47659340Y-98941184D01*
X47341184Y-99259340D01*
X47169000Y-99675030D01*
X35920952Y-99675030D01*
X35631000Y-99385079D01*
X35631000Y-98284976D01*
X45419000Y-98284976D01*
X45419000Y-98715024D01*
X45583572Y-99112337D01*
X45887663Y-99416428D01*
X46284976Y-99581000D01*
X46715024Y-99581000D01*
X47112337Y-99416428D01*
X47416428Y-99112337D01*
X47581000Y-98715024D01*
X47581000Y-98284976D01*
X47416428Y-97887663D01*
X47112337Y-97583572D01*
X46715024Y-97419000D01*
X46284976Y-97419000D01*
X45887663Y-97583572D01*
X45583572Y-97887663D01*
X45419000Y-98284976D01*
X35631000Y-98284976D01*
X35631000Y-95744976D01*
X45419000Y-95744976D01*
X45419000Y-96175024D01*
X45583572Y-96572337D01*
X45887663Y-96876428D01*
X46284976Y-97041000D01*
X46715024Y-97041000D01*
X46777851Y-97014976D01*
X47959000Y-97014976D01*
X47959000Y-97445024D01*
X48123572Y-97842337D01*
X48427663Y-98146428D01*
X48824976Y-98311000D01*
X49255024Y-98311000D01*
X49652337Y-98146428D01*
X49956428Y-97842337D01*
X50121000Y-97445024D01*
X50121000Y-97014976D01*
X49956428Y-96617663D01*
X49652337Y-96313572D01*
X49255024Y-96149000D01*
X48824976Y-96149000D01*
X48427663Y-96313572D01*
X48123572Y-96617663D01*
X47959000Y-97014976D01*
X46777851Y-97014976D01*
X47112337Y-96876428D01*
X47416428Y-96572337D01*
X47581000Y-96175024D01*
X47581000Y-95744976D01*
X47473780Y-95486122D01*
X48423483Y-95486122D01*
X48499216Y-95650391D01*
X48907907Y-95784235D01*
X49336707Y-95751491D01*
X49580784Y-95650391D01*
X49656517Y-95486122D01*
X49495153Y-95324758D01*
X57869000Y-95324758D01*
X57869000Y-95675242D01*
X58003124Y-95999047D01*
X58250953Y-96246876D01*
X58492376Y-96346877D01*
X61219001Y-99073502D01*
X61219000Y-104983336D01*
X61119000Y-105224758D01*
X61119000Y-105575242D01*
X61253124Y-105899047D01*
X61500953Y-106146876D01*
X61824758Y-106281000D01*
X62175242Y-106281000D01*
X62419172Y-106179961D01*
X96779388Y-106179961D01*
X96863066Y-106373000D01*
X97873000Y-106373000D01*
X97873000Y-105221373D01*
X98127000Y-105221373D01*
X98127000Y-106373000D01*
X99136934Y-106373000D01*
X99220612Y-106179961D01*
X99071047Y-105750000D01*
X99261536Y-105750000D01*
X99261536Y-107250000D01*
X99310136Y-107494330D01*
X99448538Y-107701462D01*
X99655670Y-107839864D01*
X99900000Y-107888464D01*
X101100000Y-107888464D01*
X101344330Y-107839864D01*
X101551462Y-107701462D01*
X101689864Y-107494330D01*
X101738464Y-107250000D01*
X101738464Y-105750000D01*
X101689864Y-105505670D01*
X101551462Y-105298538D01*
X101344330Y-105160136D01*
X101100000Y-105111536D01*
X99900000Y-105111536D01*
X99655670Y-105160136D01*
X99448538Y-105298538D01*
X99310136Y-105505670D01*
X99261536Y-105750000D01*
X99071047Y-105750000D01*
X99062627Y-105725796D01*
X98742867Y-105366661D01*
X98316980Y-105160511D01*
X98127000Y-105221373D01*
X97873000Y-105221373D01*
X97683020Y-105160511D01*
X97257133Y-105366661D01*
X96937373Y-105725796D01*
X96779388Y-106179961D01*
X62419172Y-106179961D01*
X62499047Y-106146876D01*
X62746876Y-105899047D01*
X62881000Y-105575242D01*
X62881000Y-105224758D01*
X62781000Y-104983336D01*
X62781000Y-103500000D01*
X110111536Y-103500000D01*
X110111536Y-105500000D01*
X110141106Y-105648659D01*
X110225314Y-105774686D01*
X110351341Y-105858894D01*
X110500000Y-105888464D01*
X112500000Y-105888464D01*
X112648659Y-105858894D01*
X112774686Y-105774686D01*
X112858894Y-105648659D01*
X112885730Y-105513742D01*
X113165863Y-105513742D01*
X113278485Y-105709146D01*
X113796126Y-105893217D01*
X114344806Y-105865184D01*
X114721515Y-105709146D01*
X114834137Y-105513742D01*
X114000000Y-104679605D01*
X113165863Y-105513742D01*
X112885730Y-105513742D01*
X112888464Y-105500000D01*
X112888464Y-105277773D01*
X112986258Y-105334137D01*
X113820395Y-104500000D01*
X114179605Y-104500000D01*
X115013742Y-105334137D01*
X115209146Y-105221515D01*
X115252998Y-105098196D01*
X115329245Y-105282273D01*
X115717727Y-105670755D01*
X116225302Y-105881000D01*
X116774698Y-105881000D01*
X117282273Y-105670755D01*
X117670755Y-105282273D01*
X117881000Y-104774698D01*
X117881000Y-104225302D01*
X117670755Y-103717727D01*
X117282273Y-103329245D01*
X116774698Y-103119000D01*
X116225302Y-103119000D01*
X115717727Y-103329245D01*
X115329245Y-103717727D01*
X115256612Y-103893078D01*
X115209146Y-103778485D01*
X115013742Y-103665863D01*
X114179605Y-104500000D01*
X113820395Y-104500000D01*
X112986258Y-103665863D01*
X112888464Y-103722227D01*
X112888464Y-103500000D01*
X112885731Y-103486258D01*
X113165863Y-103486258D01*
X114000000Y-104320395D01*
X114834137Y-103486258D01*
X114721515Y-103290854D01*
X114203874Y-103106783D01*
X113655194Y-103134816D01*
X113278485Y-103290854D01*
X113165863Y-103486258D01*
X112885731Y-103486258D01*
X112858894Y-103351341D01*
X112774686Y-103225314D01*
X112648659Y-103141106D01*
X112500000Y-103111536D01*
X110500000Y-103111536D01*
X110351341Y-103141106D01*
X110225314Y-103225314D01*
X110141106Y-103351341D01*
X110111536Y-103500000D01*
X62781000Y-103500000D01*
X62781000Y-101626119D01*
X113369000Y-101626119D01*
X113369000Y-101976603D01*
X113503124Y-102300408D01*
X113750953Y-102548237D01*
X114074758Y-102682361D01*
X114425242Y-102682361D01*
X114749047Y-102548237D01*
X114864923Y-102432361D01*
X117539993Y-102432361D01*
X118119001Y-103011370D01*
X118119000Y-105988631D01*
X117597762Y-106509870D01*
X117545075Y-106545074D01*
X117509871Y-106597761D01*
X117405611Y-106753797D01*
X117356638Y-107000000D01*
X117369001Y-107062153D01*
X117369001Y-108142702D01*
X117155670Y-108185136D01*
X116948538Y-108323538D01*
X116810136Y-108530670D01*
X116761536Y-108775000D01*
X116761536Y-110225000D01*
X116810136Y-110469330D01*
X116948538Y-110676462D01*
X117155670Y-110814864D01*
X117400000Y-110863464D01*
X118600000Y-110863464D01*
X118844330Y-110814864D01*
X119051462Y-110676462D01*
X119189864Y-110469330D01*
X119238464Y-110225000D01*
X119238464Y-108775000D01*
X119189864Y-108530670D01*
X119051462Y-108323538D01*
X118844330Y-108185136D01*
X118631000Y-108142702D01*
X118631000Y-107261368D01*
X119152239Y-106740130D01*
X119204926Y-106704926D01*
X119344389Y-106496204D01*
X119381000Y-106312148D01*
X119381000Y-106312147D01*
X119393362Y-106250001D01*
X119381000Y-106187854D01*
X119381000Y-102812146D01*
X119393362Y-102749999D01*
X119379908Y-102682361D01*
X119344389Y-102503796D01*
X119204926Y-102295074D01*
X119152238Y-102259869D01*
X118291493Y-101399125D01*
X118256287Y-101346435D01*
X118047565Y-101206972D01*
X117863509Y-101170361D01*
X117801361Y-101157999D01*
X117739213Y-101170361D01*
X114864923Y-101170361D01*
X114749047Y-101054485D01*
X114425242Y-100920361D01*
X114074758Y-100920361D01*
X113750953Y-101054485D01*
X113503124Y-101302314D01*
X113369000Y-101626119D01*
X62781000Y-101626119D01*
X62781000Y-98826913D01*
X62796299Y-98749999D01*
X62781000Y-98673085D01*
X62781000Y-98673082D01*
X62735685Y-98445269D01*
X62563069Y-98186931D01*
X62497862Y-98143361D01*
X60104501Y-95750000D01*
X79619000Y-95750000D01*
X79619000Y-99250000D01*
X79648002Y-99395802D01*
X79730592Y-99519408D01*
X79854198Y-99601998D01*
X80000000Y-99631000D01*
X81750000Y-99631000D01*
X81895802Y-99601998D01*
X82019408Y-99519408D01*
X82101998Y-99395802D01*
X82131000Y-99250000D01*
X82131000Y-97131000D01*
X83663237Y-97131000D01*
X83750000Y-97148258D01*
X83836763Y-97131000D01*
X83836767Y-97131000D01*
X84093749Y-97079883D01*
X84385165Y-96885165D01*
X84434317Y-96811605D01*
X85561608Y-95684314D01*
X85635165Y-95635165D01*
X85792297Y-95400000D01*
X107011536Y-95400000D01*
X107011536Y-98600000D01*
X107041106Y-98748659D01*
X107125314Y-98874686D01*
X107251341Y-98958894D01*
X107400000Y-98988464D01*
X109400000Y-98988464D01*
X109548659Y-98958894D01*
X109674686Y-98874686D01*
X109758894Y-98748659D01*
X109788464Y-98600000D01*
X109788464Y-95400000D01*
X118211536Y-95400000D01*
X118211536Y-98600000D01*
X118241106Y-98748659D01*
X118325314Y-98874686D01*
X118451341Y-98958894D01*
X118600000Y-98988464D01*
X120600000Y-98988464D01*
X120748659Y-98958894D01*
X120874686Y-98874686D01*
X120958894Y-98748659D01*
X120988464Y-98600000D01*
X120988464Y-95400000D01*
X120958894Y-95251341D01*
X120874686Y-95125314D01*
X120748659Y-95041106D01*
X120600000Y-95011536D01*
X118600000Y-95011536D01*
X118451341Y-95041106D01*
X118325314Y-95125314D01*
X118241106Y-95251341D01*
X118211536Y-95400000D01*
X109788464Y-95400000D01*
X109758894Y-95251341D01*
X109674686Y-95125314D01*
X109548659Y-95041106D01*
X109400000Y-95011536D01*
X107400000Y-95011536D01*
X107251341Y-95041106D01*
X107125314Y-95125314D01*
X107041106Y-95251341D01*
X107011536Y-95400000D01*
X85792297Y-95400000D01*
X85829883Y-95343749D01*
X85881000Y-95086767D01*
X85881000Y-95086763D01*
X85898258Y-95000000D01*
X85881000Y-94913237D01*
X85881000Y-91013742D01*
X110665863Y-91013742D01*
X110778485Y-91209146D01*
X111296126Y-91393217D01*
X111844806Y-91365184D01*
X112221515Y-91209146D01*
X112334137Y-91013742D01*
X111500000Y-90179605D01*
X110665863Y-91013742D01*
X85881000Y-91013742D01*
X85881000Y-89796126D01*
X110106783Y-89796126D01*
X110134816Y-90344806D01*
X110290854Y-90721515D01*
X110486258Y-90834137D01*
X111320395Y-90000000D01*
X111679605Y-90000000D01*
X112513742Y-90834137D01*
X112709146Y-90721515D01*
X112893217Y-90203874D01*
X112868766Y-89725302D01*
X115119000Y-89725302D01*
X115119000Y-90274698D01*
X115329245Y-90782273D01*
X115717727Y-91170755D01*
X116225302Y-91381000D01*
X116774698Y-91381000D01*
X117282273Y-91170755D01*
X117670755Y-90782273D01*
X117881000Y-90274698D01*
X117881000Y-89725302D01*
X117670755Y-89217727D01*
X117282273Y-88829245D01*
X116774698Y-88619000D01*
X116225302Y-88619000D01*
X115717727Y-88829245D01*
X115329245Y-89217727D01*
X115119000Y-89725302D01*
X112868766Y-89725302D01*
X112865184Y-89655194D01*
X112709146Y-89278485D01*
X112513742Y-89165863D01*
X111679605Y-90000000D01*
X111320395Y-90000000D01*
X110486258Y-89165863D01*
X110290854Y-89278485D01*
X110106783Y-89796126D01*
X85881000Y-89796126D01*
X85881000Y-88986258D01*
X110665863Y-88986258D01*
X111500000Y-89820395D01*
X112334137Y-88986258D01*
X112221515Y-88790854D01*
X111703874Y-88606783D01*
X111155194Y-88634816D01*
X110778485Y-88790854D01*
X110665863Y-88986258D01*
X85881000Y-88986258D01*
X85881000Y-86364921D01*
X86364922Y-85881000D01*
X89413237Y-85881000D01*
X89500000Y-85898258D01*
X89586763Y-85881000D01*
X89586767Y-85881000D01*
X89843749Y-85829883D01*
X90135165Y-85635165D01*
X90184316Y-85561605D01*
X90614922Y-85131000D01*
X91675242Y-85131000D01*
X91756983Y-85097142D01*
X91843749Y-85079883D01*
X91917305Y-85030735D01*
X91999047Y-84996876D01*
X92061610Y-84934313D01*
X92135165Y-84885165D01*
X92184313Y-84811610D01*
X92214923Y-84781000D01*
X95530053Y-84781000D01*
X96255524Y-85506472D01*
X96219000Y-85594649D01*
X96219000Y-85905351D01*
X96337900Y-86192401D01*
X96557599Y-86412100D01*
X96844649Y-86531000D01*
X97155351Y-86531000D01*
X97442401Y-86412100D01*
X97662100Y-86192401D01*
X97781000Y-85905351D01*
X97781000Y-85594649D01*
X97662100Y-85307599D01*
X97442401Y-85087900D01*
X97265625Y-85014677D01*
X96162452Y-83911505D01*
X96132829Y-83867171D01*
X95957186Y-83749810D01*
X95802294Y-83719000D01*
X95802290Y-83719000D01*
X95750000Y-83708599D01*
X95697710Y-83719000D01*
X92214923Y-83719000D01*
X92184313Y-83688390D01*
X92135165Y-83614835D01*
X92061610Y-83565687D01*
X91999047Y-83503124D01*
X91917305Y-83469265D01*
X91843749Y-83420117D01*
X91756983Y-83402858D01*
X91675242Y-83369000D01*
X90336762Y-83369000D01*
X90249999Y-83351742D01*
X90163236Y-83369000D01*
X90074758Y-83369000D01*
X89993017Y-83402858D01*
X89906251Y-83420117D01*
X89832695Y-83469265D01*
X89750953Y-83503124D01*
X89688390Y-83565687D01*
X89614835Y-83614835D01*
X89565687Y-83688390D01*
X89503124Y-83750953D01*
X89503123Y-83750955D01*
X89135079Y-84119000D01*
X86086767Y-84119000D01*
X86000000Y-84101741D01*
X85913233Y-84119000D01*
X85656251Y-84170117D01*
X85364835Y-84364835D01*
X85315685Y-84438393D01*
X84438393Y-85315686D01*
X84364836Y-85364835D01*
X84315686Y-85438393D01*
X84170117Y-85656252D01*
X84101742Y-86000000D01*
X84119001Y-86086768D01*
X84119000Y-94635078D01*
X83385079Y-95369000D01*
X81036762Y-95369000D01*
X80949999Y-95351742D01*
X80863237Y-95369000D01*
X80000000Y-95369000D01*
X79854198Y-95398002D01*
X79730592Y-95480592D01*
X79648002Y-95604198D01*
X79619000Y-95750000D01*
X60104501Y-95750000D01*
X59596877Y-95242376D01*
X59531000Y-95083336D01*
X59531000Y-92073500D01*
X60757623Y-90846877D01*
X60999047Y-90746876D01*
X61246876Y-90499047D01*
X61381000Y-90175242D01*
X61381000Y-89824758D01*
X61246876Y-89500953D01*
X60999047Y-89253124D01*
X60675242Y-89119000D01*
X60324758Y-89119000D01*
X60000953Y-89253124D01*
X59753124Y-89500953D01*
X59653123Y-89742377D01*
X58252139Y-91143361D01*
X58186932Y-91186931D01*
X58143362Y-91252138D01*
X58143361Y-91252139D01*
X58014315Y-91445270D01*
X57953701Y-91750000D01*
X57969001Y-91826919D01*
X57969000Y-95083336D01*
X57869000Y-95324758D01*
X49495153Y-95324758D01*
X49040000Y-94869605D01*
X48423483Y-95486122D01*
X47473780Y-95486122D01*
X47416428Y-95347663D01*
X47112337Y-95043572D01*
X46715024Y-94879000D01*
X46284976Y-94879000D01*
X45887663Y-95043572D01*
X45583572Y-95347663D01*
X45419000Y-95744976D01*
X35631000Y-95744976D01*
X35631000Y-94557907D01*
X47945765Y-94557907D01*
X47978509Y-94986707D01*
X48079609Y-95230784D01*
X48243878Y-95306517D01*
X48860395Y-94690000D01*
X49219605Y-94690000D01*
X49836122Y-95306517D01*
X50000391Y-95230784D01*
X50134235Y-94822093D01*
X50101491Y-94393293D01*
X50000391Y-94149216D01*
X49836122Y-94073483D01*
X49219605Y-94690000D01*
X48860395Y-94690000D01*
X48243878Y-94073483D01*
X48079609Y-94149216D01*
X47945765Y-94557907D01*
X35631000Y-94557907D01*
X35631000Y-93204976D01*
X45419000Y-93204976D01*
X45419000Y-93635024D01*
X45583572Y-94032337D01*
X45887663Y-94336428D01*
X46284976Y-94501000D01*
X46715024Y-94501000D01*
X47112337Y-94336428D01*
X47416428Y-94032337D01*
X47473779Y-93893878D01*
X48423483Y-93893878D01*
X49040000Y-94510395D01*
X49656517Y-93893878D01*
X49580784Y-93729609D01*
X49172093Y-93595765D01*
X48743293Y-93628509D01*
X48499216Y-93729609D01*
X48423483Y-93893878D01*
X47473779Y-93893878D01*
X47581000Y-93635024D01*
X47581000Y-93204976D01*
X47416428Y-92807663D01*
X47112337Y-92503572D01*
X46715024Y-92339000D01*
X46284976Y-92339000D01*
X45887663Y-92503572D01*
X45583572Y-92807663D01*
X45419000Y-93204976D01*
X35631000Y-93204976D01*
X35631000Y-91934976D01*
X47959000Y-91934976D01*
X47959000Y-92365024D01*
X48123572Y-92762337D01*
X48427663Y-93066428D01*
X48824976Y-93231000D01*
X49255024Y-93231000D01*
X49652337Y-93066428D01*
X49956428Y-92762337D01*
X50121000Y-92365024D01*
X50121000Y-91934976D01*
X49956428Y-91537663D01*
X49652337Y-91233572D01*
X49255024Y-91069000D01*
X48824976Y-91069000D01*
X48427663Y-91233572D01*
X48123572Y-91537663D01*
X47959000Y-91934976D01*
X35631000Y-91934976D01*
X35631000Y-79750000D01*
X35869000Y-79750000D01*
X35869000Y-82250000D01*
X35898002Y-82395802D01*
X35980592Y-82519408D01*
X36104198Y-82601998D01*
X36250000Y-82631000D01*
X48119000Y-82631000D01*
X48119000Y-86500000D01*
X48148002Y-86645802D01*
X48230592Y-86769408D01*
X48354198Y-86851998D01*
X48500000Y-86881000D01*
X53250000Y-86881000D01*
X53395802Y-86851998D01*
X53519408Y-86769408D01*
X53601998Y-86645802D01*
X53631000Y-86500000D01*
X53631000Y-84750000D01*
X53601998Y-84604198D01*
X53519408Y-84480592D01*
X53395802Y-84398002D01*
X53250000Y-84369000D01*
X50881000Y-84369000D01*
X50881000Y-79827477D01*
X53419000Y-79827477D01*
X53419000Y-81172523D01*
X53933726Y-82415183D01*
X54884817Y-83366274D01*
X56127477Y-83881000D01*
X57472523Y-83881000D01*
X58715183Y-83366274D01*
X59666274Y-82415183D01*
X60181000Y-81172523D01*
X60181000Y-79827477D01*
X60148909Y-79750000D01*
X60369000Y-79750000D01*
X60369000Y-86500000D01*
X60398002Y-86645802D01*
X60480592Y-86769408D01*
X60604198Y-86851998D01*
X60750000Y-86881000D01*
X63000000Y-86881000D01*
X63145802Y-86851998D01*
X63269408Y-86769408D01*
X63351998Y-86645802D01*
X63381000Y-86500000D01*
X63381000Y-82631000D01*
X71092184Y-82631000D01*
X71619000Y-83157816D01*
X71619000Y-88750000D01*
X71648002Y-88895802D01*
X71730592Y-89019408D01*
X71854198Y-89101998D01*
X72000000Y-89131000D01*
X74250000Y-89131000D01*
X74395802Y-89101998D01*
X74519408Y-89019408D01*
X74601998Y-88895802D01*
X74631000Y-88750000D01*
X74631000Y-81500000D01*
X74601998Y-81354198D01*
X74519408Y-81230592D01*
X72769408Y-79480592D01*
X72645802Y-79398002D01*
X72500000Y-79369000D01*
X60750000Y-79369000D01*
X60604198Y-79398002D01*
X60480592Y-79480592D01*
X60398002Y-79604198D01*
X60369000Y-79750000D01*
X60148909Y-79750000D01*
X59666274Y-78584817D01*
X58715183Y-77633726D01*
X57472523Y-77119000D01*
X56127477Y-77119000D01*
X54884817Y-77633726D01*
X53933726Y-78584817D01*
X53419000Y-79827477D01*
X50881000Y-79827477D01*
X50881000Y-79750000D01*
X50851998Y-79604198D01*
X50769408Y-79480592D01*
X50645802Y-79398002D01*
X50500000Y-79369000D01*
X36250000Y-79369000D01*
X36104198Y-79398002D01*
X35980592Y-79480592D01*
X35898002Y-79604198D01*
X35869000Y-79750000D01*
X35631000Y-79750000D01*
X35631000Y-72050000D01*
X39211536Y-72050000D01*
X39211536Y-74350000D01*
X39275360Y-74670866D01*
X39457116Y-74942884D01*
X39729134Y-75124640D01*
X40050000Y-75188464D01*
X40950000Y-75188464D01*
X41270866Y-75124640D01*
X41542884Y-74942884D01*
X41724640Y-74670866D01*
X41788464Y-74350000D01*
X41788464Y-72050000D01*
X46211536Y-72050000D01*
X46211536Y-74350000D01*
X46275360Y-74670866D01*
X46457116Y-74942884D01*
X46729134Y-75124640D01*
X47050000Y-75188464D01*
X47950000Y-75188464D01*
X48270866Y-75124640D01*
X48542884Y-74942884D01*
X48724640Y-74670866D01*
X48788464Y-74350000D01*
X48788464Y-72050000D01*
X53211536Y-72050000D01*
X53211536Y-74350000D01*
X53275360Y-74670866D01*
X53457116Y-74942884D01*
X53729134Y-75124640D01*
X54050000Y-75188464D01*
X54950000Y-75188464D01*
X55270866Y-75124640D01*
X55542884Y-74942884D01*
X55724640Y-74670866D01*
X55788464Y-74350000D01*
X55788464Y-72050000D01*
X60211536Y-72050000D01*
X60211536Y-74350000D01*
X60275360Y-74670866D01*
X60457116Y-74942884D01*
X60729134Y-75124640D01*
X61050000Y-75188464D01*
X61950000Y-75188464D01*
X62270866Y-75124640D01*
X62542884Y-74942884D01*
X62724640Y-74670866D01*
X62788464Y-74350000D01*
X62788464Y-72050000D01*
X67211536Y-72050000D01*
X67211536Y-74350000D01*
X67275360Y-74670866D01*
X67457116Y-74942884D01*
X67729134Y-75124640D01*
X68050000Y-75188464D01*
X68950000Y-75188464D01*
X69270866Y-75124640D01*
X69542884Y-74942884D01*
X69724640Y-74670866D01*
X69788464Y-74350000D01*
X69788464Y-72050000D01*
X74211536Y-72050000D01*
X74211536Y-74350000D01*
X74275360Y-74670866D01*
X74457116Y-74942884D01*
X74729134Y-75124640D01*
X75050000Y-75188464D01*
X75950000Y-75188464D01*
X76270866Y-75124640D01*
X76542884Y-74942884D01*
X76724640Y-74670866D01*
X76788464Y-74350000D01*
X76788464Y-72050000D01*
X81211536Y-72050000D01*
X81211536Y-74350000D01*
X81275360Y-74670866D01*
X81457116Y-74942884D01*
X81729134Y-75124640D01*
X82050000Y-75188464D01*
X82950000Y-75188464D01*
X83270866Y-75124640D01*
X83542884Y-74942884D01*
X83724640Y-74670866D01*
X83788464Y-74350000D01*
X83788464Y-72050000D01*
X83724640Y-71729134D01*
X83542884Y-71457116D01*
X83270866Y-71275360D01*
X82950000Y-71211536D01*
X82050000Y-71211536D01*
X81729134Y-71275360D01*
X81457116Y-71457116D01*
X81275360Y-71729134D01*
X81211536Y-72050000D01*
X76788464Y-72050000D01*
X76724640Y-71729134D01*
X76542884Y-71457116D01*
X76270866Y-71275360D01*
X75950000Y-71211536D01*
X75050000Y-71211536D01*
X74729134Y-71275360D01*
X74457116Y-71457116D01*
X74275360Y-71729134D01*
X74211536Y-72050000D01*
X69788464Y-72050000D01*
X69724640Y-71729134D01*
X69542884Y-71457116D01*
X69270866Y-71275360D01*
X68950000Y-71211536D01*
X68050000Y-71211536D01*
X67729134Y-71275360D01*
X67457116Y-71457116D01*
X67275360Y-71729134D01*
X67211536Y-72050000D01*
X62788464Y-72050000D01*
X62724640Y-71729134D01*
X62542884Y-71457116D01*
X62270866Y-71275360D01*
X61950000Y-71211536D01*
X61050000Y-71211536D01*
X60729134Y-71275360D01*
X60457116Y-71457116D01*
X60275360Y-71729134D01*
X60211536Y-72050000D01*
X55788464Y-72050000D01*
X55724640Y-71729134D01*
X55542884Y-71457116D01*
X55270866Y-71275360D01*
X54950000Y-71211536D01*
X54050000Y-71211536D01*
X53729134Y-71275360D01*
X53457116Y-71457116D01*
X53275360Y-71729134D01*
X53211536Y-72050000D01*
X48788464Y-72050000D01*
X48724640Y-71729134D01*
X48542884Y-71457116D01*
X48270866Y-71275360D01*
X47950000Y-71211536D01*
X47050000Y-71211536D01*
X46729134Y-71275360D01*
X46457116Y-71457116D01*
X46275360Y-71729134D01*
X46211536Y-72050000D01*
X41788464Y-72050000D01*
X41724640Y-71729134D01*
X41542884Y-71457116D01*
X41270866Y-71275360D01*
X40950000Y-71211536D01*
X40050000Y-71211536D01*
X39729134Y-71275360D01*
X39457116Y-71457116D01*
X39275360Y-71729134D01*
X39211536Y-72050000D01*
X35631000Y-72050000D01*
X35631000Y-69722250D01*
X42019000Y-69722250D01*
X42019000Y-70575786D01*
X42077004Y-70715820D01*
X42184181Y-70822996D01*
X42324215Y-70881000D01*
X43777750Y-70881000D01*
X43873000Y-70785750D01*
X43873000Y-69627000D01*
X44127000Y-69627000D01*
X44127000Y-70785750D01*
X44222250Y-70881000D01*
X45675785Y-70881000D01*
X45815819Y-70822996D01*
X45922996Y-70715820D01*
X45981000Y-70575786D01*
X45981000Y-69722250D01*
X56019000Y-69722250D01*
X56019000Y-70575786D01*
X56077004Y-70715820D01*
X56184181Y-70822996D01*
X56324215Y-70881000D01*
X57777750Y-70881000D01*
X57873000Y-70785750D01*
X57873000Y-69627000D01*
X58127000Y-69627000D01*
X58127000Y-70785750D01*
X58222250Y-70881000D01*
X59675785Y-70881000D01*
X59815819Y-70822996D01*
X59922996Y-70715820D01*
X59981000Y-70575786D01*
X59981000Y-69722250D01*
X70019000Y-69722250D01*
X70019000Y-70575786D01*
X70077004Y-70715820D01*
X70184181Y-70822996D01*
X70324215Y-70881000D01*
X71777750Y-70881000D01*
X71873000Y-70785750D01*
X71873000Y-69627000D01*
X72127000Y-69627000D01*
X72127000Y-70785750D01*
X72222250Y-70881000D01*
X73675785Y-70881000D01*
X73815819Y-70822996D01*
X73922996Y-70715820D01*
X73981000Y-70575786D01*
X73981000Y-69722250D01*
X84019000Y-69722250D01*
X84019000Y-70575786D01*
X84077004Y-70715820D01*
X84184181Y-70822996D01*
X84324215Y-70881000D01*
X85777750Y-70881000D01*
X85873000Y-70785750D01*
X85873000Y-69627000D01*
X86127000Y-69627000D01*
X86127000Y-70785750D01*
X86222250Y-70881000D01*
X87675785Y-70881000D01*
X87815819Y-70822996D01*
X87922996Y-70715820D01*
X87981000Y-70575786D01*
X87981000Y-69722250D01*
X87885750Y-69627000D01*
X86127000Y-69627000D01*
X85873000Y-69627000D01*
X84114250Y-69627000D01*
X84019000Y-69722250D01*
X73981000Y-69722250D01*
X73885750Y-69627000D01*
X72127000Y-69627000D01*
X71873000Y-69627000D01*
X70114250Y-69627000D01*
X70019000Y-69722250D01*
X59981000Y-69722250D01*
X59885750Y-69627000D01*
X58127000Y-69627000D01*
X57873000Y-69627000D01*
X56114250Y-69627000D01*
X56019000Y-69722250D01*
X45981000Y-69722250D01*
X45885750Y-69627000D01*
X44127000Y-69627000D01*
X43873000Y-69627000D01*
X42114250Y-69627000D01*
X42019000Y-69722250D01*
X35631000Y-69722250D01*
X35631000Y-68424214D01*
X42019000Y-68424214D01*
X42019000Y-69277750D01*
X42114250Y-69373000D01*
X43873000Y-69373000D01*
X43873000Y-68214250D01*
X44127000Y-68214250D01*
X44127000Y-69373000D01*
X45885750Y-69373000D01*
X45981000Y-69277750D01*
X45981000Y-68424214D01*
X56019000Y-68424214D01*
X56019000Y-69277750D01*
X56114250Y-69373000D01*
X57873000Y-69373000D01*
X57873000Y-68214250D01*
X58127000Y-68214250D01*
X58127000Y-69373000D01*
X59885750Y-69373000D01*
X59981000Y-69277750D01*
X59981000Y-68424214D01*
X70019000Y-68424214D01*
X70019000Y-69277750D01*
X70114250Y-69373000D01*
X71873000Y-69373000D01*
X71873000Y-68214250D01*
X72127000Y-68214250D01*
X72127000Y-69373000D01*
X73885750Y-69373000D01*
X73981000Y-69277750D01*
X73981000Y-68424214D01*
X84019000Y-68424214D01*
X84019000Y-69277750D01*
X84114250Y-69373000D01*
X85873000Y-69373000D01*
X85873000Y-68214250D01*
X86127000Y-68214250D01*
X86127000Y-69373000D01*
X87885750Y-69373000D01*
X87981000Y-69277750D01*
X87981000Y-68424214D01*
X87922996Y-68284180D01*
X87815819Y-68177004D01*
X87675785Y-68119000D01*
X86222250Y-68119000D01*
X86127000Y-68214250D01*
X85873000Y-68214250D01*
X85777750Y-68119000D01*
X84324215Y-68119000D01*
X84184181Y-68177004D01*
X84077004Y-68284180D01*
X84019000Y-68424214D01*
X73981000Y-68424214D01*
X73922996Y-68284180D01*
X73815819Y-68177004D01*
X73675785Y-68119000D01*
X72222250Y-68119000D01*
X72127000Y-68214250D01*
X71873000Y-68214250D01*
X71777750Y-68119000D01*
X70324215Y-68119000D01*
X70184181Y-68177004D01*
X70077004Y-68284180D01*
X70019000Y-68424214D01*
X59981000Y-68424214D01*
X59922996Y-68284180D01*
X59815819Y-68177004D01*
X59675785Y-68119000D01*
X58222250Y-68119000D01*
X58127000Y-68214250D01*
X57873000Y-68214250D01*
X57777750Y-68119000D01*
X56324215Y-68119000D01*
X56184181Y-68177004D01*
X56077004Y-68284180D01*
X56019000Y-68424214D01*
X45981000Y-68424214D01*
X45922996Y-68284180D01*
X45815819Y-68177004D01*
X45675785Y-68119000D01*
X44222250Y-68119000D01*
X44127000Y-68214250D01*
X43873000Y-68214250D01*
X43777750Y-68119000D01*
X42324215Y-68119000D01*
X42184181Y-68177004D01*
X42077004Y-68284180D01*
X42019000Y-68424214D01*
X35631000Y-68424214D01*
X35631000Y-68364921D01*
X36114922Y-67881000D01*
X90130079Y-67881000D01*
X90869000Y-68619922D01*
X90869001Y-74635077D01*
X90385079Y-75119000D01*
X90279307Y-75119000D01*
X90542884Y-74942884D01*
X90724640Y-74670866D01*
X90788464Y-74350000D01*
X90788464Y-72050000D01*
X90724640Y-71729134D01*
X90542884Y-71457116D01*
X90270866Y-71275360D01*
X89950000Y-71211536D01*
X89050000Y-71211536D01*
X88729134Y-71275360D01*
X88457116Y-71457116D01*
X88275360Y-71729134D01*
X88211536Y-72050000D01*
X88211536Y-74350000D01*
X88275360Y-74670866D01*
X88457116Y-74942884D01*
X88720693Y-75119000D01*
X85836767Y-75119000D01*
X85750000Y-75101741D01*
X85663233Y-75119000D01*
X85406251Y-75170117D01*
X85114835Y-75364835D01*
X85065685Y-75438393D01*
X81438396Y-79065683D01*
X81364835Y-79114835D01*
X81170117Y-79406252D01*
X81119000Y-79663234D01*
X81119000Y-79663237D01*
X81101742Y-79750000D01*
X81119000Y-79836763D01*
X81119001Y-91874756D01*
X81119000Y-91874758D01*
X81119000Y-92225242D01*
X81119001Y-92225244D01*
X81119000Y-93274758D01*
X81119000Y-93625242D01*
X81152859Y-93706984D01*
X81170117Y-93793748D01*
X81219264Y-93867303D01*
X81253124Y-93949047D01*
X81315688Y-94011611D01*
X81364835Y-94085165D01*
X81438390Y-94134313D01*
X81500953Y-94196876D01*
X81582695Y-94230735D01*
X81656251Y-94279883D01*
X81743017Y-94297142D01*
X81824758Y-94331000D01*
X81913233Y-94331000D01*
X82000000Y-94348259D01*
X82086767Y-94331000D01*
X82175242Y-94331000D01*
X82256984Y-94297142D01*
X82343748Y-94279883D01*
X82417303Y-94230736D01*
X82499047Y-94196876D01*
X82561611Y-94134312D01*
X82635165Y-94085165D01*
X82684313Y-94011610D01*
X82746876Y-93949047D01*
X82780735Y-93867305D01*
X82829883Y-93793749D01*
X82847142Y-93706983D01*
X82881000Y-93625242D01*
X82881000Y-80114921D01*
X83168444Y-79827477D01*
X84619000Y-79827477D01*
X84619000Y-81172523D01*
X85133726Y-82415183D01*
X86084817Y-83366274D01*
X87327477Y-83881000D01*
X88672523Y-83881000D01*
X89915183Y-83366274D01*
X90866274Y-82415183D01*
X91381000Y-81172523D01*
X91381000Y-79827477D01*
X90866274Y-78584817D01*
X89915183Y-77633726D01*
X88672523Y-77119000D01*
X87327477Y-77119000D01*
X86084817Y-77633726D01*
X85133726Y-78584817D01*
X84619000Y-79827477D01*
X83168444Y-79827477D01*
X86114922Y-76881000D01*
X90663237Y-76881000D01*
X90750000Y-76898258D01*
X90836763Y-76881000D01*
X90836767Y-76881000D01*
X91093749Y-76829883D01*
X91385165Y-76635165D01*
X91434316Y-76561605D01*
X92311607Y-75684315D01*
X92385165Y-75635165D01*
X92579883Y-75343749D01*
X92631000Y-75086767D01*
X92648259Y-75000000D01*
X92631000Y-74913233D01*
X92631000Y-74735248D01*
X94569000Y-74735248D01*
X94569000Y-75264752D01*
X94771633Y-75753951D01*
X95146049Y-76128367D01*
X95635248Y-76331000D01*
X96164752Y-76331000D01*
X96653951Y-76128367D01*
X97028367Y-75753951D01*
X97231000Y-75264752D01*
X97231000Y-75035248D01*
X98669000Y-75035248D01*
X98669000Y-75564752D01*
X98871633Y-76053951D01*
X99246049Y-76428367D01*
X99735248Y-76631000D01*
X100264752Y-76631000D01*
X100753951Y-76428367D01*
X101128367Y-76053951D01*
X101331000Y-75564752D01*
X101331000Y-75035248D01*
X101128367Y-74546049D01*
X100753951Y-74171633D01*
X100264752Y-73969000D01*
X99735248Y-73969000D01*
X99246049Y-74171633D01*
X98871633Y-74546049D01*
X98669000Y-75035248D01*
X97231000Y-75035248D01*
X97231000Y-74735248D01*
X97028367Y-74246049D01*
X96653951Y-73871633D01*
X96164752Y-73669000D01*
X95635248Y-73669000D01*
X95146049Y-73871633D01*
X94771633Y-74246049D01*
X94569000Y-74735248D01*
X92631000Y-74735248D01*
X92631000Y-72735248D01*
X101169000Y-72735248D01*
X101169000Y-73264752D01*
X101371633Y-73753951D01*
X101746049Y-74128367D01*
X102235248Y-74331000D01*
X102764752Y-74331000D01*
X103253951Y-74128367D01*
X103628367Y-73753951D01*
X103831000Y-73264752D01*
X103831000Y-72735248D01*
X103628367Y-72246049D01*
X103253951Y-71871633D01*
X102764752Y-71669000D01*
X102235248Y-71669000D01*
X101746049Y-71871633D01*
X101371633Y-72246049D01*
X101169000Y-72735248D01*
X92631000Y-72735248D01*
X92631000Y-69265085D01*
X95819000Y-69265085D01*
X95819000Y-69734915D01*
X95998797Y-70168983D01*
X96331017Y-70501203D01*
X96765085Y-70681000D01*
X97234915Y-70681000D01*
X97668983Y-70501203D01*
X98001203Y-70168983D01*
X98181000Y-69734915D01*
X98181000Y-69265085D01*
X100819000Y-69265085D01*
X100819000Y-69734915D01*
X100998797Y-70168983D01*
X101331017Y-70501203D01*
X101765085Y-70681000D01*
X102234915Y-70681000D01*
X102668983Y-70501203D01*
X103001203Y-70168983D01*
X103181000Y-69734915D01*
X103181000Y-69265085D01*
X103001203Y-68831017D01*
X102668983Y-68498797D01*
X102234915Y-68319000D01*
X101765085Y-68319000D01*
X101331017Y-68498797D01*
X100998797Y-68831017D01*
X100819000Y-69265085D01*
X98181000Y-69265085D01*
X98001203Y-68831017D01*
X97668983Y-68498797D01*
X97234915Y-68319000D01*
X96765085Y-68319000D01*
X96331017Y-68498797D01*
X95998797Y-68831017D01*
X95819000Y-69265085D01*
X92631000Y-69265085D01*
X92631000Y-68341762D01*
X92648258Y-68254999D01*
X92631000Y-68168234D01*
X92631000Y-68168233D01*
X92579883Y-67911251D01*
X92385165Y-67619835D01*
X92311608Y-67570686D01*
X91179317Y-66438395D01*
X91130165Y-66364835D01*
X90838749Y-66170117D01*
X90581767Y-66119000D01*
X90581763Y-66119000D01*
X90495000Y-66101742D01*
X90408237Y-66119000D01*
X35836767Y-66119000D01*
X35750000Y-66101741D01*
X35663233Y-66119000D01*
X35406251Y-66170117D01*
X35114835Y-66364835D01*
X35065685Y-66438393D01*
X34188393Y-67315686D01*
X34114836Y-67364835D01*
X34065686Y-67438393D01*
X33920117Y-67656252D01*
X33851742Y-68000000D01*
X33869001Y-68086768D01*
X33869000Y-99663237D01*
X33851742Y-99750000D01*
X33869000Y-99836763D01*
X33869000Y-99836766D01*
X33920117Y-100093748D01*
X34114835Y-100385165D01*
X34188395Y-100434317D01*
X35315685Y-101561607D01*
X35364835Y-101635165D01*
X35656251Y-101829883D01*
X35913233Y-101881000D01*
X35913237Y-101881000D01*
X36000000Y-101898258D01*
X36086763Y-101881000D01*
X39385079Y-101881000D01*
X40369001Y-102864923D01*
X40369000Y-104324758D01*
X40369000Y-104675242D01*
X40402859Y-104756984D01*
X40420117Y-104843748D01*
X40469264Y-104917303D01*
X40503124Y-104999047D01*
X40565688Y-105061611D01*
X40614835Y-105135165D01*
X40688390Y-105184313D01*
X40750953Y-105246876D01*
X40832695Y-105280735D01*
X40895950Y-105323000D01*
X34500000Y-105323000D01*
X34336594Y-105355503D01*
X34198065Y-105448065D01*
X34105503Y-105586594D01*
X34073000Y-105750000D01*
X34073000Y-115000000D01*
X34081752Y-115044000D01*
X32456000Y-115044000D01*
X32456000Y-65956000D01*
X131544000Y-65956000D01*
X131544001Y-115044000D01*
X131544001Y-115044000D01*
G37*
X131544001Y-115044000D02*
X42668248Y-115044000D01*
X42677000Y-115000000D01*
X42677000Y-109827477D01*
X53419000Y-109827477D01*
X53419000Y-111172523D01*
X53933726Y-112415183D01*
X54884817Y-113366274D01*
X56127477Y-113881000D01*
X57472523Y-113881000D01*
X58715183Y-113366274D01*
X59666274Y-112415183D01*
X60181000Y-111172523D01*
X60181000Y-110627000D01*
X62579000Y-110627000D01*
X62579000Y-111027000D01*
X62694663Y-111354477D01*
X62926842Y-111612764D01*
X63198184Y-111741198D01*
X63333000Y-111675419D01*
X63333000Y-110627000D01*
X62579000Y-110627000D01*
X60181000Y-110627000D01*
X60181000Y-109973000D01*
X62579000Y-109973000D01*
X62579000Y-110373000D01*
X63333000Y-110373000D01*
X63333000Y-109324581D01*
X63587000Y-109324581D01*
X63587000Y-110373000D01*
X63607000Y-110373000D01*
X63607000Y-110627000D01*
X63587000Y-110627000D01*
X63587000Y-111675419D01*
X63721816Y-111741198D01*
X63993158Y-111612764D01*
X64081225Y-111514794D01*
X64094836Y-111535165D01*
X64386252Y-111729883D01*
X64730000Y-111798259D01*
X65073749Y-111729883D01*
X65365001Y-111535275D01*
X65656252Y-111729883D01*
X66000000Y-111798259D01*
X66343749Y-111729883D01*
X66635001Y-111535275D01*
X66926252Y-111729883D01*
X67270000Y-111798259D01*
X67613749Y-111729883D01*
X67905001Y-111535275D01*
X68196252Y-111729883D01*
X68540000Y-111798259D01*
X68883749Y-111729883D01*
X69175001Y-111535275D01*
X69466252Y-111729883D01*
X69810000Y-111798259D01*
X70153749Y-111729883D01*
X70445001Y-111535275D01*
X70736252Y-111729883D01*
X71080000Y-111798259D01*
X71423749Y-111729883D01*
X71715001Y-111535275D01*
X72006252Y-111729883D01*
X72350000Y-111798259D01*
X72693749Y-111729883D01*
X72985001Y-111535275D01*
X73276252Y-111729883D01*
X73620000Y-111798259D01*
X73963749Y-111729883D01*
X74255001Y-111535275D01*
X74546252Y-111729883D01*
X74890000Y-111798259D01*
X75233749Y-111729883D01*
X75525001Y-111535275D01*
X75816252Y-111729883D01*
X76160000Y-111798259D01*
X76503749Y-111729883D01*
X76795001Y-111535275D01*
X77086252Y-111729883D01*
X77430000Y-111798259D01*
X77773749Y-111729883D01*
X78065001Y-111535275D01*
X78356252Y-111729883D01*
X78700000Y-111798259D01*
X79043749Y-111729883D01*
X79335001Y-111535275D01*
X79626252Y-111729883D01*
X79970000Y-111798259D01*
X80313749Y-111729883D01*
X80605001Y-111535275D01*
X80896252Y-111729883D01*
X81240000Y-111798259D01*
X81583749Y-111729883D01*
X81875165Y-111535165D01*
X82069883Y-111243749D01*
X82121000Y-110986767D01*
X82121000Y-110013233D01*
X82084051Y-109827477D01*
X84619000Y-109827477D01*
X84619000Y-111172523D01*
X85133726Y-112415183D01*
X86084817Y-113366274D01*
X87327477Y-113881000D01*
X88672523Y-113881000D01*
X89915183Y-113366274D01*
X90866274Y-112415183D01*
X91381000Y-111172523D01*
X91381000Y-109827477D01*
X91143360Y-109253761D01*
X109269000Y-109253761D01*
X109269000Y-109746238D01*
X109340424Y-110105311D01*
X109612499Y-110512501D01*
X110019688Y-110784576D01*
X110500000Y-110880116D01*
X110980311Y-110784576D01*
X111387501Y-110512501D01*
X111659576Y-110105312D01*
X111731000Y-109746239D01*
X111731000Y-109253762D01*
X111731000Y-109253761D01*
X111769000Y-109253761D01*
X111769000Y-109746238D01*
X111840424Y-110105311D01*
X112112499Y-110512501D01*
X112519688Y-110784576D01*
X113000000Y-110880116D01*
X113480311Y-110784576D01*
X113887501Y-110512501D01*
X114159576Y-110105312D01*
X114216421Y-109819530D01*
X114284570Y-109819530D01*
X114451533Y-110269847D01*
X114778115Y-110621992D01*
X115183020Y-110814489D01*
X115373000Y-110753627D01*
X115373000Y-109627000D01*
X115627000Y-109627000D01*
X115627000Y-110753627D01*
X115816980Y-110814489D01*
X116221885Y-110621992D01*
X116548467Y-110269847D01*
X116715430Y-109819530D01*
X116635647Y-109627000D01*
X115627000Y-109627000D01*
X115373000Y-109627000D01*
X114364353Y-109627000D01*
X114284570Y-109819530D01*
X114216421Y-109819530D01*
X114231000Y-109746239D01*
X114231000Y-109253762D01*
X114216422Y-109180470D01*
X114284570Y-109180470D01*
X114364353Y-109373000D01*
X115373000Y-109373000D01*
X115373000Y-108246373D01*
X115627000Y-108246373D01*
X115627000Y-109373000D01*
X116635647Y-109373000D01*
X116715430Y-109180470D01*
X116548467Y-108730153D01*
X116221885Y-108378008D01*
X115816980Y-108185511D01*
X115627000Y-108246373D01*
X115373000Y-108246373D01*
X115183020Y-108185511D01*
X114778115Y-108378008D01*
X114451533Y-108730153D01*
X114284570Y-109180470D01*
X114216422Y-109180470D01*
X114159576Y-108894689D01*
X113887501Y-108487499D01*
X113480312Y-108215424D01*
X113000000Y-108119884D01*
X112519689Y-108215424D01*
X112112500Y-108487499D01*
X111840424Y-108894688D01*
X111769000Y-109253761D01*
X111731000Y-109253761D01*
X111659576Y-108894689D01*
X111387501Y-108487499D01*
X110980312Y-108215424D01*
X110500000Y-108119884D01*
X110019689Y-108215424D01*
X109612500Y-108487499D01*
X109340424Y-108894688D01*
X109269000Y-109253761D01*
X91143360Y-109253761D01*
X90866274Y-108584817D01*
X89915183Y-107633726D01*
X88672523Y-107119000D01*
X87327477Y-107119000D01*
X86084817Y-107633726D01*
X85133726Y-108584817D01*
X84619000Y-109827477D01*
X82084051Y-109827477D01*
X82069883Y-109756251D01*
X81875165Y-109464835D01*
X81583748Y-109270117D01*
X81240000Y-109201741D01*
X80896251Y-109270117D01*
X80605000Y-109464725D01*
X80313748Y-109270117D01*
X79970000Y-109201741D01*
X79626251Y-109270117D01*
X79335000Y-109464725D01*
X79043748Y-109270117D01*
X78700000Y-109201741D01*
X78356251Y-109270117D01*
X78065000Y-109464725D01*
X77773748Y-109270117D01*
X77430000Y-109201741D01*
X77086251Y-109270117D01*
X76795000Y-109464725D01*
X76503748Y-109270117D01*
X76160000Y-109201741D01*
X75816251Y-109270117D01*
X75525000Y-109464725D01*
X75233748Y-109270117D01*
X74890000Y-109201741D01*
X74546251Y-109270117D01*
X74255000Y-109464725D01*
X73963748Y-109270117D01*
X73620000Y-109201741D01*
X73276251Y-109270117D01*
X72985000Y-109464725D01*
X72693748Y-109270117D01*
X72350000Y-109201741D01*
X72006251Y-109270117D01*
X71715000Y-109464725D01*
X71423748Y-109270117D01*
X71080000Y-109201741D01*
X70736251Y-109270117D01*
X70445000Y-109464725D01*
X70153748Y-109270117D01*
X69810000Y-109201741D01*
X69466251Y-109270117D01*
X69175000Y-109464725D01*
X68883748Y-109270117D01*
X68540000Y-109201741D01*
X68196251Y-109270117D01*
X67905000Y-109464725D01*
X67613748Y-109270117D01*
X67270000Y-109201741D01*
X66926251Y-109270117D01*
X66635000Y-109464725D01*
X66343748Y-109270117D01*
X66000000Y-109201741D01*
X65656251Y-109270117D01*
X65365000Y-109464725D01*
X65073748Y-109270117D01*
X64730000Y-109201741D01*
X64386251Y-109270117D01*
X64094835Y-109464835D01*
X64081224Y-109485205D01*
X63993158Y-109387236D01*
X63721816Y-109258802D01*
X63587000Y-109324581D01*
X63333000Y-109324581D01*
X63198184Y-109258802D01*
X62926842Y-109387236D01*
X62694663Y-109645523D01*
X62579000Y-109973000D01*
X60181000Y-109973000D01*
X60181000Y-109827477D01*
X59666274Y-108584817D01*
X58715183Y-107633726D01*
X57472523Y-107119000D01*
X56127477Y-107119000D01*
X54884817Y-107633726D01*
X53933726Y-108584817D01*
X53419000Y-109827477D01*
X42677000Y-109827477D01*
X42677000Y-106820039D01*
X96779388Y-106820039D01*
X96937373Y-107274204D01*
X97257133Y-107633339D01*
X97683020Y-107839489D01*
X97873000Y-107778627D01*
X97873000Y-106627000D01*
X98127000Y-106627000D01*
X98127000Y-107778627D01*
X98316980Y-107839489D01*
X98742867Y-107633339D01*
X99062627Y-107274204D01*
X99220612Y-106820039D01*
X99136934Y-106627000D01*
X98127000Y-106627000D01*
X97873000Y-106627000D01*
X96863066Y-106627000D01*
X96779388Y-106820039D01*
X42677000Y-106820039D01*
X42677000Y-105750000D01*
X42644497Y-105586594D01*
X42551935Y-105448065D01*
X42413406Y-105355503D01*
X42250000Y-105323000D01*
X41604049Y-105323000D01*
X41667303Y-105280736D01*
X41749047Y-105246876D01*
X41811611Y-105184312D01*
X41885165Y-105135165D01*
X41934313Y-105061610D01*
X41996876Y-104999047D01*
X42030735Y-104917305D01*
X42079883Y-104843749D01*
X42097142Y-104756983D01*
X42131000Y-104675242D01*
X42131000Y-102586761D01*
X42148258Y-102499999D01*
X42131000Y-102413238D01*
X42131000Y-102413233D01*
X42079883Y-102156251D01*
X41885165Y-101864835D01*
X41811607Y-101815685D01*
X40434317Y-100438395D01*
X40385165Y-100364835D01*
X40093749Y-100170117D01*
X39836767Y-100119000D01*
X39836763Y-100119000D01*
X39750000Y-100101742D01*
X39663237Y-100119000D01*
X36364922Y-100119000D01*
X35920952Y-99675030D01*
X47169000Y-99675030D01*
X47169000Y-100124970D01*
X47341184Y-100540660D01*
X47659340Y-100858816D01*
X48075030Y-101031000D01*
X48524970Y-101031000D01*
X48940660Y-100858816D01*
X49258816Y-100540660D01*
X49431000Y-100124970D01*
X49431000Y-99675030D01*
X49258816Y-99259340D01*
X48940660Y-98941184D01*
X48524970Y-98769000D01*
X48075030Y-98769000D01*
X47659340Y-98941184D01*
X47341184Y-99259340D01*
X47169000Y-99675030D01*
X35920952Y-99675030D01*
X35631000Y-99385079D01*
X35631000Y-98284976D01*
X45419000Y-98284976D01*
X45419000Y-98715024D01*
X45583572Y-99112337D01*
X45887663Y-99416428D01*
X46284976Y-99581000D01*
X46715024Y-99581000D01*
X47112337Y-99416428D01*
X47416428Y-99112337D01*
X47581000Y-98715024D01*
X47581000Y-98284976D01*
X47416428Y-97887663D01*
X47112337Y-97583572D01*
X46715024Y-97419000D01*
X46284976Y-97419000D01*
X45887663Y-97583572D01*
X45583572Y-97887663D01*
X45419000Y-98284976D01*
X35631000Y-98284976D01*
X35631000Y-95744976D01*
X45419000Y-95744976D01*
X45419000Y-96175024D01*
X45583572Y-96572337D01*
X45887663Y-96876428D01*
X46284976Y-97041000D01*
X46715024Y-97041000D01*
X46777851Y-97014976D01*
X47959000Y-97014976D01*
X47959000Y-97445024D01*
X48123572Y-97842337D01*
X48427663Y-98146428D01*
X48824976Y-98311000D01*
X49255024Y-98311000D01*
X49652337Y-98146428D01*
X49956428Y-97842337D01*
X50121000Y-97445024D01*
X50121000Y-97014976D01*
X49956428Y-96617663D01*
X49652337Y-96313572D01*
X49255024Y-96149000D01*
X48824976Y-96149000D01*
X48427663Y-96313572D01*
X48123572Y-96617663D01*
X47959000Y-97014976D01*
X46777851Y-97014976D01*
X47112337Y-96876428D01*
X47416428Y-96572337D01*
X47581000Y-96175024D01*
X47581000Y-95744976D01*
X47473780Y-95486122D01*
X48423483Y-95486122D01*
X48499216Y-95650391D01*
X48907907Y-95784235D01*
X49336707Y-95751491D01*
X49580784Y-95650391D01*
X49656517Y-95486122D01*
X49495153Y-95324758D01*
X57869000Y-95324758D01*
X57869000Y-95675242D01*
X58003124Y-95999047D01*
X58250953Y-96246876D01*
X58492376Y-96346877D01*
X61219001Y-99073502D01*
X61219000Y-104983336D01*
X61119000Y-105224758D01*
X61119000Y-105575242D01*
X61253124Y-105899047D01*
X61500953Y-106146876D01*
X61824758Y-106281000D01*
X62175242Y-106281000D01*
X62419172Y-106179961D01*
X96779388Y-106179961D01*
X96863066Y-106373000D01*
X97873000Y-106373000D01*
X97873000Y-105221373D01*
X98127000Y-105221373D01*
X98127000Y-106373000D01*
X99136934Y-106373000D01*
X99220612Y-106179961D01*
X99071047Y-105750000D01*
X99261536Y-105750000D01*
X99261536Y-107250000D01*
X99310136Y-107494330D01*
X99448538Y-107701462D01*
X99655670Y-107839864D01*
X99900000Y-107888464D01*
X101100000Y-107888464D01*
X101344330Y-107839864D01*
X101551462Y-107701462D01*
X101689864Y-107494330D01*
X101738464Y-107250000D01*
X101738464Y-105750000D01*
X101689864Y-105505670D01*
X101551462Y-105298538D01*
X101344330Y-105160136D01*
X101100000Y-105111536D01*
X99900000Y-105111536D01*
X99655670Y-105160136D01*
X99448538Y-105298538D01*
X99310136Y-105505670D01*
X99261536Y-105750000D01*
X99071047Y-105750000D01*
X99062627Y-105725796D01*
X98742867Y-105366661D01*
X98316980Y-105160511D01*
X98127000Y-105221373D01*
X97873000Y-105221373D01*
X97683020Y-105160511D01*
X97257133Y-105366661D01*
X96937373Y-105725796D01*
X96779388Y-106179961D01*
X62419172Y-106179961D01*
X62499047Y-106146876D01*
X62746876Y-105899047D01*
X62881000Y-105575242D01*
X62881000Y-105224758D01*
X62781000Y-104983336D01*
X62781000Y-103500000D01*
X110111536Y-103500000D01*
X110111536Y-105500000D01*
X110141106Y-105648659D01*
X110225314Y-105774686D01*
X110351341Y-105858894D01*
X110500000Y-105888464D01*
X112500000Y-105888464D01*
X112648659Y-105858894D01*
X112774686Y-105774686D01*
X112858894Y-105648659D01*
X112885730Y-105513742D01*
X113165863Y-105513742D01*
X113278485Y-105709146D01*
X113796126Y-105893217D01*
X114344806Y-105865184D01*
X114721515Y-105709146D01*
X114834137Y-105513742D01*
X114000000Y-104679605D01*
X113165863Y-105513742D01*
X112885730Y-105513742D01*
X112888464Y-105500000D01*
X112888464Y-105277773D01*
X112986258Y-105334137D01*
X113820395Y-104500000D01*
X114179605Y-104500000D01*
X115013742Y-105334137D01*
X115209146Y-105221515D01*
X115252998Y-105098196D01*
X115329245Y-105282273D01*
X115717727Y-105670755D01*
X116225302Y-105881000D01*
X116774698Y-105881000D01*
X117282273Y-105670755D01*
X117670755Y-105282273D01*
X117881000Y-104774698D01*
X117881000Y-104225302D01*
X117670755Y-103717727D01*
X117282273Y-103329245D01*
X116774698Y-103119000D01*
X116225302Y-103119000D01*
X115717727Y-103329245D01*
X115329245Y-103717727D01*
X115256612Y-103893078D01*
X115209146Y-103778485D01*
X115013742Y-103665863D01*
X114179605Y-104500000D01*
X113820395Y-104500000D01*
X112986258Y-103665863D01*
X112888464Y-103722227D01*
X112888464Y-103500000D01*
X112885731Y-103486258D01*
X113165863Y-103486258D01*
X114000000Y-104320395D01*
X114834137Y-103486258D01*
X114721515Y-103290854D01*
X114203874Y-103106783D01*
X113655194Y-103134816D01*
X113278485Y-103290854D01*
X113165863Y-103486258D01*
X112885731Y-103486258D01*
X112858894Y-103351341D01*
X112774686Y-103225314D01*
X112648659Y-103141106D01*
X112500000Y-103111536D01*
X110500000Y-103111536D01*
X110351341Y-103141106D01*
X110225314Y-103225314D01*
X110141106Y-103351341D01*
X110111536Y-103500000D01*
X62781000Y-103500000D01*
X62781000Y-101626119D01*
X113369000Y-101626119D01*
X113369000Y-101976603D01*
X113503124Y-102300408D01*
X113750953Y-102548237D01*
X114074758Y-102682361D01*
X114425242Y-102682361D01*
X114749047Y-102548237D01*
X114864923Y-102432361D01*
X117539993Y-102432361D01*
X118119001Y-103011370D01*
X118119000Y-105988631D01*
X117597762Y-106509870D01*
X117545075Y-106545074D01*
X117509871Y-106597761D01*
X117405611Y-106753797D01*
X117356638Y-107000000D01*
X117369001Y-107062153D01*
X117369001Y-108142702D01*
X117155670Y-108185136D01*
X116948538Y-108323538D01*
X116810136Y-108530670D01*
X116761536Y-108775000D01*
X116761536Y-110225000D01*
X116810136Y-110469330D01*
X116948538Y-110676462D01*
X117155670Y-110814864D01*
X117400000Y-110863464D01*
X118600000Y-110863464D01*
X118844330Y-110814864D01*
X119051462Y-110676462D01*
X119189864Y-110469330D01*
X119238464Y-110225000D01*
X119238464Y-108775000D01*
X119189864Y-108530670D01*
X119051462Y-108323538D01*
X118844330Y-108185136D01*
X118631000Y-108142702D01*
X118631000Y-107261368D01*
X119152239Y-106740130D01*
X119204926Y-106704926D01*
X119344389Y-106496204D01*
X119381000Y-106312148D01*
X119381000Y-106312147D01*
X119393362Y-106250001D01*
X119381000Y-106187854D01*
X119381000Y-102812146D01*
X119393362Y-102749999D01*
X119379908Y-102682361D01*
X119344389Y-102503796D01*
X119204926Y-102295074D01*
X119152238Y-102259869D01*
X118291493Y-101399125D01*
X118256287Y-101346435D01*
X118047565Y-101206972D01*
X117863509Y-101170361D01*
X117801361Y-101157999D01*
X117739213Y-101170361D01*
X114864923Y-101170361D01*
X114749047Y-101054485D01*
X114425242Y-100920361D01*
X114074758Y-100920361D01*
X113750953Y-101054485D01*
X113503124Y-101302314D01*
X113369000Y-101626119D01*
X62781000Y-101626119D01*
X62781000Y-98826913D01*
X62796299Y-98749999D01*
X62781000Y-98673085D01*
X62781000Y-98673082D01*
X62735685Y-98445269D01*
X62563069Y-98186931D01*
X62497862Y-98143361D01*
X60104501Y-95750000D01*
X79619000Y-95750000D01*
X79619000Y-99250000D01*
X79648002Y-99395802D01*
X79730592Y-99519408D01*
X79854198Y-99601998D01*
X80000000Y-99631000D01*
X81750000Y-99631000D01*
X81895802Y-99601998D01*
X82019408Y-99519408D01*
X82101998Y-99395802D01*
X82131000Y-99250000D01*
X82131000Y-97131000D01*
X83663237Y-97131000D01*
X83750000Y-97148258D01*
X83836763Y-97131000D01*
X83836767Y-97131000D01*
X84093749Y-97079883D01*
X84385165Y-96885165D01*
X84434317Y-96811605D01*
X85561608Y-95684314D01*
X85635165Y-95635165D01*
X85792297Y-95400000D01*
X107011536Y-95400000D01*
X107011536Y-98600000D01*
X107041106Y-98748659D01*
X107125314Y-98874686D01*
X107251341Y-98958894D01*
X107400000Y-98988464D01*
X109400000Y-98988464D01*
X109548659Y-98958894D01*
X109674686Y-98874686D01*
X109758894Y-98748659D01*
X109788464Y-98600000D01*
X109788464Y-95400000D01*
X118211536Y-95400000D01*
X118211536Y-98600000D01*
X118241106Y-98748659D01*
X118325314Y-98874686D01*
X118451341Y-98958894D01*
X118600000Y-98988464D01*
X120600000Y-98988464D01*
X120748659Y-98958894D01*
X120874686Y-98874686D01*
X120958894Y-98748659D01*
X120988464Y-98600000D01*
X120988464Y-95400000D01*
X120958894Y-95251341D01*
X120874686Y-95125314D01*
X120748659Y-95041106D01*
X120600000Y-95011536D01*
X118600000Y-95011536D01*
X118451341Y-95041106D01*
X118325314Y-95125314D01*
X118241106Y-95251341D01*
X118211536Y-95400000D01*
X109788464Y-95400000D01*
X109758894Y-95251341D01*
X109674686Y-95125314D01*
X109548659Y-95041106D01*
X109400000Y-95011536D01*
X107400000Y-95011536D01*
X107251341Y-95041106D01*
X107125314Y-95125314D01*
X107041106Y-95251341D01*
X107011536Y-95400000D01*
X85792297Y-95400000D01*
X85829883Y-95343749D01*
X85881000Y-95086767D01*
X85881000Y-95086763D01*
X85898258Y-95000000D01*
X85881000Y-94913237D01*
X85881000Y-91013742D01*
X110665863Y-91013742D01*
X110778485Y-91209146D01*
X111296126Y-91393217D01*
X111844806Y-91365184D01*
X112221515Y-91209146D01*
X112334137Y-91013742D01*
X111500000Y-90179605D01*
X110665863Y-91013742D01*
X85881000Y-91013742D01*
X85881000Y-89796126D01*
X110106783Y-89796126D01*
X110134816Y-90344806D01*
X110290854Y-90721515D01*
X110486258Y-90834137D01*
X111320395Y-90000000D01*
X111679605Y-90000000D01*
X112513742Y-90834137D01*
X112709146Y-90721515D01*
X112893217Y-90203874D01*
X112868766Y-89725302D01*
X115119000Y-89725302D01*
X115119000Y-90274698D01*
X115329245Y-90782273D01*
X115717727Y-91170755D01*
X116225302Y-91381000D01*
X116774698Y-91381000D01*
X117282273Y-91170755D01*
X117670755Y-90782273D01*
X117881000Y-90274698D01*
X117881000Y-89725302D01*
X117670755Y-89217727D01*
X117282273Y-88829245D01*
X116774698Y-88619000D01*
X116225302Y-88619000D01*
X115717727Y-88829245D01*
X115329245Y-89217727D01*
X115119000Y-89725302D01*
X112868766Y-89725302D01*
X112865184Y-89655194D01*
X112709146Y-89278485D01*
X112513742Y-89165863D01*
X111679605Y-90000000D01*
X111320395Y-90000000D01*
X110486258Y-89165863D01*
X110290854Y-89278485D01*
X110106783Y-89796126D01*
X85881000Y-89796126D01*
X85881000Y-88986258D01*
X110665863Y-88986258D01*
X111500000Y-89820395D01*
X112334137Y-88986258D01*
X112221515Y-88790854D01*
X111703874Y-88606783D01*
X111155194Y-88634816D01*
X110778485Y-88790854D01*
X110665863Y-88986258D01*
X85881000Y-88986258D01*
X85881000Y-86364921D01*
X86364922Y-85881000D01*
X89413237Y-85881000D01*
X89500000Y-85898258D01*
X89586763Y-85881000D01*
X89586767Y-85881000D01*
X89843749Y-85829883D01*
X90135165Y-85635165D01*
X90184316Y-85561605D01*
X90614922Y-85131000D01*
X91675242Y-85131000D01*
X91756983Y-85097142D01*
X91843749Y-85079883D01*
X91917305Y-85030735D01*
X91999047Y-84996876D01*
X92061610Y-84934313D01*
X92135165Y-84885165D01*
X92184313Y-84811610D01*
X92214923Y-84781000D01*
X95530053Y-84781000D01*
X96255524Y-85506472D01*
X96219000Y-85594649D01*
X96219000Y-85905351D01*
X96337900Y-86192401D01*
X96557599Y-86412100D01*
X96844649Y-86531000D01*
X97155351Y-86531000D01*
X97442401Y-86412100D01*
X97662100Y-86192401D01*
X97781000Y-85905351D01*
X97781000Y-85594649D01*
X97662100Y-85307599D01*
X97442401Y-85087900D01*
X97265625Y-85014677D01*
X96162452Y-83911505D01*
X96132829Y-83867171D01*
X95957186Y-83749810D01*
X95802294Y-83719000D01*
X95802290Y-83719000D01*
X95750000Y-83708599D01*
X95697710Y-83719000D01*
X92214923Y-83719000D01*
X92184313Y-83688390D01*
X92135165Y-83614835D01*
X92061610Y-83565687D01*
X91999047Y-83503124D01*
X91917305Y-83469265D01*
X91843749Y-83420117D01*
X91756983Y-83402858D01*
X91675242Y-83369000D01*
X90336762Y-83369000D01*
X90249999Y-83351742D01*
X90163236Y-83369000D01*
X90074758Y-83369000D01*
X89993017Y-83402858D01*
X89906251Y-83420117D01*
X89832695Y-83469265D01*
X89750953Y-83503124D01*
X89688390Y-83565687D01*
X89614835Y-83614835D01*
X89565687Y-83688390D01*
X89503124Y-83750953D01*
X89503123Y-83750955D01*
X89135079Y-84119000D01*
X86086767Y-84119000D01*
X86000000Y-84101741D01*
X85913233Y-84119000D01*
X85656251Y-84170117D01*
X85364835Y-84364835D01*
X85315685Y-84438393D01*
X84438393Y-85315686D01*
X84364836Y-85364835D01*
X84315686Y-85438393D01*
X84170117Y-85656252D01*
X84101742Y-86000000D01*
X84119001Y-86086768D01*
X84119000Y-94635078D01*
X83385079Y-95369000D01*
X81036762Y-95369000D01*
X80949999Y-95351742D01*
X80863237Y-95369000D01*
X80000000Y-95369000D01*
X79854198Y-95398002D01*
X79730592Y-95480592D01*
X79648002Y-95604198D01*
X79619000Y-95750000D01*
X60104501Y-95750000D01*
X59596877Y-95242376D01*
X59531000Y-95083336D01*
X59531000Y-92073500D01*
X60757623Y-90846877D01*
X60999047Y-90746876D01*
X61246876Y-90499047D01*
X61381000Y-90175242D01*
X61381000Y-89824758D01*
X61246876Y-89500953D01*
X60999047Y-89253124D01*
X60675242Y-89119000D01*
X60324758Y-89119000D01*
X60000953Y-89253124D01*
X59753124Y-89500953D01*
X59653123Y-89742377D01*
X58252139Y-91143361D01*
X58186932Y-91186931D01*
X58143362Y-91252138D01*
X58143361Y-91252139D01*
X58014315Y-91445270D01*
X57953701Y-91750000D01*
X57969001Y-91826919D01*
X57969000Y-95083336D01*
X57869000Y-95324758D01*
X49495153Y-95324758D01*
X49040000Y-94869605D01*
X48423483Y-95486122D01*
X47473780Y-95486122D01*
X47416428Y-95347663D01*
X47112337Y-95043572D01*
X46715024Y-94879000D01*
X46284976Y-94879000D01*
X45887663Y-95043572D01*
X45583572Y-95347663D01*
X45419000Y-95744976D01*
X35631000Y-95744976D01*
X35631000Y-94557907D01*
X47945765Y-94557907D01*
X47978509Y-94986707D01*
X48079609Y-95230784D01*
X48243878Y-95306517D01*
X48860395Y-94690000D01*
X49219605Y-94690000D01*
X49836122Y-95306517D01*
X50000391Y-95230784D01*
X50134235Y-94822093D01*
X50101491Y-94393293D01*
X50000391Y-94149216D01*
X49836122Y-94073483D01*
X49219605Y-94690000D01*
X48860395Y-94690000D01*
X48243878Y-94073483D01*
X48079609Y-94149216D01*
X47945765Y-94557907D01*
X35631000Y-94557907D01*
X35631000Y-93204976D01*
X45419000Y-93204976D01*
X45419000Y-93635024D01*
X45583572Y-94032337D01*
X45887663Y-94336428D01*
X46284976Y-94501000D01*
X46715024Y-94501000D01*
X47112337Y-94336428D01*
X47416428Y-94032337D01*
X47473779Y-93893878D01*
X48423483Y-93893878D01*
X49040000Y-94510395D01*
X49656517Y-93893878D01*
X49580784Y-93729609D01*
X49172093Y-93595765D01*
X48743293Y-93628509D01*
X48499216Y-93729609D01*
X48423483Y-93893878D01*
X47473779Y-93893878D01*
X47581000Y-93635024D01*
X47581000Y-93204976D01*
X47416428Y-92807663D01*
X47112337Y-92503572D01*
X46715024Y-92339000D01*
X46284976Y-92339000D01*
X45887663Y-92503572D01*
X45583572Y-92807663D01*
X45419000Y-93204976D01*
X35631000Y-93204976D01*
X35631000Y-91934976D01*
X47959000Y-91934976D01*
X47959000Y-92365024D01*
X48123572Y-92762337D01*
X48427663Y-93066428D01*
X48824976Y-93231000D01*
X49255024Y-93231000D01*
X49652337Y-93066428D01*
X49956428Y-92762337D01*
X50121000Y-92365024D01*
X50121000Y-91934976D01*
X49956428Y-91537663D01*
X49652337Y-91233572D01*
X49255024Y-91069000D01*
X48824976Y-91069000D01*
X48427663Y-91233572D01*
X48123572Y-91537663D01*
X47959000Y-91934976D01*
X35631000Y-91934976D01*
X35631000Y-79750000D01*
X35869000Y-79750000D01*
X35869000Y-82250000D01*
X35898002Y-82395802D01*
X35980592Y-82519408D01*
X36104198Y-82601998D01*
X36250000Y-82631000D01*
X48119000Y-82631000D01*
X48119000Y-86500000D01*
X48148002Y-86645802D01*
X48230592Y-86769408D01*
X48354198Y-86851998D01*
X48500000Y-86881000D01*
X53250000Y-86881000D01*
X53395802Y-86851998D01*
X53519408Y-86769408D01*
X53601998Y-86645802D01*
X53631000Y-86500000D01*
X53631000Y-84750000D01*
X53601998Y-84604198D01*
X53519408Y-84480592D01*
X53395802Y-84398002D01*
X53250000Y-84369000D01*
X50881000Y-84369000D01*
X50881000Y-79827477D01*
X53419000Y-79827477D01*
X53419000Y-81172523D01*
X53933726Y-82415183D01*
X54884817Y-83366274D01*
X56127477Y-83881000D01*
X57472523Y-83881000D01*
X58715183Y-83366274D01*
X59666274Y-82415183D01*
X60181000Y-81172523D01*
X60181000Y-79827477D01*
X60148909Y-79750000D01*
X60369000Y-79750000D01*
X60369000Y-86500000D01*
X60398002Y-86645802D01*
X60480592Y-86769408D01*
X60604198Y-86851998D01*
X60750000Y-86881000D01*
X63000000Y-86881000D01*
X63145802Y-86851998D01*
X63269408Y-86769408D01*
X63351998Y-86645802D01*
X63381000Y-86500000D01*
X63381000Y-82631000D01*
X71092184Y-82631000D01*
X71619000Y-83157816D01*
X71619000Y-88750000D01*
X71648002Y-88895802D01*
X71730592Y-89019408D01*
X71854198Y-89101998D01*
X72000000Y-89131000D01*
X74250000Y-89131000D01*
X74395802Y-89101998D01*
X74519408Y-89019408D01*
X74601998Y-88895802D01*
X74631000Y-88750000D01*
X74631000Y-81500000D01*
X74601998Y-81354198D01*
X74519408Y-81230592D01*
X72769408Y-79480592D01*
X72645802Y-79398002D01*
X72500000Y-79369000D01*
X60750000Y-79369000D01*
X60604198Y-79398002D01*
X60480592Y-79480592D01*
X60398002Y-79604198D01*
X60369000Y-79750000D01*
X60148909Y-79750000D01*
X59666274Y-78584817D01*
X58715183Y-77633726D01*
X57472523Y-77119000D01*
X56127477Y-77119000D01*
X54884817Y-77633726D01*
X53933726Y-78584817D01*
X53419000Y-79827477D01*
X50881000Y-79827477D01*
X50881000Y-79750000D01*
X50851998Y-79604198D01*
X50769408Y-79480592D01*
X50645802Y-79398002D01*
X50500000Y-79369000D01*
X36250000Y-79369000D01*
X36104198Y-79398002D01*
X35980592Y-79480592D01*
X35898002Y-79604198D01*
X35869000Y-79750000D01*
X35631000Y-79750000D01*
X35631000Y-72050000D01*
X39211536Y-72050000D01*
X39211536Y-74350000D01*
X39275360Y-74670866D01*
X39457116Y-74942884D01*
X39729134Y-75124640D01*
X40050000Y-75188464D01*
X40950000Y-75188464D01*
X41270866Y-75124640D01*
X41542884Y-74942884D01*
X41724640Y-74670866D01*
X41788464Y-74350000D01*
X41788464Y-72050000D01*
X46211536Y-72050000D01*
X46211536Y-74350000D01*
X46275360Y-74670866D01*
X46457116Y-74942884D01*
X46729134Y-75124640D01*
X47050000Y-75188464D01*
X47950000Y-75188464D01*
X48270866Y-75124640D01*
X48542884Y-74942884D01*
X48724640Y-74670866D01*
X48788464Y-74350000D01*
X48788464Y-72050000D01*
X53211536Y-72050000D01*
X53211536Y-74350000D01*
X53275360Y-74670866D01*
X53457116Y-74942884D01*
X53729134Y-75124640D01*
X54050000Y-75188464D01*
X54950000Y-75188464D01*
X55270866Y-75124640D01*
X55542884Y-74942884D01*
X55724640Y-74670866D01*
X55788464Y-74350000D01*
X55788464Y-72050000D01*
X60211536Y-72050000D01*
X60211536Y-74350000D01*
X60275360Y-74670866D01*
X60457116Y-74942884D01*
X60729134Y-75124640D01*
X61050000Y-75188464D01*
X61950000Y-75188464D01*
X62270866Y-75124640D01*
X62542884Y-74942884D01*
X62724640Y-74670866D01*
X62788464Y-74350000D01*
X62788464Y-72050000D01*
X67211536Y-72050000D01*
X67211536Y-74350000D01*
X67275360Y-74670866D01*
X67457116Y-74942884D01*
X67729134Y-75124640D01*
X68050000Y-75188464D01*
X68950000Y-75188464D01*
X69270866Y-75124640D01*
X69542884Y-74942884D01*
X69724640Y-74670866D01*
X69788464Y-74350000D01*
X69788464Y-72050000D01*
X74211536Y-72050000D01*
X74211536Y-74350000D01*
X74275360Y-74670866D01*
X74457116Y-74942884D01*
X74729134Y-75124640D01*
X75050000Y-75188464D01*
X75950000Y-75188464D01*
X76270866Y-75124640D01*
X76542884Y-74942884D01*
X76724640Y-74670866D01*
X76788464Y-74350000D01*
X76788464Y-72050000D01*
X81211536Y-72050000D01*
X81211536Y-74350000D01*
X81275360Y-74670866D01*
X81457116Y-74942884D01*
X81729134Y-75124640D01*
X82050000Y-75188464D01*
X82950000Y-75188464D01*
X83270866Y-75124640D01*
X83542884Y-74942884D01*
X83724640Y-74670866D01*
X83788464Y-74350000D01*
X83788464Y-72050000D01*
X83724640Y-71729134D01*
X83542884Y-71457116D01*
X83270866Y-71275360D01*
X82950000Y-71211536D01*
X82050000Y-71211536D01*
X81729134Y-71275360D01*
X81457116Y-71457116D01*
X81275360Y-71729134D01*
X81211536Y-72050000D01*
X76788464Y-72050000D01*
X76724640Y-71729134D01*
X76542884Y-71457116D01*
X76270866Y-71275360D01*
X75950000Y-71211536D01*
X75050000Y-71211536D01*
X74729134Y-71275360D01*
X74457116Y-71457116D01*
X74275360Y-71729134D01*
X74211536Y-72050000D01*
X69788464Y-72050000D01*
X69724640Y-71729134D01*
X69542884Y-71457116D01*
X69270866Y-71275360D01*
X68950000Y-71211536D01*
X68050000Y-71211536D01*
X67729134Y-71275360D01*
X67457116Y-71457116D01*
X67275360Y-71729134D01*
X67211536Y-72050000D01*
X62788464Y-72050000D01*
X62724640Y-71729134D01*
X62542884Y-71457116D01*
X62270866Y-71275360D01*
X61950000Y-71211536D01*
X61050000Y-71211536D01*
X60729134Y-71275360D01*
X60457116Y-71457116D01*
X60275360Y-71729134D01*
X60211536Y-72050000D01*
X55788464Y-72050000D01*
X55724640Y-71729134D01*
X55542884Y-71457116D01*
X55270866Y-71275360D01*
X54950000Y-71211536D01*
X54050000Y-71211536D01*
X53729134Y-71275360D01*
X53457116Y-71457116D01*
X53275360Y-71729134D01*
X53211536Y-72050000D01*
X48788464Y-72050000D01*
X48724640Y-71729134D01*
X48542884Y-71457116D01*
X48270866Y-71275360D01*
X47950000Y-71211536D01*
X47050000Y-71211536D01*
X46729134Y-71275360D01*
X46457116Y-71457116D01*
X46275360Y-71729134D01*
X46211536Y-72050000D01*
X41788464Y-72050000D01*
X41724640Y-71729134D01*
X41542884Y-71457116D01*
X41270866Y-71275360D01*
X40950000Y-71211536D01*
X40050000Y-71211536D01*
X39729134Y-71275360D01*
X39457116Y-71457116D01*
X39275360Y-71729134D01*
X39211536Y-72050000D01*
X35631000Y-72050000D01*
X35631000Y-69722250D01*
X42019000Y-69722250D01*
X42019000Y-70575786D01*
X42077004Y-70715820D01*
X42184181Y-70822996D01*
X42324215Y-70881000D01*
X43777750Y-70881000D01*
X43873000Y-70785750D01*
X43873000Y-69627000D01*
X44127000Y-69627000D01*
X44127000Y-70785750D01*
X44222250Y-70881000D01*
X45675785Y-70881000D01*
X45815819Y-70822996D01*
X45922996Y-70715820D01*
X45981000Y-70575786D01*
X45981000Y-69722250D01*
X56019000Y-69722250D01*
X56019000Y-70575786D01*
X56077004Y-70715820D01*
X56184181Y-70822996D01*
X56324215Y-70881000D01*
X57777750Y-70881000D01*
X57873000Y-70785750D01*
X57873000Y-69627000D01*
X58127000Y-69627000D01*
X58127000Y-70785750D01*
X58222250Y-70881000D01*
X59675785Y-70881000D01*
X59815819Y-70822996D01*
X59922996Y-70715820D01*
X59981000Y-70575786D01*
X59981000Y-69722250D01*
X70019000Y-69722250D01*
X70019000Y-70575786D01*
X70077004Y-70715820D01*
X70184181Y-70822996D01*
X70324215Y-70881000D01*
X71777750Y-70881000D01*
X71873000Y-70785750D01*
X71873000Y-69627000D01*
X72127000Y-69627000D01*
X72127000Y-70785750D01*
X72222250Y-70881000D01*
X73675785Y-70881000D01*
X73815819Y-70822996D01*
X73922996Y-70715820D01*
X73981000Y-70575786D01*
X73981000Y-69722250D01*
X84019000Y-69722250D01*
X84019000Y-70575786D01*
X84077004Y-70715820D01*
X84184181Y-70822996D01*
X84324215Y-70881000D01*
X85777750Y-70881000D01*
X85873000Y-70785750D01*
X85873000Y-69627000D01*
X86127000Y-69627000D01*
X86127000Y-70785750D01*
X86222250Y-70881000D01*
X87675785Y-70881000D01*
X87815819Y-70822996D01*
X87922996Y-70715820D01*
X87981000Y-70575786D01*
X87981000Y-69722250D01*
X87885750Y-69627000D01*
X86127000Y-69627000D01*
X85873000Y-69627000D01*
X84114250Y-69627000D01*
X84019000Y-69722250D01*
X73981000Y-69722250D01*
X73885750Y-69627000D01*
X72127000Y-69627000D01*
X71873000Y-69627000D01*
X70114250Y-69627000D01*
X70019000Y-69722250D01*
X59981000Y-69722250D01*
X59885750Y-69627000D01*
X58127000Y-69627000D01*
X57873000Y-69627000D01*
X56114250Y-69627000D01*
X56019000Y-69722250D01*
X45981000Y-69722250D01*
X45885750Y-69627000D01*
X44127000Y-69627000D01*
X43873000Y-69627000D01*
X42114250Y-69627000D01*
X42019000Y-69722250D01*
X35631000Y-69722250D01*
X35631000Y-68424214D01*
X42019000Y-68424214D01*
X42019000Y-69277750D01*
X42114250Y-69373000D01*
X43873000Y-69373000D01*
X43873000Y-68214250D01*
X44127000Y-68214250D01*
X44127000Y-69373000D01*
X45885750Y-69373000D01*
X45981000Y-69277750D01*
X45981000Y-68424214D01*
X56019000Y-68424214D01*
X56019000Y-69277750D01*
X56114250Y-69373000D01*
X57873000Y-69373000D01*
X57873000Y-68214250D01*
X58127000Y-68214250D01*
X58127000Y-69373000D01*
X59885750Y-69373000D01*
X59981000Y-69277750D01*
X59981000Y-68424214D01*
X70019000Y-68424214D01*
X70019000Y-69277750D01*
X70114250Y-69373000D01*
X71873000Y-69373000D01*
X71873000Y-68214250D01*
X72127000Y-68214250D01*
X72127000Y-69373000D01*
X73885750Y-69373000D01*
X73981000Y-69277750D01*
X73981000Y-68424214D01*
X84019000Y-68424214D01*
X84019000Y-69277750D01*
X84114250Y-69373000D01*
X85873000Y-69373000D01*
X85873000Y-68214250D01*
X86127000Y-68214250D01*
X86127000Y-69373000D01*
X87885750Y-69373000D01*
X87981000Y-69277750D01*
X87981000Y-68424214D01*
X87922996Y-68284180D01*
X87815819Y-68177004D01*
X87675785Y-68119000D01*
X86222250Y-68119000D01*
X86127000Y-68214250D01*
X85873000Y-68214250D01*
X85777750Y-68119000D01*
X84324215Y-68119000D01*
X84184181Y-68177004D01*
X84077004Y-68284180D01*
X84019000Y-68424214D01*
X73981000Y-68424214D01*
X73922996Y-68284180D01*
X73815819Y-68177004D01*
X73675785Y-68119000D01*
X72222250Y-68119000D01*
X72127000Y-68214250D01*
X71873000Y-68214250D01*
X71777750Y-68119000D01*
X70324215Y-68119000D01*
X70184181Y-68177004D01*
X70077004Y-68284180D01*
X70019000Y-68424214D01*
X59981000Y-68424214D01*
X59922996Y-68284180D01*
X59815819Y-68177004D01*
X59675785Y-68119000D01*
X58222250Y-68119000D01*
X58127000Y-68214250D01*
X57873000Y-68214250D01*
X57777750Y-68119000D01*
X56324215Y-68119000D01*
X56184181Y-68177004D01*
X56077004Y-68284180D01*
X56019000Y-68424214D01*
X45981000Y-68424214D01*
X45922996Y-68284180D01*
X45815819Y-68177004D01*
X45675785Y-68119000D01*
X44222250Y-68119000D01*
X44127000Y-68214250D01*
X43873000Y-68214250D01*
X43777750Y-68119000D01*
X42324215Y-68119000D01*
X42184181Y-68177004D01*
X42077004Y-68284180D01*
X42019000Y-68424214D01*
X35631000Y-68424214D01*
X35631000Y-68364921D01*
X36114922Y-67881000D01*
X90130079Y-67881000D01*
X90869000Y-68619922D01*
X90869001Y-74635077D01*
X90385079Y-75119000D01*
X90279307Y-75119000D01*
X90542884Y-74942884D01*
X90724640Y-74670866D01*
X90788464Y-74350000D01*
X90788464Y-72050000D01*
X90724640Y-71729134D01*
X90542884Y-71457116D01*
X90270866Y-71275360D01*
X89950000Y-71211536D01*
X89050000Y-71211536D01*
X88729134Y-71275360D01*
X88457116Y-71457116D01*
X88275360Y-71729134D01*
X88211536Y-72050000D01*
X88211536Y-74350000D01*
X88275360Y-74670866D01*
X88457116Y-74942884D01*
X88720693Y-75119000D01*
X85836767Y-75119000D01*
X85750000Y-75101741D01*
X85663233Y-75119000D01*
X85406251Y-75170117D01*
X85114835Y-75364835D01*
X85065685Y-75438393D01*
X81438396Y-79065683D01*
X81364835Y-79114835D01*
X81170117Y-79406252D01*
X81119000Y-79663234D01*
X81119000Y-79663237D01*
X81101742Y-79750000D01*
X81119000Y-79836763D01*
X81119001Y-91874756D01*
X81119000Y-91874758D01*
X81119000Y-92225242D01*
X81119001Y-92225244D01*
X81119000Y-93274758D01*
X81119000Y-93625242D01*
X81152859Y-93706984D01*
X81170117Y-93793748D01*
X81219264Y-93867303D01*
X81253124Y-93949047D01*
X81315688Y-94011611D01*
X81364835Y-94085165D01*
X81438390Y-94134313D01*
X81500953Y-94196876D01*
X81582695Y-94230735D01*
X81656251Y-94279883D01*
X81743017Y-94297142D01*
X81824758Y-94331000D01*
X81913233Y-94331000D01*
X82000000Y-94348259D01*
X82086767Y-94331000D01*
X82175242Y-94331000D01*
X82256984Y-94297142D01*
X82343748Y-94279883D01*
X82417303Y-94230736D01*
X82499047Y-94196876D01*
X82561611Y-94134312D01*
X82635165Y-94085165D01*
X82684313Y-94011610D01*
X82746876Y-93949047D01*
X82780735Y-93867305D01*
X82829883Y-93793749D01*
X82847142Y-93706983D01*
X82881000Y-93625242D01*
X82881000Y-80114921D01*
X83168444Y-79827477D01*
X84619000Y-79827477D01*
X84619000Y-81172523D01*
X85133726Y-82415183D01*
X86084817Y-83366274D01*
X87327477Y-83881000D01*
X88672523Y-83881000D01*
X89915183Y-83366274D01*
X90866274Y-82415183D01*
X91381000Y-81172523D01*
X91381000Y-79827477D01*
X90866274Y-78584817D01*
X89915183Y-77633726D01*
X88672523Y-77119000D01*
X87327477Y-77119000D01*
X86084817Y-77633726D01*
X85133726Y-78584817D01*
X84619000Y-79827477D01*
X83168444Y-79827477D01*
X86114922Y-76881000D01*
X90663237Y-76881000D01*
X90750000Y-76898258D01*
X90836763Y-76881000D01*
X90836767Y-76881000D01*
X91093749Y-76829883D01*
X91385165Y-76635165D01*
X91434316Y-76561605D01*
X92311607Y-75684315D01*
X92385165Y-75635165D01*
X92579883Y-75343749D01*
X92631000Y-75086767D01*
X92648259Y-75000000D01*
X92631000Y-74913233D01*
X92631000Y-74735248D01*
X94569000Y-74735248D01*
X94569000Y-75264752D01*
X94771633Y-75753951D01*
X95146049Y-76128367D01*
X95635248Y-76331000D01*
X96164752Y-76331000D01*
X96653951Y-76128367D01*
X97028367Y-75753951D01*
X97231000Y-75264752D01*
X97231000Y-75035248D01*
X98669000Y-75035248D01*
X98669000Y-75564752D01*
X98871633Y-76053951D01*
X99246049Y-76428367D01*
X99735248Y-76631000D01*
X100264752Y-76631000D01*
X100753951Y-76428367D01*
X101128367Y-76053951D01*
X101331000Y-75564752D01*
X101331000Y-75035248D01*
X101128367Y-74546049D01*
X100753951Y-74171633D01*
X100264752Y-73969000D01*
X99735248Y-73969000D01*
X99246049Y-74171633D01*
X98871633Y-74546049D01*
X98669000Y-75035248D01*
X97231000Y-75035248D01*
X97231000Y-74735248D01*
X97028367Y-74246049D01*
X96653951Y-73871633D01*
X96164752Y-73669000D01*
X95635248Y-73669000D01*
X95146049Y-73871633D01*
X94771633Y-74246049D01*
X94569000Y-74735248D01*
X92631000Y-74735248D01*
X92631000Y-72735248D01*
X101169000Y-72735248D01*
X101169000Y-73264752D01*
X101371633Y-73753951D01*
X101746049Y-74128367D01*
X102235248Y-74331000D01*
X102764752Y-74331000D01*
X103253951Y-74128367D01*
X103628367Y-73753951D01*
X103831000Y-73264752D01*
X103831000Y-72735248D01*
X103628367Y-72246049D01*
X103253951Y-71871633D01*
X102764752Y-71669000D01*
X102235248Y-71669000D01*
X101746049Y-71871633D01*
X101371633Y-72246049D01*
X101169000Y-72735248D01*
X92631000Y-72735248D01*
X92631000Y-69265085D01*
X95819000Y-69265085D01*
X95819000Y-69734915D01*
X95998797Y-70168983D01*
X96331017Y-70501203D01*
X96765085Y-70681000D01*
X97234915Y-70681000D01*
X97668983Y-70501203D01*
X98001203Y-70168983D01*
X98181000Y-69734915D01*
X98181000Y-69265085D01*
X100819000Y-69265085D01*
X100819000Y-69734915D01*
X100998797Y-70168983D01*
X101331017Y-70501203D01*
X101765085Y-70681000D01*
X102234915Y-70681000D01*
X102668983Y-70501203D01*
X103001203Y-70168983D01*
X103181000Y-69734915D01*
X103181000Y-69265085D01*
X103001203Y-68831017D01*
X102668983Y-68498797D01*
X102234915Y-68319000D01*
X101765085Y-68319000D01*
X101331017Y-68498797D01*
X100998797Y-68831017D01*
X100819000Y-69265085D01*
X98181000Y-69265085D01*
X98001203Y-68831017D01*
X97668983Y-68498797D01*
X97234915Y-68319000D01*
X96765085Y-68319000D01*
X96331017Y-68498797D01*
X95998797Y-68831017D01*
X95819000Y-69265085D01*
X92631000Y-69265085D01*
X92631000Y-68341762D01*
X92648258Y-68254999D01*
X92631000Y-68168234D01*
X92631000Y-68168233D01*
X92579883Y-67911251D01*
X92385165Y-67619835D01*
X92311608Y-67570686D01*
X91179317Y-66438395D01*
X91130165Y-66364835D01*
X90838749Y-66170117D01*
X90581767Y-66119000D01*
X90581763Y-66119000D01*
X90495000Y-66101742D01*
X90408237Y-66119000D01*
X35836767Y-66119000D01*
X35750000Y-66101741D01*
X35663233Y-66119000D01*
X35406251Y-66170117D01*
X35114835Y-66364835D01*
X35065685Y-66438393D01*
X34188393Y-67315686D01*
X34114836Y-67364835D01*
X34065686Y-67438393D01*
X33920117Y-67656252D01*
X33851742Y-68000000D01*
X33869001Y-68086768D01*
X33869000Y-99663237D01*
X33851742Y-99750000D01*
X33869000Y-99836763D01*
X33869000Y-99836766D01*
X33920117Y-100093748D01*
X34114835Y-100385165D01*
X34188395Y-100434317D01*
X35315685Y-101561607D01*
X35364835Y-101635165D01*
X35656251Y-101829883D01*
X35913233Y-101881000D01*
X35913237Y-101881000D01*
X36000000Y-101898258D01*
X36086763Y-101881000D01*
X39385079Y-101881000D01*
X40369001Y-102864923D01*
X40369000Y-104324758D01*
X40369000Y-104675242D01*
X40402859Y-104756984D01*
X40420117Y-104843748D01*
X40469264Y-104917303D01*
X40503124Y-104999047D01*
X40565688Y-105061611D01*
X40614835Y-105135165D01*
X40688390Y-105184313D01*
X40750953Y-105246876D01*
X40832695Y-105280735D01*
X40895950Y-105323000D01*
X34500000Y-105323000D01*
X34336594Y-105355503D01*
X34198065Y-105448065D01*
X34105503Y-105586594D01*
X34073000Y-105750000D01*
X34073000Y-115000000D01*
X34081752Y-115044000D01*
X32456000Y-115044000D01*
X32456000Y-65956000D01*
X131544000Y-65956000D01*
X131544001Y-115044000D01*
D31*
G04 #@! TO.N,+VSW*
G36*
X74200000Y-81520710D02*
X74200000Y-88700000D01*
X72050000Y-88700000D01*
X72050000Y-83000000D01*
X72046194Y-82980866D01*
X72035355Y-82964645D01*
X71285355Y-82214645D01*
X71269134Y-82203806D01*
X71250000Y-82200000D01*
X63000000Y-82200000D01*
X62980866Y-82203806D01*
X62964645Y-82214645D01*
X62953806Y-82230866D01*
X62950000Y-82250000D01*
X62950000Y-86450000D01*
X60800000Y-86450000D01*
X60800000Y-79800000D01*
X72479290Y-79800000D01*
X74200000Y-81520710D01*
X74200000Y-81520710D01*
G37*
X74200000Y-81520710D02*
X74200000Y-88700000D01*
X72050000Y-88700000D01*
X72050000Y-83000000D01*
X72046194Y-82980866D01*
X72035355Y-82964645D01*
X71285355Y-82214645D01*
X71269134Y-82203806D01*
X71250000Y-82200000D01*
X63000000Y-82200000D01*
X62980866Y-82203806D01*
X62964645Y-82214645D01*
X62953806Y-82230866D01*
X62950000Y-82250000D01*
X62950000Y-86450000D01*
X60800000Y-86450000D01*
X60800000Y-79800000D01*
X72479290Y-79800000D01*
X74200000Y-81520710D01*
D30*
G36*
X50373000Y-84750000D02*
X50382667Y-84798601D01*
X50410197Y-84839803D01*
X50451399Y-84867333D01*
X50500000Y-84877000D01*
X53123000Y-84877000D01*
X53123000Y-86373000D01*
X48627000Y-86373000D01*
X48627000Y-82250000D01*
X48617333Y-82201399D01*
X48589803Y-82160197D01*
X48548601Y-82132667D01*
X48500000Y-82123000D01*
X36377000Y-82123000D01*
X36377000Y-79877000D01*
X50373000Y-79877000D01*
X50373000Y-84750000D01*
X50373000Y-84750000D01*
G37*
X50373000Y-84750000D02*
X50382667Y-84798601D01*
X50410197Y-84839803D01*
X50451399Y-84867333D01*
X50500000Y-84877000D01*
X53123000Y-84877000D01*
X53123000Y-86373000D01*
X48627000Y-86373000D01*
X48627000Y-82250000D01*
X48617333Y-82201399D01*
X48589803Y-82160197D01*
X48548601Y-82132667D01*
X48500000Y-82123000D01*
X36377000Y-82123000D01*
X36377000Y-79877000D01*
X50373000Y-79877000D01*
X50373000Y-84750000D01*
G04 #@! TO.N,+5V*
G36*
X81623000Y-99123000D02*
X80127000Y-99123000D01*
X80127000Y-95877000D01*
X81623000Y-95877000D01*
X81623000Y-99123000D01*
X81623000Y-99123000D01*
G37*
X81623000Y-99123000D02*
X80127000Y-99123000D01*
X80127000Y-95877000D01*
X81623000Y-95877000D01*
X81623000Y-99123000D01*
D18*
G04 #@! TO.N,+12P*
G36*
X42150000Y-114900000D02*
X34600000Y-114900000D01*
X34600000Y-105850000D01*
X42150000Y-105850000D01*
X42150000Y-114900000D01*
X42150000Y-114900000D01*
G37*
X42150000Y-114900000D02*
X34600000Y-114900000D01*
X34600000Y-105850000D01*
X42150000Y-105850000D01*
X42150000Y-114900000D01*
G04 #@! TD*
M02*
