G04 #@! TF.GenerationSoftware,KiCad,Pcbnew,5.0.1*
G04 #@! TF.CreationDate,2019-02-25T23:40:44+01:00*
G04 #@! TF.ProjectId,Dew Heater - V2,44657720486561746572202D2056322E,rev?*
G04 #@! TF.SameCoordinates,Original*
G04 #@! TF.FileFunction,Soldermask,Top*
G04 #@! TF.FilePolarity,Negative*
%FSLAX46Y46*%
G04 Gerber Fmt 4.6, Leading zero omitted, Abs format (unit mm)*
G04 Created by KiCad (PCBNEW 5.0.1) date Mon 25 Feb 2019 11:40:44 PM CET*
%MOMM*%
%LPD*%
G01*
G04 APERTURE LIST*
%ADD10C,0.200000*%
%ADD11C,0.150000*%
%ADD12C,0.010000*%
G04 APERTURE END LIST*
D10*
X113792857Y-81542857D02*
X113792857Y-80342857D01*
X114192857Y-81200000D01*
X114592857Y-80342857D01*
X114592857Y-81542857D01*
X115678571Y-81542857D02*
X115678571Y-80914285D01*
X115621428Y-80800000D01*
X115507142Y-80742857D01*
X115278571Y-80742857D01*
X115164285Y-80800000D01*
X115678571Y-81485714D02*
X115564285Y-81542857D01*
X115278571Y-81542857D01*
X115164285Y-81485714D01*
X115107142Y-81371428D01*
X115107142Y-81257142D01*
X115164285Y-81142857D01*
X115278571Y-81085714D01*
X115564285Y-81085714D01*
X115678571Y-81028571D01*
X116764285Y-81542857D02*
X116764285Y-80342857D01*
X116764285Y-81485714D02*
X116650000Y-81542857D01*
X116421428Y-81542857D01*
X116307142Y-81485714D01*
X116250000Y-81428571D01*
X116192857Y-81314285D01*
X116192857Y-80971428D01*
X116250000Y-80857142D01*
X116307142Y-80800000D01*
X116421428Y-80742857D01*
X116650000Y-80742857D01*
X116764285Y-80800000D01*
X117792857Y-81485714D02*
X117678571Y-81542857D01*
X117450000Y-81542857D01*
X117335714Y-81485714D01*
X117278571Y-81371428D01*
X117278571Y-80914285D01*
X117335714Y-80800000D01*
X117450000Y-80742857D01*
X117678571Y-80742857D01*
X117792857Y-80800000D01*
X117850000Y-80914285D01*
X117850000Y-81028571D01*
X117278571Y-81142857D01*
X119278571Y-81542857D02*
X119278571Y-80342857D01*
X119278571Y-80800000D02*
X119392857Y-80742857D01*
X119621428Y-80742857D01*
X119735714Y-80800000D01*
X119792857Y-80857142D01*
X119850000Y-80971428D01*
X119850000Y-81314285D01*
X119792857Y-81428571D01*
X119735714Y-81485714D01*
X119621428Y-81542857D01*
X119392857Y-81542857D01*
X119278571Y-81485714D01*
X120250000Y-80742857D02*
X120535714Y-81542857D01*
X120821428Y-80742857D02*
X120535714Y-81542857D01*
X120421428Y-81828571D01*
X120364285Y-81885714D01*
X120250000Y-81942857D01*
X113078571Y-83542857D02*
X112507142Y-83542857D01*
X112507142Y-82342857D01*
X113935714Y-83485714D02*
X113821428Y-83542857D01*
X113592857Y-83542857D01*
X113478571Y-83485714D01*
X113421428Y-83371428D01*
X113421428Y-82914285D01*
X113478571Y-82800000D01*
X113592857Y-82742857D01*
X113821428Y-82742857D01*
X113935714Y-82800000D01*
X113992857Y-82914285D01*
X113992857Y-83028571D01*
X113421428Y-83142857D01*
X114507142Y-83542857D02*
X114507142Y-82742857D01*
X114507142Y-82857142D02*
X114564285Y-82800000D01*
X114678571Y-82742857D01*
X114850000Y-82742857D01*
X114964285Y-82800000D01*
X115021428Y-82914285D01*
X115021428Y-83542857D01*
X115021428Y-82914285D02*
X115078571Y-82800000D01*
X115192857Y-82742857D01*
X115364285Y-82742857D01*
X115478571Y-82800000D01*
X115535714Y-82914285D01*
X115535714Y-83542857D01*
X116278571Y-83542857D02*
X116164285Y-83485714D01*
X116107142Y-83428571D01*
X116050000Y-83314285D01*
X116050000Y-82971428D01*
X116107142Y-82857142D01*
X116164285Y-82800000D01*
X116278571Y-82742857D01*
X116450000Y-82742857D01*
X116564285Y-82800000D01*
X116621428Y-82857142D01*
X116678571Y-82971428D01*
X116678571Y-83314285D01*
X116621428Y-83428571D01*
X116564285Y-83485714D01*
X116450000Y-83542857D01*
X116278571Y-83542857D01*
X117192857Y-82742857D02*
X117192857Y-83542857D01*
X117192857Y-82857142D02*
X117250000Y-82800000D01*
X117364285Y-82742857D01*
X117535714Y-82742857D01*
X117650000Y-82800000D01*
X117707142Y-82914285D01*
X117707142Y-83542857D01*
X118278571Y-83542857D02*
X118278571Y-82342857D01*
X118792857Y-83542857D02*
X118792857Y-82914285D01*
X118735714Y-82800000D01*
X118621428Y-82742857D01*
X118450000Y-82742857D01*
X118335714Y-82800000D01*
X118278571Y-82857142D01*
X119821428Y-83485714D02*
X119707142Y-83542857D01*
X119478571Y-83542857D01*
X119364285Y-83485714D01*
X119307142Y-83371428D01*
X119307142Y-82914285D01*
X119364285Y-82800000D01*
X119478571Y-82742857D01*
X119707142Y-82742857D01*
X119821428Y-82800000D01*
X119878571Y-82914285D01*
X119878571Y-83028571D01*
X119307142Y-83142857D01*
X120907142Y-83542857D02*
X120907142Y-82914285D01*
X120850000Y-82800000D01*
X120735714Y-82742857D01*
X120507142Y-82742857D01*
X120392857Y-82800000D01*
X120907142Y-83485714D02*
X120792857Y-83542857D01*
X120507142Y-83542857D01*
X120392857Y-83485714D01*
X120335714Y-83371428D01*
X120335714Y-83257142D01*
X120392857Y-83142857D01*
X120507142Y-83085714D01*
X120792857Y-83085714D01*
X120907142Y-83028571D01*
X121992857Y-83542857D02*
X121992857Y-82342857D01*
X121992857Y-83485714D02*
X121878571Y-83542857D01*
X121650000Y-83542857D01*
X121535714Y-83485714D01*
X121478571Y-83428571D01*
X121421428Y-83314285D01*
X121421428Y-82971428D01*
X121478571Y-82857142D01*
X121535714Y-82800000D01*
X121650000Y-82742857D01*
X121878571Y-82742857D01*
X121992857Y-82800000D01*
D11*
G36*
X32000000Y-65500000D02*
X34000000Y-65500000D01*
X34000000Y-115500000D01*
X32000000Y-115500000D01*
X32000000Y-65500000D01*
G37*
X32000000Y-65500000D02*
X34000000Y-65500000D01*
X34000000Y-115500000D01*
X32000000Y-115500000D01*
X32000000Y-65500000D01*
G36*
X130000000Y-65500000D02*
X132000000Y-65500000D01*
X132000000Y-115500000D01*
X130000000Y-115500000D01*
X130000000Y-65500000D01*
G37*
X130000000Y-65500000D02*
X132000000Y-65500000D01*
X132000000Y-115500000D01*
X130000000Y-115500000D01*
X130000000Y-65500000D01*
D12*
G04 #@! TO.C,G1*
G36*
X117956911Y-67910832D02*
X117985226Y-68090510D01*
X117894586Y-68366467D01*
X117710027Y-68691608D01*
X117456583Y-69018833D01*
X117265587Y-69211400D01*
X116968665Y-69458172D01*
X116778444Y-69572196D01*
X116706736Y-69550827D01*
X116765353Y-69391417D01*
X116812186Y-69313000D01*
X116980979Y-69067802D01*
X117211530Y-68758835D01*
X117334767Y-68601800D01*
X117504328Y-68367203D01*
X117582279Y-68210381D01*
X117566485Y-68170000D01*
X117457307Y-68247295D01*
X117269595Y-68452434D01*
X117039170Y-68745294D01*
X116977640Y-68829527D01*
X116752148Y-69130073D01*
X116571955Y-69346257D01*
X116467789Y-69441982D01*
X116456173Y-69442040D01*
X116438886Y-69299654D01*
X116501509Y-69043710D01*
X116619970Y-68735228D01*
X116770195Y-68435229D01*
X116928112Y-68204733D01*
X116956144Y-68174686D01*
X117229201Y-67973476D01*
X117532299Y-67854247D01*
X117800916Y-67834010D01*
X117956911Y-67910832D01*
X117956911Y-67910832D01*
G37*
X117956911Y-67910832D02*
X117985226Y-68090510D01*
X117894586Y-68366467D01*
X117710027Y-68691608D01*
X117456583Y-69018833D01*
X117265587Y-69211400D01*
X116968665Y-69458172D01*
X116778444Y-69572196D01*
X116706736Y-69550827D01*
X116765353Y-69391417D01*
X116812186Y-69313000D01*
X116980979Y-69067802D01*
X117211530Y-68758835D01*
X117334767Y-68601800D01*
X117504328Y-68367203D01*
X117582279Y-68210381D01*
X117566485Y-68170000D01*
X117457307Y-68247295D01*
X117269595Y-68452434D01*
X117039170Y-68745294D01*
X116977640Y-68829527D01*
X116752148Y-69130073D01*
X116571955Y-69346257D01*
X116467789Y-69441982D01*
X116456173Y-69442040D01*
X116438886Y-69299654D01*
X116501509Y-69043710D01*
X116619970Y-68735228D01*
X116770195Y-68435229D01*
X116928112Y-68204733D01*
X116956144Y-68174686D01*
X117229201Y-67973476D01*
X117532299Y-67854247D01*
X117800916Y-67834010D01*
X117956911Y-67910832D01*
G36*
X118314052Y-69406977D02*
X118521660Y-69536157D01*
X118541760Y-69552114D01*
X118824800Y-69779266D01*
X118549377Y-69885006D01*
X118191276Y-69981030D01*
X117761254Y-70039471D01*
X117348538Y-70052655D01*
X117046800Y-70014253D01*
X116880521Y-69952964D01*
X116896648Y-69902809D01*
X116978909Y-69867122D01*
X117234375Y-69808482D01*
X117404713Y-69795600D01*
X117620491Y-69751253D01*
X117715891Y-69679937D01*
X117706868Y-69626266D01*
X117893466Y-69626266D01*
X117907413Y-69686667D01*
X117961200Y-69694000D01*
X118044828Y-69656826D01*
X118028933Y-69626266D01*
X117908357Y-69614107D01*
X117893466Y-69626266D01*
X117706868Y-69626266D01*
X117704672Y-69613209D01*
X117531318Y-69614468D01*
X117391687Y-69637043D01*
X117149622Y-69671876D01*
X117075371Y-69649111D01*
X117120585Y-69582401D01*
X117289545Y-69495615D01*
X117578925Y-69418357D01*
X117751945Y-69389976D01*
X118087074Y-69364325D01*
X118314052Y-69406977D01*
X118314052Y-69406977D01*
G37*
X118314052Y-69406977D02*
X118521660Y-69536157D01*
X118541760Y-69552114D01*
X118824800Y-69779266D01*
X118549377Y-69885006D01*
X118191276Y-69981030D01*
X117761254Y-70039471D01*
X117348538Y-70052655D01*
X117046800Y-70014253D01*
X116880521Y-69952964D01*
X116896648Y-69902809D01*
X116978909Y-69867122D01*
X117234375Y-69808482D01*
X117404713Y-69795600D01*
X117620491Y-69751253D01*
X117715891Y-69679937D01*
X117706868Y-69626266D01*
X117893466Y-69626266D01*
X117907413Y-69686667D01*
X117961200Y-69694000D01*
X118044828Y-69656826D01*
X118028933Y-69626266D01*
X117908357Y-69614107D01*
X117893466Y-69626266D01*
X117706868Y-69626266D01*
X117704672Y-69613209D01*
X117531318Y-69614468D01*
X117391687Y-69637043D01*
X117149622Y-69671876D01*
X117075371Y-69649111D01*
X117120585Y-69582401D01*
X117289545Y-69495615D01*
X117578925Y-69418357D01*
X117751945Y-69389976D01*
X118087074Y-69364325D01*
X118314052Y-69406977D01*
G36*
X116079788Y-69511164D02*
X116079036Y-69532395D01*
X115889645Y-69581335D01*
X115855544Y-69589447D01*
X115587037Y-69679423D01*
X115325723Y-69806995D01*
X115126129Y-69939618D01*
X115042781Y-70044749D01*
X115051481Y-70069348D01*
X115165706Y-70060136D01*
X115397918Y-69976898D01*
X115565912Y-69900921D01*
X115926243Y-69750111D01*
X116156692Y-69699114D01*
X116241976Y-69739866D01*
X116166812Y-69864304D01*
X115915919Y-70064364D01*
X115898324Y-70076317D01*
X115468179Y-70313862D01*
X115082236Y-70403066D01*
X115009706Y-70405200D01*
X114757053Y-70386364D01*
X114617839Y-70339382D01*
X114608400Y-70321310D01*
X114694437Y-70153307D01*
X114914758Y-69951868D01*
X115212674Y-69752979D01*
X115531495Y-69592630D01*
X115814533Y-69506810D01*
X115900225Y-69501199D01*
X116079788Y-69511164D01*
X116079788Y-69511164D01*
G37*
X116079788Y-69511164D02*
X116079036Y-69532395D01*
X115889645Y-69581335D01*
X115855544Y-69589447D01*
X115587037Y-69679423D01*
X115325723Y-69806995D01*
X115126129Y-69939618D01*
X115042781Y-70044749D01*
X115051481Y-70069348D01*
X115165706Y-70060136D01*
X115397918Y-69976898D01*
X115565912Y-69900921D01*
X115926243Y-69750111D01*
X116156692Y-69699114D01*
X116241976Y-69739866D01*
X116166812Y-69864304D01*
X115915919Y-70064364D01*
X115898324Y-70076317D01*
X115468179Y-70313862D01*
X115082236Y-70403066D01*
X115009706Y-70405200D01*
X114757053Y-70386364D01*
X114617839Y-70339382D01*
X114608400Y-70321310D01*
X114694437Y-70153307D01*
X114914758Y-69951868D01*
X115212674Y-69752979D01*
X115531495Y-69592630D01*
X115814533Y-69506810D01*
X115900225Y-69501199D01*
X116079788Y-69511164D01*
G36*
X116234000Y-78482400D02*
X116183200Y-78533200D01*
X116132400Y-78482400D01*
X116183200Y-78431600D01*
X116234000Y-78482400D01*
X116234000Y-78482400D01*
G37*
X116234000Y-78482400D02*
X116183200Y-78533200D01*
X116132400Y-78482400D01*
X116183200Y-78431600D01*
X116234000Y-78482400D01*
G36*
X116764606Y-70043838D02*
X117028484Y-70156712D01*
X117331428Y-70201999D01*
X117662259Y-70288664D01*
X118058143Y-70530976D01*
X118494110Y-70902415D01*
X118945188Y-71376459D01*
X119386403Y-71926587D01*
X119792784Y-72526279D01*
X120139359Y-73149013D01*
X120174508Y-73221441D01*
X120359175Y-73624734D01*
X120471127Y-73937908D01*
X120528108Y-74241716D01*
X120547864Y-74616910D01*
X120549185Y-74926400D01*
X120540660Y-75390006D01*
X120508965Y-75719529D01*
X120439805Y-75983894D01*
X120318888Y-76252024D01*
X120246045Y-76388149D01*
X119987757Y-76767006D01*
X119601910Y-77212818D01*
X119129248Y-77678683D01*
X119108542Y-77697591D01*
X118778056Y-78009779D01*
X118519055Y-78276325D01*
X118359898Y-78466528D01*
X118324758Y-78546077D01*
X118301655Y-78594485D01*
X118241000Y-78579841D01*
X118085740Y-78611597D01*
X117887209Y-78758801D01*
X117862413Y-78784205D01*
X117551239Y-79000819D01*
X117208353Y-79019021D01*
X116829849Y-78838568D01*
X116666092Y-78709398D01*
X116398760Y-78494022D01*
X116030424Y-78219279D01*
X115899597Y-78126800D01*
X118316800Y-78126800D01*
X118321444Y-78220572D01*
X118355607Y-78228400D01*
X118499237Y-78154257D01*
X118520000Y-78126800D01*
X118515355Y-78033027D01*
X118481192Y-78025200D01*
X118337562Y-78099342D01*
X118316800Y-78126800D01*
X115899597Y-78126800D01*
X115630451Y-77936548D01*
X115534473Y-77871198D01*
X115321581Y-77717211D01*
X118164400Y-77717211D01*
X118238873Y-77773113D01*
X118316800Y-77757141D01*
X118450481Y-77685027D01*
X118469200Y-77658729D01*
X118386235Y-77623213D01*
X118316800Y-77618800D01*
X118774000Y-77618800D01*
X118811173Y-77702428D01*
X118841733Y-77686533D01*
X118853892Y-77565957D01*
X118841733Y-77551066D01*
X118781332Y-77565013D01*
X118774000Y-77618800D01*
X118316800Y-77618800D01*
X118181568Y-77671970D01*
X118164400Y-77717211D01*
X115321581Y-77717211D01*
X115031704Y-77507540D01*
X114764979Y-77263200D01*
X119180400Y-77263200D01*
X119231200Y-77314000D01*
X119282000Y-77263200D01*
X119231200Y-77212400D01*
X119180400Y-77263200D01*
X114764979Y-77263200D01*
X114664606Y-77171252D01*
X114644183Y-77144666D01*
X118604666Y-77144666D01*
X118618613Y-77205067D01*
X118672400Y-77212400D01*
X118756028Y-77175226D01*
X118740133Y-77144666D01*
X118619557Y-77132507D01*
X118604666Y-77144666D01*
X114644183Y-77144666D01*
X114393226Y-76817992D01*
X119078800Y-76817992D01*
X119141398Y-76873076D01*
X119180400Y-76856800D01*
X119278206Y-76722209D01*
X119282000Y-76692407D01*
X119219401Y-76637323D01*
X119180400Y-76653600D01*
X119082593Y-76788190D01*
X119078800Y-76817992D01*
X114393226Y-76817992D01*
X114383809Y-76805735D01*
X114139947Y-76354390D01*
X114061696Y-76182696D01*
X113821199Y-75517914D01*
X113730326Y-74916219D01*
X113781897Y-74311458D01*
X113833681Y-74081310D01*
X113907207Y-73813265D01*
X115532571Y-73813265D01*
X115533172Y-73827520D01*
X115564213Y-73870526D01*
X115629148Y-73741389D01*
X115649469Y-73681800D01*
X115752200Y-73427164D01*
X115830570Y-73369695D01*
X115881354Y-73504463D01*
X115901329Y-73826537D01*
X115898574Y-74062762D01*
X115869508Y-74457561D01*
X115814069Y-74683348D01*
X115739386Y-74730202D01*
X115652588Y-74588201D01*
X115611929Y-74461667D01*
X115561075Y-74304895D01*
X115538868Y-74337454D01*
X115532927Y-74423480D01*
X115601199Y-74689962D01*
X115801371Y-74841313D01*
X115978813Y-74854093D01*
X116098256Y-74806953D01*
X116166704Y-74676195D01*
X116203002Y-74412787D01*
X116213591Y-74243246D01*
X116208981Y-74054696D01*
X116847772Y-74054696D01*
X116886535Y-74230634D01*
X116942011Y-74266000D01*
X116998713Y-74191854D01*
X116983549Y-74117790D01*
X116976720Y-73946656D01*
X117023229Y-73698430D01*
X117100771Y-73450859D01*
X117187040Y-73281689D01*
X117232479Y-73250131D01*
X117265140Y-73343502D01*
X117289299Y-73590362D01*
X117300502Y-73941044D01*
X117300800Y-74012141D01*
X117292640Y-74444786D01*
X117264466Y-74687512D01*
X117210732Y-74753087D01*
X117125894Y-74654276D01*
X117069202Y-74545400D01*
X116987122Y-74407663D01*
X116954280Y-74454139D01*
X116952076Y-74487342D01*
X117007348Y-74666617D01*
X117140387Y-74857942D01*
X117284688Y-74971491D01*
X117314736Y-74977200D01*
X117434223Y-74934785D01*
X117561479Y-74872025D01*
X117688905Y-74751432D01*
X117747555Y-74530913D01*
X117758000Y-74277586D01*
X117722066Y-73795193D01*
X117625823Y-73425071D01*
X117486611Y-73184211D01*
X117321767Y-73089606D01*
X117148631Y-73158246D01*
X116984541Y-73407124D01*
X116951556Y-73487281D01*
X116869700Y-73786208D01*
X116847772Y-74054696D01*
X116208981Y-74054696D01*
X116201931Y-73766448D01*
X116115044Y-73433741D01*
X115960018Y-73266126D01*
X115878399Y-73250000D01*
X115712376Y-73338492D01*
X115581613Y-73552154D01*
X115532571Y-73813265D01*
X113907207Y-73813265D01*
X113966578Y-73596826D01*
X114103963Y-73204158D01*
X114271875Y-72862853D01*
X114496354Y-72532463D01*
X114803442Y-72172537D01*
X115219177Y-71742624D01*
X115481532Y-71483798D01*
X118300523Y-71483798D01*
X118316800Y-71522800D01*
X118451390Y-71620606D01*
X118481192Y-71624400D01*
X118534322Y-71564021D01*
X118702539Y-71564021D01*
X118774000Y-71624400D01*
X118936115Y-71715779D01*
X118957714Y-71681363D01*
X118926400Y-71624400D01*
X118778021Y-71527801D01*
X118742603Y-71524355D01*
X118702539Y-71564021D01*
X118534322Y-71564021D01*
X118536276Y-71561801D01*
X118520000Y-71522800D01*
X118385409Y-71424993D01*
X118355607Y-71421200D01*
X118300523Y-71483798D01*
X115481532Y-71483798D01*
X115548200Y-71418027D01*
X115969697Y-70997125D01*
X115990699Y-70974379D01*
X117702151Y-70974379D01*
X117758000Y-71065600D01*
X117910982Y-71193667D01*
X117986080Y-71218000D01*
X118017048Y-71156820D01*
X117961200Y-71065600D01*
X117837307Y-70961884D01*
X118120150Y-70961884D01*
X118154648Y-71061227D01*
X118190326Y-71120159D01*
X118308912Y-71289728D01*
X118359223Y-71287515D01*
X118367600Y-71178070D01*
X118285710Y-71020887D01*
X118216686Y-70978629D01*
X118120150Y-70961884D01*
X117837307Y-70961884D01*
X117808217Y-70937532D01*
X117733119Y-70913200D01*
X117702151Y-70974379D01*
X115990699Y-70974379D01*
X116258782Y-70684043D01*
X116313362Y-70612837D01*
X117602857Y-70612837D01*
X117636303Y-70689397D01*
X117752003Y-70710000D01*
X117920609Y-70693636D01*
X117961200Y-70670070D01*
X117881047Y-70593175D01*
X117721446Y-70567206D01*
X117603686Y-70611535D01*
X117602857Y-70612837D01*
X116313362Y-70612837D01*
X116436005Y-70452838D01*
X116521921Y-70277569D01*
X116538800Y-70167666D01*
X116551168Y-69974300D01*
X116624461Y-69954260D01*
X116764606Y-70043838D01*
X116764606Y-70043838D01*
G37*
X116764606Y-70043838D02*
X117028484Y-70156712D01*
X117331428Y-70201999D01*
X117662259Y-70288664D01*
X118058143Y-70530976D01*
X118494110Y-70902415D01*
X118945188Y-71376459D01*
X119386403Y-71926587D01*
X119792784Y-72526279D01*
X120139359Y-73149013D01*
X120174508Y-73221441D01*
X120359175Y-73624734D01*
X120471127Y-73937908D01*
X120528108Y-74241716D01*
X120547864Y-74616910D01*
X120549185Y-74926400D01*
X120540660Y-75390006D01*
X120508965Y-75719529D01*
X120439805Y-75983894D01*
X120318888Y-76252024D01*
X120246045Y-76388149D01*
X119987757Y-76767006D01*
X119601910Y-77212818D01*
X119129248Y-77678683D01*
X119108542Y-77697591D01*
X118778056Y-78009779D01*
X118519055Y-78276325D01*
X118359898Y-78466528D01*
X118324758Y-78546077D01*
X118301655Y-78594485D01*
X118241000Y-78579841D01*
X118085740Y-78611597D01*
X117887209Y-78758801D01*
X117862413Y-78784205D01*
X117551239Y-79000819D01*
X117208353Y-79019021D01*
X116829849Y-78838568D01*
X116666092Y-78709398D01*
X116398760Y-78494022D01*
X116030424Y-78219279D01*
X115899597Y-78126800D01*
X118316800Y-78126800D01*
X118321444Y-78220572D01*
X118355607Y-78228400D01*
X118499237Y-78154257D01*
X118520000Y-78126800D01*
X118515355Y-78033027D01*
X118481192Y-78025200D01*
X118337562Y-78099342D01*
X118316800Y-78126800D01*
X115899597Y-78126800D01*
X115630451Y-77936548D01*
X115534473Y-77871198D01*
X115321581Y-77717211D01*
X118164400Y-77717211D01*
X118238873Y-77773113D01*
X118316800Y-77757141D01*
X118450481Y-77685027D01*
X118469200Y-77658729D01*
X118386235Y-77623213D01*
X118316800Y-77618800D01*
X118774000Y-77618800D01*
X118811173Y-77702428D01*
X118841733Y-77686533D01*
X118853892Y-77565957D01*
X118841733Y-77551066D01*
X118781332Y-77565013D01*
X118774000Y-77618800D01*
X118316800Y-77618800D01*
X118181568Y-77671970D01*
X118164400Y-77717211D01*
X115321581Y-77717211D01*
X115031704Y-77507540D01*
X114764979Y-77263200D01*
X119180400Y-77263200D01*
X119231200Y-77314000D01*
X119282000Y-77263200D01*
X119231200Y-77212400D01*
X119180400Y-77263200D01*
X114764979Y-77263200D01*
X114664606Y-77171252D01*
X114644183Y-77144666D01*
X118604666Y-77144666D01*
X118618613Y-77205067D01*
X118672400Y-77212400D01*
X118756028Y-77175226D01*
X118740133Y-77144666D01*
X118619557Y-77132507D01*
X118604666Y-77144666D01*
X114644183Y-77144666D01*
X114393226Y-76817992D01*
X119078800Y-76817992D01*
X119141398Y-76873076D01*
X119180400Y-76856800D01*
X119278206Y-76722209D01*
X119282000Y-76692407D01*
X119219401Y-76637323D01*
X119180400Y-76653600D01*
X119082593Y-76788190D01*
X119078800Y-76817992D01*
X114393226Y-76817992D01*
X114383809Y-76805735D01*
X114139947Y-76354390D01*
X114061696Y-76182696D01*
X113821199Y-75517914D01*
X113730326Y-74916219D01*
X113781897Y-74311458D01*
X113833681Y-74081310D01*
X113907207Y-73813265D01*
X115532571Y-73813265D01*
X115533172Y-73827520D01*
X115564213Y-73870526D01*
X115629148Y-73741389D01*
X115649469Y-73681800D01*
X115752200Y-73427164D01*
X115830570Y-73369695D01*
X115881354Y-73504463D01*
X115901329Y-73826537D01*
X115898574Y-74062762D01*
X115869508Y-74457561D01*
X115814069Y-74683348D01*
X115739386Y-74730202D01*
X115652588Y-74588201D01*
X115611929Y-74461667D01*
X115561075Y-74304895D01*
X115538868Y-74337454D01*
X115532927Y-74423480D01*
X115601199Y-74689962D01*
X115801371Y-74841313D01*
X115978813Y-74854093D01*
X116098256Y-74806953D01*
X116166704Y-74676195D01*
X116203002Y-74412787D01*
X116213591Y-74243246D01*
X116208981Y-74054696D01*
X116847772Y-74054696D01*
X116886535Y-74230634D01*
X116942011Y-74266000D01*
X116998713Y-74191854D01*
X116983549Y-74117790D01*
X116976720Y-73946656D01*
X117023229Y-73698430D01*
X117100771Y-73450859D01*
X117187040Y-73281689D01*
X117232479Y-73250131D01*
X117265140Y-73343502D01*
X117289299Y-73590362D01*
X117300502Y-73941044D01*
X117300800Y-74012141D01*
X117292640Y-74444786D01*
X117264466Y-74687512D01*
X117210732Y-74753087D01*
X117125894Y-74654276D01*
X117069202Y-74545400D01*
X116987122Y-74407663D01*
X116954280Y-74454139D01*
X116952076Y-74487342D01*
X117007348Y-74666617D01*
X117140387Y-74857942D01*
X117284688Y-74971491D01*
X117314736Y-74977200D01*
X117434223Y-74934785D01*
X117561479Y-74872025D01*
X117688905Y-74751432D01*
X117747555Y-74530913D01*
X117758000Y-74277586D01*
X117722066Y-73795193D01*
X117625823Y-73425071D01*
X117486611Y-73184211D01*
X117321767Y-73089606D01*
X117148631Y-73158246D01*
X116984541Y-73407124D01*
X116951556Y-73487281D01*
X116869700Y-73786208D01*
X116847772Y-74054696D01*
X116208981Y-74054696D01*
X116201931Y-73766448D01*
X116115044Y-73433741D01*
X115960018Y-73266126D01*
X115878399Y-73250000D01*
X115712376Y-73338492D01*
X115581613Y-73552154D01*
X115532571Y-73813265D01*
X113907207Y-73813265D01*
X113966578Y-73596826D01*
X114103963Y-73204158D01*
X114271875Y-72862853D01*
X114496354Y-72532463D01*
X114803442Y-72172537D01*
X115219177Y-71742624D01*
X115481532Y-71483798D01*
X118300523Y-71483798D01*
X118316800Y-71522800D01*
X118451390Y-71620606D01*
X118481192Y-71624400D01*
X118534322Y-71564021D01*
X118702539Y-71564021D01*
X118774000Y-71624400D01*
X118936115Y-71715779D01*
X118957714Y-71681363D01*
X118926400Y-71624400D01*
X118778021Y-71527801D01*
X118742603Y-71524355D01*
X118702539Y-71564021D01*
X118534322Y-71564021D01*
X118536276Y-71561801D01*
X118520000Y-71522800D01*
X118385409Y-71424993D01*
X118355607Y-71421200D01*
X118300523Y-71483798D01*
X115481532Y-71483798D01*
X115548200Y-71418027D01*
X115969697Y-70997125D01*
X115990699Y-70974379D01*
X117702151Y-70974379D01*
X117758000Y-71065600D01*
X117910982Y-71193667D01*
X117986080Y-71218000D01*
X118017048Y-71156820D01*
X117961200Y-71065600D01*
X117837307Y-70961884D01*
X118120150Y-70961884D01*
X118154648Y-71061227D01*
X118190326Y-71120159D01*
X118308912Y-71289728D01*
X118359223Y-71287515D01*
X118367600Y-71178070D01*
X118285710Y-71020887D01*
X118216686Y-70978629D01*
X118120150Y-70961884D01*
X117837307Y-70961884D01*
X117808217Y-70937532D01*
X117733119Y-70913200D01*
X117702151Y-70974379D01*
X115990699Y-70974379D01*
X116258782Y-70684043D01*
X116313362Y-70612837D01*
X117602857Y-70612837D01*
X117636303Y-70689397D01*
X117752003Y-70710000D01*
X117920609Y-70693636D01*
X117961200Y-70670070D01*
X117881047Y-70593175D01*
X117721446Y-70567206D01*
X117603686Y-70611535D01*
X117602857Y-70612837D01*
X116313362Y-70612837D01*
X116436005Y-70452838D01*
X116521921Y-70277569D01*
X116538800Y-70167666D01*
X116551168Y-69974300D01*
X116624461Y-69954260D01*
X116764606Y-70043838D01*
G36*
X117656400Y-79193600D02*
X117605600Y-79244400D01*
X117554800Y-79193600D01*
X117605600Y-79142800D01*
X117656400Y-79193600D01*
X117656400Y-79193600D01*
G37*
X117656400Y-79193600D02*
X117605600Y-79244400D01*
X117554800Y-79193600D01*
X117605600Y-79142800D01*
X117656400Y-79193600D01*
G36*
X117202274Y-79118521D02*
X117391177Y-79168016D01*
X117453200Y-79205444D01*
X117373340Y-79245050D01*
X117202988Y-79236402D01*
X117045985Y-79190613D01*
X117005070Y-79157476D01*
X117046732Y-79109127D01*
X117202274Y-79118521D01*
X117202274Y-79118521D01*
G37*
X117202274Y-79118521D02*
X117391177Y-79168016D01*
X117453200Y-79205444D01*
X117373340Y-79245050D01*
X117202988Y-79236402D01*
X117045985Y-79190613D01*
X117005070Y-79157476D01*
X117046732Y-79109127D01*
X117202274Y-79118521D01*
D10*
G36*
X88889941Y-107566248D02*
X88889943Y-107566249D01*
X88889944Y-107566249D01*
X89445190Y-107796239D01*
X89445191Y-107796240D01*
X89944902Y-108130136D01*
X90369864Y-108555098D01*
X90369866Y-108555101D01*
X90703761Y-109054810D01*
X90924814Y-109588480D01*
X90933752Y-109610059D01*
X91051000Y-110199501D01*
X91051000Y-110800499D01*
X90939637Y-111360356D01*
X90933751Y-111389944D01*
X90703761Y-111945190D01*
X90703760Y-111945191D01*
X90369864Y-112444902D01*
X89944902Y-112869864D01*
X89944899Y-112869866D01*
X89445190Y-113203761D01*
X88889944Y-113433751D01*
X88889943Y-113433751D01*
X88889941Y-113433752D01*
X88300499Y-113551000D01*
X87699501Y-113551000D01*
X87110059Y-113433752D01*
X87110057Y-113433751D01*
X87110056Y-113433751D01*
X86554810Y-113203761D01*
X86055101Y-112869866D01*
X86055098Y-112869864D01*
X85630136Y-112444902D01*
X85296240Y-111945191D01*
X85296239Y-111945190D01*
X85066249Y-111389944D01*
X85060364Y-111360356D01*
X84949000Y-110800499D01*
X84949000Y-110199501D01*
X85066248Y-109610059D01*
X85075186Y-109588480D01*
X85296239Y-109054810D01*
X85630134Y-108555101D01*
X85630136Y-108555098D01*
X86055098Y-108130136D01*
X86554809Y-107796240D01*
X86554810Y-107796239D01*
X87110056Y-107566249D01*
X87110057Y-107566249D01*
X87110059Y-107566248D01*
X87699501Y-107449000D01*
X88300499Y-107449000D01*
X88889941Y-107566248D01*
X88889941Y-107566248D01*
G37*
G36*
X57689941Y-107566248D02*
X57689943Y-107566249D01*
X57689944Y-107566249D01*
X58245190Y-107796239D01*
X58245191Y-107796240D01*
X58744902Y-108130136D01*
X59169864Y-108555098D01*
X59169866Y-108555101D01*
X59503761Y-109054810D01*
X59724814Y-109588480D01*
X59733752Y-109610059D01*
X59851000Y-110199501D01*
X59851000Y-110800499D01*
X59739637Y-111360356D01*
X59733751Y-111389944D01*
X59503761Y-111945190D01*
X59503760Y-111945191D01*
X59169864Y-112444902D01*
X58744902Y-112869864D01*
X58744899Y-112869866D01*
X58245190Y-113203761D01*
X57689944Y-113433751D01*
X57689943Y-113433751D01*
X57689941Y-113433752D01*
X57100499Y-113551000D01*
X56499501Y-113551000D01*
X55910059Y-113433752D01*
X55910057Y-113433751D01*
X55910056Y-113433751D01*
X55354810Y-113203761D01*
X54855101Y-112869866D01*
X54855098Y-112869864D01*
X54430136Y-112444902D01*
X54096240Y-111945191D01*
X54096239Y-111945190D01*
X53866249Y-111389944D01*
X53860364Y-111360356D01*
X53749000Y-110800499D01*
X53749000Y-110199501D01*
X53866248Y-109610059D01*
X53875186Y-109588480D01*
X54096239Y-109054810D01*
X54430134Y-108555101D01*
X54430136Y-108555098D01*
X54855098Y-108130136D01*
X55354809Y-107796240D01*
X55354810Y-107796239D01*
X55910056Y-107566249D01*
X55910057Y-107566249D01*
X55910059Y-107566248D01*
X56499501Y-107449000D01*
X57100499Y-107449000D01*
X57689941Y-107566248D01*
X57689941Y-107566248D01*
G37*
G36*
X81348014Y-109556973D02*
X81451878Y-109588479D01*
X81547600Y-109639644D01*
X81631501Y-109708499D01*
X81700356Y-109792400D01*
X81751521Y-109888121D01*
X81783027Y-109991985D01*
X81791000Y-110072933D01*
X81791000Y-110927067D01*
X81783027Y-111008015D01*
X81751521Y-111111879D01*
X81700356Y-111207600D01*
X81631501Y-111291501D01*
X81547600Y-111360356D01*
X81451879Y-111411521D01*
X81348015Y-111443027D01*
X81240000Y-111453666D01*
X81131986Y-111443027D01*
X81028122Y-111411521D01*
X80932401Y-111360356D01*
X80848500Y-111291501D01*
X80779645Y-111207600D01*
X80728480Y-111111879D01*
X80724614Y-111099135D01*
X80715239Y-111076504D01*
X80701625Y-111056129D01*
X80684298Y-111038802D01*
X80663923Y-111025189D01*
X80641284Y-111015812D01*
X80617250Y-111011032D01*
X80592746Y-111011032D01*
X80568712Y-111015813D01*
X80546074Y-111025191D01*
X80525699Y-111038805D01*
X80508372Y-111056132D01*
X80494759Y-111076507D01*
X80485386Y-111099137D01*
X80481521Y-111111879D01*
X80430356Y-111207600D01*
X80361501Y-111291501D01*
X80277600Y-111360356D01*
X80181879Y-111411521D01*
X80078015Y-111443027D01*
X79970000Y-111453666D01*
X79861986Y-111443027D01*
X79758122Y-111411521D01*
X79662401Y-111360356D01*
X79578500Y-111291501D01*
X79509645Y-111207600D01*
X79458480Y-111111879D01*
X79454614Y-111099135D01*
X79445239Y-111076504D01*
X79431625Y-111056129D01*
X79414298Y-111038802D01*
X79393923Y-111025189D01*
X79371284Y-111015812D01*
X79347250Y-111011032D01*
X79322746Y-111011032D01*
X79298712Y-111015813D01*
X79276074Y-111025191D01*
X79255699Y-111038805D01*
X79238372Y-111056132D01*
X79224759Y-111076507D01*
X79215386Y-111099137D01*
X79211521Y-111111879D01*
X79160356Y-111207600D01*
X79091501Y-111291501D01*
X79007600Y-111360356D01*
X78911879Y-111411521D01*
X78808015Y-111443027D01*
X78700000Y-111453666D01*
X78591986Y-111443027D01*
X78488122Y-111411521D01*
X78392401Y-111360356D01*
X78308500Y-111291501D01*
X78239645Y-111207600D01*
X78188480Y-111111879D01*
X78184614Y-111099135D01*
X78175239Y-111076504D01*
X78161625Y-111056129D01*
X78144298Y-111038802D01*
X78123923Y-111025189D01*
X78101284Y-111015812D01*
X78077250Y-111011032D01*
X78052746Y-111011032D01*
X78028712Y-111015813D01*
X78006074Y-111025191D01*
X77985699Y-111038805D01*
X77968372Y-111056132D01*
X77954759Y-111076507D01*
X77945386Y-111099137D01*
X77941521Y-111111879D01*
X77890356Y-111207600D01*
X77821501Y-111291501D01*
X77737600Y-111360356D01*
X77641879Y-111411521D01*
X77538015Y-111443027D01*
X77430000Y-111453666D01*
X77321986Y-111443027D01*
X77218122Y-111411521D01*
X77122401Y-111360356D01*
X77038500Y-111291501D01*
X76969645Y-111207600D01*
X76918480Y-111111879D01*
X76914614Y-111099135D01*
X76905239Y-111076504D01*
X76891625Y-111056129D01*
X76874298Y-111038802D01*
X76853923Y-111025189D01*
X76831284Y-111015812D01*
X76807250Y-111011032D01*
X76782746Y-111011032D01*
X76758712Y-111015813D01*
X76736074Y-111025191D01*
X76715699Y-111038805D01*
X76698372Y-111056132D01*
X76684759Y-111076507D01*
X76675386Y-111099137D01*
X76671521Y-111111879D01*
X76620356Y-111207600D01*
X76551501Y-111291501D01*
X76467600Y-111360356D01*
X76371879Y-111411521D01*
X76268015Y-111443027D01*
X76160000Y-111453666D01*
X76051986Y-111443027D01*
X75948122Y-111411521D01*
X75852401Y-111360356D01*
X75768500Y-111291501D01*
X75699645Y-111207600D01*
X75648480Y-111111879D01*
X75644614Y-111099135D01*
X75635239Y-111076504D01*
X75621625Y-111056129D01*
X75604298Y-111038802D01*
X75583923Y-111025189D01*
X75561284Y-111015812D01*
X75537250Y-111011032D01*
X75512746Y-111011032D01*
X75488712Y-111015813D01*
X75466074Y-111025191D01*
X75445699Y-111038805D01*
X75428372Y-111056132D01*
X75414759Y-111076507D01*
X75405386Y-111099137D01*
X75401521Y-111111879D01*
X75350356Y-111207600D01*
X75281501Y-111291501D01*
X75197600Y-111360356D01*
X75101879Y-111411521D01*
X74998015Y-111443027D01*
X74890000Y-111453666D01*
X74781986Y-111443027D01*
X74678122Y-111411521D01*
X74582401Y-111360356D01*
X74498500Y-111291501D01*
X74429645Y-111207600D01*
X74378480Y-111111879D01*
X74374614Y-111099135D01*
X74365239Y-111076504D01*
X74351625Y-111056129D01*
X74334298Y-111038802D01*
X74313923Y-111025189D01*
X74291284Y-111015812D01*
X74267250Y-111011032D01*
X74242746Y-111011032D01*
X74218712Y-111015813D01*
X74196074Y-111025191D01*
X74175699Y-111038805D01*
X74158372Y-111056132D01*
X74144759Y-111076507D01*
X74135386Y-111099137D01*
X74131521Y-111111879D01*
X74080356Y-111207600D01*
X74011501Y-111291501D01*
X73927600Y-111360356D01*
X73831879Y-111411521D01*
X73728015Y-111443027D01*
X73620000Y-111453666D01*
X73511986Y-111443027D01*
X73408122Y-111411521D01*
X73312401Y-111360356D01*
X73228500Y-111291501D01*
X73159645Y-111207600D01*
X73108480Y-111111879D01*
X73104614Y-111099135D01*
X73095239Y-111076504D01*
X73081625Y-111056129D01*
X73064298Y-111038802D01*
X73043923Y-111025189D01*
X73021284Y-111015812D01*
X72997250Y-111011032D01*
X72972746Y-111011032D01*
X72948712Y-111015813D01*
X72926074Y-111025191D01*
X72905699Y-111038805D01*
X72888372Y-111056132D01*
X72874759Y-111076507D01*
X72865386Y-111099137D01*
X72861521Y-111111879D01*
X72810356Y-111207600D01*
X72741501Y-111291501D01*
X72657600Y-111360356D01*
X72561879Y-111411521D01*
X72458015Y-111443027D01*
X72350000Y-111453666D01*
X72241986Y-111443027D01*
X72138122Y-111411521D01*
X72042401Y-111360356D01*
X71958500Y-111291501D01*
X71889645Y-111207600D01*
X71838480Y-111111879D01*
X71834614Y-111099135D01*
X71825239Y-111076504D01*
X71811625Y-111056129D01*
X71794298Y-111038802D01*
X71773923Y-111025189D01*
X71751284Y-111015812D01*
X71727250Y-111011032D01*
X71702746Y-111011032D01*
X71678712Y-111015813D01*
X71656074Y-111025191D01*
X71635699Y-111038805D01*
X71618372Y-111056132D01*
X71604759Y-111076507D01*
X71595386Y-111099137D01*
X71591521Y-111111879D01*
X71540356Y-111207600D01*
X71471501Y-111291501D01*
X71387600Y-111360356D01*
X71291879Y-111411521D01*
X71188015Y-111443027D01*
X71080000Y-111453666D01*
X70971986Y-111443027D01*
X70868122Y-111411521D01*
X70772401Y-111360356D01*
X70688500Y-111291501D01*
X70619645Y-111207600D01*
X70568480Y-111111879D01*
X70564614Y-111099135D01*
X70555239Y-111076504D01*
X70541625Y-111056129D01*
X70524298Y-111038802D01*
X70503923Y-111025189D01*
X70481284Y-111015812D01*
X70457250Y-111011032D01*
X70432746Y-111011032D01*
X70408712Y-111015813D01*
X70386074Y-111025191D01*
X70365699Y-111038805D01*
X70348372Y-111056132D01*
X70334759Y-111076507D01*
X70325386Y-111099137D01*
X70321521Y-111111879D01*
X70270356Y-111207600D01*
X70201501Y-111291501D01*
X70117600Y-111360356D01*
X70021879Y-111411521D01*
X69918015Y-111443027D01*
X69810000Y-111453666D01*
X69701986Y-111443027D01*
X69598122Y-111411521D01*
X69502401Y-111360356D01*
X69418500Y-111291501D01*
X69349645Y-111207600D01*
X69298480Y-111111879D01*
X69294614Y-111099135D01*
X69285239Y-111076504D01*
X69271625Y-111056129D01*
X69254298Y-111038802D01*
X69233923Y-111025189D01*
X69211284Y-111015812D01*
X69187250Y-111011032D01*
X69162746Y-111011032D01*
X69138712Y-111015813D01*
X69116074Y-111025191D01*
X69095699Y-111038805D01*
X69078372Y-111056132D01*
X69064759Y-111076507D01*
X69055386Y-111099137D01*
X69051521Y-111111879D01*
X69000356Y-111207600D01*
X68931501Y-111291501D01*
X68847600Y-111360356D01*
X68751879Y-111411521D01*
X68648015Y-111443027D01*
X68540000Y-111453666D01*
X68431986Y-111443027D01*
X68328122Y-111411521D01*
X68232401Y-111360356D01*
X68148500Y-111291501D01*
X68079645Y-111207600D01*
X68028480Y-111111879D01*
X68024614Y-111099135D01*
X68015239Y-111076504D01*
X68001625Y-111056129D01*
X67984298Y-111038802D01*
X67963923Y-111025189D01*
X67941284Y-111015812D01*
X67917250Y-111011032D01*
X67892746Y-111011032D01*
X67868712Y-111015813D01*
X67846074Y-111025191D01*
X67825699Y-111038805D01*
X67808372Y-111056132D01*
X67794759Y-111076507D01*
X67785386Y-111099137D01*
X67781521Y-111111879D01*
X67730356Y-111207600D01*
X67661501Y-111291501D01*
X67577600Y-111360356D01*
X67481879Y-111411521D01*
X67378015Y-111443027D01*
X67270000Y-111453666D01*
X67161986Y-111443027D01*
X67058122Y-111411521D01*
X66962401Y-111360356D01*
X66878500Y-111291501D01*
X66809645Y-111207600D01*
X66758480Y-111111879D01*
X66754614Y-111099135D01*
X66745239Y-111076504D01*
X66731625Y-111056129D01*
X66714298Y-111038802D01*
X66693923Y-111025189D01*
X66671284Y-111015812D01*
X66647250Y-111011032D01*
X66622746Y-111011032D01*
X66598712Y-111015813D01*
X66576074Y-111025191D01*
X66555699Y-111038805D01*
X66538372Y-111056132D01*
X66524759Y-111076507D01*
X66515386Y-111099137D01*
X66511521Y-111111879D01*
X66460356Y-111207600D01*
X66391501Y-111291501D01*
X66307600Y-111360356D01*
X66211879Y-111411521D01*
X66108015Y-111443027D01*
X66000000Y-111453666D01*
X65891986Y-111443027D01*
X65788122Y-111411521D01*
X65692401Y-111360356D01*
X65608500Y-111291501D01*
X65539645Y-111207600D01*
X65488480Y-111111879D01*
X65484614Y-111099135D01*
X65475239Y-111076504D01*
X65461625Y-111056129D01*
X65444298Y-111038802D01*
X65423923Y-111025189D01*
X65401284Y-111015812D01*
X65377250Y-111011032D01*
X65352746Y-111011032D01*
X65328712Y-111015813D01*
X65306074Y-111025191D01*
X65285699Y-111038805D01*
X65268372Y-111056132D01*
X65254759Y-111076507D01*
X65245386Y-111099137D01*
X65241521Y-111111879D01*
X65190356Y-111207600D01*
X65121501Y-111291501D01*
X65037600Y-111360356D01*
X64941879Y-111411521D01*
X64838015Y-111443027D01*
X64730000Y-111453666D01*
X64621986Y-111443027D01*
X64518122Y-111411521D01*
X64422401Y-111360356D01*
X64338500Y-111291501D01*
X64269645Y-111207600D01*
X64218480Y-111111879D01*
X64214614Y-111099135D01*
X64205239Y-111076504D01*
X64191625Y-111056129D01*
X64174298Y-111038802D01*
X64153923Y-111025189D01*
X64131284Y-111015812D01*
X64107250Y-111011032D01*
X64082746Y-111011032D01*
X64058712Y-111015813D01*
X64036074Y-111025191D01*
X64015699Y-111038805D01*
X63998372Y-111056132D01*
X63984759Y-111076507D01*
X63975386Y-111099137D01*
X63971521Y-111111879D01*
X63920356Y-111207600D01*
X63851501Y-111291501D01*
X63767600Y-111360356D01*
X63671879Y-111411521D01*
X63568015Y-111443027D01*
X63460000Y-111453666D01*
X63351986Y-111443027D01*
X63248122Y-111411521D01*
X63152401Y-111360356D01*
X63068500Y-111291501D01*
X62999645Y-111207600D01*
X62948480Y-111111879D01*
X62922183Y-111025191D01*
X62916973Y-111008016D01*
X62915834Y-110996451D01*
X62909000Y-110927067D01*
X62909000Y-110072934D01*
X62916973Y-109991986D01*
X62948479Y-109888122D01*
X62999644Y-109792400D01*
X63068499Y-109708499D01*
X63152400Y-109639644D01*
X63248121Y-109588479D01*
X63351985Y-109556973D01*
X63460000Y-109546334D01*
X63568014Y-109556973D01*
X63671878Y-109588479D01*
X63767600Y-109639644D01*
X63851501Y-109708499D01*
X63920356Y-109792400D01*
X63971521Y-109888121D01*
X63975387Y-109900867D01*
X63984759Y-109923493D01*
X63998373Y-109943867D01*
X64015700Y-109961195D01*
X64036074Y-109974809D01*
X64058713Y-109984186D01*
X64082747Y-109988967D01*
X64107251Y-109988967D01*
X64131285Y-109984187D01*
X64153924Y-109974810D01*
X64174298Y-109961196D01*
X64191626Y-109943869D01*
X64205240Y-109923495D01*
X64214617Y-109900855D01*
X64214617Y-109900854D01*
X64218479Y-109888122D01*
X64269644Y-109792400D01*
X64338499Y-109708499D01*
X64422400Y-109639644D01*
X64518121Y-109588479D01*
X64621985Y-109556973D01*
X64730000Y-109546334D01*
X64838014Y-109556973D01*
X64941878Y-109588479D01*
X65037600Y-109639644D01*
X65121501Y-109708499D01*
X65190356Y-109792400D01*
X65241521Y-109888121D01*
X65245387Y-109900867D01*
X65254759Y-109923493D01*
X65268373Y-109943867D01*
X65285700Y-109961195D01*
X65306074Y-109974809D01*
X65328713Y-109984186D01*
X65352747Y-109988967D01*
X65377251Y-109988967D01*
X65401285Y-109984187D01*
X65423924Y-109974810D01*
X65444298Y-109961196D01*
X65461626Y-109943869D01*
X65475240Y-109923495D01*
X65484617Y-109900855D01*
X65484617Y-109900854D01*
X65488479Y-109888122D01*
X65539644Y-109792400D01*
X65608499Y-109708499D01*
X65692400Y-109639644D01*
X65788121Y-109588479D01*
X65891985Y-109556973D01*
X66000000Y-109546334D01*
X66108014Y-109556973D01*
X66211878Y-109588479D01*
X66307600Y-109639644D01*
X66391501Y-109708499D01*
X66460356Y-109792400D01*
X66511521Y-109888121D01*
X66515387Y-109900867D01*
X66524759Y-109923493D01*
X66538373Y-109943867D01*
X66555700Y-109961195D01*
X66576074Y-109974809D01*
X66598713Y-109984186D01*
X66622747Y-109988967D01*
X66647251Y-109988967D01*
X66671285Y-109984187D01*
X66693924Y-109974810D01*
X66714298Y-109961196D01*
X66731626Y-109943869D01*
X66745240Y-109923495D01*
X66754617Y-109900855D01*
X66754617Y-109900854D01*
X66758479Y-109888122D01*
X66809644Y-109792400D01*
X66878499Y-109708499D01*
X66962400Y-109639644D01*
X67058121Y-109588479D01*
X67161985Y-109556973D01*
X67270000Y-109546334D01*
X67378014Y-109556973D01*
X67481878Y-109588479D01*
X67577600Y-109639644D01*
X67661501Y-109708499D01*
X67730356Y-109792400D01*
X67781521Y-109888121D01*
X67785387Y-109900867D01*
X67794759Y-109923493D01*
X67808373Y-109943867D01*
X67825700Y-109961195D01*
X67846074Y-109974809D01*
X67868713Y-109984186D01*
X67892747Y-109988967D01*
X67917251Y-109988967D01*
X67941285Y-109984187D01*
X67963924Y-109974810D01*
X67984298Y-109961196D01*
X68001626Y-109943869D01*
X68015240Y-109923495D01*
X68024617Y-109900855D01*
X68024617Y-109900854D01*
X68028479Y-109888122D01*
X68079644Y-109792400D01*
X68148499Y-109708499D01*
X68232400Y-109639644D01*
X68328121Y-109588479D01*
X68431985Y-109556973D01*
X68540000Y-109546334D01*
X68648014Y-109556973D01*
X68751878Y-109588479D01*
X68847600Y-109639644D01*
X68931501Y-109708499D01*
X69000356Y-109792400D01*
X69051521Y-109888121D01*
X69055387Y-109900867D01*
X69064759Y-109923493D01*
X69078373Y-109943867D01*
X69095700Y-109961195D01*
X69116074Y-109974809D01*
X69138713Y-109984186D01*
X69162747Y-109988967D01*
X69187251Y-109988967D01*
X69211285Y-109984187D01*
X69233924Y-109974810D01*
X69254298Y-109961196D01*
X69271626Y-109943869D01*
X69285240Y-109923495D01*
X69294617Y-109900855D01*
X69294617Y-109900854D01*
X69298479Y-109888122D01*
X69349644Y-109792400D01*
X69418499Y-109708499D01*
X69502400Y-109639644D01*
X69598121Y-109588479D01*
X69701985Y-109556973D01*
X69810000Y-109546334D01*
X69918014Y-109556973D01*
X70021878Y-109588479D01*
X70117600Y-109639644D01*
X70201501Y-109708499D01*
X70270356Y-109792400D01*
X70321521Y-109888121D01*
X70325387Y-109900867D01*
X70334759Y-109923493D01*
X70348373Y-109943867D01*
X70365700Y-109961195D01*
X70386074Y-109974809D01*
X70408713Y-109984186D01*
X70432747Y-109988967D01*
X70457251Y-109988967D01*
X70481285Y-109984187D01*
X70503924Y-109974810D01*
X70524298Y-109961196D01*
X70541626Y-109943869D01*
X70555240Y-109923495D01*
X70564617Y-109900855D01*
X70564617Y-109900854D01*
X70568479Y-109888122D01*
X70619644Y-109792400D01*
X70688499Y-109708499D01*
X70772400Y-109639644D01*
X70868121Y-109588479D01*
X70971985Y-109556973D01*
X71080000Y-109546334D01*
X71188014Y-109556973D01*
X71291878Y-109588479D01*
X71387600Y-109639644D01*
X71471501Y-109708499D01*
X71540356Y-109792400D01*
X71591521Y-109888121D01*
X71595387Y-109900867D01*
X71604759Y-109923493D01*
X71618373Y-109943867D01*
X71635700Y-109961195D01*
X71656074Y-109974809D01*
X71678713Y-109984186D01*
X71702747Y-109988967D01*
X71727251Y-109988967D01*
X71751285Y-109984187D01*
X71773924Y-109974810D01*
X71794298Y-109961196D01*
X71811626Y-109943869D01*
X71825240Y-109923495D01*
X71834617Y-109900855D01*
X71834617Y-109900854D01*
X71838479Y-109888122D01*
X71889644Y-109792400D01*
X71958499Y-109708499D01*
X72042400Y-109639644D01*
X72138121Y-109588479D01*
X72241985Y-109556973D01*
X72350000Y-109546334D01*
X72458014Y-109556973D01*
X72561878Y-109588479D01*
X72657600Y-109639644D01*
X72741501Y-109708499D01*
X72810356Y-109792400D01*
X72861521Y-109888121D01*
X72865387Y-109900867D01*
X72874759Y-109923493D01*
X72888373Y-109943867D01*
X72905700Y-109961195D01*
X72926074Y-109974809D01*
X72948713Y-109984186D01*
X72972747Y-109988967D01*
X72997251Y-109988967D01*
X73021285Y-109984187D01*
X73043924Y-109974810D01*
X73064298Y-109961196D01*
X73081626Y-109943869D01*
X73095240Y-109923495D01*
X73104617Y-109900855D01*
X73104617Y-109900854D01*
X73108479Y-109888122D01*
X73159644Y-109792400D01*
X73228499Y-109708499D01*
X73312400Y-109639644D01*
X73408121Y-109588479D01*
X73511985Y-109556973D01*
X73620000Y-109546334D01*
X73728014Y-109556973D01*
X73831878Y-109588479D01*
X73927600Y-109639644D01*
X74011501Y-109708499D01*
X74080356Y-109792400D01*
X74131521Y-109888121D01*
X74135387Y-109900867D01*
X74144759Y-109923493D01*
X74158373Y-109943867D01*
X74175700Y-109961195D01*
X74196074Y-109974809D01*
X74218713Y-109984186D01*
X74242747Y-109988967D01*
X74267251Y-109988967D01*
X74291285Y-109984187D01*
X74313924Y-109974810D01*
X74334298Y-109961196D01*
X74351626Y-109943869D01*
X74365240Y-109923495D01*
X74374617Y-109900855D01*
X74374617Y-109900854D01*
X74378479Y-109888122D01*
X74429644Y-109792400D01*
X74498499Y-109708499D01*
X74582400Y-109639644D01*
X74678121Y-109588479D01*
X74781985Y-109556973D01*
X74890000Y-109546334D01*
X74998014Y-109556973D01*
X75101878Y-109588479D01*
X75197600Y-109639644D01*
X75281501Y-109708499D01*
X75350356Y-109792400D01*
X75401521Y-109888121D01*
X75405387Y-109900867D01*
X75414759Y-109923493D01*
X75428373Y-109943867D01*
X75445700Y-109961195D01*
X75466074Y-109974809D01*
X75488713Y-109984186D01*
X75512747Y-109988967D01*
X75537251Y-109988967D01*
X75561285Y-109984187D01*
X75583924Y-109974810D01*
X75604298Y-109961196D01*
X75621626Y-109943869D01*
X75635240Y-109923495D01*
X75644617Y-109900855D01*
X75644617Y-109900854D01*
X75648479Y-109888122D01*
X75699644Y-109792400D01*
X75768499Y-109708499D01*
X75852400Y-109639644D01*
X75948121Y-109588479D01*
X76051985Y-109556973D01*
X76160000Y-109546334D01*
X76268014Y-109556973D01*
X76371878Y-109588479D01*
X76467600Y-109639644D01*
X76551501Y-109708499D01*
X76620356Y-109792400D01*
X76671521Y-109888121D01*
X76675387Y-109900867D01*
X76684759Y-109923493D01*
X76698373Y-109943867D01*
X76715700Y-109961195D01*
X76736074Y-109974809D01*
X76758713Y-109984186D01*
X76782747Y-109988967D01*
X76807251Y-109988967D01*
X76831285Y-109984187D01*
X76853924Y-109974810D01*
X76874298Y-109961196D01*
X76891626Y-109943869D01*
X76905240Y-109923495D01*
X76914617Y-109900855D01*
X76914617Y-109900854D01*
X76918479Y-109888122D01*
X76969644Y-109792400D01*
X77038499Y-109708499D01*
X77122400Y-109639644D01*
X77218121Y-109588479D01*
X77321985Y-109556973D01*
X77430000Y-109546334D01*
X77538014Y-109556973D01*
X77641878Y-109588479D01*
X77737600Y-109639644D01*
X77821501Y-109708499D01*
X77890356Y-109792400D01*
X77941521Y-109888121D01*
X77945387Y-109900867D01*
X77954759Y-109923493D01*
X77968373Y-109943867D01*
X77985700Y-109961195D01*
X78006074Y-109974809D01*
X78028713Y-109984186D01*
X78052747Y-109988967D01*
X78077251Y-109988967D01*
X78101285Y-109984187D01*
X78123924Y-109974810D01*
X78144298Y-109961196D01*
X78161626Y-109943869D01*
X78175240Y-109923495D01*
X78184617Y-109900855D01*
X78184617Y-109900854D01*
X78188479Y-109888122D01*
X78239644Y-109792400D01*
X78308499Y-109708499D01*
X78392400Y-109639644D01*
X78488121Y-109588479D01*
X78591985Y-109556973D01*
X78700000Y-109546334D01*
X78808014Y-109556973D01*
X78911878Y-109588479D01*
X79007600Y-109639644D01*
X79091501Y-109708499D01*
X79160356Y-109792400D01*
X79211521Y-109888121D01*
X79215387Y-109900867D01*
X79224759Y-109923493D01*
X79238373Y-109943867D01*
X79255700Y-109961195D01*
X79276074Y-109974809D01*
X79298713Y-109984186D01*
X79322747Y-109988967D01*
X79347251Y-109988967D01*
X79371285Y-109984187D01*
X79393924Y-109974810D01*
X79414298Y-109961196D01*
X79431626Y-109943869D01*
X79445240Y-109923495D01*
X79454617Y-109900855D01*
X79454617Y-109900854D01*
X79458479Y-109888122D01*
X79509644Y-109792400D01*
X79578499Y-109708499D01*
X79662400Y-109639644D01*
X79758121Y-109588479D01*
X79861985Y-109556973D01*
X79970000Y-109546334D01*
X80078014Y-109556973D01*
X80181878Y-109588479D01*
X80277600Y-109639644D01*
X80361501Y-109708499D01*
X80430356Y-109792400D01*
X80481521Y-109888121D01*
X80485387Y-109900867D01*
X80494759Y-109923493D01*
X80508373Y-109943867D01*
X80525700Y-109961195D01*
X80546074Y-109974809D01*
X80568713Y-109984186D01*
X80592747Y-109988967D01*
X80617251Y-109988967D01*
X80641285Y-109984187D01*
X80663924Y-109974810D01*
X80684298Y-109961196D01*
X80701626Y-109943869D01*
X80715240Y-109923495D01*
X80724617Y-109900855D01*
X80724617Y-109900854D01*
X80728479Y-109888122D01*
X80779644Y-109792400D01*
X80848499Y-109708499D01*
X80932400Y-109639644D01*
X81028121Y-109588479D01*
X81131985Y-109556973D01*
X81240000Y-109546334D01*
X81348014Y-109556973D01*
X81348014Y-109556973D01*
G37*
G36*
X115676627Y-108487037D02*
X115789853Y-108521384D01*
X115846467Y-108538557D01*
X115985087Y-108612652D01*
X116002991Y-108622222D01*
X116038729Y-108651552D01*
X116140186Y-108734814D01*
X116223448Y-108836271D01*
X116252778Y-108872009D01*
X116336443Y-109028534D01*
X116387963Y-109198374D01*
X116401000Y-109330743D01*
X116401000Y-109669258D01*
X116387963Y-109801627D01*
X116353616Y-109914853D01*
X116336443Y-109971467D01*
X116325474Y-109991988D01*
X116252778Y-110127991D01*
X116223448Y-110163729D01*
X116140186Y-110265186D01*
X116002989Y-110377779D01*
X115846466Y-110461443D01*
X115805733Y-110473799D01*
X115676626Y-110512963D01*
X115500000Y-110530359D01*
X115323373Y-110512963D01*
X115194266Y-110473799D01*
X115153533Y-110461443D01*
X114997011Y-110377779D01*
X114997009Y-110377778D01*
X114954749Y-110343096D01*
X114859814Y-110265186D01*
X114747221Y-110127989D01*
X114663557Y-109971466D01*
X114642138Y-109900855D01*
X114612037Y-109801626D01*
X114599000Y-109669257D01*
X114599000Y-109330742D01*
X114612037Y-109198373D01*
X114655586Y-109054810D01*
X114663557Y-109028533D01*
X114747222Y-108872008D01*
X114859812Y-108734817D01*
X114954750Y-108656904D01*
X114997010Y-108622222D01*
X115014914Y-108612652D01*
X115153534Y-108538557D01*
X115210148Y-108521384D01*
X115323374Y-108487037D01*
X115500000Y-108469641D01*
X115676627Y-108487037D01*
X115676627Y-108487037D01*
G37*
G36*
X113176627Y-108487037D02*
X113289853Y-108521384D01*
X113346467Y-108538557D01*
X113485087Y-108612652D01*
X113502991Y-108622222D01*
X113538729Y-108651552D01*
X113640186Y-108734814D01*
X113723448Y-108836271D01*
X113752778Y-108872009D01*
X113836443Y-109028534D01*
X113887963Y-109198374D01*
X113901000Y-109330743D01*
X113901000Y-109669258D01*
X113887963Y-109801627D01*
X113853616Y-109914853D01*
X113836443Y-109971467D01*
X113825474Y-109991988D01*
X113752778Y-110127991D01*
X113723448Y-110163729D01*
X113640186Y-110265186D01*
X113502989Y-110377779D01*
X113346466Y-110461443D01*
X113305733Y-110473799D01*
X113176626Y-110512963D01*
X113000000Y-110530359D01*
X112823373Y-110512963D01*
X112694266Y-110473799D01*
X112653533Y-110461443D01*
X112497011Y-110377779D01*
X112497009Y-110377778D01*
X112454749Y-110343096D01*
X112359814Y-110265186D01*
X112247221Y-110127989D01*
X112163557Y-109971466D01*
X112142138Y-109900855D01*
X112112037Y-109801626D01*
X112099000Y-109669257D01*
X112099000Y-109330742D01*
X112112037Y-109198373D01*
X112155586Y-109054810D01*
X112163557Y-109028533D01*
X112247222Y-108872008D01*
X112359812Y-108734817D01*
X112454750Y-108656904D01*
X112497010Y-108622222D01*
X112514914Y-108612652D01*
X112653534Y-108538557D01*
X112710148Y-108521384D01*
X112823374Y-108487037D01*
X113000000Y-108469641D01*
X113176627Y-108487037D01*
X113176627Y-108487037D01*
G37*
G36*
X110676627Y-108487037D02*
X110789853Y-108521384D01*
X110846467Y-108538557D01*
X110985087Y-108612652D01*
X111002991Y-108622222D01*
X111038729Y-108651552D01*
X111140186Y-108734814D01*
X111223448Y-108836271D01*
X111252778Y-108872009D01*
X111336443Y-109028534D01*
X111387963Y-109198374D01*
X111401000Y-109330743D01*
X111401000Y-109669258D01*
X111387963Y-109801627D01*
X111353616Y-109914853D01*
X111336443Y-109971467D01*
X111325474Y-109991988D01*
X111252778Y-110127991D01*
X111223448Y-110163729D01*
X111140186Y-110265186D01*
X111002989Y-110377779D01*
X110846466Y-110461443D01*
X110805733Y-110473799D01*
X110676626Y-110512963D01*
X110500000Y-110530359D01*
X110323373Y-110512963D01*
X110194266Y-110473799D01*
X110153533Y-110461443D01*
X109997011Y-110377779D01*
X109997009Y-110377778D01*
X109954749Y-110343096D01*
X109859814Y-110265186D01*
X109747221Y-110127989D01*
X109663557Y-109971466D01*
X109642138Y-109900855D01*
X109612037Y-109801626D01*
X109599000Y-109669257D01*
X109599000Y-109330742D01*
X109612037Y-109198373D01*
X109655586Y-109054810D01*
X109663557Y-109028533D01*
X109747222Y-108872008D01*
X109859812Y-108734817D01*
X109954750Y-108656904D01*
X109997010Y-108622222D01*
X110014914Y-108612652D01*
X110153534Y-108538557D01*
X110210148Y-108521384D01*
X110323374Y-108487037D01*
X110500000Y-108469641D01*
X110676627Y-108487037D01*
X110676627Y-108487037D01*
G37*
G36*
X118758600Y-108477989D02*
X118791649Y-108488014D01*
X118822106Y-108504294D01*
X118848799Y-108526201D01*
X118870706Y-108552894D01*
X118886986Y-108583351D01*
X118897011Y-108616400D01*
X118901000Y-108656904D01*
X118901000Y-110343096D01*
X118897011Y-110383600D01*
X118886986Y-110416649D01*
X118870706Y-110447106D01*
X118848799Y-110473799D01*
X118822106Y-110495706D01*
X118791649Y-110511986D01*
X118758600Y-110522011D01*
X118718096Y-110526000D01*
X117281904Y-110526000D01*
X117241400Y-110522011D01*
X117208351Y-110511986D01*
X117177894Y-110495706D01*
X117151201Y-110473799D01*
X117129294Y-110447106D01*
X117113014Y-110416649D01*
X117102989Y-110383600D01*
X117099000Y-110343096D01*
X117099000Y-108656904D01*
X117102989Y-108616400D01*
X117113014Y-108583351D01*
X117129294Y-108552894D01*
X117151201Y-108526201D01*
X117177894Y-108504294D01*
X117208351Y-108488014D01*
X117241400Y-108477989D01*
X117281904Y-108474000D01*
X118718096Y-108474000D01*
X118758600Y-108477989D01*
X118758600Y-108477989D01*
G37*
G36*
X98176627Y-105462037D02*
X98289853Y-105496384D01*
X98346467Y-105513557D01*
X98485087Y-105587652D01*
X98502991Y-105597222D01*
X98538729Y-105626552D01*
X98640186Y-105709814D01*
X98723448Y-105811271D01*
X98752778Y-105847009D01*
X98836443Y-106003534D01*
X98887963Y-106173374D01*
X98901000Y-106305743D01*
X98901000Y-106694258D01*
X98887963Y-106826627D01*
X98853616Y-106939853D01*
X98836443Y-106996467D01*
X98762348Y-107135087D01*
X98752778Y-107152991D01*
X98723448Y-107188729D01*
X98640186Y-107290186D01*
X98502989Y-107402779D01*
X98346466Y-107486443D01*
X98305733Y-107498799D01*
X98176626Y-107537963D01*
X98000000Y-107555359D01*
X97823373Y-107537963D01*
X97694266Y-107498799D01*
X97653533Y-107486443D01*
X97497011Y-107402779D01*
X97497009Y-107402778D01*
X97454749Y-107368096D01*
X97359814Y-107290186D01*
X97247221Y-107152989D01*
X97163557Y-106996466D01*
X97146384Y-106939852D01*
X97112037Y-106826626D01*
X97099000Y-106694257D01*
X97099000Y-106305742D01*
X97112037Y-106173373D01*
X97163557Y-106003534D01*
X97163557Y-106003533D01*
X97247222Y-105847008D01*
X97359812Y-105709817D01*
X97454750Y-105631904D01*
X97497010Y-105597222D01*
X97514914Y-105587652D01*
X97653534Y-105513557D01*
X97710148Y-105496384D01*
X97823374Y-105462037D01*
X98000000Y-105444641D01*
X98176627Y-105462037D01*
X98176627Y-105462037D01*
G37*
G36*
X101258600Y-105452989D02*
X101291649Y-105463014D01*
X101322106Y-105479294D01*
X101348799Y-105501201D01*
X101370706Y-105527894D01*
X101386986Y-105558351D01*
X101397011Y-105591400D01*
X101401000Y-105631904D01*
X101401000Y-107368096D01*
X101397011Y-107408600D01*
X101386986Y-107441649D01*
X101370706Y-107472106D01*
X101348799Y-107498799D01*
X101322106Y-107520706D01*
X101291649Y-107536986D01*
X101258600Y-107547011D01*
X101218096Y-107551000D01*
X99781904Y-107551000D01*
X99741400Y-107547011D01*
X99708351Y-107536986D01*
X99677894Y-107520706D01*
X99651201Y-107498799D01*
X99629294Y-107472106D01*
X99613014Y-107441649D01*
X99602989Y-107408600D01*
X99599000Y-107368096D01*
X99599000Y-105631904D01*
X99602989Y-105591400D01*
X99613014Y-105558351D01*
X99629294Y-105527894D01*
X99651201Y-105501201D01*
X99677894Y-105479294D01*
X99708351Y-105463014D01*
X99741400Y-105452989D01*
X99781904Y-105449000D01*
X101218096Y-105449000D01*
X101258600Y-105452989D01*
X101258600Y-105452989D01*
G37*
G36*
X112551000Y-105551000D02*
X110449000Y-105551000D01*
X110449000Y-103449000D01*
X112551000Y-103449000D01*
X112551000Y-105551000D01*
X112551000Y-105551000D01*
G37*
G36*
X116806565Y-103489389D02*
X116997834Y-103568615D01*
X117169976Y-103683637D01*
X117316363Y-103830024D01*
X117431385Y-104002166D01*
X117510611Y-104193435D01*
X117551000Y-104396484D01*
X117551000Y-104603516D01*
X117510611Y-104806565D01*
X117431385Y-104997834D01*
X117316363Y-105169976D01*
X117169976Y-105316363D01*
X116997834Y-105431385D01*
X116806565Y-105510611D01*
X116603516Y-105551000D01*
X116396484Y-105551000D01*
X116193435Y-105510611D01*
X116002166Y-105431385D01*
X115830024Y-105316363D01*
X115683637Y-105169976D01*
X115568615Y-104997834D01*
X115489389Y-104806565D01*
X115449000Y-104603516D01*
X115449000Y-104396484D01*
X115489389Y-104193435D01*
X115568615Y-104002166D01*
X115683637Y-103830024D01*
X115830024Y-103683637D01*
X116002166Y-103568615D01*
X116193435Y-103489389D01*
X116396484Y-103449000D01*
X116603516Y-103449000D01*
X116806565Y-103489389D01*
X116806565Y-103489389D01*
G37*
G36*
X114306565Y-103489389D02*
X114497834Y-103568615D01*
X114669976Y-103683637D01*
X114816363Y-103830024D01*
X114931385Y-104002166D01*
X115010611Y-104193435D01*
X115051000Y-104396484D01*
X115051000Y-104603516D01*
X115010611Y-104806565D01*
X114931385Y-104997834D01*
X114816363Y-105169976D01*
X114669976Y-105316363D01*
X114497834Y-105431385D01*
X114306565Y-105510611D01*
X114103516Y-105551000D01*
X113896484Y-105551000D01*
X113693435Y-105510611D01*
X113502166Y-105431385D01*
X113330024Y-105316363D01*
X113183637Y-105169976D01*
X113068615Y-104997834D01*
X112989389Y-104806565D01*
X112949000Y-104603516D01*
X112949000Y-104396484D01*
X112989389Y-104193435D01*
X113068615Y-104002166D01*
X113183637Y-103830024D01*
X113330024Y-103683637D01*
X113502166Y-103568615D01*
X113693435Y-103489389D01*
X113896484Y-103449000D01*
X114103516Y-103449000D01*
X114306565Y-103489389D01*
X114306565Y-103489389D01*
G37*
G36*
X48533643Y-99129781D02*
X48679415Y-99190162D01*
X48810611Y-99277824D01*
X48922176Y-99389389D01*
X49009838Y-99520585D01*
X49070219Y-99666357D01*
X49101000Y-99821107D01*
X49101000Y-99978893D01*
X49070219Y-100133643D01*
X49009838Y-100279415D01*
X48922176Y-100410611D01*
X48810611Y-100522176D01*
X48679415Y-100609838D01*
X48533643Y-100670219D01*
X48378893Y-100701000D01*
X48221107Y-100701000D01*
X48066357Y-100670219D01*
X47920585Y-100609838D01*
X47789389Y-100522176D01*
X47677824Y-100410611D01*
X47590162Y-100279415D01*
X47529781Y-100133643D01*
X47499000Y-99978893D01*
X47499000Y-99821107D01*
X47529781Y-99666357D01*
X47590162Y-99520585D01*
X47677824Y-99389389D01*
X47789389Y-99277824D01*
X47920585Y-99190162D01*
X48066357Y-99129781D01*
X48221107Y-99099000D01*
X48378893Y-99099000D01*
X48533643Y-99129781D01*
X48533643Y-99129781D01*
G37*
G36*
X46632004Y-97760544D02*
X46719059Y-97777860D01*
X46855732Y-97834472D01*
X46855733Y-97834473D01*
X46978738Y-97916662D01*
X47083338Y-98021262D01*
X47083340Y-98021265D01*
X47165528Y-98144268D01*
X47222140Y-98280941D01*
X47251000Y-98426033D01*
X47251000Y-98573967D01*
X47222140Y-98719059D01*
X47165528Y-98855732D01*
X47165527Y-98855733D01*
X47083338Y-98978738D01*
X46978738Y-99083338D01*
X46978735Y-99083340D01*
X46855732Y-99165528D01*
X46719059Y-99222140D01*
X46632004Y-99239456D01*
X46573969Y-99251000D01*
X46426031Y-99251000D01*
X46367996Y-99239456D01*
X46280941Y-99222140D01*
X46144268Y-99165528D01*
X46021265Y-99083340D01*
X46021262Y-99083338D01*
X45916662Y-98978738D01*
X45834473Y-98855733D01*
X45834472Y-98855732D01*
X45777860Y-98719059D01*
X45749000Y-98573967D01*
X45749000Y-98426033D01*
X45777860Y-98280941D01*
X45834472Y-98144268D01*
X45916660Y-98021265D01*
X45916662Y-98021262D01*
X46021262Y-97916662D01*
X46144267Y-97834473D01*
X46144268Y-97834472D01*
X46280941Y-97777860D01*
X46367996Y-97760544D01*
X46426031Y-97749000D01*
X46573969Y-97749000D01*
X46632004Y-97760544D01*
X46632004Y-97760544D01*
G37*
G36*
X120651000Y-98651000D02*
X118549000Y-98651000D01*
X118549000Y-95349000D01*
X120651000Y-95349000D01*
X120651000Y-98651000D01*
X120651000Y-98651000D01*
G37*
G36*
X109451000Y-98651000D02*
X107349000Y-98651000D01*
X107349000Y-95349000D01*
X109451000Y-95349000D01*
X109451000Y-98651000D01*
X109451000Y-98651000D01*
G37*
G36*
X49172004Y-96490544D02*
X49259059Y-96507860D01*
X49395732Y-96564472D01*
X49395733Y-96564473D01*
X49518738Y-96646662D01*
X49623338Y-96751262D01*
X49623340Y-96751265D01*
X49705528Y-96874268D01*
X49762140Y-97010941D01*
X49791000Y-97156033D01*
X49791000Y-97303967D01*
X49762140Y-97449059D01*
X49705528Y-97585732D01*
X49705527Y-97585733D01*
X49623338Y-97708738D01*
X49518738Y-97813338D01*
X49518735Y-97813340D01*
X49395732Y-97895528D01*
X49259059Y-97952140D01*
X49172004Y-97969456D01*
X49113969Y-97981000D01*
X48966031Y-97981000D01*
X48907996Y-97969456D01*
X48820941Y-97952140D01*
X48684268Y-97895528D01*
X48561265Y-97813340D01*
X48561262Y-97813338D01*
X48456662Y-97708738D01*
X48374473Y-97585733D01*
X48374472Y-97585732D01*
X48317860Y-97449059D01*
X48289000Y-97303967D01*
X48289000Y-97156033D01*
X48317860Y-97010941D01*
X48374472Y-96874268D01*
X48456660Y-96751265D01*
X48456662Y-96751262D01*
X48561262Y-96646662D01*
X48684267Y-96564473D01*
X48684268Y-96564472D01*
X48820941Y-96507860D01*
X48907996Y-96490544D01*
X48966031Y-96479000D01*
X49113969Y-96479000D01*
X49172004Y-96490544D01*
X49172004Y-96490544D01*
G37*
G36*
X46632004Y-95220544D02*
X46719059Y-95237860D01*
X46855732Y-95294472D01*
X46855733Y-95294473D01*
X46978738Y-95376662D01*
X47083338Y-95481262D01*
X47083340Y-95481265D01*
X47165528Y-95604268D01*
X47222140Y-95740941D01*
X47251000Y-95886033D01*
X47251000Y-96033967D01*
X47222140Y-96179059D01*
X47165528Y-96315732D01*
X47165527Y-96315733D01*
X47083338Y-96438738D01*
X46978738Y-96543338D01*
X46978735Y-96543340D01*
X46855732Y-96625528D01*
X46719059Y-96682140D01*
X46632004Y-96699456D01*
X46573969Y-96711000D01*
X46426031Y-96711000D01*
X46367996Y-96699456D01*
X46280941Y-96682140D01*
X46144268Y-96625528D01*
X46021265Y-96543340D01*
X46021262Y-96543338D01*
X45916662Y-96438738D01*
X45834473Y-96315733D01*
X45834472Y-96315732D01*
X45777860Y-96179059D01*
X45749000Y-96033967D01*
X45749000Y-95886033D01*
X45777860Y-95740941D01*
X45834472Y-95604268D01*
X45916660Y-95481265D01*
X45916662Y-95481262D01*
X46021262Y-95376662D01*
X46144267Y-95294473D01*
X46144268Y-95294472D01*
X46280941Y-95237860D01*
X46367996Y-95220544D01*
X46426031Y-95209000D01*
X46573969Y-95209000D01*
X46632004Y-95220544D01*
X46632004Y-95220544D01*
G37*
G36*
X49172004Y-93950544D02*
X49259059Y-93967860D01*
X49395732Y-94024472D01*
X49395733Y-94024473D01*
X49518738Y-94106662D01*
X49623338Y-94211262D01*
X49623340Y-94211265D01*
X49705528Y-94334268D01*
X49762140Y-94470941D01*
X49791000Y-94616033D01*
X49791000Y-94763967D01*
X49762140Y-94909059D01*
X49705528Y-95045732D01*
X49705527Y-95045733D01*
X49623338Y-95168738D01*
X49518738Y-95273338D01*
X49518735Y-95273340D01*
X49395732Y-95355528D01*
X49259059Y-95412140D01*
X49172004Y-95429456D01*
X49113969Y-95441000D01*
X48966031Y-95441000D01*
X48907996Y-95429456D01*
X48820941Y-95412140D01*
X48684268Y-95355528D01*
X48561265Y-95273340D01*
X48561262Y-95273338D01*
X48456662Y-95168738D01*
X48374473Y-95045733D01*
X48374472Y-95045732D01*
X48317860Y-94909059D01*
X48289000Y-94763967D01*
X48289000Y-94616033D01*
X48317860Y-94470941D01*
X48374472Y-94334268D01*
X48456660Y-94211265D01*
X48456662Y-94211262D01*
X48561262Y-94106662D01*
X48684267Y-94024473D01*
X48684268Y-94024472D01*
X48820941Y-93967860D01*
X48907996Y-93950544D01*
X48966031Y-93939000D01*
X49113969Y-93939000D01*
X49172004Y-93950544D01*
X49172004Y-93950544D01*
G37*
G36*
X46632004Y-92680544D02*
X46719059Y-92697860D01*
X46855732Y-92754472D01*
X46855733Y-92754473D01*
X46978738Y-92836662D01*
X47083338Y-92941262D01*
X47083340Y-92941265D01*
X47165528Y-93064268D01*
X47222140Y-93200941D01*
X47251000Y-93346033D01*
X47251000Y-93493967D01*
X47222140Y-93639059D01*
X47165528Y-93775732D01*
X47165527Y-93775733D01*
X47083338Y-93898738D01*
X46978738Y-94003338D01*
X46978735Y-94003340D01*
X46855732Y-94085528D01*
X46719059Y-94142140D01*
X46632004Y-94159456D01*
X46573969Y-94171000D01*
X46426031Y-94171000D01*
X46367996Y-94159456D01*
X46280941Y-94142140D01*
X46144268Y-94085528D01*
X46021265Y-94003340D01*
X46021262Y-94003338D01*
X45916662Y-93898738D01*
X45834473Y-93775733D01*
X45834472Y-93775732D01*
X45777860Y-93639059D01*
X45749000Y-93493967D01*
X45749000Y-93346033D01*
X45777860Y-93200941D01*
X45834472Y-93064268D01*
X45916660Y-92941265D01*
X45916662Y-92941262D01*
X46021262Y-92836662D01*
X46144267Y-92754473D01*
X46144268Y-92754472D01*
X46280941Y-92697860D01*
X46367996Y-92680544D01*
X46426031Y-92669000D01*
X46573969Y-92669000D01*
X46632004Y-92680544D01*
X46632004Y-92680544D01*
G37*
G36*
X49172004Y-91410544D02*
X49259059Y-91427860D01*
X49395732Y-91484472D01*
X49395733Y-91484473D01*
X49518738Y-91566662D01*
X49623338Y-91671262D01*
X49623340Y-91671265D01*
X49705528Y-91794268D01*
X49762140Y-91930941D01*
X49791000Y-92076033D01*
X49791000Y-92223967D01*
X49762140Y-92369059D01*
X49705528Y-92505732D01*
X49705527Y-92505733D01*
X49623338Y-92628738D01*
X49518738Y-92733338D01*
X49518735Y-92733340D01*
X49395732Y-92815528D01*
X49259059Y-92872140D01*
X49172004Y-92889456D01*
X49113969Y-92901000D01*
X48966031Y-92901000D01*
X48907996Y-92889456D01*
X48820941Y-92872140D01*
X48684268Y-92815528D01*
X48561265Y-92733340D01*
X48561262Y-92733338D01*
X48456662Y-92628738D01*
X48374473Y-92505733D01*
X48374472Y-92505732D01*
X48317860Y-92369059D01*
X48289000Y-92223967D01*
X48289000Y-92076033D01*
X48317860Y-91930941D01*
X48374472Y-91794268D01*
X48456660Y-91671265D01*
X48456662Y-91671262D01*
X48561262Y-91566662D01*
X48684267Y-91484473D01*
X48684268Y-91484472D01*
X48820941Y-91427860D01*
X48907996Y-91410544D01*
X48966031Y-91399000D01*
X49113969Y-91399000D01*
X49172004Y-91410544D01*
X49172004Y-91410544D01*
G37*
G36*
X111806565Y-88989389D02*
X111997834Y-89068615D01*
X112169976Y-89183637D01*
X112316363Y-89330024D01*
X112431385Y-89502166D01*
X112510611Y-89693435D01*
X112551000Y-89896484D01*
X112551000Y-90103516D01*
X112510611Y-90306565D01*
X112431385Y-90497834D01*
X112316363Y-90669976D01*
X112169976Y-90816363D01*
X111997834Y-90931385D01*
X111806565Y-91010611D01*
X111603516Y-91051000D01*
X111396484Y-91051000D01*
X111193435Y-91010611D01*
X111002166Y-90931385D01*
X110830024Y-90816363D01*
X110683637Y-90669976D01*
X110568615Y-90497834D01*
X110489389Y-90306565D01*
X110449000Y-90103516D01*
X110449000Y-89896484D01*
X110489389Y-89693435D01*
X110568615Y-89502166D01*
X110683637Y-89330024D01*
X110830024Y-89183637D01*
X111002166Y-89068615D01*
X111193435Y-88989389D01*
X111396484Y-88949000D01*
X111603516Y-88949000D01*
X111806565Y-88989389D01*
X111806565Y-88989389D01*
G37*
G36*
X116806565Y-88989389D02*
X116997834Y-89068615D01*
X117169976Y-89183637D01*
X117316363Y-89330024D01*
X117431385Y-89502166D01*
X117510611Y-89693435D01*
X117551000Y-89896484D01*
X117551000Y-90103516D01*
X117510611Y-90306565D01*
X117431385Y-90497834D01*
X117316363Y-90669976D01*
X117169976Y-90816363D01*
X116997834Y-90931385D01*
X116806565Y-91010611D01*
X116603516Y-91051000D01*
X116396484Y-91051000D01*
X116193435Y-91010611D01*
X116002166Y-90931385D01*
X115830024Y-90816363D01*
X115683637Y-90669976D01*
X115568615Y-90497834D01*
X115489389Y-90306565D01*
X115449000Y-90103516D01*
X115449000Y-89896484D01*
X115489389Y-89693435D01*
X115568615Y-89502166D01*
X115683637Y-89330024D01*
X115830024Y-89183637D01*
X116002166Y-89068615D01*
X116193435Y-88989389D01*
X116396484Y-88949000D01*
X116603516Y-88949000D01*
X116806565Y-88989389D01*
X116806565Y-88989389D01*
G37*
G36*
X88889941Y-77566248D02*
X88889943Y-77566249D01*
X88889944Y-77566249D01*
X89445190Y-77796239D01*
X89445191Y-77796240D01*
X89944902Y-78130136D01*
X90369864Y-78555098D01*
X90369866Y-78555101D01*
X90703761Y-79054810D01*
X90933751Y-79610056D01*
X91051000Y-80199503D01*
X91051000Y-80800497D01*
X90933751Y-81389944D01*
X90703761Y-81945190D01*
X90703760Y-81945191D01*
X90369864Y-82444902D01*
X89944902Y-82869864D01*
X89944899Y-82869866D01*
X89445190Y-83203761D01*
X88889944Y-83433751D01*
X88889943Y-83433751D01*
X88889941Y-83433752D01*
X88300499Y-83551000D01*
X87699501Y-83551000D01*
X87110059Y-83433752D01*
X87110057Y-83433751D01*
X87110056Y-83433751D01*
X86554810Y-83203761D01*
X86055101Y-82869866D01*
X86055098Y-82869864D01*
X85630136Y-82444902D01*
X85296240Y-81945191D01*
X85296239Y-81945190D01*
X85066249Y-81389944D01*
X84949000Y-80800497D01*
X84949000Y-80199503D01*
X85066249Y-79610056D01*
X85296239Y-79054810D01*
X85630134Y-78555101D01*
X85630136Y-78555098D01*
X86055098Y-78130136D01*
X86554809Y-77796240D01*
X86554810Y-77796239D01*
X87110056Y-77566249D01*
X87110057Y-77566249D01*
X87110059Y-77566248D01*
X87699501Y-77449000D01*
X88300499Y-77449000D01*
X88889941Y-77566248D01*
X88889941Y-77566248D01*
G37*
G36*
X57689941Y-77566248D02*
X57689943Y-77566249D01*
X57689944Y-77566249D01*
X58245190Y-77796239D01*
X58245191Y-77796240D01*
X58744902Y-78130136D01*
X59169864Y-78555098D01*
X59169866Y-78555101D01*
X59503761Y-79054810D01*
X59733751Y-79610056D01*
X59851000Y-80199503D01*
X59851000Y-80800497D01*
X59733751Y-81389944D01*
X59503761Y-81945190D01*
X59503760Y-81945191D01*
X59169864Y-82444902D01*
X58744902Y-82869864D01*
X58744899Y-82869866D01*
X58245190Y-83203761D01*
X57689944Y-83433751D01*
X57689943Y-83433751D01*
X57689941Y-83433752D01*
X57100499Y-83551000D01*
X56499501Y-83551000D01*
X55910059Y-83433752D01*
X55910057Y-83433751D01*
X55910056Y-83433751D01*
X55354810Y-83203761D01*
X54855101Y-82869866D01*
X54855098Y-82869864D01*
X54430136Y-82444902D01*
X54096240Y-81945191D01*
X54096239Y-81945190D01*
X53866249Y-81389944D01*
X53749000Y-80800497D01*
X53749000Y-80199503D01*
X53866249Y-79610056D01*
X54096239Y-79054810D01*
X54430134Y-78555101D01*
X54430136Y-78555098D01*
X54855098Y-78130136D01*
X55354809Y-77796240D01*
X55354810Y-77796239D01*
X55910056Y-77566249D01*
X55910057Y-77566249D01*
X55910059Y-77566248D01*
X56499501Y-77449000D01*
X57100499Y-77449000D01*
X57689941Y-77566248D01*
X57689941Y-77566248D01*
G37*
G36*
X100291981Y-74337468D02*
X100474150Y-74412925D01*
X100638103Y-74522475D01*
X100777525Y-74661897D01*
X100887075Y-74825850D01*
X100962532Y-75008019D01*
X101001000Y-75201410D01*
X101001000Y-75398590D01*
X100962532Y-75591981D01*
X100887075Y-75774150D01*
X100777525Y-75938103D01*
X100638103Y-76077525D01*
X100474150Y-76187075D01*
X100291981Y-76262532D01*
X100098590Y-76301000D01*
X99901410Y-76301000D01*
X99708019Y-76262532D01*
X99525850Y-76187075D01*
X99361897Y-76077525D01*
X99222475Y-75938103D01*
X99112925Y-75774150D01*
X99037468Y-75591981D01*
X98999000Y-75398590D01*
X98999000Y-75201410D01*
X99037468Y-75008019D01*
X99112925Y-74825850D01*
X99222475Y-74661897D01*
X99361897Y-74522475D01*
X99525850Y-74412925D01*
X99708019Y-74337468D01*
X99901410Y-74299000D01*
X100098590Y-74299000D01*
X100291981Y-74337468D01*
X100291981Y-74337468D01*
G37*
G36*
X96191981Y-74037468D02*
X96374150Y-74112925D01*
X96538103Y-74222475D01*
X96677525Y-74361897D01*
X96787075Y-74525850D01*
X96862532Y-74708019D01*
X96901000Y-74901410D01*
X96901000Y-75098590D01*
X96862532Y-75291981D01*
X96787075Y-75474150D01*
X96677525Y-75638103D01*
X96538103Y-75777525D01*
X96374150Y-75887075D01*
X96191981Y-75962532D01*
X95998590Y-76001000D01*
X95801410Y-76001000D01*
X95608019Y-75962532D01*
X95425850Y-75887075D01*
X95261897Y-75777525D01*
X95122475Y-75638103D01*
X95012925Y-75474150D01*
X94937468Y-75291981D01*
X94899000Y-75098590D01*
X94899000Y-74901410D01*
X94937468Y-74708019D01*
X95012925Y-74525850D01*
X95122475Y-74361897D01*
X95261897Y-74222475D01*
X95425850Y-74112925D01*
X95608019Y-74037468D01*
X95801410Y-73999000D01*
X95998590Y-73999000D01*
X96191981Y-74037468D01*
X96191981Y-74037468D01*
G37*
G36*
X62118453Y-71557529D02*
X62195821Y-71580998D01*
X62267111Y-71619103D01*
X62329607Y-71670393D01*
X62380897Y-71732889D01*
X62419002Y-71804179D01*
X62442471Y-71881547D01*
X62451000Y-71968141D01*
X62451000Y-74431859D01*
X62442471Y-74518453D01*
X62419002Y-74595821D01*
X62380897Y-74667111D01*
X62329607Y-74729607D01*
X62267111Y-74780897D01*
X62195821Y-74819002D01*
X62118453Y-74842471D01*
X62031859Y-74851000D01*
X60968141Y-74851000D01*
X60881547Y-74842471D01*
X60804179Y-74819002D01*
X60732889Y-74780897D01*
X60670393Y-74729607D01*
X60619103Y-74667111D01*
X60580998Y-74595821D01*
X60557529Y-74518453D01*
X60549000Y-74431859D01*
X60549000Y-71968141D01*
X60557529Y-71881547D01*
X60580998Y-71804179D01*
X60619103Y-71732889D01*
X60670393Y-71670393D01*
X60732889Y-71619103D01*
X60804179Y-71580998D01*
X60881547Y-71557529D01*
X60968141Y-71549000D01*
X62031859Y-71549000D01*
X62118453Y-71557529D01*
X62118453Y-71557529D01*
G37*
G36*
X90118453Y-71557529D02*
X90195821Y-71580998D01*
X90267111Y-71619103D01*
X90329607Y-71670393D01*
X90380897Y-71732889D01*
X90419002Y-71804179D01*
X90442471Y-71881547D01*
X90451000Y-71968141D01*
X90451000Y-74431859D01*
X90442471Y-74518453D01*
X90419002Y-74595821D01*
X90380897Y-74667111D01*
X90329607Y-74729607D01*
X90267111Y-74780897D01*
X90195821Y-74819002D01*
X90118453Y-74842471D01*
X90031859Y-74851000D01*
X88968141Y-74851000D01*
X88881547Y-74842471D01*
X88804179Y-74819002D01*
X88732889Y-74780897D01*
X88670393Y-74729607D01*
X88619103Y-74667111D01*
X88580998Y-74595821D01*
X88557529Y-74518453D01*
X88549000Y-74431859D01*
X88549000Y-71968141D01*
X88557529Y-71881547D01*
X88580998Y-71804179D01*
X88619103Y-71732889D01*
X88670393Y-71670393D01*
X88732889Y-71619103D01*
X88804179Y-71580998D01*
X88881547Y-71557529D01*
X88968141Y-71549000D01*
X90031859Y-71549000D01*
X90118453Y-71557529D01*
X90118453Y-71557529D01*
G37*
G36*
X69118453Y-71557529D02*
X69195821Y-71580998D01*
X69267111Y-71619103D01*
X69329607Y-71670393D01*
X69380897Y-71732889D01*
X69419002Y-71804179D01*
X69442471Y-71881547D01*
X69451000Y-71968141D01*
X69451000Y-74431859D01*
X69442471Y-74518453D01*
X69419002Y-74595821D01*
X69380897Y-74667111D01*
X69329607Y-74729607D01*
X69267111Y-74780897D01*
X69195821Y-74819002D01*
X69118453Y-74842471D01*
X69031859Y-74851000D01*
X67968141Y-74851000D01*
X67881547Y-74842471D01*
X67804179Y-74819002D01*
X67732889Y-74780897D01*
X67670393Y-74729607D01*
X67619103Y-74667111D01*
X67580998Y-74595821D01*
X67557529Y-74518453D01*
X67549000Y-74431859D01*
X67549000Y-71968141D01*
X67557529Y-71881547D01*
X67580998Y-71804179D01*
X67619103Y-71732889D01*
X67670393Y-71670393D01*
X67732889Y-71619103D01*
X67804179Y-71580998D01*
X67881547Y-71557529D01*
X67968141Y-71549000D01*
X69031859Y-71549000D01*
X69118453Y-71557529D01*
X69118453Y-71557529D01*
G37*
G36*
X76118453Y-71557529D02*
X76195821Y-71580998D01*
X76267111Y-71619103D01*
X76329607Y-71670393D01*
X76380897Y-71732889D01*
X76419002Y-71804179D01*
X76442471Y-71881547D01*
X76451000Y-71968141D01*
X76451000Y-74431859D01*
X76442471Y-74518453D01*
X76419002Y-74595821D01*
X76380897Y-74667111D01*
X76329607Y-74729607D01*
X76267111Y-74780897D01*
X76195821Y-74819002D01*
X76118453Y-74842471D01*
X76031859Y-74851000D01*
X74968141Y-74851000D01*
X74881547Y-74842471D01*
X74804179Y-74819002D01*
X74732889Y-74780897D01*
X74670393Y-74729607D01*
X74619103Y-74667111D01*
X74580998Y-74595821D01*
X74557529Y-74518453D01*
X74549000Y-74431859D01*
X74549000Y-71968141D01*
X74557529Y-71881547D01*
X74580998Y-71804179D01*
X74619103Y-71732889D01*
X74670393Y-71670393D01*
X74732889Y-71619103D01*
X74804179Y-71580998D01*
X74881547Y-71557529D01*
X74968141Y-71549000D01*
X76031859Y-71549000D01*
X76118453Y-71557529D01*
X76118453Y-71557529D01*
G37*
G36*
X41118453Y-71557529D02*
X41195821Y-71580998D01*
X41267111Y-71619103D01*
X41329607Y-71670393D01*
X41380897Y-71732889D01*
X41419002Y-71804179D01*
X41442471Y-71881547D01*
X41451000Y-71968141D01*
X41451000Y-74431859D01*
X41442471Y-74518453D01*
X41419002Y-74595821D01*
X41380897Y-74667111D01*
X41329607Y-74729607D01*
X41267111Y-74780897D01*
X41195821Y-74819002D01*
X41118453Y-74842471D01*
X41031859Y-74851000D01*
X39968141Y-74851000D01*
X39881547Y-74842471D01*
X39804179Y-74819002D01*
X39732889Y-74780897D01*
X39670393Y-74729607D01*
X39619103Y-74667111D01*
X39580998Y-74595821D01*
X39557529Y-74518453D01*
X39549000Y-74431859D01*
X39549000Y-71968141D01*
X39557529Y-71881547D01*
X39580998Y-71804179D01*
X39619103Y-71732889D01*
X39670393Y-71670393D01*
X39732889Y-71619103D01*
X39804179Y-71580998D01*
X39881547Y-71557529D01*
X39968141Y-71549000D01*
X41031859Y-71549000D01*
X41118453Y-71557529D01*
X41118453Y-71557529D01*
G37*
G36*
X48118453Y-71557529D02*
X48195821Y-71580998D01*
X48267111Y-71619103D01*
X48329607Y-71670393D01*
X48380897Y-71732889D01*
X48419002Y-71804179D01*
X48442471Y-71881547D01*
X48451000Y-71968141D01*
X48451000Y-74431859D01*
X48442471Y-74518453D01*
X48419002Y-74595821D01*
X48380897Y-74667111D01*
X48329607Y-74729607D01*
X48267111Y-74780897D01*
X48195821Y-74819002D01*
X48118453Y-74842471D01*
X48031859Y-74851000D01*
X46968141Y-74851000D01*
X46881547Y-74842471D01*
X46804179Y-74819002D01*
X46732889Y-74780897D01*
X46670393Y-74729607D01*
X46619103Y-74667111D01*
X46580998Y-74595821D01*
X46557529Y-74518453D01*
X46549000Y-74431859D01*
X46549000Y-71968141D01*
X46557529Y-71881547D01*
X46580998Y-71804179D01*
X46619103Y-71732889D01*
X46670393Y-71670393D01*
X46732889Y-71619103D01*
X46804179Y-71580998D01*
X46881547Y-71557529D01*
X46968141Y-71549000D01*
X48031859Y-71549000D01*
X48118453Y-71557529D01*
X48118453Y-71557529D01*
G37*
G36*
X55118453Y-71557529D02*
X55195821Y-71580998D01*
X55267111Y-71619103D01*
X55329607Y-71670393D01*
X55380897Y-71732889D01*
X55419002Y-71804179D01*
X55442471Y-71881547D01*
X55451000Y-71968141D01*
X55451000Y-74431859D01*
X55442471Y-74518453D01*
X55419002Y-74595821D01*
X55380897Y-74667111D01*
X55329607Y-74729607D01*
X55267111Y-74780897D01*
X55195821Y-74819002D01*
X55118453Y-74842471D01*
X55031859Y-74851000D01*
X53968141Y-74851000D01*
X53881547Y-74842471D01*
X53804179Y-74819002D01*
X53732889Y-74780897D01*
X53670393Y-74729607D01*
X53619103Y-74667111D01*
X53580998Y-74595821D01*
X53557529Y-74518453D01*
X53549000Y-74431859D01*
X53549000Y-71968141D01*
X53557529Y-71881547D01*
X53580998Y-71804179D01*
X53619103Y-71732889D01*
X53670393Y-71670393D01*
X53732889Y-71619103D01*
X53804179Y-71580998D01*
X53881547Y-71557529D01*
X53968141Y-71549000D01*
X55031859Y-71549000D01*
X55118453Y-71557529D01*
X55118453Y-71557529D01*
G37*
G36*
X83118453Y-71557529D02*
X83195821Y-71580998D01*
X83267111Y-71619103D01*
X83329607Y-71670393D01*
X83380897Y-71732889D01*
X83419002Y-71804179D01*
X83442471Y-71881547D01*
X83451000Y-71968141D01*
X83451000Y-74431859D01*
X83442471Y-74518453D01*
X83419002Y-74595821D01*
X83380897Y-74667111D01*
X83329607Y-74729607D01*
X83267111Y-74780897D01*
X83195821Y-74819002D01*
X83118453Y-74842471D01*
X83031859Y-74851000D01*
X81968141Y-74851000D01*
X81881547Y-74842471D01*
X81804179Y-74819002D01*
X81732889Y-74780897D01*
X81670393Y-74729607D01*
X81619103Y-74667111D01*
X81580998Y-74595821D01*
X81557529Y-74518453D01*
X81549000Y-74431859D01*
X81549000Y-71968141D01*
X81557529Y-71881547D01*
X81580998Y-71804179D01*
X81619103Y-71732889D01*
X81670393Y-71670393D01*
X81732889Y-71619103D01*
X81804179Y-71580998D01*
X81881547Y-71557529D01*
X81968141Y-71549000D01*
X83031859Y-71549000D01*
X83118453Y-71557529D01*
X83118453Y-71557529D01*
G37*
G36*
X102791981Y-72037468D02*
X102974150Y-72112925D01*
X103138103Y-72222475D01*
X103277525Y-72361897D01*
X103387075Y-72525850D01*
X103462532Y-72708019D01*
X103501000Y-72901410D01*
X103501000Y-73098590D01*
X103462532Y-73291981D01*
X103387075Y-73474150D01*
X103277525Y-73638103D01*
X103138103Y-73777525D01*
X102974150Y-73887075D01*
X102791981Y-73962532D01*
X102598590Y-74001000D01*
X102401410Y-74001000D01*
X102208019Y-73962532D01*
X102025850Y-73887075D01*
X101861897Y-73777525D01*
X101722475Y-73638103D01*
X101612925Y-73474150D01*
X101537468Y-73291981D01*
X101499000Y-73098590D01*
X101499000Y-72901410D01*
X101537468Y-72708019D01*
X101612925Y-72525850D01*
X101722475Y-72361897D01*
X101861897Y-72222475D01*
X102025850Y-72112925D01*
X102208019Y-72037468D01*
X102401410Y-71999000D01*
X102598590Y-71999000D01*
X102791981Y-72037468D01*
X102791981Y-72037468D01*
G37*
G36*
X59278210Y-68458489D02*
X59364949Y-68484802D01*
X59444891Y-68527532D01*
X59514963Y-68585037D01*
X59572468Y-68655109D01*
X59615198Y-68735051D01*
X59641511Y-68821790D01*
X59651000Y-68918140D01*
X59651000Y-70081860D01*
X59641511Y-70178210D01*
X59615198Y-70264949D01*
X59572468Y-70344891D01*
X59514963Y-70414963D01*
X59444891Y-70472468D01*
X59364949Y-70515198D01*
X59278210Y-70541511D01*
X59181860Y-70551000D01*
X56818140Y-70551000D01*
X56721790Y-70541511D01*
X56635051Y-70515198D01*
X56555109Y-70472468D01*
X56485037Y-70414963D01*
X56427532Y-70344891D01*
X56384802Y-70264949D01*
X56358489Y-70178210D01*
X56349000Y-70081860D01*
X56349000Y-68918140D01*
X56358489Y-68821790D01*
X56384802Y-68735051D01*
X56427532Y-68655109D01*
X56485037Y-68585037D01*
X56555109Y-68527532D01*
X56635051Y-68484802D01*
X56721790Y-68458489D01*
X56818140Y-68449000D01*
X59181860Y-68449000D01*
X59278210Y-68458489D01*
X59278210Y-68458489D01*
G37*
G36*
X87278210Y-68458489D02*
X87364949Y-68484802D01*
X87444891Y-68527532D01*
X87514963Y-68585037D01*
X87572468Y-68655109D01*
X87615198Y-68735051D01*
X87641511Y-68821790D01*
X87651000Y-68918140D01*
X87651000Y-70081860D01*
X87641511Y-70178210D01*
X87615198Y-70264949D01*
X87572468Y-70344891D01*
X87514963Y-70414963D01*
X87444891Y-70472468D01*
X87364949Y-70515198D01*
X87278210Y-70541511D01*
X87181860Y-70551000D01*
X84818140Y-70551000D01*
X84721790Y-70541511D01*
X84635051Y-70515198D01*
X84555109Y-70472468D01*
X84485037Y-70414963D01*
X84427532Y-70344891D01*
X84384802Y-70264949D01*
X84358489Y-70178210D01*
X84349000Y-70081860D01*
X84349000Y-68918140D01*
X84358489Y-68821790D01*
X84384802Y-68735051D01*
X84427532Y-68655109D01*
X84485037Y-68585037D01*
X84555109Y-68527532D01*
X84635051Y-68484802D01*
X84721790Y-68458489D01*
X84818140Y-68449000D01*
X87181860Y-68449000D01*
X87278210Y-68458489D01*
X87278210Y-68458489D01*
G37*
G36*
X45278210Y-68458489D02*
X45364949Y-68484802D01*
X45444891Y-68527532D01*
X45514963Y-68585037D01*
X45572468Y-68655109D01*
X45615198Y-68735051D01*
X45641511Y-68821790D01*
X45651000Y-68918140D01*
X45651000Y-70081860D01*
X45641511Y-70178210D01*
X45615198Y-70264949D01*
X45572468Y-70344891D01*
X45514963Y-70414963D01*
X45444891Y-70472468D01*
X45364949Y-70515198D01*
X45278210Y-70541511D01*
X45181860Y-70551000D01*
X42818140Y-70551000D01*
X42721790Y-70541511D01*
X42635051Y-70515198D01*
X42555109Y-70472468D01*
X42485037Y-70414963D01*
X42427532Y-70344891D01*
X42384802Y-70264949D01*
X42358489Y-70178210D01*
X42349000Y-70081860D01*
X42349000Y-68918140D01*
X42358489Y-68821790D01*
X42384802Y-68735051D01*
X42427532Y-68655109D01*
X42485037Y-68585037D01*
X42555109Y-68527532D01*
X42635051Y-68484802D01*
X42721790Y-68458489D01*
X42818140Y-68449000D01*
X45181860Y-68449000D01*
X45278210Y-68458489D01*
X45278210Y-68458489D01*
G37*
G36*
X73278210Y-68458489D02*
X73364949Y-68484802D01*
X73444891Y-68527532D01*
X73514963Y-68585037D01*
X73572468Y-68655109D01*
X73615198Y-68735051D01*
X73641511Y-68821790D01*
X73651000Y-68918140D01*
X73651000Y-70081860D01*
X73641511Y-70178210D01*
X73615198Y-70264949D01*
X73572468Y-70344891D01*
X73514963Y-70414963D01*
X73444891Y-70472468D01*
X73364949Y-70515198D01*
X73278210Y-70541511D01*
X73181860Y-70551000D01*
X70818140Y-70551000D01*
X70721790Y-70541511D01*
X70635051Y-70515198D01*
X70555109Y-70472468D01*
X70485037Y-70414963D01*
X70427532Y-70344891D01*
X70384802Y-70264949D01*
X70358489Y-70178210D01*
X70349000Y-70081860D01*
X70349000Y-68918140D01*
X70358489Y-68821790D01*
X70384802Y-68735051D01*
X70427532Y-68655109D01*
X70485037Y-68585037D01*
X70555109Y-68527532D01*
X70635051Y-68484802D01*
X70721790Y-68458489D01*
X70818140Y-68449000D01*
X73181860Y-68449000D01*
X73278210Y-68458489D01*
X73278210Y-68458489D01*
G37*
G36*
X97248228Y-68681703D02*
X97403100Y-68745853D01*
X97542481Y-68838985D01*
X97661015Y-68957519D01*
X97754147Y-69096900D01*
X97818297Y-69251772D01*
X97851000Y-69416184D01*
X97851000Y-69583816D01*
X97818297Y-69748228D01*
X97754147Y-69903100D01*
X97661015Y-70042481D01*
X97542481Y-70161015D01*
X97403100Y-70254147D01*
X97248228Y-70318297D01*
X97083816Y-70351000D01*
X96916184Y-70351000D01*
X96751772Y-70318297D01*
X96596900Y-70254147D01*
X96457519Y-70161015D01*
X96338985Y-70042481D01*
X96245853Y-69903100D01*
X96181703Y-69748228D01*
X96149000Y-69583816D01*
X96149000Y-69416184D01*
X96181703Y-69251772D01*
X96245853Y-69096900D01*
X96338985Y-68957519D01*
X96457519Y-68838985D01*
X96596900Y-68745853D01*
X96751772Y-68681703D01*
X96916184Y-68649000D01*
X97083816Y-68649000D01*
X97248228Y-68681703D01*
X97248228Y-68681703D01*
G37*
G36*
X102248228Y-68681703D02*
X102403100Y-68745853D01*
X102542481Y-68838985D01*
X102661015Y-68957519D01*
X102754147Y-69096900D01*
X102818297Y-69251772D01*
X102851000Y-69416184D01*
X102851000Y-69583816D01*
X102818297Y-69748228D01*
X102754147Y-69903100D01*
X102661015Y-70042481D01*
X102542481Y-70161015D01*
X102403100Y-70254147D01*
X102248228Y-70318297D01*
X102083816Y-70351000D01*
X101916184Y-70351000D01*
X101751772Y-70318297D01*
X101596900Y-70254147D01*
X101457519Y-70161015D01*
X101338985Y-70042481D01*
X101245853Y-69903100D01*
X101181703Y-69748228D01*
X101149000Y-69583816D01*
X101149000Y-69416184D01*
X101181703Y-69251772D01*
X101245853Y-69096900D01*
X101338985Y-68957519D01*
X101457519Y-68838985D01*
X101596900Y-68745853D01*
X101751772Y-68681703D01*
X101916184Y-68649000D01*
X102083816Y-68649000D01*
X102248228Y-68681703D01*
X102248228Y-68681703D01*
G37*
M02*
